<?xml version="1.0" encoding="utf-8"?>
<!-- Generator: Adobe Illustrator 26.2.1, SVG Export Plug-In . SVG Version: 6.00 Build 0)  -->
<svg version="1.1" id="Layer_1" xmlns="http://www.w3.org/2000/svg" xmlns:xlink="http://www.w3.org/1999/xlink" x="0px" y="0px"
	 viewBox="0 0 2783.67 2709.83" style="enable-background:new 0 0 2783.67 2709.83;" xml:space="preserve">
<style type="text/css">
	.st0{fill:#28B9E5;}
	.st1{fill:#650000;}
	.st2{fill:#32AEF1;}
	.st3{opacity:0.2;}
	.st4{opacity:0.7;}
	.st5{fill:#FFFFFF;}
	.st6{opacity:0.3;}
	.st7{fill:#D3A17F;}
	.st8{fill:#FEFAFB;}
	.st9{opacity:0.5;}
	.st10{fill:#967660;}
	.st11{fill:#6B184E;}
	.st12{fill:#FF55CF;}
	.st13{fill:#8655FF;}
	.st14{opacity:0.35;}
	.st15{fill:#371A45;}
	.st16{fill:#220F2D;}
	.st17{fill:#4097FF;}
	.st18{fill:#FFDA22;}
	.st19{fill:#F92323;}
	.st20{fill:#102770;}
	.st21{fill:#F9744B;}
	.st22{fill:#FF50B8;}
	.st23{fill:#000072;}
	.st24{fill:#FFA1A8;}
	.st25{fill:#F27E80;}
	.st26{fill:#FA508E;}
	.st27{opacity:0.4;}
	.st28{fill:#FFA23A;}
	.st29{fill:#FF52CE;}
	.st30{fill:#FCDC18;}
	.st31{fill:#37AAE3;}
	.st32{fill:#FFD2D2;}
	.st33{fill:#FFE6E6;}
	.st34{fill:#00C3FF;}
	.st35{fill:#FEF26B;}
	.st36{fill:#FD6CCB;}
	.st37{fill:#39D5FF;}
	.st38{fill:#B5E5FB;}
	.st39{fill:#F694AB;}
	.st40{fill:#FDC1E5;}
	.st41{fill:#FDD800;}
	.st42{opacity:0.6;}
	.st43{fill:#FFEBF6;}
	.st44{fill:#0DBBFF;}
	.st45{fill:#FF4E4A;}
	.st46{fill:#FF8048;}
	.st47{fill:#FC7E81;}
	.st48{fill:#474747;}
	.st49{fill:#FF1D74;}
	.st50{display:none;}
	.st51{display:inline;}
	.st52{fill:#0F2675;}
	.st53{fill:#FC7E82;}
	.st54{fill:#FF8080;}
	.st55{fill:#F883A0;}
	.st56{fill:#D5D4D6;}
	.st57{fill:#37DBFF;}
	.st58{fill:#1D1D1D;}
	.st59{fill:#D66B09;}
	.st60{fill:#22A7F0;}
	.st61{fill:#111A28;}
	.st62{fill:#81B1FF;}
</style>
<g>
	<g>
		<g>
			<g>
				<path class="st0" d="M2428.76,1948.81c0,0,217.29,129.6,283.06,73.23c65.77-56.38-41.11-131.55-27.01-182.05
					c14.09-50.5,128.02-178.53,61.08-234.9s-171.48,7.05-171.48-83.39s-71.98-115.36-104.53-72.82
					c-60.73,79.36-126.84,247.31-126.84,247.31L2428.76,1948.81z"/>
			</g>
			<g>
				<path class="st1" d="M2663.92,2038.73c-87.93,0-229.13-83.48-236.41-87.82l2.5-4.19c2.16,1.28,216.51,128.07,280.22,73.47
					c38.09-32.65,15.97-71.85-5.42-109.75c-14.52-25.73-28.23-50.04-22.36-71.1c4.06-14.54,15.93-34.88,29.68-58.43
					c35.06-60.05,78.68-134.8,32.18-173.96c-28.37-23.89-63.84-25.81-95.14-27.5c-41.43-2.24-77.21-4.17-77.21-57.75
					c0-53.02-24.51-80.21-47.46-87.98c-19.57-6.61-39.77-0.25-52.7,16.65c-59.83,78.19-125.85,245.05-126.51,246.72l-4.54-1.79
					c0.66-1.68,66.94-169.17,127.17-247.9c14.24-18.61,36.52-25.62,58.14-18.3c24.54,8.31,50.77,37,50.77,92.6
					c0,48.96,30.45,50.61,72.6,52.89c32.06,1.73,68.4,3.7,98.02,28.64c49.65,41.81,2.97,121.77-31.11,180.15
					c-13.57,23.26-25.3,43.34-29.19,57.28c-5.34,19.12,7.9,42.57,21.9,67.4c21.32,37.78,45.48,80.6,4.35,115.85
					C2701.13,2034.42,2683.89,2038.73,2663.92,2038.73z"/>
			</g>
		</g>
		<g>
			<path class="st2" d="M2711.84,2022.06c-18.2,15.57-47.96,16.95-81.52,10.73c-87.82-16.15-201.57-83.98-201.57-83.98
				l-85.74-252.62c0,0,41.95-106.57,89.74-190.05c12.19-21.33,24.75-41.12,37.11-57.27c32.56-42.53,104.52-17.61,104.52,72.84
				c0,90.41,104.56,27.01,171.52,83.4c66.91,56.35-47,184.37-61.11,234.88C2670.72,1890.49,2777.58,1965.66,2711.84,2022.06z"/>
		</g>
		<g class="st3">
			<path class="st1" d="M2630.32,2032.78c-87.82-16.15-201.57-83.98-201.57-83.98l-85.74-252.62c0,0,41.95-106.57,89.74-190.05
				c22.42,11.94,40.87,40.91,40.87,86.66c0,90.45,104.52,27.05,171.48,83.4c66.95,56.39-46.96,184.41-61.07,234.92
				C2574.59,1944.96,2619.47,1989.87,2630.32,2032.78z"/>
		</g>
		<g class="st4">
			<path class="st5" d="M2711.84,2022.06c-8.27,7.1-18.95,11.23-31.31,13.07c33.85-54.06-53.6-120.47-40.74-166.47
				c14.11-50.47,128.02-178.49,61.07-234.88s-171.48,7.05-171.48-83.4c0-62.15-33.98-93.33-65.83-93c2.13-2.92,4.22-5.76,6.3-8.52
				c32.56-42.53,104.52-17.61,104.52,72.84c0,90.41,104.56,27.01,171.52,83.4c66.91,56.35-47,184.37-61.11,234.88
				C2670.72,1890.49,2777.58,1965.66,2711.84,2022.06z"/>
		</g>
		<g>
			<path class="st1" d="M2664.21,2052.57c-90.84,0-225.45-78.36-244-89.42c-7.92-4.73-10.51-14.97-5.79-22.89
				c4.72-7.92,14.98-10.51,22.89-5.79c80.05,47.71,222.41,110.24,263.65,74.89c26.31-22.55,17.1-46.45-8.56-91.92
				c-15.31-27.13-31.14-55.19-23.67-81.94c4.55-16.31,16.85-37.38,31.09-61.78c39.74-68.08,69.82-126.8,35.31-155.86
				c-24.72-20.82-56.24-22.52-86.72-24.17c-40.41-2.18-90.7-4.9-90.7-71.99c0-45.48-19.51-68.29-37.77-74.48
				c-13.81-4.67-27.57-0.26-36.8,11.81c-58.59,76.57-123.91,241.62-124.56,243.28c-3.38,8.58-13.07,12.8-21.65,9.42
				c-8.58-3.38-12.8-13.07-9.42-21.66c2.73-6.94,67.68-171.04,129.12-251.34c18.07-23.62,46.43-32.5,74.04-23.14
				c29.22,9.9,60.45,42.97,60.45,106.1c0,33.84,14.2,36.22,59.11,38.65c32.6,1.76,73.16,3.96,106.43,31.97
				c58.83,49.54,8.65,135.49-27.98,198.25c-12.53,21.47-24.37,41.75-27.77,53.92c-3.75,13.43,8.63,35.35,20.59,56.56
				c21.62,38.32,51.24,90.81,1.21,133.68C2707.86,2047.43,2687.46,2052.57,2664.21,2052.57z"/>
		</g>
		<g>
			<path class="st2" d="M527,753.9c-4.01,92.92-22,195.64-22,195.64l-204.87,170.93c0,0-240.22-2.5-277.21-78.89
				c-1-2-1.84-4.05-2.5-6.14c-26.76-82.4,103.64-90.87,117.92-141.3c14.32-50.47-16.2-219.1,70.29-232.33
				c86.53-13.19,142.67,95.42,189.84,18.24c47.13-77.22,121.55-60.94,127.15-7.68C528.12,696.21,528.25,724.56,527,753.9z"/>
		</g>
		<g class="st3">
			<path class="st1" d="M527,753.9c-4.01,92.92-22,195.64-22,195.64l-204.87,170.93c0,0-240.22-2.5-277.21-78.89
				c21,13.78,58.4,28.51,117.42,20.37c101.68-13.98,75.14-123.76,83.27-202.57c8.1-78.81,54.47-7.81,139.92-17.16
				C420.51,836.01,487.93,775.98,527,753.9z"/>
		</g>
		<g class="st4">
			<path class="st5" d="M505,949.54l-6.05,5.05c8.26-60.65,18.66-156.61,11.94-220.35c-5.59-53.26-80.02-69.5-127.15,7.68
				s-127.44-79.6-189.84-18.2c-39.7,39.07-3.88,135.33-18.2,185.75c-10.52,37.19-131.59,46.61-154.49,128.06
				c-0.33-0.67-0.58-1.38-0.79-2.09c-26.76-82.4,103.64-90.87,117.92-141.3c14.32-50.47-16.2-219.1,70.29-232.33
				c86.53-13.19,142.67,95.42,189.84,18.24c47.13-77.22,121.55-60.94,127.15-7.68C536.1,771.77,505,949.54,505,949.54z"/>
		</g>
		<g>
			<path class="st1" d="M300.15,1137.17c-0.06,0-0.12,0-0.18,0c-27.12-0.28-265.84-5.4-295.45-96.57
				c-20.34-62.67,32.28-92.02,70.71-113.46c21.26-11.86,43.25-24.13,47.05-37.54c3.44-12.15,3.91-35.63,4.4-60.49
				c1.44-72.65,3.42-172.16,79.44-183.77c42.99-6.58,78.75,12.7,107.49,28.19c39.59,21.33,52.96,26.7,70.59-2.18
				c32.9-53.88,76.77-65.85,106.9-59.05c28.42,6.41,48.01,28.76,51.12,58.33c10.59,100.55-19.51,274.45-20.8,281.8
				c-1.59,9.08-10.26,15.13-19.32,13.57c-9.08-1.59-15.16-10.24-13.57-19.32c0.31-1.76,30.58-176.66,20.49-272.55
				c-1.59-15.11-11.03-26.05-25.25-29.26c-18.83-4.23-47.35,5.06-71.05,43.87c-34.97,57.27-79.31,33.37-114.93,14.17
				c-26.87-14.48-54.66-29.44-86.61-24.58c-44.61,6.82-49.53,72.61-51.1,151.43c-0.56,28.24-1.04,52.64-5.66,68.93
				c-7.57,26.73-35.7,42.42-62.91,57.6c-45.6,25.44-65.91,41.03-55.21,73.98c16.77,51.66,170.85,72.5,264.03,73.49
				c9.22,0.1,16.62,7.65,16.52,16.87C316.74,1129.81,309.29,1137.17,300.15,1137.17z"/>
		</g>
		<g>
			<path class="st2" d="M2571.55,1973.22c-24.79,338.73-568.65,743.34-1353.01,718.88c-587.81-18.32-909.55-368.66-1020.33-826.53
				c-40.78-168.51-52.97-351.55-39.36-538.01c0.92-12.73,1.96-25.46,3.13-38.24c24.54-267.94,129.65-377.89,255.38-426.02
				c157.74-60.4,281.51,19.95,364.78,102.94c19.45,19.41,36.69,38.94,51.63,56.85c405.65,486.46,757.07,467.09,1050.93,457.99
				c160.08-4.97,286.01,9.81,383.9,39.74C2519.49,1597.54,2586.16,1773.9,2571.55,1973.22z"/>
		</g>
		<g class="st4">
			<path class="st5" d="M2571.55,1973.22c-2.96,40.41-13.32,81.73-30.56,123.18c4.22-18.33,7.01-36.57,8.35-54.64
				c14.61-199.32-52.05-375.68-302.96-452.4c-97.89-29.93-223.82-44.71-383.9-39.74c-293.86,9.1-645.28,28.47-1050.93-457.99
				c-14.94-17.91-32.18-37.44-51.63-56.85c-83.27-82.98-207.04-163.34-364.78-102.93c-85.61,32.77-161.67,94.21-209.17,214.64
				c43.5-166.67,130.86-244.69,231.37-283.18c157.74-60.4,281.51,19.95,364.78,102.94c19.45,19.41,36.69,38.94,51.63,56.85
				c405.65,486.46,757.07,467.09,1050.93,457.99c160.08-4.97,286.01,9.81,383.9,39.74
				C2519.49,1597.54,2586.16,1773.9,2571.55,1973.22z"/>
		</g>
		<g>
			<path class="st1" d="M1284.94,2709.83c-22.25,0-44.54-0.35-66.94-1.04c-331.88-10.36-596.09-124.09-785.3-338.03
				c-225.9-255.43-327.95-640.03-287.37-1082.95c11.83-129.07,42.09-228.26,92.52-303.24c42.92-63.82,99.68-108.58,173.5-136.84
				c90.18-34.52,179.49-28.69,265.47,17.33c75.95,40.65,133.26,103.55,169.76,147.33c393.77,472.28,728.11,461.74,1023.08,452.48
				l14.48-0.45c286.45-8.87,488.13,45.54,599.51,161.71c80.16,83.61,115.33,200.8,104.53,348.32
				c-13.03,178.02-162.49,368.22-399.81,508.78C1940.19,2630.22,1621.55,2709.82,1284.94,2709.83z M526.22,858.96
				c-33.95,0-68.21,6.67-102.92,19.95c-146.33,56.02-224.08,186.91-244.7,411.94c-39.74,433.65,59.39,809.31,279.13,1057.78
				c182.87,206.78,439.01,316.72,761.32,326.78c354.91,11.04,693.11-67.39,952.33-220.92c227.92-135,371.29-315.36,383.52-482.49
				c10.22-139.62-20.96-245.2-95.33-322.77c-104.56-109.06-297.82-160.02-574.37-151.45l-14.47,0.45
				c-144.22,4.54-307.7,9.68-483.34-47.16c-201.35-65.16-386.64-201.66-566.44-417.3C723.43,916.82,626.23,858.96,526.22,858.96z"/>
		</g>
		<g class="st6">
			<path class="st1" d="M2268.58,1520.82c-109.03,284.01-461.95,361.69-856.66,286.6c-431.69-82.15-749.89-315.98-682.6-669.45
				c10.98-57.73,28.59-115.67,52.8-171.72c19.45,19.41,36.69,38.94,51.63,56.85c405.65,486.46,757.07,467.09,1050.93,457.99
				C2044.77,1476.12,2170.7,1490.89,2268.58,1520.82z"/>
		</g>
		<g>
			<g class="st6">
				<path class="st1" d="M261.27,965.76c-19.64,26.54-37.1,57.85-51.91,94.66c0.96-2.39,1.92-4.8,2.9-7.14
					c-16.86,50.79-29.13,110.98-35.67,182.4c-1.17,12.75-2.18,25.48-3.11,38.21c-0.01,0.01-0.01,0.02-0.02,0.03
					c-0.14,1.96-0.24,3.91-0.38,5.87c-0.63,9.01-1.23,18.02-1.74,27.02c-0.17,2.97-0.3,5.94-0.45,8.91
					c-0.44,8.38-0.85,16.75-1.18,25.1c-0.13,3.37-0.23,6.73-0.35,10.09c-0.28,7.94-0.53,15.88-0.7,23.8
					c-0.08,3.65-0.13,7.29-0.19,10.93c-0.13,7.62-0.23,15.22-0.27,22.82c-0.02,3.85-0.01,7.69-0.01,11.54
					c0.01,7.38,0.04,14.75,0.14,22.11c0.05,3.99,0.12,7.96,0.19,11.94c0.14,7.19,0.31,14.37,0.53,21.54
					c0.12,4.08,0.26,8.16,0.41,12.24c0.26,7.05,0.57,14.09,0.91,21.12c0.2,4.13,0.41,8.26,0.64,12.39
					c0.39,6.95,0.82,13.89,1.29,20.82c0.28,4.15,0.56,8.3,0.87,12.45c0.51,6.88,1.08,13.74,1.67,20.59
					c0.36,4.14,0.71,8.28,1.09,12.41c0.64,6.87,1.35,13.72,2.08,20.56c0.43,4.05,0.84,8.12,1.3,12.16
					c0.79,6.95,1.65,13.87,2.52,20.78c0.49,3.89,0.95,7.79,1.47,11.67c0.95,7.17,1.99,14.3,3.04,21.43
					c0.52,3.58,1.01,7.16,1.56,10.73c1.18,7.68,2.45,15.31,3.74,22.94c0.5,2.98,0.96,5.97,1.48,8.94
					c1.58,9.05,3.26,18.06,4.99,27.04c0.29,1.51,0.55,3.03,0.85,4.54c4.17,21.25,8.76,42.29,13.8,63.11
					c0.03,0.13,0.06,0.26,0.09,0.39c0.01,0.01,0.01,0.01,0.01,0.02c110.8,457.86,432.52,808.17,1020.32,826.5
					c688.16,21.46,1191.11-287.32,1320.88-592.16c-1.07,3.35-2.26,6.7-3.43,10.06c10.4-29.87,17.23-59.6,20.14-88.87
					c-122.4,176.8-365.92,342.45-692.7,429.74c79.4-53.45,144.03-124.71,185.83-212.89c68.79-145.18,78.39-284.8,63.86-402.1
					c-23.58-191.09-111.24-322.96-111.24-322.96l-476.4,242.39c0,0,61.36,136.04-113.45,191.72
					c-58.27,18.58-142.8,28.22-264.6,20.87c-172.48-10.85-331.22-80.44-381.77,4.47c-92.63,155.61,90.95,372.11,141.17,410.78
					c59.37,45.71,123.29,82.68,189.58,111.22c-376.96-66.19-620.92-289.01-752.08-586.28c-37.55-85.1-18.47-184.6,47.7-249.97
					c1.65-1.63,3.29-3.25,4.92-4.87c-0.04,0.04-0.04,0.08-0.04,0.08c59.15-58.52,223.23-160.08,244.73-249.95
					c4.84-20.29,2.46-39.95-10.02-58.4c-65.83-97.34-268.73-97.18-348.71-74.89c-0.08,0-0.13,0.04-0.21,0.04
					c-19.65,4.68-38.88,11.84-57.08,21.61c0.07-59.66,2.86-119.97,8.41-180.56C251.67,1024.62,255.93,994.11,261.27,965.76z"/>
			</g>
		</g>
		<g>
			<path class="st7" d="M2076.41,2102.95c-175.9,371.08-792.8,390.24-1142.43,145.18c0-238.14-41.7-432.19,240.6-415.25
				c121.8,7.35,206.33-2.3,264.6-20.87c174.81-55.68,113.45-191.72,113.45-191.72l476.4-242.39c0,0,87.66,131.86,111.24,322.96
				C2154.8,1818.15,2145.2,1957.77,2076.41,2102.95z"/>
			<path class="st1" d="M1480.89,2413.15c-195.93,0-398.02-57.68-548.31-163.02l-1.04-0.73v-1.27c0-28-0.58-55.42-1.14-81.93
				c-2.61-123.76-4.86-230.64,55.71-288.9c38.3-36.84,99.98-52.17,188.61-46.84c110.82,6.68,199.55-0.3,263.71-20.77
				c57.11-18.19,94.75-46.86,111.87-85.2c22.91-51.31,0.33-102.68,0.1-103.19l-0.95-2.12l2.07-1.05l478.33-243.38l1.2,1.81
				c0.88,1.32,88.24,134.53,111.63,324c17.47,141.09-4.09,276.83-64.08,403.44l0,0c-64.95,137.02-192.3,234.03-368.29,280.55
				C1637.37,2403.83,1559.61,2413.15,1480.89,2413.15z M936.42,2246.86c209.55,146.34,519.86,199.79,772.66,132.97
				c174.54-46.13,300.81-142.25,365.13-277.92l0,0c59.59-125.76,81.01-260.6,63.65-400.76c-21.76-176.29-99.19-303.52-109.68-320.08
				l-472.43,240.38c4.09,10.51,20.12,57.71-0.95,104.97c-17.7,39.7-56.35,69.28-114.87,87.92c-64.74,20.64-154.07,27.7-265.49,20.98
				c-87.18-5.24-147.67,9.65-184.94,45.49c-59.03,56.78-56.8,162.67-54.21,285.29C935.83,2192.23,936.4,2219.25,936.42,2246.86z"/>
		</g>
		<g class="st6">
			<path class="st1" d="M2145.86,1813.6c-2.38,90.04-21.58,188.34-69.46,289.35c-175.9,371.08-792.8,390.24-1142.43,145.18
				c0-114.29-9.6-218.48,11.6-293.99c-0.71,52.59,37.37,18.41,37.37,79.65c3.05,257.58,931.21,318.4,1107.11-52.68
				C2117.06,1924.09,2134.97,1867.9,2145.86,1813.6z"/>
		</g>
		<g>
			<path class="st1" d="M1481.12,2427.37c-198.91,0.01-404.1-58.57-556.71-165.56l-7.11-4.99v-8.69c0-27.87-0.58-55.22-1.14-81.68
				c-2.68-127.1-5-236.88,60.07-299.45c41.33-39.74,106.54-56.39,199.34-50.78c234.94,14.11,321.19-36.09,352.18-80.7
				c34.78-50.06,10.66-106.08,9.62-108.44l-6.4-14.46l14.07-7.23l489.68-249.13l8.23,12.38c2.39,3.6,59.01,89.74,93.76,224.46
				c32.12,124.52,50.34,315.29-45.24,516.97c-66.79,140.95-197.34,240.63-377.51,288.26
				C1639.93,2417.91,1561.02,2427.36,1481.12,2427.37z M950.68,2239.38c206.19,140.89,508.23,191.85,754.75,126.67
				c118.8-31.4,276.98-103.78,355.87-270.27c91.08-192.19,73.86-374.26,43.38-493.16c-25.83-100.75-65.27-174.58-81.82-202.85
				l-449.68,228.78c7.28,25.05,15.78,77.02-17.71,125.61c-51.98,75.41-180.47,107.5-381.9,95.4
				c-82.99-4.95-139.96,8.59-174.19,41.52c-54.52,52.43-52.34,155.42-49.83,274.68C950.06,2189.62,950.58,2214.21,950.68,2239.38z"
				/>
		</g>
		<g class="st6">
			<path class="st1" d="M2140.27,1700.85c-159.62,130.11-418.42,160.5-701.09,111.16c174.81-55.68,113.45-191.72,113.45-191.72
				l476.4-242.39C2029.03,1377.9,2116.69,1509.76,2140.27,1700.85z"/>
		</g>
		<g>
			<path class="st7" d="M2294.63,1351.89c-67.25,353.51-449.02,454.19-880.75,372.04c-431.69-82.15-749.89-315.98-682.6-669.45
				c13.11-68.92,35.69-138.12,67.62-204.07c75.43-155.99,202.91-293.9,380.06-367.66c116.21-48.38,253.79-69.21,412.12-49.38
				c65.74-19.16,157.07-56.69,217.72-126.44c18.99-21.79,54.56-11.31,58.44,17.36c5.13,38.19,7.1,87.37-28.51,143.63
				c72.46-19.58,145.34-43.7,170.77-59.06c27.22-16.4,60.86,7.64,53.85,38.65c-6.8,29.93-29.84,91.83-52.64,143.01
				c54.1,39.4,100.14,84.23,138.67,132.91c91.54,115.54,140.79,252.62,155.11,389.53C2313,1194.19,2309.2,1275.34,2294.63,1351.89z"
				/>
			<path class="st1" d="M1683.96,1753.45c-84.69,0-175.39-9.01-270.53-27.12c-224.5-42.72-407.63-123.49-529.6-233.56
				c-133.13-120.16-186.71-271.88-154.94-438.74c13.43-70.6,36.25-139.46,67.82-204.68c82.02-169.63,217.44-300.62,381.31-368.85
				c124-51.62,262.91-68.31,412.86-49.61c65.51-19.15,155.99-56.44,216.08-125.55c9.46-10.86,23.85-15.05,37.53-10.95
				c13.6,4.08,23.24,15.41,25.16,29.58c5.29,39.35,6.25,86.58-25.62,139.99c77.38-21.15,141.46-43.44,164.2-57.19
				c13.5-8.14,29.81-7.48,42.56,1.73c12.66,9.14,18.38,24.29,14.93,39.54c-6.53,28.7-28.78,89.31-51.99,141.66
				c51.97,38.07,98.23,82.54,137.55,132.2c86.49,109.17,140.31,244.31,155.62,390.79c8.42,80.31,5.1,160.94-9.88,239.64l-2.4-0.46
				l2.4,0.46c-31.75,166.89-137.29,288.34-305.23,351.22C1903.14,1736.77,1799.12,1753.45,1683.96,1753.45z M1474.22,428.34
				c-105.14,0-203.73,18.94-294.32,56.66c-162.77,67.77-297.3,197.92-378.8,366.47c-31.39,64.83-54.08,133.29-67.42,203.47
				c-31.43,165.1,21.62,315.25,153.42,434.21c121.3,109.48,303.62,189.84,527.24,232.4c223.63,42.54,422.72,34.75,575.75-22.54
				c166.26-62.25,270.74-182.44,302.15-347.57l0,0c14.89-78.23,18.19-158.38,9.82-238.22c-15.22-145.56-68.68-279.83-154.6-388.27
				c-39.44-49.82-85.94-94.38-138.19-132.45l-1.59-1.16l0.8-1.8c23.38-52.51,45.95-113.79,52.49-142.56
				c3.01-13.31-1.98-26.54-13.03-34.51c-11.14-8.04-25.39-8.62-37.18-1.51c-23.68,14.31-90.96,37.6-171.39,59.33l-6.04,1.63
				l3.35-5.29c34.34-54.26,33.5-102.23,28.15-142c-1.66-12.25-9.99-22.05-21.73-25.57c-11.82-3.55-24.27,0.09-32.45,9.48
				c-61.02,70.17-152.71,107.89-218.88,127.18l-0.48,0.14l-0.5-0.06C1551.13,430.82,1512.23,428.34,1474.22,428.34z"/>
		</g>
		<g class="st6">
			<path class="st1" d="M1413.88,1723.95c-431.71-82.15-749.89-315.99-682.61-669.47c6.27-32.89,14.65-65.81,25.23-98.4
				c-67.11,353.4,251.04,587.19,682.68,669.27c397.31,75.58,752.4-3.66,858.82-292.4c-1.05,6.33-2.16,12.68-3.36,18.95
				C2227.37,1705.39,1845.6,1806.06,1413.88,1723.95z"/>
		</g>
		<g class="st6">
			<path class="st5" d="M2234.97,1509.56c13.95-31.92,24.62-66.58,31.76-104.09c46.52-244.51-32.69-553.79-257.49-746.45
				c-25.56-21.9-34.18-57.72-20.85-88.63c15.03-34.87,28.24-67.83,32.75-87.65c7-30.98-12.33-36.74-39.54-20.31
				c-19.86,12-68.74,29.36-123.76,45.72c-16.86,5.02-32.65-11.21-26.7-27.76c14.12-39.24,12.05-73.97,8.21-102.52
				c-3.88-28.71-18-38.4-46.63-5.27c-40.29,46.61-99.66,73.37-154.24,91.71c-43.64,14.67-89.84,19.8-135.79,16.94
				C1160.69,460,922.8,633.34,796.28,855.83c123.76-260.77,392.29-472.83,794.8-422.45c65.75-19.18,157.08-56.7,217.71-126.43
				c18.98-21.8,54.57-11.35,58.45,17.36c5.13,38.16,7.11,87.36-28.52,143.61c72.47-19.59,145.36-43.7,170.76-59.05
				c27.2-16.43,60.87,7.64,53.87,38.62c-6.81,29.96-29.87,91.83-52.67,143.05c258.69,188.39,333.4,501.38,283.93,761.37
				C2283.28,1411.55,2262.99,1463.99,2234.97,1509.56z"/>
			<path class="st1" d="M2237.05,1510.84l-4.31-2.25c13.97-31.96,24.6-66.8,31.59-103.56c42.68-224.33-20.14-541.42-256.68-744.14
				c-26.61-22.81-35.25-59.55-21.51-91.44c11.61-26.94,27.62-65.29,32.61-87.22c2.72-12.06,1.46-20.39-3.68-24.09
				c-6.16-4.45-18.21-2.06-32.22,6.41c-18.63,11.25-63.95,28.01-124.32,45.97c-8.81,2.62-18.2,0.08-24.54-6.63
				c-6.3-6.67-8.22-15.75-5.15-24.29c13.93-38.72,11.91-72.97,8.09-101.37c-1.86-13.74-5.94-21.93-11.8-23.67
				c-4.93-1.46-14.23,0.76-30.57,19.67c-43.95,50.83-109.69,77.09-155.31,92.43c-42.6,14.31-88.59,20.05-136.72,17.07
				C1200.62,464.9,943.99,601,798.4,857.03l-4.32-2.25c66.54-140.21,168.14-253.96,293.82-328.95
				c145.01-86.53,314.22-118.46,502.99-94.93c65.53-19.17,156.03-56.49,216.07-125.54c9.46-10.87,23.85-15.06,37.54-10.96
				c13.61,4.07,23.24,15.42,25.16,29.59c5.29,39.36,6.25,86.58-25.63,139.97c77.42-21.17,141.5-43.45,164.2-57.17
				c13.49-8.15,29.79-7.48,42.55,1.72c12.67,9.14,18.4,24.29,14.96,39.53c-6.5,28.63-28.77,89.25-52.02,141.7
				c120.1,87.96,208.88,210.29,256.81,353.87c43.44,130.15,52.6,271.5,26.49,408.76
				C2285.88,1410.91,2265.71,1464.22,2237.05,1510.84z M2007.09,450.99c4.24,0,7.9,1.05,10.83,3.17c4.77,3.44,9.61,11.29,5.58,29.13
				c-3.86,17-14.31,44.98-32.89,88.08c-12.9,29.92-4.78,64.4,20.2,85.81c238.02,203.99,301.24,523.05,258.3,748.75
				c-4.7,24.72-11.04,48.58-18.91,71.3c19.3-38.28,33.39-80.44,42.01-125.77c44.67-234.75-6.22-557.4-282.97-758.94l-1.59-1.16
				l0.8-1.8c23.42-52.61,46-113.91,52.52-142.6c3.01-13.3-1.99-26.52-13.05-34.5c-11.15-8.03-25.39-8.61-37.18-1.5
				c-23.64,14.28-90.91,37.57-171.39,59.32l-2.56,0.69c-1,3.38-2.12,6.79-3.36,10.25c-2.44,6.78-0.91,13.99,4.1,19.29
				c5.07,5.36,12.59,7.4,19.61,5.31c60-17.84,104.9-34.42,123.19-45.47C1990.61,454.15,1999.74,450.99,2007.09,450.99z
				 M1476.86,428.57c-278.24,0-512.42,133.25-648.47,371c150.67-222.01,393.05-338.23,674.44-320.75
				c47.49,2.95,92.87-2.71,134.87-16.82c45.08-15.15,110.01-41.06,153.18-90.99c14.7-17,26.35-23.91,35.65-21.15
				c7.95,2.37,13.08,11.68,15.24,27.7c3.28,24.42,5.26,53.09-2.74,85.26c31.95-52.68,31.03-99.34,25.8-138.18
				c-1.66-12.26-9.98-22.06-21.73-25.58c-11.84-3.55-24.28,0.09-32.47,9.49c-60.96,70.12-152.67,107.86-218.87,127.17l-0.49,0.14
				l-0.5-0.06C1552.12,430.96,1514.08,428.57,1476.86,428.57z"/>
		</g>
		<g>
			<path class="st8" d="M2149.34,1274.72c-19.6,103.01-71.91,207.95-181.75,275.82c-112.26,69.45-284.62,100.24-543.68,50.95
				l-0.04-0.01c-256.35-48.77-404.94-139.32-484.51-243.69c-79.54-104.33-90.09-222.54-70.28-326.66
				c4.03-21.16,9.73-41.61,16.94-61.16c63.62-173.06,244.81-279.75,431.86-244.16c102.3,19.46,187.42,77.89,242.72,156.99
				c80.52-53.26,181.11-76.36,283.42-56.89c184.75,35.15,313.15,197.2,312.11,378.75l-0.01,0.04
				C2156.04,1227.8,2153.81,1251.23,2149.34,1274.72z"/>
		</g>
		<g>
			<path class="st1" d="M1600.27,1194.29c-6.11,32.09-56.19,62.53-108.92,52.5c-52.73-10.03-88.13-56.74-82.03-88.83
				c6.11-32.09,51.41-37.43,104.14-27.4C1566.19,1140.6,1606.37,1162.19,1600.27,1194.29z"/>
		</g>
		<g class="st9">
			<path class="st8" d="M1549.73,1166.32c-1.43,7.51-20.55,13.21-42.02,9.13c-21.47-4.08-37.16-16.42-35.73-23.92
				c1.43-7.51,19.43-7.34,40.9-3.26S1551.16,1158.81,1549.73,1166.32z"/>
			<path class="st1" d="M1522.02,1179.25c-4.82,0-9.81-0.47-14.76-1.41c-10.32-1.96-20.05-5.9-27.4-11.08
				c-7.42-5.23-11.17-10.95-10.27-15.69c2.05-10.79,24.92-8.78,43.75-5.2c11.47,2.18,21,4.92,27.56,7.92
				c8.36,3.82,12.13,8.18,11.22,12.98l0,0c-0.9,4.74-6.48,8.68-15.31,10.83C1532.27,1178.7,1527.24,1179.25,1522.02,1179.25z
				 M1488.12,1147.92c-8.8,0-13.29,1.7-13.74,4.06c-0.41,2.17,1.99,6.35,8.29,10.79c6.69,4.72,15.99,8.46,25.5,10.27
				c9.51,1.81,19.53,1.75,27.49-0.19c7.49-1.82,11.26-4.82,11.67-6.99v0c0.42-2.2-2.66-4.99-8.45-7.63
				c-6.21-2.84-15.36-5.45-26.45-7.56C1502.23,1148.72,1494.16,1147.92,1488.12,1147.92z"/>
		</g>
		<g>
			<path class="st1" d="M1704.73,1767.03c-41.08,0-139.48-1.85-240.23-17.36c-5.53-0.79-141.33-20.39-260.09-63.14
				c-52.76-18.99-106.21-41.63-106.75-41.85c-294.59-132.35-430.42-343.02-382.8-593.33c34.12-179.33,125.4-342.09,257.01-458.3
				c152.78-134.89,350.18-197.58,570.88-181.28c9.2,0.68,16.1,8.68,15.42,17.88c-0.68,9.2-8.66,16.14-17.88,15.42
				c-458.07-33.82-731.99,293.79-792.63,612.52c-44.45,233.61,84.6,431.24,363.36,556.49c0.2,0.08,52.83,22.37,104.69,41.04
				c115.47,41.56,252.31,61.33,253.68,61.52c128.54,19.79,253.11,16.85,254.36,16.84c312.38-10.92,509.36-147.54,554.48-384.68
				c44.02-231.37-6.3-548.94-279.56-746.38c-7.48-5.4-9.16-15.84-3.75-23.31c5.4-7.48,15.84-9.15,23.31-3.75
				c124.17,89.72,215.96,215.09,265.45,362.55c44.56,132.78,54.02,277.02,27.36,417.14c-25.06,131.71-92.91,234.52-201.67,305.57
				c-99.6,65.06-229,100.81-384.6,106.25C1724.43,1766.86,1717.23,1767.03,1704.73,1767.03z"/>
		</g>
		<g>
			<path class="st10" d="M1376.65,1133.21c-37.27,108.57-132.13,117.71-258.48,142.56c-79.27,15.57-138.32,49.76-178.81,82.02
				c-79.54-104.33-90.09-222.54-70.28-326.66c4.03-21.16,9.73-41.61,16.94-61.16c82.83-58.71,205.2-106.93,358.88-58.07
				C1357.36,947.69,1403.39,1055.3,1376.65,1133.21z"/>
		</g>
		<g>
			<path class="st10" d="M2149.34,1274.72c-19.6,103.01-71.91,207.95-181.75,275.82c-26.02-44.18-67.98-96.17-134.38-138.73
				c-108.4-69.51-193.27-112.85-188.07-227.52c3.73-82.29,86.06-165.48,203.81-157.46c155.87,10.62,250.97,95.25,307.18,177.84
				l-0.01,0.04C2156.04,1227.8,2153.81,1251.23,2149.34,1274.72z"/>
		</g>
		<g>
			<path class="st1" d="M1817.86,504.77c-5.15,0-10.22-2.37-13.49-6.84c-5.44-7.45-3.82-17.89,3.63-23.33
				c47.15-34.46,49.24-99.54,42.7-148.07c-1.34-9.97-9.27-13.09-11.67-13.8c-2.43-0.73-10.9-2.51-17.61,5.21
				c-107.83,123.98-272.73,127.11-279.7,127.18c-9.32-0.13-16.77-7.3-16.87-16.52s7.3-16.77,16.52-16.87
				c1.54-0.02,157.07-3.28,254.85-115.7c13.18-15.15,33.26-21,52.39-15.28c19.04,5.7,32.52,21.54,35.19,41.33
				c11.12,82.48-8.28,144.55-56.09,179.49C1824.72,503.73,1821.27,504.77,1817.86,504.77z"/>
		</g>
		<g>
			<path class="st1" d="M2008.43,605.57c-3.5,0-7.03-1.1-10.04-3.37c-7.36-5.55-8.83-16.02-3.27-23.38
				c19.96-26.46,37.92-73.15,51.94-135.01c2.6-11.47-5.05-18.03-7.46-19.77c-2.44-1.77-11.23-7.05-21.49-0.85
				c-72.49,43.75-133.47,64.98-181.09,63.21c-9.22-0.35-16.4-8.1-16.05-17.32s8.23-16.36,17.32-16.05
				c51.19,1.98,116.63-30.7,162.57-58.43c18.48-11.16,40.81-10.25,58.29,2.37c17.37,12.54,25.22,33.32,20.48,54.22
				c-15.27,67.4-34.73,117.1-57.85,147.74C2018.49,603.28,2013.49,605.57,2008.43,605.57z"/>
		</g>
		<g>
			<path class="st1" d="M1960.09,1268.73c-2.69,2.04-4.55,3.37-6.79,4.92c-2.18,1.45-4.37,2.8-6.58,4.11
				c-4.41,2.67-8.99,4.88-13.6,7.09c-9.27,4.28-18.94,7.65-28.9,10.25c-19.92,5.08-41.05,6.75-62.1,4.67
				c-10.52-1.1-20.97-3.23-31.16-6.21c-10.15-3.17-20.01-7.21-29.31-12.22c-18.52-10.14-34.82-23.81-46.72-40.39
				c-5.89-8.21-4.01-19.65,4.2-25.54c5.45-3.91,12.32-4.4,18.05-1.88l0.9,0.4c15.91,7.04,30.56,13.37,45.37,18.13
				c7.45,2.25,14.81,4.32,22.28,5.93c7.48,1.58,15,2.81,22.62,3.76c15.27,1.65,30.93,1.96,46.99,0.93
				c8.04-0.45,16.15-1.29,24.36-2.28c4.14-0.39,8.2-1.12,12.33-1.66l6.14-0.94c1.97-0.21,4.27-0.75,5.68-0.73l5.88,0.09
				c9.71,0.15,17.45,8.15,17.3,17.85C1966.93,1260.59,1964.19,1265.57,1960.09,1268.73z"/>
		</g>
		<g>
			<path class="st1" d="M1092.8,1029.17c1.25,0.62,3.05,2.17,4.7,3.26l5.02,3.66c3.42,2.38,6.69,4.9,10.18,7.16
				c6.83,4.66,13.64,9.14,20.57,13.25c13.78,8.32,27.81,15.27,42.12,20.84c7.2,2.67,14.44,5.05,21.8,7.09
				c7.37,2.02,14.86,3.57,22.51,5.01c15.34,2.61,31.26,3.74,48.62,4.83l0.96,0.06c10.09,0.63,17.75,9.33,17.12,19.42
				c-0.42,6.69-4.42,12.33-9.99,15.18c-18.2,9.23-38.97,13.84-60.08,14.3c-10.56,0.16-21.18-0.8-31.64-2.67
				c-10.42-2.06-20.67-4.99-30.52-8.86c-19.63-7.86-37.62-19.08-52.95-32.78c-7.64-6.89-14.67-14.35-20.92-22.42
				c-3.07-4.09-6.12-8.16-8.8-12.56c-1.35-2.19-2.68-4.39-3.94-6.68c-1.27-2.41-2.32-4.44-3.76-7.49
				c-4.15-8.78-0.39-19.26,8.39-23.41c5.04-2.38,10.65-2.16,15.29,0.13L1092.8,1029.17z"/>
		</g>
		<g>
			<path class="st5" d="M1174.58,1832.88c0,0-6.89,2.59-18.41,8.72c-36.23,19.33-118.13,73.76-173.23,192.18
				c-44.62,95.96-48.96,214.34-48.96,214.34s-121.8-132.95-154.69-265.44c-12.73-51.05-12.23-102.06,13.53-145.34
				C843.36,1752.45,1002.1,1822.03,1174.58,1832.88z"/>
			<path class="st1" d="M936.2,2254.16l-4.01-4.38c-1.22-1.33-122.6-134.92-155.26-266.49c-14.46-57.97-9.82-107.5,13.8-147.18
				c35.72-60,121.66-45.14,230.48-26.32c46.94,8.12,100.13,17.31,153.53,20.67l11.33,0.71l-10.62,4c-0.07,0.03-6.91,2.62-18.12,8.59
				c-33.3,17.76-116.74,71.94-172.16,191.06c-43.89,94.39-48.69,212.22-48.74,213.4L936.2,2254.16z M887.83,1798.12
				c-42.46,0-74.83,10.08-92.92,40.47c-22.93,38.54-27.39,86.83-13.25,143.51c29.05,117,129.13,235.88,150.22,259.98
				c1.61-25.3,10.23-126.24,48.86-209.32c56.04-120.45,140.56-175.31,174.29-193.31c3.67-1.95,6.87-3.55,9.54-4.82
				c-50.31-3.82-100.02-12.41-144.19-20.05C970.31,1805.93,925.17,1798.12,887.83,1798.12z"/>
		</g>
		<g class="st6">
			<path class="st11" d="M1156.17,1841.61c-36.23,19.33-118.13,73.76-173.23,192.18c-44.62,95.96-48.96,214.34-48.96,214.34
				s-121.8-132.95-154.69-265.44c54.26,70.33,103.24,98.26,150.65,33.18C1023.32,1887.71,1106.5,1852.13,1156.17,1841.61z"/>
			<path class="st1" d="M936.2,2254.16l-4.01-4.38c-1.22-1.33-122.6-134.92-155.26-266.49l-2.8-11.27l7.1,9.2
				c36.26,47.01,65.54,68.94,92.07,68.94c0.22,0,0.44,0,0.66,0c19.04-0.26,36.71-11.94,54.02-35.7
				c71.58-98.24,150.31-158.83,227.7-175.22l16.85-3.57l-15.2,8.11c-33.3,17.76-116.74,71.94-172.17,191.06
				c-43.89,94.39-48.69,212.22-48.74,213.4L936.2,2254.16z M784.69,1993.46c32.4,113.23,126.78,225.3,147.18,248.61
				c1.6-25.29,10.22-126.23,48.86-209.32c48.8-104.88,119.19-160.03,158.84-184.42c-70.66,20.96-142.1,78.99-207.66,168.97
				c-18.28,25.08-37.21,37.42-57.9,37.7c-0.24,0-0.48,0-0.72,0C846.99,2055.02,818.66,2035.38,784.69,1993.46z"/>
		</g>
		<g>
			<path class="st1" d="M934,2264.83c-4.6,0-9.09-1.9-12.31-5.42c-9.89-10.79-241.1-266.24-143.22-430.62
				c40.72-68.4,135.45-52.02,245.14-33.06c48.86,8.45,99.38,17.18,152.02,20.49c7.85,0.5,14.29,6.41,15.46,14.19
				c1.17,7.78-3.26,15.32-10.62,18.1c-1.09,0.42-113.88,45-182.38,192.32c-42.61,91.65-47.36,206.77-47.4,207.92
				c-0.25,6.77-4.57,12.71-10.93,15.05C937.88,2264.49,935.93,2264.83,934,2264.83z M888.14,1812.4c-37.79,0-66.12,8.51-80.98,33.47
				c-67.35,113.13,57.27,290.12,113.59,360.58c5.1-44.04,17.48-116.09,47.06-179.7c45.39-97.61,108.07-153.3,151.32-182.37
				c-35.43-4.37-69.72-10.3-101.21-15.74C968.44,1820.09,924.03,1812.4,888.14,1812.4z"/>
		</g>
		<g>
			<path class="st1" d="M1403.65,1305.65c11.54-8.11,24.39-12.27,37.83-14.58c13.43-2.1,27.5-1.75,41.3,1.39
				c13.82,3.06,27.23,9.83,38.1,19.3c2.67,2.46,5.18,5.06,7.65,7.62c2.24,2.82,4.22,5.86,6.15,8.81c0.93,1.51,1.88,2.98,2.73,4.51
				c0.67,1.67,1.4,3.27,1.98,4.96c1.23,3.32,2.36,6.6,3.12,9.99c0.54,2.39-0.97,4.76-3.35,5.29c-1.06,0.24-2.11,0.08-3-0.39
				l-0.62-0.32c-3.02-1.57-5.67-3.24-8.23-4.87c-1.31-0.79-2.48-1.66-3.7-2.46l-3.92-2.06c-2.56-1.35-4.92-2.82-7.31-4.15
				c-2.56-1.13-5.07-2.21-7.43-3.44c-9.89-4.2-19.53-7.84-30.03-10.41c-10.46-2.54-21.38-4.51-32.86-6.12
				c-11.45-1.69-23.52-3.02-36.16-5.03l-0.41-0.06c-2.41-0.39-4.05-2.65-3.67-5.06C1402.02,1307.35,1402.71,1306.31,1403.65,1305.65
				z"/>
		</g>
		<g>
			<path class="st7" d="M180.98,1794.65c0,0-140.4-207.48-84.42-459.9C160,1048.72,550.31,1110.54,529,1316.77
				C512.63,1475.21,283.63,1567.56,180.98,1794.65z"/>
			<path class="st1" d="M181.4,1799.63l-2.44-3.61c-1.41-2.08-140.34-211.25-84.78-461.79c34.95-157.58,168.55-210.28,277.93-192.56
				c84.05,13.62,169.76,74.3,159.32,175.36c-8.53,82.54-73.66,146.85-149.08,221.31c-70.12,69.23-149.59,147.7-199.15,257.32
				L181.4,1799.63z M331.23,1143.27c-97.61,0-202.21,56.38-232.29,192.01c-51.06,230.21,63.48,425.27,81.67,454.29
				c50.03-108.32,128.75-186.04,198.3-254.71c74.75-73.8,139.31-137.54,147.66-218.34c10.11-97.91-73.39-156.78-155.25-170.04
				C358.25,1144.36,344.8,1143.27,331.23,1143.27z"/>
		</g>
		<g class="st4">
			<path class="st5" d="M529,1316.79c-0.42,4.05-0.96,8.06-1.71,12.02c-35.36-168.26-371.75-200.28-430.23,63.45
				c-7.43,33.52-11.4,66.29-12.69,97.84c-2.84-48.63,0.13-100.93,12.19-155.36C160,1048.72,550.29,1110.54,529,1316.79z"/>
		</g>
		<g class="st6">
			<path class="st1" d="M529.84,1300.93c0,5.18-0.25,10.48-0.84,15.86c-16.36,158.41-245.36,250.78-348.04,477.86
				c0,0-86.32-127.6-96.59-304.38c0.92,3.55,1.87,7.06,2.83,10.53c20.24,72.94,112.29,94.84,164.9,40.42
				C348.66,1441.3,473.62,1381.04,529.84,1300.93z"/>
		</g>
		<g>
			<path class="st1" d="M183.89,1828.74L167.15,1804c-5.9-8.71-143.77-216.38-86.89-472.87c36.95-166.6,178.36-222.28,294.13-203.54
				c110.57,17.91,180.98,96.41,171.22,190.9c-9.05,87.62-75.88,153.6-153.25,229.99c-69.23,68.36-147.71,145.83-196.17,253.05
				L183.89,1828.74z M331.39,1157.54c-91.8,0-190.2,53.1-218.53,180.83c-42.51,191.67,32.81,358.73,66.7,421
				c51.05-98.12,124.17-170.3,189.34-234.65c72.8-71.88,135.67-133.95,143.49-209.66c9.17-88.71-67.88-142.28-143.35-154.5
				C356.76,1158.56,344.14,1157.54,331.39,1157.54z"/>
		</g>
		<g>
			<path class="st5" d="M631.23,1280.89c-21.5,89.87-185.58,191.43-244.73,249.95c0,0,71.13-162.42,27.84-263.47
				c-28.26-65.99-82.44-97.22-117.88-111.45h-0.04c-9.81-3.92-18.16-6.55-24.13-8.26c79.85-22.33,283.05-22.58,348.92,74.84
				C633.69,1240.94,636.07,1260.6,631.23,1280.89z"/>
			<path class="st1" d="M379.15,1541.53l5.11-11.67c0.71-1.62,70.2-162.62,27.83-261.54c-26.98-63-77.96-94.57-116.14-109.98
				l-0.45-0.16c-7.82-3.12-15.85-5.88-23.89-8.18l-8.28-2.37l8.29-2.32c71.89-20.11,282.03-27.08,351.59,75.83
				c12.15,17.96,15.64,38.26,10.37,60.33l0,0c-15.58,65.13-104.18,135.58-175.37,192.19c-28.6,22.74-53.3,42.38-70.02,58.93
				L379.15,1541.53z M296.88,1153.48l0.48,0.18c39.08,15.7,91.48,48,119.21,112.75c36.83,85.99-8.86,217.09-23.58,254.89
				c16.3-14.97,37.84-32.09,62.2-51.46c70.6-56.14,158.46-126.01,173.66-189.5l0,0c5-20.98,1.84-39.45-9.67-56.46
				c-60.82-89.96-249.27-97.13-337.91-76.01C286.53,1149.55,291.75,1151.44,296.88,1153.48z"/>
		</g>
		<g class="st6">
			<path class="st1" d="M631.23,1280.89c-21.5,89.87-185.58,191.43-244.73,249.95c0,0,71.13-162.42,27.84-263.47
				c-28.26-65.99-82.44-97.22-117.88-111.45c95.46-4.8,135.24,82.11,167.05,177.23C487.43,1404.74,586.6,1335.32,631.23,1280.89z"/>
		</g>
		<g>
			<path class="st1" d="M386.48,1547.52c-3.28,0-6.58-0.96-9.45-2.93c-6.6-4.53-9.05-13.12-5.84-20.45
				c0.68-1.56,67.72-157.02,27.81-250.17c-30.91-72.13-95.52-100.04-131.28-110.26c-7.19-2.05-12.13-8.63-12.11-16.1
				c0.02-7.47,5-14.02,12.2-16.03c74.69-20.9,293.61-27.3,367.23,81.57c60.79,89.9-71.48,195.03-168.07,271.8
				c-27.05,21.49-52.59,41.8-68.75,57.76C394.99,1545.88,390.75,1547.52,386.48,1547.52z M331.77,1154.14
				c35.88,19.77,74.75,52.6,97.91,106.66c28.84,67.3,11.28,157.31-6.31,216.18c7.26-5.84,14.89-11.9,22.81-18.2
				c86.37-68.65,204.66-162.66,161.18-226.95C559.26,1160.69,424.14,1145.19,331.77,1154.14z"/>
		</g>
		<g class="st6">
			<path class="st11" d="M2304.48,1112.96c-13.23,4.97-22.5,6.14-22.5,6.14C1833.51,894.9,1297.63,810.96,798.9,850.41
				c75.43-155.99,202.91-293.9,380.06-367.66c325.96,25.38,728.48,153.19,970.41,240.68
				C2240.91,838.97,2290.17,976.05,2304.48,1112.96z"/>
			<path class="st1" d="M2281.55,1121.61l-0.66-0.33c-429.51-214.71-955.75-310.05-1481.8-268.44l-4.24,0.33l1.85-3.83
				c82.02-169.63,217.44-300.62,381.31-368.85l0.54-0.22l0.58,0.04c338.32,26.34,753.61,162.19,971.05,240.82l0.65,0.23l0.43,0.54
				c86.49,109.17,140.31,244.31,155.62,390.79l0.2,1.88l-1.76,0.66c-13.34,5.01-22.66,6.22-23.05,6.27L2281.55,1121.61z
				 M1040.87,838.42c443.94,0,877.38,96.27,1241.52,278.15c2.24-0.36,9.62-1.7,19.47-5.24c-15.46-144.59-68.67-277.96-153.97-385.84
				c-217.26-78.54-631.22-213.89-968.54-240.27c-161.3,67.32-294.81,195.91-376.39,362.42
				C882.36,841.47,961.79,838.42,1040.87,838.42z"/>
		</g>
		<g>
			<path class="st5" d="M951.65,462.42c-34.78,8.56-61.23,36.89-68.35,71.99l-49.57,244.16c-0.58,2.69,1.56,5.25,4.39,5.06
				c460.56-43.02,959.87,31.14,1375.87,239.1c0,0,171.01-21.87,73.45-281.16C2286.02,736.54,1369.11,359.66,951.65,462.42z"/>
			<path class="st1" d="M2213.56,1025.24l-0.66-0.33c-399.17-199.54-887.33-284.37-1374.55-238.85c-2.19,0.16-4.17-0.69-5.54-2.28
				c-1.37-1.59-1.9-3.67-1.46-5.73l49.56-244.13c7.35-36.19,34.89-65.19,70.16-73.87l0,0c217.05-53.44,568.54,24.44,825.17,99.18
				c148.43,43.23,278.48,89.04,361.44,119.86c40.17,14.92,150.84,57.3,152.11,61.82c37.05,98.44,40.13,174.59,9.09,226.16
				c-30.47,50.62-84.04,58.01-84.57,58.08L2213.56,1025.24z M1092.69,769.33c150.89,0,301.61,12.46,450.47,37.33
				c242.93,40.58,468.76,112.43,671.22,213.54c6.3-1.05,53.02-10.23,80.36-55.72c30.11-50.1,26.97-124.57-9.33-221.35
				c-13.26-7.47-237.8-100.22-517.03-181.1c-253.83-73.52-601.48-150.06-816.15-97.24l0,0c-33.45,8.23-59.58,35.75-66.55,70.1
				l-49.57,244.16c-0.12,0.57,0.02,1.12,0.38,1.54c0.21,0.25,0.67,0.67,1.46,0.6C922.7,773.28,1007.73,769.33,1092.69,769.33z"/>
		</g>
		<g class="st6">
			<path class="st11" d="M833.51,786.01c453.7-26.3,935.53,19.77,1351.77,226.48c-0.21-0.81,41.64,20.79,46.93,0
				c20.62-80.99,23.14-285.06,23.14-285.06l-259.64-82.34c12.15,71.73,61.88,178.5-125.13,109.3
				c-317.8-117.6-670.04-128.79-1009.02-101.98L833.51,786.01z"/>
			<path class="st1" d="M2218.02,1024c-9.18,0-20.26-3.85-29.17-7.49l0.14,0.55l-4.81-2.39
				c-364.35-180.94-818.73-257.05-1350.54-226.23l-3.18,0.19l29.07-138.5l1.82-0.14c412.62-32.64,733.57-0.19,1010.06,102.12
				c66.29,24.54,107.31,28.77,125.4,12.96c18.99-16.6,10.66-53.88,2.59-89.93c-2.22-9.92-4.51-20.18-6.12-29.64l-0.67-3.94
				l265.17,84.1l-0.02,1.81c-0.03,2.04-2.76,205.28-23.21,285.63c-1.06,4.15-3.43,7.17-7.06,8.98
				C2224.78,1023.44,2221.54,1024,2218.02,1024z M2186.05,1010.16c0.66,0.19,1.49,0.53,2.65,1.02c6.69,2.8,27.03,11.33,36.63,6.53
				c2.33-1.16,3.81-3.07,4.51-5.82c19.29-75.75,22.72-262.28,23.04-282.68l-254.07-80.58c1.49,8.12,3.38,16.57,5.37,25.44
				c8.37,37.44,17.03,76.16-4.14,94.66c-19.57,17.09-62.18,13.15-130.3-12.05c-275.4-101.91-595.16-134.32-1006.16-101.98
				l-27.02,128.69C1367.69,753.02,1821.73,829.32,2186.05,1010.16z"/>
		</g>
		<g>
			<path class="st1" d="M2072.71,969.44c-4.51,0-8.22-3.59-8.34-8.13c-3.38-128.34,16.54-302.16,16.74-303.9
				c0.53-4.58,4.68-7.84,9.25-7.33c4.58,0.53,7.86,4.67,7.33,9.25c-0.2,1.73-19.98,174.4-16.63,301.54
				c0.12,4.61-3.52,8.44-8.12,8.56C2072.86,969.44,2072.79,969.44,2072.71,969.44z"/>
		</g>
		<g>
			<path class="st1" d="M2163.61,1010.26c-4.51,0-8.22-3.6-8.34-8.13c-3.38-128.33,16.82-307.35,17.03-309.14
				c0.52-4.58,4.67-7.89,9.24-7.35c4.58,0.52,7.87,4.66,7.35,9.24c-0.2,1.78-20.27,179.67-16.92,306.81
				c0.12,4.61-3.52,8.44-8.12,8.56C2163.75,1010.25,2163.68,1010.26,2163.61,1010.26z"/>
		</g>
		<g>
			<path class="st1" d="M1964.25,930.97L1964.25,930.97c-4.61,0-8.35-3.74-8.35-8.35c0.01-118.85,21.14-287.87,21.35-289.56
				c0.58-4.58,4.72-7.82,9.33-7.24c4.58,0.58,7.82,4.75,7.24,9.33c-0.21,1.68-21.21,169.68-21.22,287.48
				C1972.59,927.23,1968.85,930.97,1964.25,930.97z"/>
		</g>
		<g>
			<path class="st1" d="M1832.55,882.2c-4.41,0-8.09-3.45-8.33-7.91c-4.76-89.41,14.88-277.85,15.72-285.82
				c0.48-4.58,4.58-7.92,9.17-7.43c4.59,0.48,7.91,4.59,7.43,9.17c-0.21,1.94-20.34,195.1-15.65,283.19
				c0.24,4.6-3.29,8.54-7.89,8.78C1832.85,882.2,1832.7,882.2,1832.55,882.2z"/>
		</g>
		<g>
			<path class="st1" d="M1691.64,842.68c-0.35,0-0.7-0.02-1.05-0.07c-4.58-0.58-7.81-4.76-7.24-9.33
				c24.59-194.82,16.49-295.45,16.4-296.45c-0.39-4.59,3.02-8.64,7.61-9.03c4.61-0.44,8.64,3.02,9.03,7.61
				c0.09,1.01,8.34,103.4-16.47,299.96C1699.38,839.59,1695.79,842.68,1691.64,842.68z"/>
		</g>
		<g>
			<path class="st1" d="M1556.82,805.61c-0.59,0-1.18-0.06-1.78-0.19c-4.5-0.98-7.36-5.43-6.38-9.93
				c23.08-106.08,16.31-294.08,16.24-295.96c-0.17-4.61,3.42-8.48,8.03-8.66c4.63-0.24,8.48,3.42,8.66,8.03
				c0.29,7.79,6.92,191.98-16.61,300.14C1564.12,802.94,1560.66,805.61,1556.82,805.61z"/>
		</g>
		<g>
			<path class="st1" d="M1443.1,791.69c-4.21,0-7.82-3.17-8.29-7.45c-12.23-112.41,15.95-304.46,17.15-312.58
				c0.68-4.56,4.91-7.73,9.48-7.03c4.56,0.68,7.71,4.92,7.03,9.48c-0.29,1.97-29.06,198.06-17.07,308.33c0.5,4.58-2.81,8.7-7.4,9.2
				C1443.7,791.67,1443.4,791.69,1443.1,791.69z"/>
		</g>
		<g>
			<path class="st1" d="M1290.59,766.66c-1.03,0-2.07-0.19-3.09-0.59c-4.28-1.71-6.37-6.56-4.67-10.84
				c36.41-91.43,34.83-303.6,34.81-305.73c-0.04-4.61,3.66-8.38,8.27-8.43c4.39-0.16,8.38,3.66,8.43,8.27
				c0.09,8.84,1.62,217.62-36,312.07C1297.05,764.67,1293.91,766.66,1290.59,766.66z"/>
		</g>
		<g>
			<path class="st1" d="M1154.85,772.4c-0.62,0-1.26-0.07-1.89-0.22c-4.49-1.04-7.29-5.52-6.25-10.01
				c29.43-127.16,35.29-305.48,35.35-307.26c0.14-4.61,3.86-8.31,8.61-8.08c4.61,0.14,8.23,4,8.08,8.61
				c-0.06,1.8-5.96,181.73-35.77,310.51C1162.09,769.79,1158.65,772.4,1154.85,772.4z"/>
		</g>
		<g>
			<path class="st1" d="M1007.56,771.15c-1.26,0-2.54-0.29-3.75-0.89c-4.12-2.08-5.78-7.09-3.7-11.21
				c44.95-89.23,62.07-309.35,62.23-311.56c0.35-4.6,4.37-8.02,8.96-7.7c4.6,0.35,8.04,4.36,7.7,8.96
				c-0.7,9.17-17.54,225.64-63.97,317.81C1013.56,769.46,1010.61,771.15,1007.56,771.15z"/>
		</g>
		<g>
			<path class="st1" d="M919.57,775.37c-0.91,0-1.84-0.15-2.76-0.47c-4.35-1.52-6.65-6.28-5.12-10.64
				c43.49-124.37,49.35-297.66,49.41-299.39c0.14-4.61,3.83-8.23,8.61-8.08c4.61,0.14,8.23,4,8.08,8.61
				c-0.06,1.76-6.01,177.62-50.33,304.38C926.24,773.22,923.02,775.37,919.57,775.37z"/>
		</g>
		<g>
			<path class="st1" d="M2211.07,1039.94l-4.54-2.27C1809.71,839.3,1324.3,754.99,839.67,800.25c-7.09,0.46-13.34-2.15-17.66-7.16
				c-4.26-4.93-5.98-11.68-4.6-18.05l49.53-243.96c8.44-41.56,40.12-74.88,80.73-84.88l0,0c220.13-54.19,574.25,24.11,832.57,99.34
				c148.84,43.34,279.24,89.28,362.41,120.19c40.06,14.88,79.27,30.05,110.41,42.72c45.72,18.6,47.87,19.62,50.26,27.89
				c38.49,102.61,41.11,182.71,7.78,238.08c-33.99,56.47-92.51,64.55-94.98,64.87L2211.07,1039.94z M1092.65,755.06
				c151.62,0,303.18,12.53,452.87,37.53c242.6,40.53,468.29,112.08,670.9,212.69c12.12-2.8,45.45-13.42,66.35-48.57
				c26.56-44.65,23.53-114.83-8.73-203.24c-36.61-16.6-256.92-105.02-517.08-179.91c-249.6-71.84-591.26-146.61-801.31-94.94l0,0
				c-28.12,6.92-50.1,30.12-55.98,59.1l-46.24,227.75C933,758.53,1012.83,755.06,1092.65,755.06z M850.15,781.62l-0.06,0.27
				C850.11,781.8,850.13,781.71,850.15,781.62z M2271.75,747.32c0.04,0.1,0.07,0.2,0.11,0.29c-0.02-0.05-0.04-0.1-0.06-0.15
				L2271.75,747.32z"/>
		</g>
		<g>
			<path class="st12" d="M1006.33,450.93c433.46-68.48,1070.98,218.53,1077.86,224.62c224.08,198.31,107.66,313.41,88.66,700.78
				l145.8,10.11c14.8-204.5,99.42-307.66,129.78-608.07c23.57-233.26-24.55-356.03-170.9-469.96
				c-119.75-93.23-292.01-292-439.89-291.7C1412.25,17.56,1108.4,227.74,1006.33,450.93z"/>
			<path class="st1" d="M2320.91,1389.04l-150.61-10.44l0.12-2.38c5.35-109.05,18.14-194.73,29.42-270.33
				c28.51-190.98,42.81-286.84-117.27-428.51c-4.19-2.91-164.2-76.19-380.64-140.53c-193.72-57.59-471.59-118.82-695.23-83.5
				l-4.49,0.71l1.89-4.13c98.88-216.21,394.96-434.77,833.53-435.66c0.11,0,0.24,0,0.35,0c112.1,0,235.11,110.62,343.68,208.24
				c34.85,31.33,67.76,60.93,97.36,83.97C2429.3,423.45,2474.26,547,2450.86,778.61c-16.16,159.88-47.86,264.65-75.84,357.09
				c-25.23,83.36-47.02,155.36-53.93,250.92L2320.91,1389.04z M2175.4,1374.06l140.99,9.77c7.15-94.89,28.85-166.62,53.95-249.56
				c27.91-92.22,59.55-196.76,75.65-356.16c23.21-229.62-21.27-352.04-169.96-467.8c-29.73-23.15-62.71-52.8-97.62-84.19
				c-107.91-97.03-230.2-206.99-340.42-206.99c-0.11,0-0.22,0-0.34,0c-433.62,0.88-727.1,215.25-827.2,428.69
				c438.08-66.56,1071.57,222.55,1075.35,225.9c162.06,143.42,146.72,246.24,118.85,432.88
				C2193.48,1181.54,2180.81,1266.4,2175.4,1374.06z"/>
		</g>
		<g class="st9">
			<path class="st5" d="M2448.45,773.49c-12.4,122.76-33.89,212.55-55.93,289.81c-4.3-65.7-4.47-140.79,4.84-233.09
				c23.58-233.25-24.54-356.01-170.89-469.97c-119.76-93.21-292.02-291.98-439.87-291.69c-312.19,0.63-558.92,114-708.44,262.47
				c140.46-175.36,408.65-318.49,759.49-319.2c147.89-0.29,320.16,198.48,439.87,291.69
				C2423.86,417.47,2471.99,540.23,2448.45,773.49z"/>
		</g>
		<g class="st6">
			<path class="st1" d="M1006.33,450.93c0,0,61.36-130.61,148.52-210.8s187.76,112.14,357.25,160.02
				c298.14,95.53,466.26,150.68,368.54-179.61c0,0,49.28,60.22,143.86,335.57c21.37,62.22,64.79,96.67,55.57,103.9
				c-15.71,12.33-285.47-114.47-557.71-177.64C1287.92,427.96,1006.33,450.93,1006.33,450.93z"/>
		</g>
		<g class="st6">
			<path class="st1" d="M2279.18,922.6c-21.25,129.54-73.28,346.45-99.82,454.18l-6.52-0.45c19-387.38,135.42-502.49-88.65-700.78
				c-0.34-0.3-2.1-1.24-5.25-2.74c-33.43-62.37-70.62-140.56-93.41-215.75c-35.65-117.43-103.83-234.68-104.88-236.48
				c2.02,1.5,66.42,49.96,120.24,129.84c49.4,73.24,69.38,185.61,119.5,238.91C2226.03,701.68,2308.26,745.16,2279.18,922.6z"/>
		</g>
		<g>
			<path class="st1" d="M2334.1,1404.24l-178.73-12.38l0.8-16.35c5.39-109.75,18.79-199.57,29.57-271.74
				c27.67-185.37,41.59-278.68-111.35-414.61c-15.64-7.99-173.7-78.84-382.8-140.52c-190.42-56.17-463.41-115.86-682.65-81.22
				l-30.73,4.86l12.94-28.29C1091.92,223.65,1392.73,0.91,1837.61,0c0.12,0,0.25,0,0.38,0c117.57,0,242.75,112.57,353.22,211.9
				c34.66,31.16,67.39,60.59,96.58,83.33c152.9,119.03,200.94,250.43,177.25,484.82c-16.29,161.25-48.21,266.72-76.38,359.78
				c-24.98,82.55-46.56,153.84-53.36,247.81L2334.1,1404.24z M2190.4,1360.81l112.97,7.83c8.36-89.87,30.24-162.18,53.33-238.48
				c27.72-91.61,59.15-195.44,75.11-353.47c22.62-223.83-20.44-342.93-164.54-455.11c-30.13-23.46-63.29-53.27-98.4-84.84
				c-100.76-90.6-226.14-203.34-330.9-203.34c-0.1,0-0.2,0-0.3,0c-411.2,0.84-694.09,195.52-802.35,396.71
				c221.94-25.99,487.25,33.28,674.67,89.17c210.73,62.85,377.81,137.18,385.25,143.76c167.86,148.55,152.11,254.08,123.51,445.66
				C2208.12,1180.04,2196.12,1260.4,2190.4,1360.81z M2075.29,689.65C2075.29,689.65,2075.29,689.65,2075.29,689.65
				C2075.29,689.65,2075.29,689.65,2075.29,689.65z"/>
		</g>
		<g>
			<path class="st1" d="M1882.53,219.07c14.64,17.38,27.76,36.3,38.74,56.25l8.39,14.93l7.57,15.28l7.51,15.33l6.99,15.51
				c18.47,41.45,34.69,83.58,51.49,125.1c16.75,41.54,34.25,82.46,53.92,121.74c19.72,39.23,42.22,76.59,69.68,109.43l0.06,0.07
				c5.92,7.08,4.98,17.61-2.1,23.54c-6.73,5.62-16.62,5.01-22.66-1.14c-33.16-33.92-57.48-74.52-77.46-115.87
				c-20.02-41.5-35.31-84.51-49.68-127.37c-14.35-42.88-27.23-85.93-41.74-128.2c-14.62-42.16-30.21-84.1-54.47-121.68l-0.06-0.1
				c-0.71-1.11-0.4-2.58,0.71-3.3C1880.43,217.95,1881.76,218.17,1882.53,219.07z"/>
		</g>
		<g>
			<path class="st5" d="M2064.29,1722.08c111.47,69.55,270.41,66.73,358.11-16.7c-50.55-136.61-32.81-350.01-151.99-458.72
				C2033.5,1335.57,2129.26,1586.13,2064.29,1722.08z"/>
			<path class="st1" d="M2239.31,1773.97c-60.3,0-122.79-16.43-176.32-49.82l-1.85-1.16l0.94-1.96
				c21.18-44.33,25.11-100.87,29.28-160.74c8.33-119.86,17.78-255.71,178.18-315.92l1.4-0.52l1.1,1.01
				c78.77,71.85,97.93,187.37,116.45,299.1c9.7,58.5,18.86,113.75,36.19,160.57l0.56,1.5l-1.16,1.11
				C2377.55,1751.41,2309.95,1773.97,2239.31,1773.97z M2067.42,1721.15c113.73,69.84,267.62,62.69,352.13-16.45
				c-17.12-46.92-26.23-101.85-35.86-159.95c-18.3-110.38-37.23-224.5-113.83-295.29c-156.11,59.34-165.02,187.35-173.63,311.16
				C2092.1,1620.09,2088.19,1676.31,2067.42,1721.15z"/>
		</g>
		<g>
			<path class="st1" d="M2240.66,1789.03c-51.81,0-114.39-12.91-184.58-52.41l-12.83-7.22l5.56-13.64
				c19.81-48.55,24.5-104.96,29.47-164.68c10.16-122.12,21.67-260.54,186.46-320.13l9.5-3.44l7.45,6.82
				c82.64,75.63,102.1,193.47,120.92,307.42c9.55,57.8,18.56,112.39,35.47,157.83l3.76,10.1l-7.67,7.59
				c-1.55,1.53-38.79,37.87-104.26,58.32C2305.72,1783.14,2275.64,1789.03,2240.66,1789.03z M2085.03,1714.33
				c170.98,89.43,287.37,11.01,317.89-13.98c-15.54-45.91-24.17-98.12-33.26-153.16c-17.29-104.69-35.14-212.81-103.18-281.19
				c-135.46,53.92-144.92,167.62-154.92,287.84C2107.03,1608.28,2102.37,1664.41,2085.03,1714.33z"/>
		</g>
		<g class="st6">
			<path class="st1" d="M2188.56,1414c109.37,19.23,157.83-30.02,154.28-55.41c-3.63-26.01,0.31-49.59-28.9-53.31
				c-31.4-5.22-87.56-14.33-119.12-19.57c-47.46-4.23-58.97,67.78-59.21,80.42C2135.15,1390.48,2161.7,1409.28,2188.56,1414z"/>
		</g>
		<g>
			<path class="st12" d="M2176.24,1381.26c17.95,0.47,91.38,0.55,110.72,0.95c40.99,3.39,84.29,0.23,86.37-54.24
				c3.77-32.51-4.39-77.59-40.8-82.23c-39.14-6.51-109.14-17.86-148.48-24.4c-28.76-4.73-54.59,20.7-54.88,53.96
				C2127.68,1315.18,2122.74,1379.25,2176.24,1381.26z"/>
			<path class="st1" d="M2307.54,1385.61c-6.97,0-13.98-0.41-20.79-0.97c-8.94-0.18-29.72-0.3-51.72-0.42
				c-24.26-0.13-49.35-0.27-58.86-0.52h-0.03c-13.93-0.52-25.08-5.21-33.16-13.95c-19.19-20.74-17.61-60.38-16.46-89.32l0.21-5.22
				c0.16-18.14,7.63-34.8,20.52-45.63c10.74-9.04,23.95-12.82,37.19-10.64c19.76,3.28,47.25,7.78,74.68,12.27
				c27.19,4.45,54.32,8.89,73.81,12.13c35.63,4.54,47.2,47.2,42.82,84.91c-0.71,18.75-6.49,33.16-17.18,42.62
				C2345.44,1382.51,2326.66,1385.61,2307.54,1385.61z M2176.32,1378.83c9.48,0.25,34.53,0.39,58.75,0.52
				c22.01,0.12,42.81,0.24,51.94,0.43c24.58,2.03,51.78,2.11,68.33-12.55c9.79-8.67,14.87-21.54,15.55-39.35
				c2.96-25.62-1.33-74.96-38.67-79.72c-19.57-3.25-46.7-7.69-73.89-12.14c-27.43-4.49-54.92-8.99-74.68-12.27
				c-11.8-1.94-23.62,1.46-33.26,9.56c-11.79,9.92-18.64,25.23-18.78,42.02l-0.21,5.31c-1.12,28.09-2.66,66.56,15.16,85.81
				C2153.83,1374.29,2163.56,1378.35,2176.32,1378.83z"/>
		</g>
		<g class="st9">
			<path class="st5" d="M2129.17,1309.43c0.29-33.27,26.12-58.7,54.88-53.96c39.34,6.54,109.34,17.89,148.48,24.4
				c25.71,3.28,37.29,26.71,40.58,51.64c0.09-1.17,0.18-2.33,0.22-3.55c3.77-32.51-4.39-77.59-40.8-82.23
				c-39.14-6.5-109.14-17.86-148.48-24.4c-28.76-4.73-54.59,20.7-54.88,53.96c-0.49,13.08-1.33,28.75-0.38,43.98
				C2128.92,1315.88,2129.05,1312.58,2129.17,1309.43z"/>
		</g>
		<g>
			<path class="st1" d="M2307.56,1399.87c-7.23,0-14.45-0.41-21.46-0.98c-9.24-0.18-29.6-0.29-51.14-0.42
				c-24.34-0.13-49.5-0.27-59.16-0.53c-0.06,0-0.12,0-0.19,0c-17.85-0.67-32.35-6.89-43.09-18.51
				c-23.21-25.08-21.49-68.13-20.24-99.57l0.2-5.19c0.18-21.9,9.51-42.49,25.58-56.01c13.98-11.77,31.27-16.67,48.69-13.8
				c19.77,3.29,47.25,7.78,74.66,12.27c27.07,4.43,54.08,8.85,73.55,12.09c44.86,5.95,59.94,55.84,55.01,100.03
				c-0.99,22.67-8.38,40.26-21.96,52.29C2351.62,1396.09,2329.55,1399.87,2307.56,1399.87z M2176.77,1364.57
				c9.39,0.24,34.29,0.38,58.37,0.51c22.07,0.12,42.92,0.24,52.16,0.43c0.34,0.01,0.69,0.02,1.03,0.05
				c20.17,1.67,44.94,2.16,57.55-9.02c6.72-5.95,10.23-15.51,10.76-29.22c0.02-0.43,0.05-0.86,0.1-1.29
				c2.77-23.92-1.95-60.64-26.33-63.74c-0.21-0.03-0.42-0.06-0.63-0.09c-19.47-3.23-46.59-7.67-73.76-12.12
				c-27.45-4.49-54.95-8.99-74.72-12.28c-7.6-1.24-15.34,1.03-21.74,6.41c-8.47,7.13-13.59,18.8-13.7,31.23l-0.22,5.75
				c-1.02,25.59-2.42,60.64,11.38,75.56C2159.93,1359.9,2165.14,1364.12,2176.77,1364.57z"/>
		</g>
		<g class="st6">
			<path class="st1" d="M2064.29,1722.08c111.47,69.55,270.41,66.73,358.11-16.7c0,0-17.53-50.52-30.17-110.71
				c-81.17,62.26-202.69,70.54-301.83,23.93C2082.89,1690.58,2064.29,1722.08,2064.29,1722.08z"/>
		</g>
		<g class="st6">
			<path class="st1" d="M2176.24,1381.26c39.15,0.32,109.64,0.94,148.68,1.28c51.56,0.66,59.18-76.78,40.24-113.52
				c-13.7,81.98-147.59,55.16-184.02,40.83c-30.36-12.15-46.89-34.89-39.89-70.47c-17.34,17.93-11.16,63.44-12.47,86.5
				C2128.49,1356.25,2149.8,1381.03,2176.24,1381.26z"/>
		</g>
		<g>
			<path class="st1" d="M2157.39,1512.87c1.36,20.87,5.45,41.15,10.21,61.43c4.66,20.27,9.3,41.08,10.65,62.62
				c0.47,5.37,0.5,10.75,0.68,16.16c-0.1,5.34-0.03,10.92-0.37,16.05l-1.69,31.35c-1.31,21.01-2.67,41.61-5.06,63.17
				c-0.89,8.04-8.13,13.84-16.18,12.95c-8.04-0.89-13.84-8.13-12.95-16.18c0.05-0.48,0.13-0.95,0.22-1.41l0.07-0.34
				c4.15-19.57,7.64-40.34,10.94-60.71l4.73-30.78l2.18-15.08c0.47-5,1.11-10.01,1.31-15.06c1.36-20.17-0.45-40.68-2.48-61.46
				C2157.52,1554.82,2156.06,1533.69,2157.39,1512.87z"/>
		</g>
		<g>
			<path class="st1" d="M2260.24,1509.56c1.65,21.84,5.33,43.39,8.4,65.1c3.16,21.7,6.1,43.51,8.2,65.52
				c2.22,21.98,3.19,44.3,2.47,66.67c-0.31,11.19-0.96,22.39-2.05,33.62c-0.52,5.61-1.22,11.23-1.98,16.87
				c-0.85,5.75-1.63,11.06-3.02,17.37c-1.74,7.9-9.55,12.9-17.45,11.16c-7.9-1.74-12.9-9.55-11.16-17.45
				c0.1-0.46,0.22-0.9,0.36-1.34l0.05-0.15c1.38-4.26,2.75-9.68,3.95-14.67c1.18-5.12,2.32-10.28,3.29-15.5
				c2-10.42,3.6-20.98,4.89-31.6c1.3-10.62,2.25-21.31,2.85-32.04c0.64-10.72,1.23-21.56,1.53-32.4c0.63-21.7,0.42-43.52-0.04-65.4
				C2260.17,1553.47,2259.18,1531.47,2260.24,1509.56z"/>
		</g>
		<g>
			<path class="st1" d="M2338.12,1499.81c4.74,19.55,7.98,39.6,10.31,59.65c2.39,20.05,4.64,39.89,8.23,59.42
				c1.73,9.7,3.77,19.63,5.97,28.99c2.13,9.25,5.02,18.33,8.61,27.16c3.56,8.83,7.71,17.42,12.37,25.71
				c2.33,4.14,4.78,8.2,7.37,12.14c2.5,3.85,5.41,8,7.87,11.05l0.09,0.11c5.08,6.3,4.09,15.52-2.22,20.6
				c-6.3,5.08-15.53,4.08-20.6-2.22c-0.33-0.41-0.64-0.85-0.92-1.28c-3.31-5.16-5.69-9.56-8.2-14.41
				c-2.46-4.75-4.71-9.56-6.83-14.42c-4.22-9.73-7.82-19.7-10.75-29.88c-2.95-10.17-5.12-20.58-6.42-31.11
				c-1.25-10.43-1.77-20.43-2.28-30.68c-0.99-20.39-0.57-40.69-0.29-60.74C2340.77,1539.84,2340.23,1519.84,2338.12,1499.81z"/>
		</g>
		<g>
			<path class="st1" d="M1038.3,1959.8c-1.36,0-2.74-0.17-4.12-0.51c-113.88-28.88-219.92-133.63-224.38-138.07
				c-6.53-6.51-6.55-17.08-0.04-23.61c6.51-6.52,17.08-6.55,23.61-0.04c1.03,1.02,104.12,102.75,209.02,129.35
				c8.94,2.27,14.35,11.35,12.08,20.29C1052.55,1954.77,1045.76,1959.8,1038.3,1959.8z"/>
		</g>
		<g>
			<path class="st1" d="M954.56,2131.67c-3.24,0-6.52-0.94-9.39-2.91c-124.66-85.06-183.09-234.47-185.52-240.79
				c-3.31-8.61,0.99-18.27,9.6-21.57c8.6-3.32,18.26,0.99,21.57,9.59l0,0c0.56,1.46,57.3,146.12,173.16,225.18
				c7.62,5.2,9.58,15.59,4.38,23.2C965.13,2129.12,959.89,2131.67,954.56,2131.67z"/>
		</g>
		<g>
			<path class="st1" d="M428.31,1361.52c-5.58,0-11.04-2.8-14.2-7.89c-4.86-7.83-2.45-18.13,5.38-22.99
				c24.45-15.17,60.73-27.11,95.83-38.65c42.91-14.12,91.55-30.11,103.68-48.5c5.08-7.7,15.44-9.82,23.13-4.74
				c7.7,5.08,9.82,15.44,4.74,23.13c-18.54,28.08-68.36,44.47-121.12,61.83c-33.23,10.93-67.59,22.23-88.65,35.3
				C434.36,1360.71,431.32,1361.52,428.31,1361.52z"/>
		</g>
		<g>
			<path class="st1" d="M380.68,1230.82c-8.08,0-15.18-5.88-16.47-14.11c-1.43-9.11,4.79-17.65,13.9-19.08
				c18.59-2.92,183.08-27.99,234.26-8.73c8.63,3.25,12.99,12.88,9.75,21.51c-3.25,8.63-12.87,12.98-21.51,9.75
				c-32.56-12.26-147.8-0.46-217.32,10.46C382.41,1230.75,381.54,1230.82,380.68,1230.82z"/>
		</g>
	</g>
</g>
</svg>
