<?xml version="1.0" encoding="utf-8"?>
<!-- Generator: Adobe Illustrator 24.3.0, SVG Export Plug-In . SVG Version: 6.00 Build 0)  -->
<svg version="1.1" id="Layer_1" xmlns="http://www.w3.org/2000/svg" xmlns:xlink="http://www.w3.org/1999/xlink" x="0px" y="0px"
	 viewBox="0 0 2352.99 2354.39" style="enable-background:new 0 0 2352.99 2354.39;" xml:space="preserve">
<style type="text/css">
	.st0{fill:#A4C433;}
	.st1{fill:#371A45;}
	.st2{fill:#FECB00;}
	.st3{fill:#FFE756;}
	.st4{opacity:0.35;}
	.st5{opacity:0.4;}
	.st6{fill:#FFFFFF;}
	.st7{fill:#9ACB0F;}
	.st8{fill:#9CC100;}
	.st9{fill:#6B184E;}
	.st10{fill:#DC2E38;}
	.st11{fill:#F2101C;}
	.st12{fill:#390075;}
	.st13{fill:#FF8A0B;}
	.st14{opacity:0.3;}
	.st15{fill:#FDD800;}
	.st16{fill:#4089FF;}
	.st17{fill:#ECC18E;}
	.st18{fill:#FEFAFB;}
	.st19{opacity:0.5;}
	.st20{fill:#707169;}
	.st21{fill:#23B574;}
	.st22{fill:#16B767;}
	.st23{fill:#FCF7FB;}
	.st24{fill:#A34F31;}
	.st25{fill:#9B5639;}
	.st26{opacity:0.2;}
	.st27{fill:#37DBFF;}
	.st28{opacity:0.45;}
	.st29{fill:none;stroke:#390075;stroke-width:33.4586;stroke-linecap:round;stroke-miterlimit:10;}
	.st30{fill:#F9744B;}
	.st31{fill:#EBA7A4;}
	.st32{fill:#F7528A;}
	.st33{opacity:0.7;}
	.st34{fill:#ADBACA;}
	.st35{fill:#000072;}
	.st36{fill:#FFB8DF;}
	.st37{fill:none;stroke:#000072;stroke-width:39.2493;stroke-linecap:round;stroke-miterlimit:10;}
	.st38{fill:none;stroke:#000072;stroke-width:31.3995;stroke-linecap:round;stroke-miterlimit:10;}
	.st39{opacity:0.6;}
	.st40{fill:#FDD907;}
	.st41{fill:#66142E;}
	.st42{fill:#FCCACA;}
	.st43{fill:none;stroke:#6B184E;stroke-width:34.0576;stroke-linecap:round;stroke-miterlimit:10;}
	.st44{fill:#FF6982;}
	.st45{fill:#44BF11;}
	.st46{fill:#F4912F;}
	.st47{fill:#F45611;}
	.st48{fill:none;stroke:#390075;stroke-width:36.3395;stroke-linecap:round;stroke-miterlimit:10;}
	.st49{fill:none;stroke:#390075;stroke-width:34.6434;stroke-linecap:round;stroke-miterlimit:10;}
	.st50{fill:#FF4817;}
	.st51{fill:#33AEF1;}
	.st52{fill:#F09F21;}
	.st53{fill:none;stroke:#6B184E;stroke-width:32;stroke-linecap:round;stroke-miterlimit:10;}
	.st54{fill:#FE6DCB;}
	.st55{fill:#F2A95C;}
	.st56{fill:#FCDC18;}
	.st57{fill:#EF1664;}
	.st58{fill:#451661;}
	.st59{fill:#34D2D6;}
	.st60{fill:#D3A17F;}
	.st61{fill:none;stroke:#390075;stroke-width:32;stroke-linecap:round;stroke-miterlimit:10;}
</style>
<g>
	<g>
		<g>
			<path class="st6" d="M2069.06,2046.7c4.3-35.52-23.14-67.11-58.91-67.39c-18.09-0.14-38.27,4.65-58.34,19.18
				c-49.05,35.5-5.21,151.93,71.21,214.42c20.36,16.64,50.59-0.94,46.47-26.91C2064.3,2153.26,2061.74,2107.16,2069.06,2046.7z"/>
		</g>
		<g class="st14">
			<path class="st9" d="M2069.06,2046.67c-7.32,60.47-4.77,106.57,0.45,139.32c4.11,25.98-26.13,43.58-46.49,26.87
				c-9.31-7.6-18.11-16.02-26.42-24.98c13.09-3.73,23.42-16.45,20.92-32.37c-5.18-32.72-7.73-78.81-0.41-139.28
				c1.62-13.38-1.25-26.17-7.37-36.97c0.11,0.03,0.26,0.03,0.41,0.03C2045.91,1979.61,2073.32,2011.18,2069.06,2046.67z"/>
		</g>
		<g>
			<path class="st9" d="M2040.97,2235.37c-10,0-19.9-3.41-28.07-10.09c-57.4-46.92-99.42-125.08-97.74-181.8
				c0.75-25.55,10.18-45.59,27.28-57.96c20.63-14.93,43.56-22.38,67.84-22.21c21.5,0.17,41.99,9.55,56.22,25.74
				c14.34,16.3,21.06,38.02,18.45,59.58v0c-6.04,49.93-5.93,95.31,0.35,134.85c2.94,18.51-5.7,36.52-22,45.88
				C2056.28,2233.38,2048.59,2235.37,2040.97,2235.37z M2009.38,1995.3c-17.18,0-33.39,5.43-48.19,16.14
				c-8.87,6.42-13.6,17.52-14.05,32.98c-1.38,46.96,36.4,115.52,86.01,156.08c6.17,5.05,12.44,2.12,14.21,1.1
				c1.81-1.04,7.61-5.06,6.33-13.12c-6.74-42.48-6.92-90.83-0.52-143.72c1.52-12.52-2.39-25.13-10.72-34.6
				c-8.34-9.49-19.86-14.77-32.44-14.87C2009.81,1995.3,2009.59,1995.3,2009.38,1995.3z M2069.06,2046.7h0.05H2069.06z"/>
		</g>
		<g>
			<path class="st6" d="M2160.51,2062.08c6.05-37.34-21.59-71.88-59.37-73.69c-19.1-0.92-40.62,3.29-62.44,17.78
				c-53.32,35.42-11.95,160.28,66.13,229.53c20.8,18.45,53.49,1.15,50.23-26.45C2150.96,2174.44,2150.22,2125.64,2160.51,2062.08z"
				/>
		</g>
		<g class="st14">
			<path class="st9" d="M2160.5,2062.06c-10.3,63.59-9.56,112.38-5.42,147.17c3.23,27.63-29.47,44.91-50.26,26.46
				c-16.05-14.23-30.59-30.86-42.99-48.58c19.76,6.99,42.91-8.98,40.16-32.45c-4.11-34.76-4.85-83.55,5.45-147.14
				c0.99-6.31,1.07-12.51,0.25-18.48C2142.08,1994.29,2166.22,2026.93,2160.5,2062.06z"/>
		</g>
		<g>
			<path class="st9" d="M2124.7,2259.31c-10.99,0-21.82-3.97-30.49-11.66c-58.44-51.83-99.38-135.86-95.23-195.45
				c1.86-26.67,12.53-47.2,30.87-59.38c22.26-14.79,46.48-21.67,72.06-20.43c22.44,1.08,43.44,11.74,57.63,29.24
				c14.29,17.63,20.4,40.59,16.77,62.99l0,0c-8.52,52.58-10.32,100.6-5.36,142.73c2.27,19.29-7.42,37.59-24.7,46.61
				C2139.39,2257.56,2132.01,2259.31,2124.7,2259.31z M2096.22,2004.26c-17.08,0-33.44,5.11-48.66,15.23
				c-9.89,6.57-15.5,18.33-16.65,34.94c-3.47,49.8,33.66,124.16,84.54,169.28c6.75,5.99,13.95,2.96,16,1.89
				c2.09-1.09,8.81-5.36,7.73-14.5c-5.31-45.07-3.44-96.07,5.55-151.59l0,0c2.17-13.42-1.49-27.17-10.04-37.73
				c-8.58-10.59-20.76-16.77-34.3-17.43C2098.98,2004.3,2097.6,2004.26,2096.22,2004.26z"/>
		</g>
		<g>
			<path class="st6" d="M2236.74,2019.84c5.44-35.83-21.37-68.66-57.59-70.04c-18.31-0.7-38.89,3.54-59.65,17.63
				c-50.75,34.44-9.92,153.67,65.55,219.27c20.1,17.47,51.25,0.59,47.88-25.83C2228.66,2127.59,2227.48,2080.84,2236.74,2019.84z"/>
		</g>
		<g class="st14">
			<path class="st9" d="M2236.74,2019.85c-9.27,60.98-8.05,107.74-3.79,141.03c3.37,26.43-27.81,43.31-47.91,25.85
				c-14.54-12.67-27.85-27.35-39.4-42.99c18.49,4.78,38.84-10.47,36.09-32.11c-4.26-33.29-5.44-80.02,3.83-141
				c1.02-6.92,0.86-13.73-0.31-20.22C2218.34,1954.93,2241.86,1986.07,2236.74,2019.85z"/>
		</g>
		<g>
			<path class="st9" d="M2203.88,2209.82c-10.54,0-20.94-3.75-29.33-11.04c-56.63-49.23-96.76-129.57-93.34-186.89
				c1.54-25.78,11.67-45.73,29.3-57.7c21.31-14.47,44.59-21.31,69.25-20.38c21.7,0.83,42.1,10.93,55.98,27.71
				c13.98,16.9,20.11,39.04,16.82,60.72v0c-7.65,50.39-8.92,96.35-3.77,136.61c2.4,18.74-6.85,36.63-23.57,45.57
				C2218.45,2208.05,2211.13,2209.82,2203.88,2209.82z M2175.41,1965.73c-16.53,0-32.3,5.02-46.92,14.94
				c-9.23,6.26-14.39,17.41-15.33,33.12c-2.84,47.56,33.35,118.21,82.39,160.83c6.2,5.39,12.73,2.57,14.59,1.58
				c1.89-1.01,7.99-4.97,6.92-13.3c-5.52-43.2-4.22-92.15,3.87-145.47c1.92-12.69-1.66-25.64-9.84-35.52
				c-8.2-9.91-19.75-15.63-32.54-16.12C2177.5,1965.75,2176.45,1965.73,2175.41,1965.73z M2236.74,2019.84h0.05H2236.74z"/>
		</g>
		<g>
			<path class="st17" d="M2011.66,748.28c0,0,51.58-30.17,95.12-73.97c54.95-55.29,79.23-140.67,130.34-140.94
				c75.47-0.39,115.23,207,50.68,378.89c-55.27,147.19-194.08,144.48-194.08,144.48L2011.66,748.28z"/>
		</g>
		<g>
			<path class="st9" d="M2093.72,1072.73c-0.17,0-0.28,0-0.31,0l-12.05-0.23l-88.29-331.88l10.51-6.16
				c0.5-0.29,50.39-29.73,91.85-71.44c19.68-19.8,35.29-43.84,50.38-67.08c26.16-40.3,50.88-78.36,91.23-78.58
				c15.23-0.24,37.45,5.95,57.76,35.11c45.37,65.14,61.32,223.36,7.98,365.41C2245.5,1070.43,2101.43,1072.73,2093.72,1072.73z
				 M2030.18,755.63l75.69,284.5c32.93-3.12,125.05-21.89,166.96-133.5c48.12-128.15,36.63-277.13-4.29-335.87
				c-9.89-14.2-20.39-21.4-31.21-21.4c-0.04,0-0.08,0-0.13,0c-23.08,0.12-42.3,29.72-64.55,64c-15.23,23.46-32.5,50.06-54.52,72.22
				C2085.01,718.9,2047.89,744.3,2030.18,755.63z"/>
		</g>
		<g>
			<path class="st17" d="M1985.54,557.46c0,0,218.72,89.92,297.57,347.02c136.66,445.61-27.22,748.42-35.86,851.88
				c-7.45,89.19,8.9,155.55,6.12,208.27c-6.14,116.06-137.13,174.16-273.66,125.11c-88.09-31.65-139.02-132.01-137.04-331.83
				C1845.71,1449.66,1985.54,557.46,1985.54,557.46z"/>
		</g>
		<g class="st14">
			<path class="st9" d="M2253.36,1964.62c-6.12,116.08-137.12,174.16-273.68,125.12c-51-18.32-89.56-59.72-112.56-130.12
				c16.2,15.08,34.56,26.04,54.92,33.36c136.52,49.08,267.52-9.04,273.64-125.08c2.8-52.72-13.56-119.08-6.12-208.28
				c8.64-103.48,172.56-406.28,35.88-851.88c-8.28-27-18.12-52.16-29.08-75.52c34.4,46.4,65.6,103.28,86.76,172.24
				c136.64,445.64-27.24,748.44-35.88,851.88C2239.8,1845.54,2256.16,1911.9,2253.36,1964.62z"/>
		</g>
		<g>
			<path class="st9" d="M2076.51,2123.24c-33.12,0-67.87-6.1-102.22-18.44c-101.29-36.39-149.58-149.91-147.62-347.04
				c3.03-305.88,141.67-1193.84,143.07-1202.77l3.14-20.03l18.75,7.71c9.22,3.79,226.63,95.8,306.78,357.12
				c107.84,351.62,29.74,619.71-12.21,763.74c-11.86,40.72-21.23,72.88-23.01,94.17c-4.28,51.23-0.5,94.73,2.84,133.11
				c2.42,27.86,4.51,51.92,3.31,74.68c-2.7,51.13-27.9,95.05-70.95,123.65C2164.36,2111.74,2121.97,2123.24,2076.51,2123.24z
				 M1998.04,581.28c-21.17,137.53-136.64,899.69-139.38,1176.79c-1.8,181.83,39.56,285.39,126.45,316.61
				c72.02,25.88,145.13,21.32,195.57-12.2c34.91-23.2,54.52-57.32,56.71-98.69c1.08-20.52-0.92-43.55-3.24-70.21
				c-3.45-39.66-7.35-84.6-2.85-138.54c2.05-24.49,11.81-58.01,24.17-100.45c43.9-150.71,117.37-402.94,12.34-745.41
				C2205.38,705.6,2051.45,609.33,1998.04,581.28z"/>
		</g>
		<g>
			<path class="st52" d="M1172.2,16.02C533.64,16.02,16,533.62,16,1172.22c0,276.08,96.76,529.56,258.24,728.36
				c103.52,127.52,233.72,232.56,382.08,306.64c155.28,77.56,330.48,121.2,515.88,121.2c638.56,0,1156.2-517.68,1156.2-1156.2
				C2328.4,533.62,1810.76,16.02,1172.2,16.02z M1172.2,1540.98c-203.72,0-368.8-165.12-368.8-368.76
				c0-203.68,165.08-368.84,368.8-368.84c203.68,0,368.8,165.16,368.8,368.84C1541,1375.86,1375.88,1540.98,1172.2,1540.98z"/>
		</g>
		<g class="st4">
			<path class="st6" d="M1172.2,16.02C533.64,16.02,16,533.62,16,1172.22c0,8.48,0.08,16.92,0.28,25.32
				C29.64,570.54,542.04,66.5,1172.2,66.5c630.12,0,1142.52,504,1155.92,1130.96c0.2-8.4,0.28-16.8,0.28-25.24
				C2328.4,533.62,1810.76,16.02,1172.2,16.02z"/>
		</g>
		<g class="st14">
			<path class="st9" d="M2325.81,1094.24c-40.1,602.17-541.27,1078.24-1153.6,1078.24c-612.38,0-1113.54-476.07-1153.64-1078.24
				c-1.7,25.76-2.59,51.74-2.59,77.95c0,638.54,517.65,1156.23,1156.23,1156.23c638.54,0,1156.19-517.69,1156.19-1156.23
				C2328.4,1145.99,2327.51,1120,2325.81,1094.24z"/>
		</g>
		<g>
			<path class="st9" d="M1129.22,1618.19c-245.94,0-446.03-200.07-446.03-445.99c0-245.94,200.09-446.03,446.03-446.03
				c245.92,0,445.99,200.09,445.99,446.03C1575.21,1418.12,1375.14,1618.19,1129.22,1618.19z M1129.22,758.18
				c-228.3,0-414.03,185.73-414.03,414.02c0,228.27,185.73,413.99,414.03,413.99c228.27,0,413.99-185.71,413.99-413.99
				C1543.21,943.91,1357.49,758.18,1129.22,758.18z"/>
		</g>
		<g>
			<path class="st53" d="M1172.19,16C533.61,16,16,533.61,16,1172.19c0,638.54,517.61,1156.23,1156.19,1156.23
				c638.54,0,1156.23-517.69,1156.23-1156.23C2328.42,533.61,1810.73,16,1172.19,16z"/>
		</g>
		<g>
			<path class="st54" d="M2108.49,702.52c-58.73-111.47-135.12-203.83-229.41-285.25c-109.92-94.91-128.88-141.33-280.26-216.95
				c-131.06-65.53-304.65-70.33-461.03-72.33c-132.76-1.7-230.48-36.15-450.83,55.36c-134.2,55.73-231.03,168.24-323.87,277.86
				C264.64,577.52,214.08,630.81,127.63,830.8c-31.42,72.7-72.99,227-74.73,440.07c-2.7,319.47,123.33,428.32,274.72,604.02
				c110.06,127.77,186.83,270.36,423.92,329.19c232.14,57.62,390.25,38.88,512.14,30.12c283.25-20.33,334.96-56.47,474.89-159.59
				c198.4-146.28,193.19-235.87,311.05-378.35c115.28-139.34,144.14-258.68,133.98-511.88
				C2176.64,1011.75,2224.84,923.46,2108.49,702.52z M1129.22,803.38c203.68,0,368.78,165.17,368.78,368.81
				c0,8.5-0.3,16.89-0.89,25.24c-12.94,191.93-172.71,343.57-367.89,343.57c-195.14,0-354.84-151.5-367.93-343.28
				c-0.59-8.43-0.89-16.96-0.89-25.54C760.41,968.55,925.5,803.38,1129.22,803.38z"/>
		</g>
		<g class="st4">
			<path class="st6" d="M1559.2,1105.01c0,11.29-0.43,22.54-1.29,33.61c-12.37-160.22-112.56-295.87-252.52-358.79
				c-53.78-24.22-113.38-37.66-176.16-37.66c-62.79,0-122.43,13.44-176.2,37.66C813.06,842.79,712.87,978.4,700.5,1138.62
				c-0.86-11.08-1.29-22.32-1.29-33.61c0-169.14,97.65-315.48,239.64-385.63c5.34-73,88.55-130.96,190.34-130.96
				c101.83,0,185,57.92,190.38,130.91C1461.55,789.53,1559.2,935.87,1559.2,1105.01z"/>
		</g>
		<g class="st14">
			<path class="st9" d="M2183.78,1101.56c1.96-52.44,5.99-99.16,2.77-149.39c-1.89,44.24-5.14,90.07-2.96,144.21
				C2183.67,1098.13,2183.74,1099.86,2183.78,1101.56z M2049.62,1608.27c-117.86,142.48-112.65,232.07-311.05,378.35
				c-139.93,103.12-191.63,139.26-474.89,159.63c-121.89,8.72-280,27.46-512.14-30.16c-237.09-58.84-313.86-201.43-423.92-329.19
				C184.59,1620.87,64.17,1514.54,53.6,1233.84c-0.37,12.12-0.59,24.47-0.7,37.03c-2.7,319.47,123.33,428.32,274.72,604.02
				c110.06,127.77,186.83,270.36,423.92,329.19c232.14,57.62,390.25,38.88,512.14,30.12c283.25-20.33,334.96-56.47,474.89-159.59
				c198.4-146.28,193.19-235.87,311.05-378.35c108.99-131.76,140.74-245.63,135.27-471.71
				C2180.04,1394.61,2143.49,1494.84,2049.62,1608.27z"/>
		</g>
		<g>
			<path class="st9" d="M1070.7,2260.33c-89.55,0-194.7-8.85-323.03-40.7c-203.04-50.41-292.84-162.27-379.68-270.44
				c-16.93-21.08-34.43-42.88-52.48-63.84c-14.53-16.87-28.93-33.23-42.86-49.06c-133.11-151.26-238.24-270.74-235.77-565.56
				c1.67-203.15,40.39-363.72,76.06-446.25c82.22-190.24,134.38-251.65,220.79-353.38l17.14-20.21
				c88.95-105.04,189.77-224.08,329.94-282.31c178.11-73.98,280.03-67.09,378.58-60.42c25.33,1.71,51.52,3.49,78.62,3.83
				c138.57,1.77,328.34,4.19,467.97,74c110.44,55.2,153.17,96.45,207.26,148.67c21.24,20.51,45.31,43.75,76.27,70.48
				c99.27,85.75,175.53,180.59,233.11,289.93l0,0c88.47,168,83.98,261.58,78.79,369.95c-1.77,36.89-3.6,75.03-1.85,118.71
				c10.46,260.49-21.69,382.62-137.63,522.74c-40.49,48.94-66.25,91.62-91.15,132.9c-46.9,77.72-91.2,151.14-222.75,248.13
				c-139.99,103.19-192.36,141.8-483.22,162.69c-9.82,0.71-19.87,1.47-30.18,2.26C1185.67,2256.2,1131.81,2260.33,1070.7,2260.33z
				 M970.16,136.21c-73.12,0-155.59,11.46-277.06,61.91C560.07,253.38,461.91,369.3,375.3,471.56l-17.18,20.25
				c-87.36,102.85-135.48,159.5-215.81,345.36c-34.43,79.66-71.8,235.45-73.44,433.83c-2.37,282.6,99.2,398.02,227.79,544.16
				c13.98,15.89,28.44,32.31,43.08,49.31c18.41,21.38,36.09,43.4,53.18,64.69c87.36,108.83,169.88,211.61,362.44,259.42
				c210.91,52.34,358.36,41.05,476.84,31.98c10.36-0.79,20.46-1.57,30.33-2.28c281.61-20.22,331.96-57.34,466.52-156.53
				c126.42-93.22,167.16-160.73,214.34-238.91c25.51-42.28,51.89-85.99,93.9-136.76c111.29-134.5,140.52-246.89,130.31-501.05
				c-1.81-45.09,0.05-83.95,1.86-121.53c4.97-103.68,9.27-193.23-75.14-353.5c-55.69-105.74-129.52-197.53-225.71-280.62
				c-31.63-27.32-56.04-50.89-77.58-71.68c-54.16-52.29-93.29-90.06-199.35-143.07c-133.07-66.54-318.6-68.9-454.07-70.63
				c-27.97-0.36-54.61-2.16-80.37-3.9C1028.43,138.13,1000.07,136.21,970.16,136.21z M1129.22,1556.99
				c-212.19,0-384.82-172.61-384.82-384.79c0-212.19,172.63-384.82,384.82-384.82c212.17,0,384.79,172.63,384.79,384.82
				C1514.01,1384.38,1341.39,1556.99,1129.22,1556.99z M1129.22,819.38c-194.55,0-352.82,158.27-352.82,352.82
				c0,194.53,158.27,352.79,352.82,352.79c194.53,0,352.79-158.26,352.79-352.79C1482.01,977.66,1323.75,819.38,1129.22,819.38z"/>
		</g>
		<g>
			<path class="st9" d="M1129.22,1618.19c-245.94,0-446.03-200.07-446.03-445.99c0-245.94,200.09-446.03,446.03-446.03
				c245.92,0,445.99,200.09,445.99,446.03C1575.21,1418.12,1375.14,1618.19,1129.22,1618.19z M1129.22,758.18
				c-228.3,0-414.03,185.73-414.03,414.02c0,228.27,185.73,413.99,414.03,413.99c228.27,0,413.99-185.71,413.99-413.99
				C1543.21,943.91,1357.49,758.18,1129.22,758.18z"/>
		</g>
		<g>
			<g>
				<path class="st55" d="M1129.2,742.17c-237.48,0-430.02,192.58-430.02,430.02c0,237.48,192.54,430.02,430.02,430.02
					c237.48,0,430.02-192.54,430.02-430.02C1559.22,934.75,1366.69,742.17,1129.2,742.17z M1129.2,1512.66
					c-188.06,0-340.47-152.42-340.47-340.47c0-188.01,152.42-340.47,340.47-340.47c188.05,0,340.47,152.46,340.47,340.47
					C1469.68,1360.24,1317.26,1512.66,1129.2,1512.66z"/>
			</g>
		</g>
		<g class="st14">
			<path class="st9" d="M1129.2,742.17c-237.48,0-430.02,192.58-430.02,430.02c0,237.48,192.54,430.02,430.02,430.02
				c237.48,0,430.02-192.54,430.02-430.02C1559.22,934.75,1366.69,742.17,1129.2,742.17z M1129.2,1512.66
				c-188.06,0-340.47-152.42-340.47-340.47c0-188.01,152.42-340.47,340.47-340.47c188.05,0,340.47,152.46,340.47,340.47
				C1469.68,1360.24,1317.26,1512.66,1129.2,1512.66z"/>
		</g>
		<g class="st4">
			<path class="st6" d="M1558.17,1201.62c-15.08,223.78-201.37,400.59-428.94,400.59c-227.53,0-413.73-176.64-428.98-400.24
				c-0.69,9.83-1.03,19.78-1.03,29.78c0,237.48,192.54,430.02,430.02,430.02s430.02-192.54,430.02-430.02
				C1559.24,1221.62,1558.9,1211.57,1558.17,1201.62z"/>
		</g>
		<g>
			<path class="st9" d="M1129.2,1618.21c-245.94,0-446.02-200.09-446.02-446.02s200.09-446.02,446.02-446.02
				s446.02,200.09,446.02,446.02S1375.14,1618.21,1129.2,1618.21z M1129.2,758.17c-228.29,0-414.02,185.73-414.02,414.02
				s185.73,414.02,414.02,414.02c228.29,0,414.02-185.73,414.02-414.02S1357.49,758.17,1129.2,758.17z M1129.2,1528.66
				c-196.56,0-356.47-159.91-356.47-356.47c0-196.56,159.91-356.47,356.47-356.47s356.47,159.91,356.47,356.47
				C1485.68,1368.75,1325.76,1528.66,1129.2,1528.66z M1129.2,847.72c-178.92,0-324.47,145.56-324.47,324.47
				c0,178.92,145.56,324.47,324.47,324.47c178.91,0,324.47-145.56,324.47-324.47C1453.68,993.27,1308.12,847.72,1129.2,847.72z"/>
		</g>
		<g class="st14">
			<path class="st9" d="M1469.6,1664.5c-11.76,18.28-23.28,36-34.12,53.24c-41.24,65.76-72.64,124.96-69.96,182.72
				c5.16,111.2,58,200.36,6.76,270.24c-59.8,81.56-284.2,113.56-371.16-29.52c-21.76-35.84-53.08-109.44-56.04-190.52
				c-1-26.52,1.08-53.88,7.52-80.96c-39.84,5.44-80.96,9.16-123,11.16c-46.56,2.2-92.2,2.24-136.44,0
				c-0.64,6.6-0.84,13.12-0.52,19.6c0.96,21,3.64,41.24,7,60.68c14.4,83.52,41.32,152.88-0.24,209.56
				c-10.12,13.8-24.96,26.2-43.08,36.52c-148.36-74.08-278.56-179.12-382.08-306.64c2.2-18.12,6.16-36.32,12.2-54.28
				c4.44-13.2,10.04-26.24,16.92-39c4.16-7.72,8.32-15.4,12.44-23.04c-126.52-71.88-207.64-184.2-215.08-340.36
				c-14.6-306.16,167.52-665.32,614.24-715.2c52.84-30.2,124-81.56,161.92-154.44c11.88-22.76,44.8-21.12,54.12,2.88
				c12.36,31.92,24.24,74.04,5.16,130.04c58.56-31.96,116.56-67.92,135.32-86.48c20.08-19.84,54.2-6,54.56,22.2
				c0.24,18.88-3.08,52.6-8.2,87.8c2.64,0.76,5.32,1.52,8.04,2.32c156.36,45.52,387.24,149.08,459.12,372.24
				C1664.44,1351.86,1559.84,1524.26,1469.6,1664.5z"/>
		</g>
		<g class="st14">
			<path class="st9" d="M1425.6,1624.5c28.96-54.64,44.68-116.76,44.52-186.6c55-93.4,95.2-203.72,79.68-342.8
				C1611.88,1325.9,1512.16,1489.98,1425.6,1624.5z"/>
		</g>
		<g class="st14">
			<path class="st9" d="M1629.57,360.61L1629.57,360.61c-1.14-18.43-17.16-32.58-35.59-31.43l-146.23,9.07
				c-18.43,1.14-32.58,17.16-31.43,35.59v0c1.14,18.43,17.16,32.58,35.59,31.43l146.23-9.07
				C1616.57,395.06,1630.72,379.04,1629.57,360.61z"/>
		</g>
		<g>
			<path class="st56" d="M1646.56,333.03L1646.56,333.03c-1.14-18.43-17.16-32.58-35.59-31.43l-146.23,9.07
				c-18.43,1.14-32.58,17.16-31.43,35.59v0c1.14,18.43,17.16,32.58,35.59,31.43l146.23-9.07
				C1633.56,367.48,1647.7,351.46,1646.56,333.03z"/>
		</g>
		<g class="st4">
			<path class="st6" d="M1632.91,362.13c0.57-2.83,0.81-5.74,0.62-8.76c-1.15-18.43-17.17-32.57-35.6-31.42l-146.24,9.06
				c-6.65,0.41-12.75,2.75-17.77,6.47c2.95-14.5,15.38-25.85,30.82-26.82l146.22-9.09c18.43-1.15,34.45,13.04,35.59,31.47
				C1647.27,344.8,1641.78,355.58,1632.91,362.13z"/>
		</g>
		<g class="st14">
			<path class="st9" d="M1615.11,368.62l-146.24,9.06c-12.19,0.77-23.33-5.19-29.8-14.63c-3.31-4.83-5.41-10.57-5.78-16.81
				c-1.15-18.43,13.01-34.43,31.44-35.57l6.63-0.39c-0.91,3.38-1.3,6.95-1.06,10.61c0.4,6.23,2.47,11.98,5.78,16.81
				c6.47,9.44,17.62,15.36,29.82,14.61l139.59-8.65C1641.89,357.26,1629.88,367.72,1615.11,368.62z"/>
		</g>
		<g>
			<path class="st9" d="M1466.79,390.27c-24.13,0-44.46-18.84-45.97-43.24c-1.57-25.36,17.78-47.28,43.14-48.85l146.24-9.07
				c12.26-0.77,24.09,3.32,33.33,11.48c9.25,8.17,14.76,19.41,15.52,31.66c0.76,12.25-3.32,24.09-11.48,33.33
				c-8.17,9.25-19.41,14.76-31.66,15.52l-146.23,9.07C1468.7,390.24,1467.74,390.27,1466.79,390.27z M1613.05,314.05
				c-0.43,0-0.87,0.01-1.31,0.04l-146.24,9.07c-11.59,0.72-20.44,10.74-19.72,22.33c0.72,11.59,10.74,20.39,22.33,19.72l146.23-9.07
				c5.58-0.35,10.71-2.87,14.45-7.11c3.74-4.24,5.61-9.64,5.27-15.22v0c-0.35-5.58-2.87-10.71-7.11-14.45
				C1623.06,315.9,1618.16,314.05,1613.05,314.05z"/>
		</g>
		<g class="st14">
			<path class="st9" d="M1218.44,494.59L1218.44,494.59c-1.14-18.43-17.16-32.58-35.59-31.43l-146.23,9.07
				c-18.43,1.14-32.58,17.16-31.43,35.59v0c1.14,18.43,17.16,32.58,35.59,31.43l146.23-9.07
				C1205.44,529.04,1219.58,513.02,1218.44,494.59z"/>
		</g>
		<g>
			<path class="st57" d="M1235.42,467.01L1235.42,467.01c-1.14-18.43-17.16-32.58-35.59-31.43l-146.23,9.07
				c-18.43,1.14-32.58,17.16-31.43,35.59v0c1.14,18.43,17.16,32.58,35.59,31.43l146.23-9.07
				C1222.42,501.46,1236.57,485.44,1235.42,467.01z"/>
			<path class="st58" d="M1055.65,514.24c-8.77,0-17.16-3.18-23.83-9.07c-7.24-6.4-11.56-15.2-12.15-24.78
				c-0.59-9.58,2.6-18.85,9-26.09c6.4-7.24,15.2-11.56,24.78-12.15l146.23-9.07c9.58-0.58,18.85,2.6,26.09,9
				c7.24,6.4,11.56,15.2,12.15,24.78c0.6,9.58-2.6,18.85-9,26.09c-6.4,7.24-15.2,11.56-24.78,12.15l-146.24,9.07
				C1057.16,514.21,1056.4,514.24,1055.65,514.24z M1201.93,438.01c-0.64,0-1.29,0.02-1.94,0.06l-146.23,9.07
				c-8.25,0.51-15.82,4.23-21.34,10.47c-5.51,6.24-8.26,14.22-7.75,22.47s4.23,15.82,10.47,21.34c6.24,5.51,14.17,8.25,22.47,7.75
				l146.23-9.07c8.25-0.51,15.83-4.23,21.34-10.47c5.51-6.24,8.27-14.22,7.75-22.46v0c-0.51-8.25-4.23-15.82-10.47-21.34
				C1216.71,440.75,1209.48,438.01,1201.93,438.01z"/>
		</g>
		<g class="st4">
			<path class="st6" d="M1221.78,496.11c0.57-2.83,0.81-5.74,0.62-8.76c-1.15-18.43-17.17-32.57-35.6-31.42l-146.24,9.06
				c-6.65,0.41-12.75,2.75-17.77,6.47c2.95-14.5,15.38-25.85,30.82-26.82l146.22-9.09c18.43-1.15,34.45,13.04,35.59,31.47
				C1236.14,478.78,1230.64,489.56,1221.78,496.11z"/>
		</g>
		<g class="st14">
			<path class="st9" d="M1203.98,502.6l-146.24,9.06c-12.19,0.77-23.33-5.19-29.8-14.63c-3.31-4.83-5.41-10.57-5.78-16.81
				c-1.15-18.43,13.01-34.43,31.44-35.57l6.63-0.39c-0.91,3.38-1.3,6.95-1.06,10.61c0.4,6.23,2.47,11.98,5.78,16.81
				c6.47,9.44,17.62,15.36,29.82,14.61l139.59-8.65C1230.76,491.24,1218.75,501.7,1203.98,502.6z"/>
		</g>
		<g>
			<path class="st9" d="M1055.64,524.25c-11.21,0-21.92-4.05-30.44-11.57c-9.25-8.17-14.76-19.41-15.52-31.66
				c-0.76-12.25,3.32-24.09,11.48-33.33c8.17-9.25,19.41-14.76,31.66-15.52l146.23-9.07c12.25-0.78,24.08,3.32,33.33,11.48
				c9.25,8.17,14.76,19.41,15.52,31.66c0.76,12.25-3.32,24.09-11.48,33.33c-8.17,9.25-19.41,14.76-31.66,15.52l-146.24,9.07
				C1057.56,524.22,1056.6,524.25,1055.64,524.25z M1201.92,448.03c-0.44,0-0.87,0.01-1.31,0.04l-146.23,9.07
				c-5.58,0.35-10.71,2.87-14.45,7.11c-3.74,4.24-5.61,9.64-5.27,15.22c0.35,5.58,2.87,10.71,7.11,14.45
				c4.24,3.74,9.65,5.61,15.22,5.27l146.23-9.07c5.58-0.35,10.71-2.87,14.45-7.11c3.74-4.24,5.61-9.64,5.27-15.22v0
				c-0.35-5.58-2.87-10.71-7.11-14.45C1211.92,449.88,1207.03,448.03,1201.92,448.03z"/>
		</g>
		<g class="st14">
			<path class="st9" d="M1110.23,261.8L1110.23,261.8c-1.14-18.43-17.16-32.58-35.59-31.43l-146.23,9.07
				c-18.43,1.14-32.58,17.16-31.43,35.59v0c1.14,18.43,17.16,32.58,35.59,31.43l146.23-9.07
				C1097.22,296.25,1111.37,280.23,1110.23,261.8z"/>
		</g>
		<g>
			<path class="st59" d="M1127.21,234.22L1127.21,234.22c-1.14-18.43-17.16-32.58-35.59-31.43l-146.23,9.07
				c-18.43,1.14-32.58,17.16-31.43,35.59l0,0c1.14,18.43,17.16,32.58,35.59,31.43l146.23-9.07
				C1114.21,268.66,1128.35,252.65,1127.21,234.22z"/>
			<path class="st58" d="M947.44,281.45c-18.88,0-34.8-14.75-35.98-33.85c-0.6-9.58,2.6-18.85,9-26.09
				c6.4-7.24,15.2-11.56,24.78-12.15l146.23-9.07c19.78-1.23,37.01,13.92,38.24,33.78c1.23,19.86-13.92,37.01-33.78,38.24
				l-146.23,9.07C948.94,281.42,948.19,281.45,947.44,281.45z M1093.72,205.22c-0.64,0-1.29,0.02-1.94,0.06l-146.23,9.07
				c-8.25,0.51-15.83,4.23-21.34,10.47c-5.51,6.24-8.27,14.22-7.75,22.47c0.51,8.25,4.23,15.83,10.47,21.34
				c6.24,5.51,14.19,8.27,22.47,7.75l146.23-9.07c17.1-1.06,30.15-15.84,29.09-32.94l0,0c-0.51-8.24-4.23-15.82-10.47-21.34
				C1108.49,207.96,1101.27,205.22,1093.72,205.22z"/>
		</g>
		<g class="st4">
			<path class="st6" d="M1113.56,263.32c0.58-2.83,0.81-5.74,0.62-8.76c-1.15-18.43-17.17-32.57-35.6-31.42l-146.24,9.06
				c-6.65,0.41-12.75,2.75-17.77,6.47c2.95-14.5,15.38-25.85,30.82-26.82l146.22-9.09c18.43-1.15,34.45,13.04,35.59,31.47
				C1127.92,245.99,1122.43,256.77,1113.56,263.32z"/>
		</g>
		<g class="st14">
			<path class="st9" d="M1095.77,269.81l-146.24,9.06c-12.19,0.77-23.33-5.19-29.8-14.63c-3.31-4.83-5.41-10.57-5.78-16.81
				c-1.15-18.43,13.01-34.43,31.44-35.57l6.63-0.39c-0.91,3.38-1.3,6.95-1.06,10.61c0.4,6.23,2.47,11.98,5.78,16.81
				c6.47,9.44,17.62,15.36,29.82,14.61l139.59-8.65C1122.54,258.44,1110.53,268.9,1095.77,269.81z"/>
		</g>
		<g>
			<path class="st9" d="M947.42,291.46c-11.21,0-21.92-4.06-30.44-11.58c-9.25-8.17-14.76-19.41-15.52-31.66
				c-0.76-12.25,3.32-24.09,11.48-33.33c8.17-9.25,19.41-14.76,31.66-15.52l146.23-9.07c12.24-0.75,24.09,3.32,33.33,11.49
				c9.25,8.17,14.76,19.41,15.52,31.66l0,0c1.57,25.37-17.78,47.28-43.15,48.85l-146.23,9.07
				C949.35,291.43,948.38,291.46,947.42,291.46z M1093.7,215.23c-0.44,0-0.87,0.01-1.31,0.04l-146.23,9.07
				c-5.58,0.35-10.71,2.87-14.45,7.11c-3.74,4.24-5.61,9.64-5.27,15.22c0.35,5.58,2.87,10.71,7.11,14.46s9.64,5.61,15.22,5.27
				l146.23-9.07c11.59-0.72,20.44-10.73,19.72-22.33l0,0c-0.35-5.58-2.87-10.71-7.11-14.45
				C1103.71,217.09,1098.81,215.23,1093.7,215.23z"/>
		</g>
		<g class="st14">
			<path class="st9" d="M669.8,315.5L669.8,315.5c-18.13,3.5-30.11,21.2-26.61,39.33l27.76,143.86c3.5,18.13,21.2,30.11,39.33,26.61
				h0c18.13-3.5,30.11-21.2,26.61-39.33L709.13,342.1C705.63,323.97,687.93,312,669.8,315.5z"/>
		</g>
		<g>
			<path class="st56" d="M640.27,302.19L640.27,302.19c-18.13,3.5-30.11,21.2-26.61,39.33l27.76,143.86
				c3.5,18.13,21.2,30.11,39.33,26.61h0c18.13-3.5,30.11-21.2,26.61-39.33L679.6,328.8C676.1,310.67,658.4,298.7,640.27,302.19z"/>
		</g>
		<g class="st4">
			<path class="st6" d="M670.88,311.99c-2.88-0.21-5.8-0.07-8.76,0.51c-18.13,3.5-30.1,21.21-26.59,39.34l27.75,143.87
				c1.26,6.55,4.36,12.29,8.7,16.79c-14.75-1.06-27.61-11.94-30.55-27.13l-27.77-143.85c-3.5-18.13,8.51-35.83,26.64-39.34
				C651.85,299.98,663.24,304.04,670.88,311.99z"/>
		</g>
		<g class="st14">
			<path class="st9" d="M679.6,328.81l27.75,143.87c2.33,11.99-2.15,23.8-10.68,31.43c-4.36,3.9-9.79,6.72-15.93,7.89
				c-18.13,3.5-35.81-8.48-39.31-26.62l-1.24-6.52c3.47,0.47,7.06,0.4,10.66-0.31c6.12-1.19,11.57-3.99,15.93-7.89
				c8.53-7.63,12.97-19.44,10.66-31.45l-26.49-137.32C664.89,303.71,676.81,314.28,679.6,328.81z"/>
		</g>
		<g>
			<path class="st9" d="M674.35,525.12c-9.11,0-18.02-2.72-25.76-7.96c-10.22-6.91-17.13-17.36-19.45-29.41l-27.76-143.86
				c-4.81-24.95,11.57-49.17,36.52-53.99h0c12.04-2.33,24.31,0.2,34.53,7.11c10.22,6.91,17.13,17.36,19.45,29.41l27.76,143.86
				c2.33,12.05-0.2,24.32-7.11,34.53c-6.91,10.22-17.36,17.13-29.41,19.45C680.2,524.84,677.26,525.12,674.35,525.12z
				 M642.64,314.48c-11.41,2.2-18.89,13.27-16.69,24.68l27.76,143.86c1.06,5.49,4.22,10.25,8.9,13.42
				c4.68,3.17,10.28,4.32,15.77,3.27c5.49-1.06,10.25-4.22,13.42-8.9c3.17-4.68,4.33-10.28,3.27-15.77l-27.76-143.86
				C665.11,319.77,654.04,312.29,642.64,314.48L642.64,314.48z"/>
		</g>
		<g class="st14">
			<path class="st9" d="M492.82,635.75L492.82,635.75c-4.34-17.95-22.58-29.09-40.53-24.75l-142.41,34.42
				c-17.95,4.34-29.09,22.58-24.75,40.53l0,0c4.34,17.95,22.58,29.09,40.52,24.75l142.41-34.42
				C486.02,671.94,497.16,653.7,492.82,635.75z"/>
		</g>
		<g>
			<path class="st57" d="M504.73,605.63L504.73,605.63c-4.34-17.95-22.58-29.09-40.53-24.75L321.8,615.31
				c-17.95,4.34-29.09,22.58-24.75,40.53v0c4.34,17.95,22.58,29.09,40.53,24.75l142.41-34.42
				C497.94,641.82,509.07,623.58,504.73,605.63z"/>
			<path class="st58" d="M329.69,684.03c-16.27,0-31.08-11.11-35.07-27.6c-4.68-19.34,7.25-38.87,26.59-43.54l142.41-34.43
				c19.34-4.67,38.87,7.26,43.54,26.59c4.68,19.34-7.25,38.87-26.59,43.54l-142.41,34.42C335.33,683.7,332.48,684.03,329.69,684.03z
				 M472.1,582.44c-2.41,0-4.86,0.28-7.3,0.87l-142.41,34.43c-8.03,1.94-14.84,6.92-19.18,14.03c-4.34,7.11-5.66,15.44-3.72,23.47
				c4.03,16.66,20.84,26.93,37.5,22.9l142.41-34.42c16.65-4.03,26.93-20.85,22.9-37.5C498.87,592.01,486.11,582.44,472.1,582.44z"/>
		</g>
		<g class="st14">
			<path class="st6" d="M496.37,636.67c0.07-2.88-0.2-5.79-0.92-8.73c-4.34-17.95-22.58-29.08-40.53-24.73L312.5,637.62
				c-6.48,1.57-12.07,4.93-16.37,9.47c0.37-14.79,10.64-28.13,25.67-31.78l142.4-34.44c17.95-4.34,36.19,6.83,40.53,24.78
				C507.49,617.1,503.96,628.67,496.37,636.67z"/>
		</g>
		<g class="st14">
			<path class="st9" d="M479.98,646.16l-142.42,34.42c-11.86,2.89-23.87-1.04-31.89-9.21c-4.1-4.18-7.17-9.46-8.62-15.55
				c-4.34-17.95,6.81-36.17,24.76-40.51l6.46-1.54c-0.31,3.49-0.07,7.07,0.81,10.64c1.48,6.06,4.52,11.37,8.62,15.55
				c8.02,8.17,20.03,12.05,31.91,9.19l135.94-32.85C504.36,630.3,494.36,642.69,479.98,646.16z"/>
		</g>
		<g>
			<path class="st9" d="M329.67,694.04c-8.37,0-16.62-2.31-23.98-6.8c-10.53-6.43-17.92-16.54-20.8-28.47
				c-5.97-24.7,9.27-49.66,33.97-55.63l142.41-34.43c11.92-2.88,24.29-0.93,34.83,5.5c10.53,6.43,17.92,16.54,20.8,28.47
				c5.97,24.7-9.27,49.66-33.97,55.63l-142.41,34.42C336.92,693.61,333.28,694.04,329.67,694.04z M472.1,592.45
				c-1.63,0-3.29,0.19-4.95,0.59l-142.41,34.43c-11.29,2.73-18.25,14.13-15.52,25.42c2.73,11.29,14.12,18.26,25.42,15.52
				l142.41-34.42c11.29-2.73,18.25-14.13,15.52-25.42C490.24,598.94,481.59,592.45,472.1,592.45z"/>
		</g>
		<g class="st14">
			<path class="st9" d="M1366.87,586.07L1366.87,586.07c12.22-13.84,33.55-15.17,47.39-2.95l109.83,96.97
				c13.84,12.22,15.17,33.55,2.95,47.39l0,0c-12.22,13.84-33.55,15.17-47.39,2.95l-109.83-96.97
				C1355.98,621.24,1354.65,599.91,1366.87,586.07z"/>
		</g>
		<g>
			<path class="st59" d="M1370.41,553.87L1370.41,553.87c12.22-13.84,33.55-15.17,47.39-2.95l109.83,96.97
				c13.84,12.22,15.17,33.55,2.95,47.39v0c-12.22,13.84-33.55,15.17-47.39,2.95l-109.83-96.97
				C1359.51,589.04,1358.19,567.71,1370.41,553.87z"/>
			<path class="st58" d="M1505.34,709.1c-8.81,0-17.19-3.15-23.81-8.99l-109.83-96.97c-7.2-6.35-11.49-15.16-12.09-24.81
				c-0.6-9.65,2.57-18.92,8.92-26.12l0,0c13.16-14.91,36.01-16.34,50.92-3.17l109.83,96.97c14.91,13.16,16.33,36.01,3.17,50.92
				c-6.35,7.2-15.16,11.49-24.81,12.09C1506.87,709.08,1506.1,709.1,1505.34,709.1z M1395.6,545.03c-8.61,0-17.18,3.54-23.31,10.49
				l0,0c-5.47,6.19-8.2,14.18-7.68,22.49c0.52,8.31,4.21,15.9,10.41,21.37l109.83,96.97c12.85,11.34,32.52,10.11,43.86-2.73
				c11.34-12.85,10.11-32.52-2.73-43.86l-109.83-96.97C1410.25,547.59,1402.91,545.03,1395.6,545.03z"/>
		</g>
		<g class="st4">
			<path class="st6" d="M1363.3,585.22c1.28-2.58,2.88-5.03,4.89-7.29c12.22-13.84,33.55-15.16,47.39-2.93l109.84,96.97
				c5,4.41,8.37,10,10.05,16.02c6.58-13.25,3.74-29.84-7.85-40.09l-109.81-96.98c-13.84-12.22-35.19-10.87-47.41,2.97
				C1362.62,562.72,1360.33,574.6,1363.3,585.22z"/>
		</g>
		<g class="st14">
			<path class="st9" d="M1373.36,601.27l109.84,96.97c9.14,8.1,21.59,10.23,32.5,6.76c5.58-1.78,10.76-5.02,14.89-9.72
				c12.22-13.84,10.88-35.16-2.96-47.38l-4.99-4.38c-1.35,3.23-3.24,6.28-5.68,9.03c-4.14,4.67-9.31,7.94-14.89,9.72
				c-10.9,3.48-23.34,1.3-32.51-6.79l-104.85-92.56C1359.21,575.85,1362.27,591.49,1373.36,601.27z"/>
		</g>
		<g>
			<path class="st9" d="M1505.38,719.13c-10.84,0-21.73-3.79-30.48-11.52l-109.83-96.97c-9.2-8.12-14.69-19.38-15.46-31.69
				c-0.76-12.31,3.29-24.16,11.41-33.36c16.82-19.05,46-20.86,65.05-4.05l109.83,96.97c19.05,16.82,20.86,46,4.05,65.05
				C1530.86,713.87,1518.15,719.13,1505.38,719.13z M1395.59,555.04c-5.83,0-11.65,2.4-15.8,7.11l0,0c-3.7,4.19-5.54,9.6-5.19,15.25
				s2.85,10.79,7.04,14.48l109.83,96.97c4.19,3.7,9.61,5.52,15.25,5.19c5.64-0.35,10.79-2.85,14.48-7.04
				c7.69-8.71,6.86-22.05-1.85-29.73l-109.83-96.97C1405.52,556.77,1400.55,555.04,1395.59,555.04z M1370.41,553.87h0.05H1370.41z"
				/>
		</g>
		<g class="st14">
			<path class="st9" d="M1922.36,759.55L1922.36,759.55c13.67-12.42,14.69-33.76,2.27-47.43l-98.54-108.43
				c-12.42-13.67-33.76-14.69-47.43-2.27v0c-13.67,12.42-14.69,33.76-2.27,47.43l98.54,108.43
				C1887.35,770.95,1908.69,771.97,1922.36,759.55z"/>
		</g>
		<g>
			<path class="st57" d="M1954.5,755.55L1954.5,755.55c13.67-12.42,14.69-33.76,2.27-47.43l-98.54-108.43
				c-12.42-13.67-33.76-14.69-47.43-2.27l0,0c-13.67,12.42-14.69,33.76-2.27,47.43l98.54,108.43
				C1919.49,766.95,1940.83,767.97,1954.5,755.55z"/>
			<path class="st58" d="M1931.93,766.77c-9.82,0-19.61-3.97-26.72-11.8l-98.54-108.43c-13.38-14.72-12.29-37.58,2.44-50.96
				c7.1-6.46,16.32-9.75,25.98-9.29c9.65,0.46,18.52,4.63,24.98,11.73l98.54,108.43c13.38,14.72,12.29,37.58-2.44,50.96l0,0
				C1949.28,763.67,1940.6,766.77,1931.93,766.77z M1833.36,591.22c-7.46,0-14.94,2.66-20.88,8.06c-6.11,5.56-9.7,13.2-10.1,21.51
				c-0.4,8.32,2.44,16.26,8,22.38l98.54,108.43c11.52,12.68,31.21,13.62,43.89,2.09c12.68-11.52,13.62-31.21,2.09-43.89
				l-98.54-108.43C1850.25,594.64,1841.82,591.22,1833.36,591.22z"/>
		</g>
		<g class="st4">
			<path class="st6" d="M1923.26,763.11c2.56-1.32,4.99-2.96,7.22-4.99c13.66-12.42,14.67-33.77,2.25-47.43l-98.53-108.44
				c-4.48-4.93-10.12-8.22-16.17-9.82c13.15-6.77,29.79-4.16,40.2,7.28l98.54,108.41c12.42,13.66,11.37,35.03-2.29,47.45
				C1945.76,763.47,1933.92,765.93,1923.26,763.11z"/>
		</g>
		<g class="st14">
			<path class="st9" d="M1907.06,753.28l-98.53-108.44c-8.23-9.02-10.54-21.45-7.22-32.4c1.7-5.6,4.86-10.83,9.5-15.02
				c13.66-12.42,35-11.38,47.42,2.28l4.45,4.92c-3.21,1.4-6.23,3.33-8.94,5.81c-4.61,4.2-7.81,9.42-9.5,15.02
				c-3.32,10.95-0.96,23.35,7.25,32.41l94.05,103.51C1932.68,767.06,1917.01,764.24,1907.06,753.28z"/>
		</g>
		<g>
			<path class="st9" d="M1931.94,776.77c-12.54,0-25.05-5.08-34.13-15.07l-98.54-108.43c-8.25-9.08-12.48-20.87-11.89-33.19
				c0.59-12.32,5.92-23.66,15-31.91c18.81-17.09,48.01-15.7,65.1,3.11l98.54,108.43c17.09,18.81,15.7,48.01-3.11,65.1l0,0
				C1954.1,772.82,1943,776.77,1931.94,776.77z M1954.5,755.55h0.05H1954.5z M1833.34,601.25c-5.26,0-10.24,1.91-14.12,5.43
				c-4.14,3.76-6.56,8.94-6.83,14.58c-0.27,5.65,1.65,11.03,5.41,15.17l98.54,108.43c7.81,8.59,21.16,9.23,29.75,1.42l0,0
				c8.59-7.81,9.23-21.16,1.42-29.75l-98.54-108.43c-3.76-4.14-8.94-6.56-14.58-6.83C1834.03,601.26,1833.68,601.25,1833.34,601.25z
				"/>
		</g>
		<g class="st14">
			<path class="st9" d="M1763.88,854.56L1763.88,854.56c-18.03-3.97-36.04,7.53-40.01,25.57l-31.51,143.08
				c-3.97,18.03,7.53,36.04,25.57,40.01l0,0c18.03,3.97,36.04-7.53,40.01-25.57l31.51-143.08
				C1793.42,876.53,1781.92,858.53,1763.88,854.56z"/>
		</g>
		<g>
			<path class="st56" d="M1742.04,830.64L1742.04,830.64c-18.03-3.97-36.04,7.53-40.01,25.57l-31.51,143.08
				c-3.97,18.03,7.53,36.04,25.57,40.01l0,0c18.03,3.97,36.04-7.53,40.01-25.57l31.51-143.08
				C1771.58,852.62,1760.07,834.61,1742.04,830.64z"/>
		</g>
		<g class="st4">
			<path class="st6" d="M1766.26,851.76c-2.56-1.33-5.29-2.36-8.25-3c-18.03-3.97-36.03,7.55-40,25.58l-31.52,143.09
				c-1.43,6.51-0.86,13.01,1.33,18.87c-13.13-6.82-20.62-21.9-17.3-37.01l31.49-143.08c3.97-18.03,22.01-29.53,40.05-25.56
				C1753.55,833.19,1762.4,841.44,1766.26,851.76z"/>
		</g>
		<g class="st14">
			<path class="st9" d="M1767.61,870.66l-31.52,143.09c-2.61,11.93-11.4,21-22.26,24.62c-5.55,1.85-11.65,2.29-17.75,0.93
				c-18.03-3.97-29.52-21.98-25.55-40.01l1.44-6.48c3,1.81,6.32,3.16,9.91,3.94c6.09,1.33,12.2,0.92,17.75-0.93
				c10.86-3.62,19.61-12.71,22.25-24.65l30.09-136.58C1764.05,841.79,1770.8,856.21,1767.61,870.66z"/>
		</g>
		<g>
			<path class="st9" d="M1703.34,1052.61c-3.31,0-6.64-0.36-9.94-1.09c-24.82-5.47-40.56-30.1-35.1-54.92l31.51-143.08
				c2.64-11.99,9.82-22.25,20.21-28.89c10.39-6.64,22.72-8.85,34.71-6.21c11.99,2.64,22.25,9.82,28.89,20.21s8.85,22.72,6.21,34.71
				l-31.51,143.09c-2.64,11.99-9.82,22.25-20.21,28.89C1720.57,1050.13,1712.03,1052.61,1703.34,1052.61z M1734.84,842.37
				c-3.97,0-7.88,1.14-11.34,3.35c-4.76,3.04-8.05,7.73-9.25,13.18l-31.51,143.08c-1.2,5.46-0.19,11.09,2.86,15.85
				s7.73,8.05,13.18,9.25c5.47,1.2,11.09,0.19,15.85-2.86c4.76-3.04,8.05-7.72,9.25-13.18l31.51-143.09
				c2.5-11.34-4.7-22.6-16.04-25.1C1737.85,842.53,1736.34,842.37,1734.84,842.37z"/>
		</g>
		<g class="st14">
			<path class="st9" d="M2099.03,1084.77L2099.03,1084.77c-3.01-18.22-20.39-30.66-38.61-27.65l-144.55,23.91
				c-18.22,3.01-30.66,20.39-27.65,38.61l0,0c3.01,18.22,20.39,30.66,38.61,27.65l144.55-23.91
				C2089.6,1120.36,2102.04,1102.99,2099.03,1084.77z"/>
		</g>
		<g>
			<path class="st6" d="M2113.12,1055.6L2113.12,1055.6c-3.01-18.22-20.39-30.66-38.61-27.65l-144.55,23.91
				c-18.22,3.01-30.66,20.39-27.65,38.61v0c3.01,18.22,20.39,30.66,38.61,27.65l144.55-23.91
				C2103.69,1091.2,2116.13,1073.82,2113.12,1055.6z"/>
		</g>
		<g class="st4">
			<path class="st6" d="M2102.51,1085.94c0.28-2.87,0.22-5.79-0.28-8.77c-3.02-18.22-20.4-30.65-38.61-27.63l-144.56,23.9
				c-6.58,1.09-12.4,4.04-17.02,8.25c1.45-14.72,12.67-27.28,27.93-29.82l144.54-23.93c18.22-3.02,35.59,9.46,38.61,27.68
				C2115.02,1067.24,2110.66,1078.52,2102.51,1085.94z"/>
		</g>
		<g class="st14">
			<path class="st9" d="M2085.46,1094.22l-144.56,23.9c-12.04,2.01-23.73-2.78-31.13-11.52c-3.78-4.47-6.45-9.96-7.46-16.14
				c-3.02-18.22,9.44-35.57,27.66-38.59l6.55-1.07c-0.57,3.45-0.58,7.05,0.03,10.67c1.03,6.15,3.68,11.67,7.46,16.14
				c7.4,8.73,19.09,13.48,31.16,11.5l137.98-22.81C2110.94,1080.18,2100.06,1091.81,2085.46,1094.22z"/>
		</g>
		<g>
			<path class="st9" d="M1935.42,1131.09c-22.13,0-41.72-16.03-45.45-38.57c-2-12.11,0.85-24.3,8.03-34.33
				c7.18-10.03,17.81-16.66,29.92-18.66l144.55-23.91c12.1-2.01,24.3,0.84,34.33,8.03c10.03,7.18,16.66,17.81,18.66,29.91l0,0
				c2,12.11-0.85,24.3-8.03,34.33c-7.19,10.03-17.81,16.66-29.92,18.66l-144.55,23.91
				C1940.43,1130.89,1937.91,1131.09,1935.42,1131.09z M2079.99,1040.02c-1.14,0-2.29,0.1-3.43,0.28L1932,1064.21
				c-11.46,1.89-19.24,12.76-17.34,24.22c1.9,11.46,12.74,19.22,24.22,17.34l144.55-23.91c5.52-0.91,10.37-3.95,13.66-8.54
				c3.29-4.59,4.6-10.16,3.69-15.68v0c-0.91-5.51-3.95-10.36-8.54-13.65C2088.59,1041.38,2084.34,1040.02,2079.99,1040.02z"/>
		</g>
		<g class="st14">
			<path class="st9" d="M1824.33,1321.63L1824.33,1321.63c-3.01-18.22-20.39-30.66-38.61-27.65l-144.55,23.91
				c-18.22,3.01-30.66,20.39-27.65,38.61v0c3.01,18.22,20.39,30.66,38.61,27.65l144.55-23.91
				C1814.9,1357.22,1827.34,1339.85,1824.33,1321.63z"/>
		</g>
		<g>
			<path class="st59" d="M1838.42,1292.46L1838.42,1292.46c-3.01-18.22-20.39-30.66-38.61-27.65l-144.55,23.91
				c-18.22,3.01-30.66,20.39-27.65,38.61l0,0c3.01,18.22,20.39,30.66,38.61,27.65l144.55-23.91
				C1828.99,1328.06,1841.43,1310.68,1838.42,1292.46z"/>
			<path class="st58" d="M1660.71,1357.94c-7.46,0-14.74-2.33-20.95-6.78c-7.86-5.62-13.05-13.94-14.61-23.41
				c-1.57-9.47,0.67-19.01,6.29-26.87c5.62-7.86,13.94-13.05,23.41-14.61l144.55-23.91c19.6-3.26,38.23,10.08,41.48,29.71l0,0
				c3.25,19.63-10.08,38.23-29.71,41.48l-144.55,23.91C1664.66,1357.78,1662.68,1357.94,1660.71,1357.94z M1805.31,1266.87
				c-1.68,0-3.38,0.14-5.09,0.42l-144.55,23.91c-8.15,1.35-15.31,5.82-20.16,12.59c-4.85,6.77-6.77,14.99-5.43,23.14
				s5.82,15.31,12.59,20.16c6.77,4.85,15,6.77,23.14,5.43l144.55-23.91c16.9-2.8,28.38-18.83,25.59-35.73l0,0
				C1833.43,1277.68,1820.23,1266.87,1805.31,1266.87z"/>
		</g>
		<g class="st4">
			<path class="st6" d="M1827.81,1322.8c0.28-2.87,0.22-5.79-0.28-8.77c-3.02-18.22-20.4-30.65-38.61-27.63l-144.56,23.9
				c-6.58,1.09-12.4,4.04-17.02,8.25c1.45-14.72,12.67-27.28,27.93-29.82l144.54-23.93c18.22-3.02,35.59,9.46,38.61,27.68
				C1840.32,1304.1,1835.96,1315.38,1827.81,1322.8z"/>
		</g>
		<g class="st14">
			<path class="st9" d="M1810.76,1331.07l-144.56,23.9c-12.04,2.01-23.73-2.78-31.13-11.52c-3.78-4.47-6.45-9.96-7.46-16.14
				c-3.02-18.22,9.44-35.57,27.65-38.59l6.55-1.07c-0.57,3.45-0.58,7.05,0.03,10.67c1.03,6.15,3.68,11.67,7.46,16.14
				c7.4,8.73,19.09,13.48,31.16,11.5l137.98-22.81C1836.24,1317.04,1825.36,1328.67,1810.76,1331.07z"/>
		</g>
		<g>
			<path class="st9" d="M1660.69,1367.95c-9.53,0-18.82-2.97-26.76-8.65c-10.03-7.19-16.66-17.81-18.66-29.92
				c-2-12.11,0.85-24.3,8.03-34.33c7.19-10.03,17.81-16.66,29.92-18.66l144.55-23.91c25.06-4.15,48.85,12.87,52.99,37.95v0
				c4.15,25.07-12.88,48.84-37.95,52.99l-144.55,23.91C1665.74,1367.74,1663.21,1367.95,1660.69,1367.95z M1805.3,1276.88
				c-1.14,0-2.29,0.09-3.45,0.28l-144.55,23.91c-5.52,0.91-10.37,3.95-13.66,8.54c-3.29,4.59-4.6,10.16-3.69,15.67
				c0.91,5.52,3.95,10.37,8.54,13.66c4.59,3.29,10.16,4.59,15.68,3.69l144.55-23.91c11.46-1.9,19.24-12.76,17.34-24.22l0,0
				C1824.37,1284.21,1815.41,1276.88,1805.3,1276.88z"/>
		</g>
		<g class="st14">
			<path class="st9" d="M2002.11,1437.43L2002.11,1437.43c-17.93-4.43-36.22,6.62-40.65,24.54l-35.13,142.24
				c-4.43,17.93,6.62,36.22,24.54,40.65h0c17.93,4.43,36.22-6.62,40.65-24.54l35.13-142.24
				C2031.08,1460.15,2020.04,1441.86,2002.11,1437.43z"/>
		</g>
		<g>
			<path class="st57" d="M1980.88,1412.97L1980.88,1412.97c-17.93-4.43-36.22,6.62-40.65,24.54l-35.13,142.24
				c-4.43,17.93,6.62,36.22,24.54,40.65h0c17.93,4.43,36.22-6.62,40.65-24.54l35.13-142.24
				C2009.85,1435.69,1998.81,1417.4,1980.88,1412.97z"/>
			<path class="st58" d="M1937.69,1623.89c-2.86,0-5.75-0.34-8.65-1.06c-9.32-2.3-17.2-8.12-22.2-16.4
				c-5-8.27-6.48-17.96-4.17-27.28l35.13-142.24c2.3-9.32,8.12-17.2,16.4-22.2c8.27-5,17.97-6.48,27.28-4.17
				c19.31,4.77,31.14,24.36,26.37,43.68l-35.13,142.24C1968.67,1612.87,1953.89,1623.88,1937.69,1623.89z M1972.84,1414.49
				c-5.59,0-11.11,1.53-16.05,4.51c-7.13,4.3-12.15,11.09-14.13,19.11l-35.13,142.24c-1.98,8.02-0.7,16.36,3.6,23.49
				c4.3,7.13,11.09,12.15,19.11,14.13c16.64,4.1,33.51-6.08,37.62-22.71l35.13-142.24c1.98-8.02,0.7-16.36-3.6-23.49
				c-4.3-7.13-11.09-12.15-19.11-14.13l0,0C1977.82,1414.79,1975.32,1414.49,1972.84,1414.49z"/>
		</g>
		<g class="st4">
			<path class="st6" d="M2004.56,1434.7c-2.52-1.39-5.23-2.49-8.17-3.21c-17.93-4.43-36.21,6.63-40.64,24.56l-35.15,142.24
				c-1.6,6.47-1.19,12.98,0.86,18.89c-12.95-7.15-20.05-22.41-16.36-37.44l35.12-142.23c4.43-17.93,22.75-28.96,40.68-24.54
				C1992.32,1415.82,2000.96,1424.28,2004.56,1434.7z"/>
		</g>
		<g class="st14">
			<path class="st9" d="M2005.43,1453.63l-35.15,142.24c-2.91,11.86-11.93,20.7-22.88,24.05c-5.6,1.71-11.7,1.99-17.77,0.48
				c-17.93-4.43-28.95-22.72-24.53-40.65l1.61-6.44c2.95,1.88,6.24,3.32,9.81,4.19c6.06,1.48,12.17,1.23,17.77-0.48
				c10.95-3.34,19.93-12.21,22.87-24.08l33.55-135.77C2002.6,1424.68,2008.98,1439.27,2005.43,1453.63z"/>
		</g>
		<g>
			<path class="st9" d="M1937.69,1633.9c-3.65,0-7.35-0.44-11.05-1.35c-11.91-2.94-21.99-10.38-28.37-20.94
				c-6.38-10.56-8.27-22.94-5.32-34.85l35.13-142.24c2.94-11.91,10.38-21.99,20.94-28.37c10.56-6.38,22.95-8.26,34.85-5.32l0,0
				c24.67,6.09,39.79,31.12,33.7,55.8l-35.13,142.24C1977.26,1619.83,1958.39,1633.9,1937.69,1633.9z M1972.85,1424.51
				c-3.79,0-7.54,1.04-10.89,3.07c-4.84,2.92-8.24,7.52-9.58,12.94l-35.13,142.24c-1.34,5.43-0.47,11.08,2.45,15.92
				s7.52,8.24,12.94,9.58c11.28,2.8,22.72-4.12,25.5-15.4l35.13-142.24c1.34-5.42,0.47-11.08-2.45-15.92s-7.52-8.24-12.94-9.58h0
				C1976.22,1424.71,1974.53,1424.51,1972.85,1424.51z"/>
		</g>
		<g class="st14">
			<path class="st9" d="M1678.7,1594.06L1678.7,1594.06c-10.02-15.51-30.91-20.01-46.42-9.99l-123.08,79.48
				c-15.51,10.02-20.01,30.91-9.99,46.42l0,0c10.02,15.51,30.91,20.01,46.42,9.99l123.08-79.48
				C1684.22,1630.47,1688.72,1609.58,1678.7,1594.06z"/>
		</g>
		<g>
			<path class="st56" d="M1680.01,1561.7L1680.01,1561.7c-10.02-15.51-30.91-20.01-46.42-9.99l-123.08,79.48
				c-15.51,10.02-20.01,30.91-9.99,46.42h0c10.02,15.51,30.91,20.01,46.42,9.99l123.08-79.48
				C1685.53,1598.1,1690.03,1577.21,1680.01,1561.7z"/>
		</g>
		<g class="st4">
			<path class="st6" d="M1682.35,1593.75c-0.88-2.75-2.1-5.4-3.75-7.94c-10.02-15.51-30.91-20-46.42-9.98l-123.09,79.48
				c-5.6,3.62-9.77,8.64-12.33,14.34c-4.53-14.08,0.76-30.07,13.75-38.47l123.06-79.49c15.51-10.02,36.42-5.49,46.44,10.02
				C1686.39,1571.61,1686.88,1583.7,1682.35,1593.75z"/>
		</g>
		<g class="st14">
			<path class="st9" d="M1670.01,1608.13l-123.09,79.48c-10.25,6.64-22.88,6.89-33.14,1.83c-5.25-2.59-9.89-6.57-13.27-11.83
				c-10.02-15.51-5.51-36.39,10.01-46.41l5.59-3.59c0.86,3.39,2.27,6.7,4.27,9.77c3.39,5.23,8.02,9.24,13.27,11.83
				c10.26,5.07,22.88,4.77,33.16-1.86l117.49-75.86C1687.8,1585.11,1682.44,1600.11,1670.01,1608.13z"/>
		</g>
		<g>
			<path class="st9" d="M1528.79,1705.47c-15.14,0-29.98-7.43-38.79-21.07c-13.79-21.35-7.63-49.94,13.71-63.72l123.08-79.48
				c21.34-13.79,49.93-7.64,63.72,13.71c6.66,10.31,8.9,22.63,6.3,34.69s-9.7,22.37-20.01,29.03l-123.08,79.48
				C1546.01,1703.09,1537.36,1705.47,1528.79,1705.47z M1651.77,1558.86c-3.91,0-7.87,1.09-11.39,3.36l-123.08,79.48
				c-9.76,6.3-12.57,19.37-6.26,29.12c6.3,9.76,19.36,12.57,29.12,6.27l123.08-79.48c4.69-3.03,7.93-7.75,9.12-13.27
				c1.19-5.52,0.18-11.15-2.86-15.85h0C1665.47,1562.25,1658.69,1558.86,1651.77,1558.86z"/>
		</g>
		<g class="st14">
			<path class="st9" d="M844.13,1937.73L844.13,1937.73c-14.95-7.66-33.46-1.7-41.12,13.25l-60.81,118.65
				c-7.66,14.95-1.7,33.46,13.25,41.12h0c14.95,7.66,33.46,1.7,41.12-13.25l60.81-118.65
				C865.05,1963.9,859.09,1945.39,844.13,1937.73z"/>
		</g>
		<g>
			<path class="st59" d="M830.43,1911.63L830.43,1911.63c-14.95-7.66-33.46-1.7-41.12,13.25l-60.81,118.65
				c-7.66,14.95-1.7,33.46,13.25,41.12h0c14.95,7.66,33.46,1.7,41.12-13.25l60.81-118.65
				C851.35,1937.8,845.39,1919.29,830.43,1911.63z"/>
			<path class="st58" d="M755.64,2090.52c-5.07,0-10.21-1.17-15.02-3.64c-16.22-8.32-22.65-28.27-14.34-44.49l60.81-118.65
				c4.01-7.83,10.86-13.63,19.29-16.35c8.43-2.71,17.38-2,25.21,2.01h0c16.22,8.32,22.65,28.27,14.34,44.49l-60.81,118.65
				C779.26,2083.95,767.65,2090.52,755.64,2090.52z M816.6,1910.78c-2.91,0-5.83,0.46-8.69,1.38c-7.15,2.31-12.97,7.23-16.37,13.87
				l-60.81,118.65c-7.05,13.76-1.59,30.7,12.17,37.76c13.76,7.06,30.7,1.59,37.76-12.17l60.81-118.65
				c7.05-13.76,1.59-30.7-12.17-37.76C825.31,1911.81,820.97,1910.78,816.6,1910.78z"/>
		</g>
		<g class="st4">
			<path class="st6" d="M846.87,1935.82c-1.94-1.76-4.11-3.3-6.56-4.55c-14.95-7.66-33.46-1.69-41.12,13.27l-60.82,118.65
				c-2.77,5.4-3.76,11.25-3.19,16.91c-9.98-9.04-13.08-24.04-6.67-36.57l60.79-118.65c7.66-14.96,26.2-20.9,41.15-13.24
				C839.98,1916.54,845.86,1925.84,846.87,1935.82z"/>
		</g>
		<g class="st14">
			<path class="st9" d="M843.69,1952.76l-60.82,118.65c-5.05,9.9-14.89,15.85-25.28,16.52c-5.32,0.35-10.78-0.68-15.84-3.29
				c-14.95-7.66-20.9-26.17-13.24-41.12l2.77-5.37c2.22,2.28,4.84,4.24,7.81,5.76c5.06,2.58,10.52,3.63,15.84,3.29
				c10.39-0.68,20.2-6.66,25.28-16.55l58.05-113.25C847.23,1926.53,849.84,1940.78,843.69,1952.76z"/>
		</g>
		<g>
			<path class="st9" d="M755.62,2100.52c-6.6,0-13.3-1.52-19.57-4.73c-21.13-10.83-29.51-36.84-18.68-57.97l60.81-118.65
				c10.83-21.13,36.84-29.51,57.97-18.68h0c21.13,10.83,29.51,36.84,18.68,57.97l-60.81,118.65
				C786.4,2091.97,771.28,2100.52,755.62,2100.52z M816.59,1920.79c-1.88,0-3.76,0.3-5.61,0.89c-4.61,1.48-8.35,4.65-10.53,8.91
				l-60.81,118.65c-4.54,8.85-1.03,19.74,7.83,24.28c8.85,4.54,19.75,1.03,24.28-7.83l60.81-118.65c4.54-8.85,1.03-19.74-7.83-24.28
				C822.17,1921.45,819.4,1920.79,816.59,1920.79z"/>
		</g>
		<g class="st14">
			<path class="st9" d="M1729.99,1919.26L1729.99,1919.26c-3.01-18.22-20.39-30.66-38.61-27.65l-144.55,23.91
				c-18.22,3.01-30.66,20.39-27.65,38.61v0c3.01,18.22,20.39,30.66,38.61,27.65l144.55-23.91
				C1720.56,1954.85,1733,1937.48,1729.99,1919.26z"/>
		</g>
		<g>
			<path class="st6" d="M1744.07,1890.09L1744.07,1890.09c-3.01-18.22-20.39-30.66-38.61-27.65l-144.55,23.91
				c-18.22,3.01-30.66,20.39-27.65,38.61v0c3.01,18.22,20.39,30.66,38.61,27.65l144.55-23.91
				C1734.65,1925.68,1747.09,1908.31,1744.07,1890.09z"/>
		</g>
		<g class="st4">
			<path class="st6" d="M1733.46,1920.43c0.28-2.87,0.22-5.79-0.28-8.77c-3.02-18.22-20.4-30.65-38.61-27.63l-144.56,23.9
				c-6.58,1.09-12.4,4.04-17.02,8.25c1.45-14.72,12.67-27.28,27.93-29.82l144.54-23.93c18.22-3.02,35.59,9.46,38.61,27.68
				C1745.98,1901.72,1741.62,1913.01,1733.46,1920.43z"/>
		</g>
		<g class="st14">
			<path class="st9" d="M1716.42,1928.7l-144.56,23.9c-12.04,2.01-23.73-2.78-31.13-11.52c-3.78-4.47-6.45-9.96-7.46-16.14
				c-3.02-18.22,9.44-35.57,27.66-38.59l6.55-1.07c-0.57,3.45-0.58,7.05,0.03,10.67c1.03,6.15,3.68,11.67,7.46,16.14
				c7.4,8.73,19.09,13.48,31.16,11.5l137.98-22.81C1741.9,1914.66,1731.02,1926.29,1716.42,1928.7z"/>
		</g>
		<g>
			<path class="st9" d="M1566.35,1965.57c-9.53,0-18.82-2.97-26.76-8.65c-10.03-7.18-16.66-17.81-18.66-29.92
				c-2-12.11,0.85-24.3,8.03-34.33c7.18-10.03,17.81-16.66,29.92-18.66l144.55-23.91c12.11-2,24.3,0.85,34.33,8.03
				c10.03,7.18,16.66,17.81,18.66,29.91l0,0c4.15,25.07-12.87,48.85-37.95,52.99l-144.55,23.91
				C1571.39,1965.37,1568.86,1965.57,1566.35,1965.57z M1710.94,1874.51c-1.14,0-2.29,0.09-3.43,0.28l-144.55,23.91
				c-11.46,1.9-19.24,12.76-17.35,24.22c0.91,5.51,3.95,10.36,8.54,13.65c4.6,3.29,10.16,4.6,15.68,3.69l144.55-23.91
				c11.46-1.9,19.24-12.76,17.34-24.22v0c-0.91-5.51-3.95-10.36-8.54-13.65C1719.55,1875.87,1715.29,1874.51,1710.94,1874.51z"/>
		</g>
		<g>
			<path class="st9" d="M1129.2,1528.66c-196.56,0-356.47-159.91-356.47-356.47s159.91-356.47,356.47-356.47
				s356.47,159.91,356.47,356.47S1325.76,1528.66,1129.2,1528.66z M1129.2,847.72c-178.92,0-324.47,145.56-324.47,324.47
				c0,178.92,145.56,324.47,324.47,324.47c178.91,0,324.47-145.56,324.47-324.47C1453.68,993.27,1308.12,847.72,1129.2,847.72z"/>
		</g>
		<g>
			<path class="st9" d="M1129.2,1528.66c-196.56,0-356.47-159.91-356.47-356.47s159.91-356.47,356.47-356.47
				s356.47,159.91,356.47,356.47S1325.76,1528.66,1129.2,1528.66z M1129.2,847.72c-178.92,0-324.47,145.56-324.47,324.47
				c0,178.92,145.56,324.47,324.47,324.47c178.91,0,324.47-145.56,324.47-324.47C1453.68,993.27,1308.12,847.72,1129.2,847.72z"/>
		</g>
		<g>
			<path class="st6" d="M1125.59,2145.53c1.08-35.76-29.09-64.75-64.75-61.81c-18.03,1.49-37.69,8.08-56.37,24.36
				c-45.65,39.78,8.51,151.79,90.26,207.12c21.78,14.74,50.3-5.5,43.86-30.99C1130.46,2252.09,1123.75,2206.42,1125.59,2145.53z"/>
		</g>
		<g class="st14">
			<path class="st9" d="M1125.58,2145.51c-1.84,60.89,4.87,106.56,13.01,138.71c6.43,25.5-22.09,45.76-43.88,30.96
				c-9.95-6.73-19.48-14.32-28.56-22.5c12.71-4.89,21.85-18.5,17.92-34.12c-8.11-32.12-14.81-77.79-12.97-138.68
				c0.4-13.48-3.6-25.95-10.67-36.15c0.12,0.02,0.26,0.01,0.41-0.01C1096.49,2080.81,1126.63,2109.78,1125.58,2145.51z"/>
		</g>
		<g>
			<path class="st9" d="M1110.66,2336.15c-8.66,0-17.32-2.56-24.9-7.7c-61.39-41.55-110.29-115.6-113.75-172.24
				c-1.56-25.51,6.03-46.33,21.94-60.19c19.2-16.73,41.26-26.23,65.57-28.24c21.44-1.77,42.68,5.73,58.31,20.56
				c15.75,14.94,24.4,35.96,23.75,57.67v0c-1.52,50.27,2.69,95.45,12.51,134.27c4.59,18.17-2.38,36.88-17.77,47.68
				C1128.56,2333.42,1119.61,2336.15,1110.66,2336.15z M1065.86,2099.52c-1.23,0-2.47,0.05-3.71,0.15
				c-17.36,1.44-33.23,8.32-47.18,20.48c-8.25,7.19-11.96,18.67-11.02,34.12c2.86,46.89,46.67,111.77,99.74,147.69
				c6.61,4.47,12.58,0.99,14.25-0.19c1.71-1.2,7.12-5.72,5.12-13.63c-10.55-41.7-15.08-89.84-13.48-143.09
				c0.38-12.6-4.65-24.81-13.79-33.49C1087.55,2103.72,1077.03,2099.52,1065.86,2099.52z M1125.59,2145.54h0.05H1125.59z"/>
		</g>
		<g>
			<path class="st6" d="M1225.29,2153.78c1.14-37.81-30.76-68.46-68.46-65.34c-19.06,1.57-39.85,8.54-59.6,25.75
				c-48.26,42.05,9,160.47,95.43,218.97c23.02,15.58,53.18-5.81,46.36-32.77C1230.44,2266.43,1223.35,2218.14,1225.29,2153.78z"/>
		</g>
		<g class="st14">
			<path class="st9" d="M1225.28,2153.76c-1.94,64.39,5.14,112.67,13.78,146.63c6.8,26.98-23.37,48.36-46.39,32.78
				c-17.77-12.02-34.35-26.62-48.94-42.57c20.5,4.36,41.38-14.49,35.6-37.4c-8.6-33.93-15.68-82.21-13.74-146.6
				c0.16-6.38-0.56-12.55-2.15-18.36C1198.19,2088.96,1226.38,2118.19,1225.28,2153.76z"/>
		</g>
		<g>
			<path class="st9" d="M1209.51,2354.39c-8.98,0-17.95-2.66-25.82-7.98c-64.69-43.79-116.22-121.77-119.85-181.39
				c-1.63-26.68,6.29-48.43,22.88-62.89c20.16-17.56,43.3-27.53,68.79-29.63c22.39-1.83,44.6,5.98,60.94,21.49
				c16.46,15.62,25.51,37.59,24.83,60.28c-1.6,53.24,2.86,101.09,13.26,142.21c4.77,18.84-2.47,38.24-18.43,49.43
				C1228.06,2351.55,1218.78,2354.39,1209.51,2354.39z M1162.16,2104.21c-1.33,0-2.66,0.06-4,0.17
				c-18.55,1.53-35.51,8.89-50.41,21.87c-8.95,7.8-12.98,20.19-11.96,36.81c3.04,49.83,49.53,118.73,105.85,156.84
				c7.46,5.05,14.22,1.12,16.11-0.21c1.93-1.35,8.04-6.46,5.78-15.39c-11.13-43.99-15.91-94.8-14.22-151.02v0
				c0.41-13.59-5.01-26.75-14.87-36.1C1185.53,2108.75,1174.2,2104.21,1162.16,2104.21z"/>
		</g>
		<g>
			<path class="st6" d="M1341.11,2142.4c3.51-36.07-25.03-67.41-61.26-66.85c-18.32,0.29-38.64,5.62-58.62,20.81
				c-48.82,37.11-1.66,153.98,77.22,215.44c21.01,16.37,51.21-2.16,46.42-28.36C1338.83,2250.43,1335.14,2203.81,1341.11,2142.4z"/>
		</g>
		<g class="st14">
			<path class="st9" d="M1341.11,2142.42c-5.99,61.39-2.26,108.01,3.78,141.03c4.78,26.21-25.44,44.74-46.45,28.38
				c-15.2-11.87-29.28-25.82-41.65-40.81c18.72,3.78,38.22-12.53,34.32-34c-6.04-33.01-9.73-79.61-3.74-141
				c0.65-6.97,0.13-13.76-1.39-20.18C1319.26,2078.57,1344.41,2108.41,1341.11,2142.42z"/>
		</g>
		<g>
			<path class="st9" d="M1316.11,2333.94c-9.73,0-19.38-3.2-27.49-9.52c-59.19-46.12-103.57-124.19-103.23-181.62
				c0.15-25.82,9.2-46.29,26.16-59.18c20.5-15.59,43.4-23.68,68.05-24.07c21.65-0.35,42.63,8.65,57.39,24.66
				c14.86,16.13,22.17,37.9,20.05,59.73v0c-4.93,50.72-3.74,96.69,3.57,136.61c3.4,18.59-4.88,36.95-21.09,46.77
				C1332.23,2331.75,1324.14,2333.94,1316.11,2333.94z M1280.82,2091.55c-0.24,0-0.48,0-0.72,0.01
				c-17.69,0.28-34.23,6.18-49.19,17.54c-8.88,6.75-13.44,18.16-13.53,33.9c-0.28,47.65,39.65,116.25,90.9,156.18
				c6.48,5.05,12.85,1.88,14.65,0.79c1.84-1.11,7.71-5.39,6.2-13.65c-7.83-42.85-9.16-91.79-3.94-145.47
				c1.24-12.77-3.03-25.51-11.73-34.94C1304.91,2096.63,1293.34,2091.55,1280.82,2091.55z M1341.11,2142.4h0.05H1341.11z"/>
		</g>
		<g>
			<path class="st6" d="M447.37,2141.88c1.08-35.76-29.09-64.75-64.75-61.81c-18.03,1.49-37.69,8.08-56.37,24.36
				c-45.65,39.78,8.51,151.79,90.26,207.12c21.78,14.74,50.3-5.5,43.86-30.99C452.24,2248.44,445.54,2202.76,447.37,2141.88z"/>
		</g>
		<g class="st14">
			<path class="st9" d="M447.37,2141.85c-1.84,60.89,4.87,106.56,13.01,138.71c6.43,25.5-22.09,45.76-43.88,30.96
				c-9.95-6.73-19.48-14.32-28.56-22.5c12.71-4.89,21.85-18.5,17.92-34.12c-8.11-32.12-14.81-77.79-12.97-138.68
				c0.4-13.48-3.6-25.95-10.67-36.15c0.12,0.02,0.26,0.01,0.41-0.01C418.27,2077.15,448.41,2106.12,447.37,2141.85z"/>
		</g>
		<g>
			<path class="st9" d="M432.44,2332.5c-8.66,0-17.31-2.56-24.9-7.7c-61.39-41.56-110.29-115.61-113.74-172.25
				c-1.56-25.51,6.03-46.32,21.94-60.19c19.2-16.73,41.26-26.24,65.56-28.24c21.45-1.77,42.68,5.73,58.31,20.57
				c15.75,14.94,24.4,35.96,23.75,57.67c-1.52,50.28,2.7,95.46,12.51,134.27c4.59,18.17-2.38,36.88-17.77,47.68
				C450.34,2329.76,441.38,2332.5,432.44,2332.5z M387.64,2095.86c-1.23,0-2.47,0.05-3.71,0.15c-17.36,1.44-33.23,8.33-47.17,20.48
				c-8.26,7.19-11.97,18.67-11.02,34.11c2.86,46.89,46.67,111.77,99.74,147.69c6.6,4.47,12.58,0.99,14.25-0.19
				c1.71-1.2,7.12-5.72,5.12-13.64c-10.54-41.69-15.08-89.83-13.48-143.08v0c0.38-12.6-4.65-24.81-13.79-33.49
				C409.33,2100.07,398.81,2095.86,387.64,2095.86z"/>
		</g>
		<g>
			<path class="st6" d="M547.08,2150.12c1.14-37.81-30.76-68.46-68.46-65.34c-19.06,1.57-39.85,8.54-59.6,25.75
				c-48.26,42.05,9,160.47,95.43,218.97c23.02,15.58,53.18-5.81,46.37-32.77C552.22,2262.78,545.14,2214.49,547.08,2150.12z"/>
		</g>
		<g class="st14">
			<path class="st9" d="M547.06,2150.11c-1.94,64.39,5.14,112.67,13.78,146.63c6.8,26.98-23.37,48.36-46.39,32.78
				c-17.77-12.02-34.35-26.62-48.94-42.57c20.5,4.36,41.38-14.49,35.6-37.4c-8.6-33.93-15.68-82.21-13.74-146.6
				c0.16-6.38-0.56-12.55-2.15-18.36C519.98,2085.31,548.16,2114.54,547.06,2150.11z"/>
		</g>
		<g>
			<path class="st9" d="M531.29,2350.73c-8.98,0-17.95-2.66-25.81-7.98c-64.69-43.79-116.22-121.77-119.85-181.4
				c-1.63-26.68,6.29-48.42,22.88-62.89c20.15-17.56,43.29-27.53,68.79-29.63c22.41-1.84,44.6,5.98,60.94,21.49
				c16.46,15.62,25.51,37.59,24.83,60.28v0c-1.61,53.23,2.85,101.08,13.26,142.21c4.76,18.83-2.47,38.24-18.43,49.43
				C549.84,2347.9,540.57,2350.73,531.29,2350.73z M483.94,2100.56c-1.33,0-2.66,0.05-4,0.16c-18.55,1.53-35.51,8.89-50.4,21.87
				c-8.95,7.8-12.98,20.19-11.97,36.81c3.04,49.83,49.53,118.72,105.85,156.85c7.46,5.06,14.21,1.12,16.11-0.21
				c1.93-1.35,8.04-6.46,5.78-15.39c-11.13-44.01-15.91-94.82-14.22-151.02v0c0.41-13.59-5.01-26.75-14.87-36.1
				C507.31,2105.09,495.97,2100.56,483.94,2100.56z M547.08,2150.12h0.05H547.08z"/>
		</g>
		<g>
			<path class="st6" d="M662.89,2138.75c3.51-36.07-25.03-67.41-61.26-66.85c-18.32,0.29-38.64,5.62-58.62,20.81
				c-48.82,37.11-1.66,153.98,77.22,215.44c21.01,16.37,51.21-2.16,46.42-28.36C660.61,2246.77,656.92,2200.15,662.89,2138.75z"/>
		</g>
		<g class="st14">
			<path class="st9" d="M662.9,2138.76c-5.99,61.39-2.26,108.01,3.78,141.03c4.78,26.21-25.44,44.74-46.45,28.38
				c-15.2-11.87-29.28-25.82-41.65-40.81c18.72,3.78,38.22-12.53,34.32-34c-6.04-33.01-9.73-79.61-3.74-141
				c0.65-6.97,0.13-13.76-1.39-20.18C641.04,2074.91,666.19,2104.75,662.9,2138.76z"/>
		</g>
		<g>
			<path class="st9" d="M637.89,2330.28c-9.73,0-19.39-3.2-27.5-9.52c-59.19-46.12-103.57-124.19-103.23-181.61
				c0.15-25.82,9.2-46.29,26.16-59.18c20.51-15.59,43.4-23.68,68.06-24.07c21.66-0.33,42.63,8.65,57.39,24.66
				c14.86,16.13,22.17,37.9,20.05,59.73c-4.93,50.74-3.73,96.7,3.57,136.61c3.4,18.59-4.88,36.94-21.09,46.77
				C654.01,2328.1,645.93,2330.28,637.89,2330.28z M602.6,2087.89c-0.24,0-0.48,0-0.72,0.01c-17.69,0.28-34.23,6.18-49.19,17.55
				c-8.88,6.75-13.44,18.16-13.53,33.9c-0.28,47.65,39.64,116.25,90.9,156.18c6.47,5.05,12.85,1.88,14.65,0.79
				c1.84-1.11,7.71-5.39,6.2-13.65c-7.83-42.83-9.16-91.77-3.94-145.47l0,0c1.24-12.78-3.03-25.51-11.73-34.95
				C626.69,2092.97,615.12,2087.89,602.6,2087.89z"/>
		</g>
		<g>
			<g>
				<path class="st60" d="M930.42,660.13c0,0,498.53,57.26,610.58,405.14c129.17,401.04-228.25,605.74-219.48,795.21
					c5.15,111.17,58.01,200.34,6.76,270.22c-59.8,81.55-284.2,113.54-371.17-29.51c-34.47-56.69-92.78-208.1-24.85-333.9
					c67.08-124.22,125.78-239.16,125.78-239.16L930.42,660.13z"/>
			</g>
			<g>
				<path class="st9" d="M1151.66,2216.17c-4.45,0-8.91-0.1-13.37-0.29c-86.22-3.73-155.42-41.51-194.86-106.38
					c-39.23-64.52-94.99-220.67-25.26-349.81c58.8-108.88,111.73-211.77,123.28-234.3l-129.9-883.54l20.68,2.38
					c5.18,0.6,128.48,15.24,267.6,73.24c185.85,77.48,309.08,196.05,356.38,342.88c84.02,260.85-31.8,440.42-124.87,584.71
					c-51.96,80.56-96.84,150.14-93.85,214.67c1.71,36.87,8.82,71.13,15.7,104.25c13.3,64.04,25.86,124.52-12.02,176.17
					C1307.69,2185.83,1231.1,2216.17,1151.66,2216.17z M949.38,679.08l125.23,851.78l-2.32,4.55
					c-0.59,1.15-59.55,116.52-125.95,239.49c-62.84,116.36-11.49,258.88,24.44,317.98c45.48,74.82,125.35,89.15,168.9,91.04
					c72.88,3.13,146.75-23.21,175.69-62.68c29.46-40.17,19.32-88.96,6.49-150.74c-6.8-32.75-14.51-69.86-16.33-109.27
					c-3.46-74.75,43.99-148.31,98.93-233.49c89.4-138.61,200.67-311.12,121.3-557.55c-55.93-173.65-214.41-271.42-337.51-322.86
					C1085.9,704.55,990.22,685.74,949.38,679.08z"/>
			</g>
		</g>
		<g>
			<path class="st17" d="M1425.6,1624.5c-11.76,18.28-23.28,36-34.12,53.24c-41.24,65.76-72.64,124.96-69.96,182.72
				c5.16,111.2,58,200.36,6.76,270.24c-59.8,81.56-284.2,113.56-371.16-29.52c-21.76-35.84-53.08-109.44-56.04-190.52
				c-1.76-47.24,6.16-97.04,31.16-143.36c67.08-124.24,125.8-239.16,125.8-239.16L939.28,720.5l-8.88-60.36
				c0,0,31.4,3.6,80.16,14.52c20.96,4.64,45.08,10.68,71.32,18.36c156.36,45.52,387.24,149.08,459.12,372.24
				C1620.44,1311.86,1515.84,1484.26,1425.6,1624.5z"/>
		</g>
		<g class="st4">
			<path class="st6" d="M1568.44,1262.98c-2.32-45.4-10.88-93.64-27.44-145.08c-71.88-223.16-302.76-326.72-459.12-372.24
				c-26.24-7.68-50.36-13.72-71.32-18.36c-34.36-7.68-60.08-11.76-72.28-13.48l-7.88-53.68c0,0,31.4,3.6,80.16,14.52
				c20.96,4.64,45.08,10.68,71.32,18.36c156.36,45.52,387.24,149.08,459.12,372.24C1564.16,1137.14,1571.68,1202.7,1568.44,1262.98z
				"/>
		</g>
		<g class="st14">
			<path class="st9" d="M1470.12,1437.9c0.16,69.84-15.56,131.96-44.52,186.6c0,0.04-0.04,0.04-0.04,0.08
				c-11.68,18.12-23.08,35.68-33.84,52.8c-0.04,0.12-0.16,0.24-0.24,0.36c-41.24,65.76-72.64,124.96-69.96,182.72
				c5.16,111.2,58,200.36,6.76,270.24c-59.8,81.56-284.2,113.56-371.16-29.52c-2.92-4.8-6-10.28-9.2-16.36
				c99.32,64.04,248.68,41.16,299.88-19.12c33.07-38.95,31.49-125.87,24.63-190.63c-3.98-37.57-43.79-60.16-77.95-44.03
				c-63.49,29.97-168.21,69.65-293.39,79.62c-1.76-47.24,6.16-97.04,31.16-143.36c67.08-124.24,125.8-239.16,125.8-239.16
				L939.28,720.5c28.48-16.72,53.96-32.96,71.28-45.84c7.16-5.28,12.92-10,16.92-13.96c20.08-19.84,54.2-6,54.56,22.2
				c0.04,3,0,6.4-0.16,10.12c-1.12,29.92-7.6,80.88-15.68,124.44c262.68,109.16,392.2,364.16,403.4,599.12
				C1469.96,1423.74,1470.12,1430.9,1470.12,1437.9z"/>
		</g>
		<g>
			<path class="st9" d="M1151.66,2216.17c-4.45,0-8.91-0.1-13.37-0.29c-86.22-3.73-155.42-41.51-194.86-106.38
				c-39.23-64.52-94.99-220.67-25.26-349.81c58.8-108.88,111.73-211.77,123.28-234.3l-129.9-883.54l20.68,2.38
				c5.18,0.6,128.48,15.24,267.6,73.24c185.85,77.48,309.08,196.05,356.38,342.88c84.02,260.85-31.8,440.42-124.87,584.71
				c-51.96,80.56-96.84,150.14-93.85,214.67c1.71,36.87,8.82,71.13,15.7,104.25c13.3,64.04,25.86,124.52-12.02,176.17
				C1307.69,2185.83,1231.1,2216.17,1151.66,2216.17z M949.38,679.08l125.23,851.78l-2.32,4.55
				c-0.59,1.15-59.55,116.52-125.95,239.49c-62.84,116.36-11.49,258.88,24.44,317.98c45.48,74.82,125.35,89.15,168.9,91.04
				c72.88,3.13,146.75-23.21,175.69-62.68c29.46-40.17,19.32-88.96,6.49-150.74c-6.8-32.75-14.51-69.86-16.33-109.27
				c-3.46-74.75,43.99-148.31,98.93-233.49c89.4-138.61,200.67-311.12,121.3-557.55c-55.93-173.65-214.41-271.42-337.51-322.86
				C1085.9,704.55,990.22,685.74,949.38,679.08z"/>
		</g>
		<g>
			<path class="st17" d="M324.88,896.98c96.6-18.24,389.8-52.64,515.32,168.36c208.08,366.36-200.36,605.68-191.56,795.12
				c0.96,21,3.64,41.24,7,60.68c14.4,83.52,41.32,152.88-0.24,209.56c-59.8,81.56-284.2,113.56-371.2-29.52
				c-30.96-50.92-81.16-178.32-41.76-294.88c4.44-13.2,10.04-26.24,16.92-39c67.08-124.24,125.8-239.16,125.8-239.16l-89.48-608.48
				L324.88,896.98z"/>
		</g>
		<g class="st14">
			<path class="st9" d="M655.64,1921.14c14.4,83.52,41.32,152.88-0.24,209.56c-59.8,81.56-284.2,113.56-371.2-29.52
				c-6.76-11.12-14.44-25.92-21.88-43.44c100.08,99.28,288,66,341.96-7.56c0.99-1.35,1.95-2.72,2.86-4.08
				c35.89-53.63,1.3-126.11-62.6-135.15c-116.98-16.56-220.67-51.07-302.1-104.64c4.44-13.2,10.04-26.24,16.92-39
				c67.08-124.24,125.8-239.16,125.8-239.16l-89.48-608.48c9.44-7.8,19.16-15.36,29.2-22.68c88.35-16.69,341.2-46.84,479.73,117.26
				c-0.02-0.03-0.03-0.07-0.05-0.1c0.27,0.32,0.52,0.66,0.79,0.98c2.96,3.53,5.88,7.11,8.73,10.82c1.12,1.44,2.24,2.92,3.32,4.4
				c8.12,10.88,15.72,22.52,22.8,35c208.08,366.36-200.36,605.68-191.56,795.12c0.44,9.84,1.28,19.52,2.4,29.04
				c0.2,1.88,0.44,3.76,0.68,5.6c0.2,1.88,0.48,3.72,0.72,5.56c0.36,2.68,0.76,5.36,1.2,8c0.28,2.16,0.64,4.32,1,6.48
				C654.96,1917.14,655.28,1919.14,655.64,1921.14z"/>
		</g>
		<g>
			<path class="st9" d="M478.78,2216.17c-4.45,0-8.9-0.1-13.36-0.29c-86.22-3.73-155.43-41.51-194.87-106.38
				c-39.23-64.53-94.99-220.67-25.25-349.81c58.79-108.86,111.73-211.77,123.28-234.3l-93.12-633.37l13.8-3.67
				c4.14-1.1,102.73-26.83,221.69-19.73c159.77,9.57,278.44,74.86,343.16,188.8c139.4,245.41,11.82,435.84-90.7,588.85
				c-54.55,81.41-101.65,151.72-98.79,213.45c1.71,36.87,8.82,71.12,15.7,104.25c13.3,64.04,25.86,124.52-12.02,176.18
				C634.81,2185.83,558.21,2216.17,478.78,2216.17z M311.33,916.07l90.39,614.79l-2.32,4.55c-0.59,1.15-59.55,116.52-125.95,239.49
				c-62.84,116.36-11.49,258.88,24.44,317.98c45.49,74.82,125.35,89.15,168.9,91.04c72.93,3.13,146.75-23.21,175.69-62.68
				c29.46-40.17,19.32-88.97,6.5-150.75c-6.8-32.75-14.51-69.87-16.33-109.27c-3.34-72.26,46.48-146.63,104.17-232.74
				c102.7-153.28,219.1-327.02,89.46-555.24c-59.85-105.35-166.31-163.43-316.44-172.62C421.04,895.19,342.24,909.4,311.33,916.07z"
				/>
		</g>
		<g>
			<g class="st14">
				<path class="st9" d="M1425.56,1624.58c-9.76,18.48-21.04,36.04-33.84,52.8C1402.48,1660.26,1413.88,1642.7,1425.56,1624.58z"/>
			</g>
			<g>
				<path class="st17" d="M1469.59,1336.58c15.23,319.47-293.83,485.68-683.98,504.28S71.95,1723.38,56.73,1403.92
					c-14.59-306.19,167.52-665.35,614.23-715.2c52.85-30.22,123.99-81.6,161.92-154.44c11.88-22.78,44.81-21.13,54.12,2.88
					c12.36,31.91,24.27,74.03,5.15,130.04c58.57-31.97,116.56-67.93,135.33-86.47c20.1-19.84,54.19-6.03,54.57,22.2
					c0.33,27.3-6.76,85.56-15.84,134.56C1328.88,846.61,1458.39,1101.62,1469.59,1336.58z"/>
			</g>
			<g class="st14">
				<path class="st6" d="M1450.75,1485.21c5.43-30.48,7.46-62.65,5.85-96.55c-10.53-220.98-143.17-471.83-377.43-591.69
					c-26.63-13.63-41.52-42.79-36.41-72.27c5.75-33.25,10.33-64.48,10.11-82.54c-0.38-28.23-18.28-29.19-38.39-9.35
					c-14.68,14.49-53.32,39.64-97.47,65.19c-13.53,7.83-30.55-2.91-28.83-18.45c4.06-36.84-4.94-66.43-14.18-90.31
					c-9.31-24.01-23.52-29.45-41.4,5.12c-25.15,48.64-70.91,84.09-114.27,111.27c-34.68,21.73-73.53,35.75-113.84,42.82
					C304.5,801.03,134.87,1000.21,71.7,1218.75C124.54,967.7,312.62,728.7,670.95,688.72c52.85-30.22,123.99-81.6,161.92-154.44
					c11.88-22.78,44.81-21.13,54.12,2.88c12.36,31.91,24.27,74.03,5.15,130.04c58.57-31.97,116.56-67.93,135.33-86.47
					c20.1-19.84,54.19-6.03,54.57,22.2c0.33,27.3-6.76,85.56-15.84,134.56c262.67,109.13,392.18,364.14,403.38,599.1
					C1472.16,1390.47,1465.51,1440.01,1450.75,1485.21z"/>
			</g>
			<g>
				<path class="st18" d="M1328.01,1300.01c4.44,93.09-19,194.64-99.85,276.1c-82.61,83.32-225.19,145.7-459.31,156.86l-0.03,0
					c-231.67,11.04-378.88-36.38-469.31-110.07c-90.39-73.66-124.04-173.63-128.53-267.73c-0.91-19.12-0.23-37.98,1.95-56.38
					c19.07-162.77,153.53-292.58,322.57-300.63c92.45-4.41,178.14,28.43,242.35,85.32C796.4,1020.73,878.55,979.89,971,975.49
					c166.96-7.96,311.57,105.45,348.34,262.57l0,0.03C1324.07,1258.07,1327,1278.78,1328.01,1300.01z"/>
			</g>
			<g>
				<path class="st9" d="M836.78,1344.43c1.38,29.01-35.59,65.71-83.24,67.98c-47.65,2.27-87.94-30.75-89.33-59.75
					c-1.38-29.01,36.67-43.02,84.32-45.29S835.4,1315.43,836.78,1344.43z"/>
			</g>
			<g class="st19">
				<path class="st18" d="M787.3,1330.75c0.32,6.78-15.02,15.68-34.42,16.61s-35.52-6.48-35.84-13.26
					c-0.32-6.78,15.27-10.38,34.67-11.3C771.11,1321.87,786.98,1323.96,787.3,1330.75z"/>
			</g>
			<g>
				<path class="st9" d="M670.89,1504.18c-36.9,0-57.61-25.23-65-52.43c-2.32-8.53,2.72-17.32,11.25-19.63
					c8.52-2.33,17.32,2.71,19.63,11.25c4.65,17.1,17.41,35.54,51.8,26.21c48.99-13.27,48.14-72.85,48.08-75.38l31.96-1.47
					c0.18,2.47,5,61.86,55.03,70.41c35.14,6.01,46.08-13.55,49.08-31.02c1.5-8.71,9.8-14.57,18.48-13.06
					c8.71,1.49,14.56,9.77,13.06,18.48c-5.8,33.75-31.45,66.46-86.01,57.14c-30.24-5.17-50.21-22.83-62.84-42.93
					c-10.66,21.21-28.86,40.7-58.47,48.72C687.5,1503.01,678.82,1504.17,670.89,1504.18z"/>
			</g>
			<g>
				<path class="st9" d="M715.64,1858.55c-175.49,0-327.46-32.58-442.72-95.34c-144.46-78.65-224.74-202.63-232.18-358.53
					c-7.74-162.33,37.45-322.19,127.23-450.14c104.24-148.55,262.1-243.85,456.53-275.61c8.75-1.41,16.95,4.49,18.37,13.21
					c1.42,8.72-4.49,16.94-13.21,18.37C227.45,776.21,59,1115.61,72.71,1403.16c15.98,335.19,378.35,437.61,712.14,421.72
					c199.57-9.51,367.56-56.75,485.82-136.59c128.36-86.67,189.91-204.75,182.95-350.94c-9.95-208.74-119.14-472.3-395.77-586.04
					c-8.17-3.36-12.08-12.71-8.71-20.88c3.36-8.17,12.71-12.08,20.88-8.71c126.16,51.87,231.69,141.33,305.19,258.71
					c66.17,105.68,104.34,228.57,110.38,355.4c7.43,155.9-60.69,286.95-197,378.99c-123.12,83.13-296.77,132.25-502.2,142.04
					C762.41,1857.98,738.81,1858.55,715.64,1858.55z"/>
			</g>
			<g>
				<path class="st20" d="M630.84,1338.05c-9.68,101.57-89.77,129.15-193.81,176.85c-65.28,29.91-109.22,71.71-137.51,107.99
					c-90.39-73.66-124.04-173.63-128.53-267.73c-0.91-19.12-0.23-37.98,1.95-56.38c59.4-67.93,155.16-134.99,298.11-124.66
					C575.68,1181.71,637.79,1265.16,630.84,1338.05z"/>
			</g>
			<g>
				<path class="st20" d="M1328.01,1300.01c4.44,93.09-19,194.64-99.85,276.1c-31.66-32.79-78.71-69.01-144.93-92.01
					c-108.11-37.58-190.45-57.43-209.75-157.61c-13.85-71.9,40.04-160.88,143.47-178.38c136.92-23.17,236.67,30.24,302.39,89.95
					l0,0.03C1324.07,1258.07,1327,1278.78,1328.01,1300.01z"/>
			</g>
			<g>
				<path class="st9" d="M627.08,710.71c-7.16,0-13.68-4.84-15.51-12.11c-2.15-8.57,3.05-17.26,11.62-19.41
					c1.32-0.33,134.58-35.32,195.5-152.29c8.46-16.24,25.01-25.71,43.19-24.7c18.1,1,33.43,12.18,40.01,29.16
					c26.88,69.4,22.93,127.47-11.42,167.94c-5.72,6.73-15.82,7.56-22.55,1.84c-6.74-5.72-7.56-15.82-1.84-22.55
					c33.22-39.13,21.59-95.37,5.98-135.67c-2.9-7.48-9.31-8.62-11.94-8.77c-2.09-0.1-9.17,0.09-13.05,7.53
					c-67.71,129.99-210.06,167.03-216.09,168.54C629.68,710.55,628.37,710.71,627.08,710.71z"/>
			</g>
			<g>
				<path class="st9" d="M1063.91,752.51c-2.13,0-4.3-0.43-6.38-1.33c-8.1-3.53-11.81-12.96-8.28-21.06
					c11.7-26.87,17.5-70.78,16.78-126.98c-0.12-9.74-7.56-13.55-9.83-14.48c-2.31-0.95-10.42-3.51-17.5,3.47
					c-53.73,53.02-102.17,84.14-143.98,92.52c-8.63,1.73-17.09-3.88-18.83-12.55c-1.74-8.66,3.88-17.09,12.55-18.83
					c35.08-7.03,79.27-36.05,127.79-83.92c13.99-13.8,33.97-17.75,52.13-10.3c18.05,7.41,29.42,24.15,29.67,43.67
					c0.79,61.57-5.74,108.73-19.43,140.17C1075.97,748.91,1070.09,752.51,1063.91,752.51z"/>
			</g>
			<g>
				<path class="st9" d="M346.61,1347.74c3.23-4.52,5.9-7.81,9.11-11.3c3.06-3.48,6.44-6.54,9.8-9.65
					c3.36-3.15,7.03-5.83,10.66-8.66c3.69-2.72,7.6-5.13,11.45-7.68c15.78-9.52,33.58-16.34,52.24-19.79
					c9.26-2.09,18.9-2.33,28.39-2.72c9.55,0.64,19.1,0.9,28.32,3.39c18.65,3.61,35.78,12.23,50.3,23.17
					c7.66,5.77,9.19,16.66,3.42,24.31c-3.51,4.66-8.91,7.05-14.32,6.91l-3.03-0.1c-3.94-0.13-7.68-0.52-11.35-0.95
					c-3.67-0.4-7.15-1.25-10.81-1.13c-3.58-0.18-7.08-0.44-10.53-0.78c-3.42-0.49-6.94,0.01-10.32-0.21
					c-6.79-0.47-13.52,0.42-20.17,0.48c-6.65,0.94-13.29,1.2-19.9,2.65c-13.23,2.28-26.51,5.79-39.85,10.54l-10.04,3.71
					c-3.26,1.44-6.75,2.6-10.06,4.07l-5.09,2.09c-1.66,0.75-3.29,1.54-5.02,2.22c-3.28,1.38-6.91,3.2-9.69,4.12l-4.28,1.42
					c-8.94,2.97-18.59-1.88-21.56-10.82C342.53,1357.69,343.6,1352.02,346.61,1347.74z"/>
			</g>
			<g>
				<path class="st9" d="M1146.3,1335.44c-2.85-0.65-6.64-2.12-10.04-3.18c-1.79-0.52-3.49-1.15-5.21-1.74l-5.26-1.6
					c-3.43-1.15-7.02-1.98-10.4-3.09l-10.34-2.74c-13.73-3.46-27.29-5.69-40.67-6.7c-6.71-0.82-13.35-0.45-20.06-0.74
					c-6.62,0.57-13.41,0.33-20.12,1.44c-3.34,0.54-6.89,0.37-10.26,1.19c-3.4,0.66-6.86,1.26-10.41,1.78
					c-3.65,0.23-7.04,1.41-10.65,2.16c-3.61,0.77-7.29,1.52-11.21,2.03l-2.9,0.37c-9.51,1.22-18.21-5.5-19.43-15.01
					c-0.74-5.78,1.53-11.34,5.5-15.02c13.42-12.28,29.64-22.48,47.87-27.85c8.94-3.36,18.43-4.52,27.87-6.07
					c9.48-0.52,19.1-1.19,28.52,0c18.91,1.67,37.27,6.76,53.89,14.73c4.08,2.17,8.2,4.2,12.13,6.56c3.88,2.47,7.79,4.79,11.44,7.61
					c3.64,2.78,7.3,5.51,10.67,8.68c3.52,3.17,6.49,6.19,10.14,10.39c6.18,7.11,5.43,17.88-1.68,24.06
					c-4.25,3.69-9.8,4.91-14.9,3.78L1146.3,1335.44z"/>
			</g>
		</g>
	</g>
</g>
</svg>
