<?xml version="1.0" encoding="utf-8"?>
<!-- Generator: Adobe Illustrator 24.3.0, SVG Export Plug-In . SVG Version: 6.00 Build 0)  -->
<svg version="1.1" id="Layer_1" xmlns="http://www.w3.org/2000/svg" xmlns:xlink="http://www.w3.org/1999/xlink" x="0px" y="0px"
	 viewBox="0 0 2179.43 2884.48" style="enable-background:new 0 0 2179.43 2884.48;" xml:space="preserve">
<style type="text/css">
	.st0{fill:#A4C433;}
	.st1{fill:#371A45;}
	.st2{fill:#FECB00;}
	.st3{fill:#FFE756;}
	.st4{opacity:0.35;}
	.st5{opacity:0.4;}
	.st6{fill:#FFFFFF;}
	.st7{fill:#9ACB0F;}
	.st8{fill:#9CC100;}
	.st9{fill:#6B184E;}
	.st10{fill:#DC2E38;}
	.st11{fill:#F2101C;}
	.st12{fill:#390075;}
	.st13{fill:#FF8A0B;}
	.st14{opacity:0.3;}
	.st15{fill:#FDD800;}
	.st16{fill:#4089FF;}
	.st17{fill:#ECC18E;}
	.st18{fill:#FEFAFB;}
	.st19{opacity:0.5;}
	.st20{fill:#707169;}
	.st21{fill:#23B574;}
	.st22{fill:#16B767;}
	.st23{fill:#FCF7FB;}
	.st24{fill:#A34F31;}
	.st25{fill:#9B5639;}
	.st26{opacity:0.2;}
	.st27{fill:#37DBFF;}
	.st28{opacity:0.45;}
	.st29{fill:none;stroke:#390075;stroke-width:33.4586;stroke-linecap:round;stroke-miterlimit:10;}
	.st30{fill:#F9744B;}
	.st31{fill:#EBA7A4;}
	.st32{fill:#F7528A;}
	.st33{opacity:0.7;}
	.st34{fill:#ADBACA;}
	.st35{fill:#000072;}
	.st36{fill:#FFB8DF;}
	.st37{fill:none;stroke:#000072;stroke-width:39.2493;stroke-linecap:round;stroke-miterlimit:10;}
	.st38{fill:none;stroke:#000072;stroke-width:31.3995;stroke-linecap:round;stroke-miterlimit:10;}
	.st39{opacity:0.6;}
	.st40{fill:#FDD907;}
	.st41{fill:#66142E;}
	.st42{fill:#FCCACA;}
	.st43{fill:none;stroke:#6B184E;stroke-width:34.0576;stroke-linecap:round;stroke-miterlimit:10;}
	.st44{fill:#FF6982;}
	.st45{fill:#44BF11;}
	.st46{fill:#F4912F;}
	.st47{fill:#F45611;}
	.st48{fill:none;stroke:#390075;stroke-width:36.3395;stroke-linecap:round;stroke-miterlimit:10;}
	.st49{fill:none;stroke:#390075;stroke-width:34.6434;stroke-linecap:round;stroke-miterlimit:10;}
	.st50{fill:#FF4817;}
	.st51{fill:#33AEF1;}
	.st52{fill:#F09F21;}
	.st53{fill:none;stroke:#6B184E;stroke-width:32;stroke-linecap:round;stroke-miterlimit:10;}
	.st54{fill:#FE6DCB;}
	.st55{fill:#F2A95C;}
	.st56{fill:#FCDC18;}
	.st57{fill:#EF1664;}
	.st58{fill:#451661;}
	.st59{fill:#34D2D6;}
	.st60{fill:#D3A17F;}
	.st61{fill:none;stroke:#390075;stroke-width:32;stroke-linecap:round;stroke-miterlimit:10;}
</style>
<g>
	<g>
		<g>
			<g>
				
					<ellipse transform="matrix(0.3035 -0.9528 0.9528 0.3035 -1439.6724 3340.8296)" class="st13" cx="1565.25" cy="2655.13" rx="95.66" ry="78.83"/>
			</g>
			<g class="st14">
				
					<ellipse transform="matrix(0.3035 -0.9528 0.9528 0.3035 -1439.6724 3340.8296)" class="st9" cx="1565.25" cy="2655.13" rx="95.66" ry="78.83"/>
			</g>
			<g>
				<path class="st9" d="M1556.43,2765.8c-8.49,0-16.94-1.3-25.18-3.92c-24.81-7.9-44.28-26.77-54.84-53.12
					c-10.11-25.25-10.78-54.56-1.88-82.51c8.9-27.96,26.39-51.48,49.25-66.23c23.85-15.4,50.65-19.53,75.46-11.62
					c24.81,7.9,44.28,26.77,54.84,53.12c10.11,25.25,10.78,54.56,1.88,82.51l0,0c-8.9,27.96-26.39,51.48-49.25,66.23
					C1590.77,2760.54,1573.52,2765.8,1556.43,2765.8z M1574.18,2577.25c-10.91,0-22.11,3.48-32.64,10.27
					c-16.49,10.64-29.2,27.92-35.81,48.66s-6.22,42.19,1.07,60.41c6.85,17.11,19.06,29.22,34.38,34.1
					c15.32,4.87,32.28,2.06,47.77-7.93c16.49-10.64,29.2-27.92,35.81-48.66l0,0c6.6-20.73,6.22-42.19-1.07-60.4
					c-6.85-17.11-19.06-29.22-34.38-34.1C1584.4,2578.02,1579.32,2577.25,1574.18,2577.25z"/>
			</g>
			<g>
				<path class="st9" d="M1572.34,2659.56l-18.39,63.34c-9.6,33.06-39.89,55.8-74.31,55.8h-60.86c-34.42,0-64.71-22.74-74.31-55.8
					l-18.39-63.34H1572.34z"/>
			</g>
			<g>
				<path class="st9" d="M1479.64,2795.06h-60.86c-41.45,0-78.47-27.8-90.03-67.6l-18.39-63.33c-2.52-8.68,2.47-17.76,11.15-20.29
					c8.68-2.52,17.77,2.47,20.29,11.15l18.39,63.33c7.52,25.9,31.61,44,58.59,44h60.86c26.98,0,51.07-18.09,58.59-44l18.39-63.33
					c2.52-8.68,11.6-13.69,20.29-11.15c8.68,2.52,13.68,11.6,11.15,20.29l-18.39,63.33
					C1558.11,2767.26,1521.09,2795.06,1479.64,2795.06z"/>
			</g>
			<g>
				<path class="st13" d="M1464.37,2797.75c-16.04,50.34-62.66,80.42-104.16,67.2c-41.46-13.22-62.08-64.7-46.08-115.04
					c0.45-1.39,0.94-2.78,1.39-4.17c17.27-47.8,62.41-75.92,102.76-63.07c26.36,8.39,44.24,32.21,49.72,61.35
					C1471.21,2760.8,1470.22,2779.34,1464.37,2797.75z"/>
			</g>
			<g>
				
					<ellipse transform="matrix(0.3035 -0.9528 0.9528 0.3035 -1675.3351 3255.8167)" class="st9" cx="1389.27" cy="2773.81" rx="31.91" ry="26.3"/>
			</g>
			<g>
				<path class="st9" d="M1380.45,2884.48c-8.49,0-16.94-1.3-25.18-3.92c-50.02-15.93-75.46-76.78-56.71-135.64
					s74.68-93.78,124.71-77.86c50.02,15.93,75.46,76.78,56.71,135.64c-8.9,27.96-26.39,51.48-49.25,66.23
					C1414.79,2879.22,1397.54,2884.48,1380.45,2884.48z M1398.13,2695.91c-28.46,0-57.13,23.63-68.38,58.95
					c-13.27,41.66,2.64,84.05,35.45,94.5c15.31,4.88,32.28,2.06,47.77-7.94c16.49-10.64,29.2-27.92,35.81-48.66
					c13.27-41.66-2.64-84.05-35.45-94.5C1408.34,2696.67,1403.23,2695.91,1398.13,2695.91z"/>
			</g>
			<g>
				
					<ellipse transform="matrix(0.3035 -0.9528 0.9528 0.3035 -1974.7947 2608.7971)" class="st13" cx="796.98" cy="2655.13" rx="95.66" ry="78.83"/>
			</g>
			<g class="st14">
				
					<ellipse transform="matrix(0.3035 -0.9528 0.9528 0.3035 -1974.7947 2608.7971)" class="st9" cx="796.98" cy="2655.13" rx="95.66" ry="78.83"/>
			</g>
			<g>
				<path class="st9" d="M788.17,2765.8c-8.49,0-16.94-1.3-25.18-3.92c-24.81-7.9-44.28-26.77-54.84-53.12
					c-10.11-25.25-10.78-54.56-1.88-82.51c8.9-27.96,26.39-51.48,49.25-66.23c23.85-15.4,50.64-19.53,75.46-11.62
					c24.81,7.9,44.28,26.77,54.84,53.12c10.11,25.25,10.78,54.56,1.88,82.51l0,0c-8.9,27.96-26.39,51.48-49.25,66.23
					C822.51,2760.54,805.26,2765.8,788.17,2765.8z M805.92,2577.25c-10.91,0-22.12,3.48-32.64,10.27
					c-16.48,10.64-29.2,27.92-35.81,48.66s-6.22,42.19,1.07,60.41c6.85,17.11,19.06,29.22,34.38,34.1
					c15.32,4.87,32.29,2.06,47.77-7.93c16.49-10.64,29.2-27.92,35.81-48.66l0,0c6.6-20.73,6.22-42.19-1.07-60.4
					c-6.85-17.11-19.06-29.22-34.38-34.1C816.14,2578.02,811.06,2577.25,805.92,2577.25z"/>
			</g>
			<g>
				<path class="st9" d="M804.08,2659.56l-18.39,63.34c-9.6,33.06-39.89,55.8-74.31,55.8h-60.86c-34.42,0-64.71-22.74-74.31-55.8
					l-18.39-63.34H804.08z"/>
			</g>
			<g>
				<path class="st9" d="M711.37,2795.06h-60.86c-41.45,0-78.47-27.8-90.03-67.6l-18.39-63.33c-2.52-8.68,2.47-17.76,11.15-20.29
					c8.68-2.52,17.77,2.47,20.29,11.15l18.39,63.33c7.52,25.9,31.61,44,58.59,44h60.86c26.97,0,51.07-18.09,58.59-44l18.39-63.33
					c2.52-8.68,11.6-13.69,20.29-11.15c8.68,2.52,13.68,11.6,11.15,20.29l-18.39,63.33
					C789.85,2767.26,752.82,2795.06,711.37,2795.06z"/>
			</g>
			<g>
				<path class="st13" d="M696.12,2797.75c-16.04,50.34-62.66,80.42-104.16,67.2c-41.46-13.22-62.12-64.7-46.08-115.04
					c2.29-7.2,5.24-14,8.68-20.3c20.59-37.77,59.91-58.28,95.48-46.94c26.11,8.31,43.91,31.76,49.6,60.53
					C703,2760.18,702.1,2779.05,696.12,2797.75z"/>
			</g>
			<g>
				<path class="st9" d="M612.19,2884.48c-8.49,0-16.94-1.3-25.18-3.92c-50.02-15.93-75.46-76.78-56.71-135.64
					c18.75-58.86,74.69-93.78,124.71-77.86c50.02,15.93,75.46,76.78,56.71,135.64c-8.9,27.96-26.39,51.48-49.25,66.23
					C646.53,2879.22,629.28,2884.48,612.19,2884.48z M629.87,2695.91c-28.46,0-57.13,23.63-68.38,58.95
					c-13.27,41.66,2.64,84.05,35.45,94.5c15.31,4.88,32.28,2.06,47.77-7.94c16.49-10.64,29.2-27.92,35.81-48.66
					c13.27-41.66-2.64-84.05-35.45-94.5C640.07,2696.67,634.97,2695.91,629.87,2695.91z"/>
			</g>
			<g>
				
					<ellipse transform="matrix(0.3035 -0.9528 0.9528 0.3035 -2210.4573 2523.7842)" class="st9" cx="621" cy="2773.81" rx="31.91" ry="26.3"/>
			</g>
		</g>
		<g class="st14">
			<path class="st9" d="M699.64,2743.2c-38.1-2.21-89.99-6.22-145.08-13.59c20.59-37.77,59.91-58.28,95.48-46.94
				C676.15,2690.98,693.95,2714.43,699.64,2743.2z"/>
		</g>
		<g class="st14">
			<path class="st9" d="M1468.01,2744.02c-29.34,1.47-47.39,1.72-47.39,1.72h-105.1c17.27-47.8,62.41-75.92,102.76-63.07
				C1444.65,2691.06,1462.53,2714.88,1468.01,2744.02z"/>
		</g>
		<g>
			<path class="st15" d="M897.31,2560.7c0,0-115.58,0-220.97,0c-158.16,0-364.91-71.4-416.38-90.11
				c-5.89-2.14-12.09,2.19-12.15,8.46c-0.12,12.55-0.21,31.54,0.16,44.39c4.54,157.69,514.02,164.99,514.02,164.99h136.14h522.48
				c0,0,509.48-7.3,514.02-164.99c0.23-8.16,0.16-30.22,0.08-44.46c-0.03-6.04-6.19-10.09-11.75-7.74
				c-46.41,19.66-224.74,89.46-416.7,89.46C1400.87,2560.7,897.31,2560.7,897.31,2560.7L897.31,2560.7z"/>
		</g>
		<g>
			<path class="st9" d="M898.13,2704.8H761.99c-1.52-0.02-130.33-2.09-258.03-23.59c-178.59-30.06-270.22-82.98-272.36-157.3
				c-0.37-12.84-0.29-31.57-0.17-45.01c0.08-8.26,4.17-16,10.95-20.7c6.77-4.69,15.42-5.81,23.16-3
				c57.51,20.91,257.08,89.13,410.78,89.13h829.93c187.58,0,361.48-67.48,410.32-88.16c7.67-3.25,16.39-2.45,23.34,2.13
				s11.12,12.28,11.16,20.6c0.09,16.04,0.14,36.88-0.09,45.01c-2.14,74.32-93.77,127.24-272.36,157.3
				c-127.69,21.49-256.5,23.57-257.79,23.59H898.13z M264.1,2489.47c-0.06,11.37-0.04,24.15,0.23,33.5
				c1.58,54.89,88.61,99.62,245.07,125.95c125.26,21.08,251.56,23.12,252.83,23.13h658.39c1.03-0.02,127.65-2.07,252.91-23.19
				c156.25-26.34,243.17-71.05,244.75-125.9c0.14-4.86,0.18-16.08,0.13-32.11c-61.83,25.18-230.53,86.21-412.14,86.21H676.34
				C525.12,2577.07,333.17,2514.05,264.1,2489.47z"/>
		</g>
		<g>
			<path class="st16" d="M897.31,2503.4c0,0-115.58,0-220.97,0c-286.1,0-430-94.13-428.37-37.26
				c4.54,157.69,514.02,164.99,514.02,164.99h136.14h522.48c0,0,509.48-7.3,514.02-164.99c1.64-56.87-142.27,37.26-428.37,37.26
				C1400.87,2503.4,897.31,2503.4,897.31,2503.4L897.31,2503.4z"/>
		</g>
		<g class="st4">
			<path class="st6" d="M1934.65,2466.13c-0.25,9-2.17,17.48-5.52,25.54c-28.85-21.73-170.54,51.44-422.84,51.44
				c-105.42,0-608.97,0-608.97,0s-115.57,0-220.96,0c-252.22,0-393.95-73.17-422.84-51.48c-3.36-8.02-5.28-16.53-5.52-25.5
				c-1.64-56.85,142.26,37.28,428.37,37.28c105.38,0,220.96,0,220.96,0s503.55,0,608.97,0
				C1792.39,2503.42,1936.28,2409.29,1934.65,2466.13z"/>
		</g>
		<g>
			<path class="st9" d="M898.13,2647.5H761.99c-1.52-0.02-130.33-2.09-258.03-23.59c-178.59-30.06-270.22-82.99-272.36-157.3
				c-0.42-14.5,5.78-22.7,11.05-27.02c17.74-14.55,47.63-7.66,107.19,6.05c71.6,16.48,179.81,41.4,326.49,41.4h829.93
				c146.68,0,254.89-24.91,326.49-41.4c59.55-13.71,89.44-20.59,107.19-6.05c5.27,4.32,11.47,12.52,11.05,27.02
				c-2.14,74.31-93.77,127.24-272.36,157.3c-127.69,21.49-256.5,23.57-257.79,23.59H898.13z M264.33,2464.66
				c-0.01,0.28-0.01,0.62,0,1.01c1.58,54.89,88.61,99.62,245.07,125.95c125.26,21.08,251.56,23.12,252.83,23.13h658.39
				c1.03-0.02,127.65-2.07,252.91-23.19c156.25-26.34,243.17-71.05,244.75-125.9c0.01-0.4,0.01-0.73,0-1.01
				c-9.96-2.8-46.11,5.51-78.17,12.89c-73.04,16.82-183.43,42.23-333.84,42.23H676.34c-150.4,0-260.79-25.41-333.84-42.23
				C310.45,2470.17,274.3,2461.84,264.33,2464.66z"/>
		</g>
		<g>
			<g>
				<path class="st6" d="M186.71,2266.47c3.97-28.55,32.35-46.36,60.84-37.91c14.4,4.27,29.45,12.88,42.38,28.99
					c31.6,39.38-27.47,118.93-101.21,148.79c-19.64,7.95-40.02-12.99-31.34-32.11C168.32,2350.15,179.94,2315.08,186.71,2266.47z"/>
			</g>
			<g class="st14">
				<path class="st9" d="M186.72,2266.47c-6.77,48.62-18.39,83.69-29.36,107.77c-8.67,19.13,11.71,40.08,31.36,32.12
					c15.16-6.13,29.74-14.39,42.97-23.99c-16.27-0.06-29.86-17.58-22.49-33.84c10.94-24.06,22.55-59.13,29.32-107.75
					c0.69-4.81,2.04-9.32,4-13.42C215.79,2222.25,190.44,2239.6,186.72,2266.47z"/>
			</g>
			<g>
				<path class="st9" d="M180,2424.42c-10.84,0-21.52-4.45-29.53-12.79c-11.56-12.05-14.7-29.39-8-44.16
					c13.06-28.76,22.49-63.5,28.02-103.25l0,0c2.52-18.11,12.74-34.15,28.03-43.99c15.73-10.13,35.29-12.81,53.68-7.35
					c19.9,5.91,36.89,17.5,50.49,34.44c11.99,14.95,15.32,34.41,9.62,56.28c-11.88,45.58-61.28,95.18-117.45,117.92
					C190.04,2423.47,185,2424.42,180,2424.42z M233.24,2242.84c-6.06,0-11.95,1.67-16.99,4.91c-7.38,4.75-12.11,12.2-13.33,20.98
					l0,0c-5.97,42.88-16.27,80.65-30.64,112.28c-1.69,3.71,0.71,6.8,1.81,7.95c0.92,0.96,4.23,3.94,8.47,2.21
					c45.82-18.55,88.89-60.65,98.06-95.83c3.03-11.62,1.86-20.89-3.47-27.54c-9.35-11.65-20.87-19.57-34.27-23.54
					C239.7,2243.31,236.45,2242.84,233.24,2242.84z M186.71,2266.47h0.05H186.71z"/>
			</g>
		</g>
		<g>
			<g>
				<path class="st6" d="M144.19,2246.79c11.58-26.4,43.73-35.83,68.86-19.95c12.7,8.03,24.84,20.39,32.9,39.42
					c19.71,46.49-58.75,106.99-137.83,115.69c-21.06,2.32-34.98-23.38-21.43-39.41C103.76,2322.32,124.47,2291.73,144.19,2246.79z"
					/>
			</g>
			<g class="st14">
				<path class="st9" d="M144.2,2246.79c-19.73,44.95-40.44,75.55-57.54,95.73c-13.54,16.06,0.38,41.75,21.45,39.43
					c16.26-1.78,32.53-5.77,47.87-11.42c-15.65-4.48-23.96-25.03-12.45-38.68c17.06-20.18,37.77-50.78,57.5-95.73
					c1.98-4.44,4.5-8.42,7.5-11.83C184.19,2212.13,155.08,2221.94,144.2,2246.79z"/>
			</g>
			<g>
				<path class="st9" d="M105.55,2398.46c-14.76,0-28.44-8.24-35.67-21.82c-7.85-14.74-6.16-32.28,4.31-44.67
					c20.38-24.12,38.89-55,55.02-91.75c7.35-16.75,21.54-29.4,38.94-34.72c17.89-5.47,37.44-2.74,53.65,7.51
					c17.55,11.09,30.75,26.86,39.23,46.87c7.48,17.65,5.39,37.28-6.04,56.78c-23.82,40.64-84.83,74.95-145.08,81.57
					C108.45,2398.38,106.99,2398.46,105.55,2398.46z M186.66,2235.47c-3.02,0-6.04,0.44-8.95,1.33
					c-8.39,2.57-14.97,8.45-18.53,16.57l0,0c-17.4,39.64-37.58,73.2-59.99,99.73c-2.63,3.12-1.17,6.74-0.42,8.15
					c0.62,1.16,2.97,4.94,7.56,4.43c49.13-5.41,102.03-34.21,120.41-65.59c6.07-10.36,7.47-19.59,4.14-27.44
					c-5.83-13.75-14.78-24.51-26.58-31.97C198.87,2237.24,192.74,2235.47,186.66,2235.47z M144.19,2246.79h0.05H144.19z"/>
			</g>
		</g>
		<g>
			<path class="st6" d="M113.24,2204.08c16.4-25.92,51.73-30.71,75.63-9.99c12.08,10.47,22.87,25.42,28.32,46.73
				c13.31,52.05-78.9,103.17-163.49,99.69c-22.53-0.93-33.06-30.18-16.25-44.89C58.64,2277.09,85.32,2248.21,113.24,2204.08z"/>
		</g>
		<g class="st14">
			<path class="st9" d="M113.26,2204.08c-27.93,44.14-54.61,73.02-75.82,91.53c-16.81,14.73-6.27,43.99,16.27,44.91
				c17.39,0.72,35.15-0.88,52.19-4.36c-15.74-7.21-21.2-30.16-6.92-42.68c21.17-18.5,47.85-47.39,75.78-91.53
				c2.79-4.36,6.08-8.14,9.78-11.25C160.87,2174.01,128.67,2179.68,113.26,2204.08z"/>
		</g>
		<g>
			<path class="st9" d="M61.98,2357.05c-2.99,0-5.98-0.06-8.95-0.18c-17.08-0.71-31.89-11.85-37.72-28.4
				c-5.76-16.36-1.3-34.09,11.36-45.17c25.37-22.19,49.84-51.78,72.74-87.97v0c10.24-16.18,26.93-27.05,45.78-29.83
				c19.38-2.85,39.22,3.06,54.41,16.23c16.53,14.33,27.78,32.85,33.46,55.04c4.97,19.42-0.3,39.43-15.22,57.85
				C187.93,2331.53,123.51,2357.05,61.98,2357.05z M127.08,2212.84c-24.58,38.85-51.11,70.85-78.85,95.11
				c-3.75,3.28-2.67,7.84-2.04,9.64c0.52,1.48,2.66,6.34,8.19,6.57c52.82,2.2,113.47-19.85,138.01-50.15
				c8.27-10.21,11.27-20,8.94-29.13c-3.99-15.61-11.79-28.53-23.19-38.41c-7.97-6.91-18.25-10.04-28.19-8.57
				C140.41,2199.3,132.29,2204.6,127.08,2212.84L127.08,2212.84z"/>
		</g>
		<g>
			<path class="st6" d="M1369.99,2535.14c-28.38,6.55-56.32-12.93-59.64-41.86c-1.68-14.63,0.46-31.38,10.48-48.88
				c24.49-42.77,122.53-17.35,179.71,39.11c15.23,15.04,3.61,41.03-17.77,39.94C1455.83,2522.08,1418.3,2523.99,1369.99,2535.14z"/>
		</g>
		<g class="st14">
			<path class="st9" d="M1370,2535.14c48.3-11.16,85.84-13.04,112.77-11.66c21.39,1.08,33-24.93,17.78-39.97
				c-11.04-10.88-23.62-20.65-36.85-28.95c4.96,14.52-6.01,31.76-23.53,30.88c-26.94-1.38-64.45,0.53-112.75,11.7
				c-5.49,1.24-10.95,1.53-16.22,0.99C1316.84,2524.36,1343.24,2541.31,1370,2535.14z"/>
		</g>
		<g>
			<path class="st9" d="M1358.97,2552.77c-13.42,0-26.66-4.12-37.8-11.99c-15.11-10.67-24.98-27.3-27.08-45.63
				c-2.35-20.45,1.87-40.26,12.54-58.88c9.07-15.84,25.33-25.78,47.01-28.74c46.7-6.39,114.8,21.28,158.41,64.34
				c11.78,11.63,15.07,28.97,8.37,44.17c-6.74,15.29-21.9,24.63-38.47,23.76c-32.23-1.65-68.67,2.15-108.26,11.29l0,0
				C1368.81,2552.21,1363.87,2552.77,1358.97,2552.77z M1369.99,2535.14h0.05H1369.99z M1368.34,2439.29c-3.57,0-7,0.22-10.28,0.67
				c-11.4,1.56-19.15,5.79-23.03,12.57c-7.12,12.44-9.96,25.52-8.42,38.88c1.06,9.21,5.83,17.24,13.44,22.62
				c7.6,5.37,17.17,7.24,26.25,5.16l0,0c42.56-9.82,82.02-13.9,117.3-12.08c4.41,0.19,6.24-2.92,6.84-4.27
				c0.72-1.64,1.5-4.81-1.41-7.68C1455.8,2462.35,1405.06,2439.29,1368.34,2439.29z"/>
		</g>
		<g>
			<path class="st17" d="M1225.7,1292.33c0,0,192.17,220.97,611.36,218.94c143.12-0.69,255.45,43.45,276.06,113.67
				c32.36,110.27,8.21,250.55-300.29,272.15c-282.66,19.79-483.06-248.15-483.06-248.15L1225.7,1292.33z"/>
		</g>
		<g class="st14">
			<path class="st9" d="M1812.85,1897.11c-282.67,19.77-483.08-248.17-483.08-248.17l-33.03-113.2
				c26.32,33.23,217.76,262.5,479.93,244.16c240.48-16.86,308.17-105.79,310.99-196.48c12.36,12.52,21.04,26.44,25.46,41.54
				C2145.49,1735.21,2121.35,1875.5,1812.85,1897.11z"/>
		</g>
		<g>
			<path class="st9" d="M1783.66,1914.48c-110.09,0-222.92-41.47-328.21-120.98c-86.29-65.16-136.67-131.95-138.78-134.76
				c-5.42-7.24-3.94-17.49,3.3-22.91c7.24-5.42,17.49-3.94,22.91,3.29c1.96,2.6,198.57,260.55,468.82,241.63
				c139.05-9.74,230.29-44.48,271.18-103.28c27.05-38.89,31.94-88.66,14.54-147.93c-17.66-60.19-123.19-101.92-257.14-101.92
				c-1.05,0-2.08,0-3.13,0.01c-219.94,1.13-377.49-59.62-470.82-110.72c-101.84-55.75-150.94-111.5-152.98-113.85
				c-5.93-6.82-5.21-17.16,1.61-23.09c6.82-5.93,17.14-5.22,23.08,1.59c1.97,2.24,191.39,213.34,593.37,213.34
				c1.87,0,3.7,0,5.58-0.01c1.16,0,2.32-0.01,3.48-0.01c152.95,0,265.96,49.07,288.37,125.44c20.32,69.25,13.9,128.41-19.08,175.84
				c-46.83,67.33-146.35,106.78-295.77,117.25C1803.91,1914.13,1793.79,1914.48,1783.66,1914.48z"/>
		</g>
		<g>
			<path class="st17" d="M606.79,1746.33c-98.18,242.69-202.92,205.51-301.05,203.33c-68.13-1.51-254.34,264.94-165.02,337.61
				c80.5,65.49,276.6-58.17,276.6-58.17s257.82,120.75,401.14-60.93L606.79,1746.33z"/>
		</g>
		<g class="st14">
			<path class="st9" d="M818.49,2168.16c-143.32,181.67-401.15,60.94-401.15,60.94s-196.11,123.68-276.61,58.15
				c-39.53-32.13-25.09-102.23,9.21-170.29c-10.31,41.62-7.24,78.17,18.25,98.92c80.5,65.52,276.61-58.16,276.61-58.16
				s201.21,61.37,133.79-203.32L818.49,2168.16z"/>
		</g>
		<g>
			<path class="st9" d="M203.28,2322.45c-27.58,0-53-6.31-72.88-22.49c-34.33-27.93-39.21-78.76-14.1-146.98
				c35.84-97.4,131.63-219.7,188.94-219.7c0.3,0,0.59,0,0.88,0.01c11.13,0.25,22.39,0.94,33.28,1.6
				c87.06,5.3,169.28,10.33,252.22-194.71c3.39-8.38,12.94-12.43,21.32-9.04c8.38,3.39,12.43,12.93,9.04,21.32
				c-91.78,226.88-194.2,220.64-284.57,215.1c-11.07-0.67-21.53-1.31-32.02-1.55c-0.11,0-0.22,0-0.33,0
				c-31.41,0-120.91,97.38-158.03,198.27c-11.32,30.75-25.84,85.98,4.04,110.28c58.47,47.57,205.74-26.69,257.55-59.32l7.57-4.77
				l8.1,3.79c2.46,1.15,247.88,112.95,381.35-56.24c5.6-7.1,15.89-8.32,22.99-2.71c7.1,5.6,8.31,15.89,2.71,22.99
				c-62.19,78.84-155.1,115.08-268.65,104.75c-68.07-6.18-123.75-27.08-144.08-35.56C389.86,2264.64,286.73,2322.45,203.28,2322.45z
				"/>
		</g>
		<g>
			<path class="st17" d="M1491.26,1879.1c-24.23,127.73-149.79,244.65-234.95,280.42c-219.69,92.25-622.11,136.2-808.28-185.72
				c-99.04-171.19-72.03-383.88,126.83-738.21c73.75-131.49,171.23-282.47,294.66-458.04l441.13,424.68
				c-3.97,70.02,12.97,132.88,38.14,193.17C1412.32,1547.89,1528.26,1684.13,1491.26,1879.1z"/>
		</g>
		<g class="st14">
			<path class="st9" d="M1310.62,1242.26c-2.86-14.94-4.87-30.2-5.89-45.75l5.93,5.73
				C1309.88,1215.82,1309.92,1229.17,1310.62,1242.26z"/>
		</g>
		<g class="st14">
			<path class="st9" d="M1491.26,1879.1c-24.23,127.73-149.79,244.65-234.95,280.42c-219.69,92.25-622.11,136.2-808.28-185.72
				c-31.8-54.92-50.58-114.14-54.92-180.97c8.68,46.94,25.13,90.16,48.74,131c186.21,321.88,588.63,277.96,808.28,185.72
				c85.17-35.77,210.77-152.69,234.95-280.42c6.55-34.46,8.31-67.12,6.38-98.3C1500.06,1776.91,1501.37,1825.82,1491.26,1879.1z"/>
		</g>
		<g class="st14">
			<path class="st9" d="M1491.46,1730.83c-32.66-176.06-171.03-310.34-180.85-488.4
				C1342.78,1412.35,1480.37,1546.91,1491.46,1730.83z"/>
		</g>
		<g>
			<path class="st9" d="M921.76,2242.97c-28.76,0-56.93-1.56-84.06-4.74c-179.39-21.01-319.04-109.61-403.85-256.22
				c-72.79-125.84-76.77-270.87-12.51-456.4c64.75-186.97,202.91-427.66,434.78-757.47c5.2-7.4,15.41-9.18,22.81-3.98
				c7.4,5.2,9.18,15.41,3.98,22.81c-440.92,627.15-554.94,946.6-420.71,1178.66c187.61,324.34,597.33,258.78,787.77,178.81
				c79.4-33.35,201.84-145.17,225.21-268.38c26.72-140.89-28.48-247.86-86.91-361.12c-49.48-95.9-100.64-195.06-93.96-313.6
				c0.51-9.03,8.3-15.9,17.27-15.42c9.03,0.51,15.93,8.24,15.42,17.27c-6.18,109.62,40.72,200.51,90.37,296.74
				c58.41,113.2,118.81,230.26,89.99,382.23c-26.67,140.61-161.78,257.65-244.7,292.47
				C1157.24,2218.88,1034.89,2242.97,921.76,2242.97z"/>
		</g>
		<g>
			<g class="st14">
				<path class="st9" d="M1348.8,1395.4c-48.82,7.45-99.57,12.24-151.75,14.45c-259.02,10.97-488.94-44.53-622.19-174.26
					c73.75-131.49,171.23-282.47,294.66-458.04l441.13,424.68C1306.69,1272.26,1323.63,1335.12,1348.8,1395.4z"/>
			</g>
			<g>
				<path class="st17" d="M474.69,906.03c13.87,326.7,343.85,467.54,742.84,450.61c398.99-16.93,715.9-185.23,702.03-511.93
					c-13.29-313.12-231.75-662.11-691.2-671.8c-56.59-25.92-133.76-71.69-179.08-142.38c-14.19-22.1-47.57-17.4-54.84,7.9
					c-9.65,33.63-17.91,77.61,6.71,132.89c-62.58-27.17-124.93-58.45-145.75-75.61c-22.3-18.36-55.74-1.15-53.53,27.62
					c2.17,27.83,14.75,86.51,28.5,135.56C572.92,394.17,464.49,665.75,474.69,906.03z"/>
			</g>
			<g class="st14">
				<path class="st9" d="M1919.75,879.58c-9.41,303.83-317.66,460.74-702.24,477.07c-398.98,16.9-728.96-123.92-742.84-450.63
					c-2.41-56.6,1.8-114.92,12.97-172.79c-2.13,28.89-2.58,57.62-1.39,85.94c13.87,326.71,343.85,467.53,742.88,450.63
					C1575.16,1255.11,1859.47,1126.57,1919.75,879.58z"/>
			</g>
			<g class="st14">
				<path class="st6" d="M507.54,1055.64c-8.34-30.54-13.36-63.11-14.83-97.78c-9.59-225.98,102.41-493.62,329.93-637.2
					c25.86-16.32,38.34-47.39,30.44-76.94c-8.92-33.33-16.45-64.71-17.89-83.12c-2.21-28.78,15.93-31.41,38.23-13.05
					c16.28,13.41,57.94,35.46,105.25,57.42c14.5,6.73,30.84-5.77,27.66-21.44c-7.52-37.14-1.08-68.1,6.14-93.26
					c7.27-25.31,21.25-32.15,42.62,1.41c30.08,47.22,79.93,79.11,126.59,102.8c37.31,18.94,78.17,29.65,119.86,33.14
					c310.29,25.97,501.34,213.19,585.76,429.92c-76.89-250.78-290.38-476.85-658.94-484.62c-56.59-25.92-133.76-71.69-179.08-142.38
					c-14.19-22.1-47.57-17.4-54.84,7.9c-9.65,33.63-17.91,77.61,6.71,132.89c-62.58-27.17-124.93-58.45-145.75-75.61
					c-22.3-18.36-55.74-1.15-53.53,27.62c2.17,27.83,14.75,86.51,28.5,135.56C572.92,394.17,464.49,665.75,474.69,906.03
					C477.03,961.14,488.36,1010.97,507.54,1055.64z"/>
			</g>
			<g>
				<path class="st18" d="M615.49,855.78c4.04,95.2,37.24,196.45,127.06,271.96c91.78,77.25,242.7,127.65,482.12,117.49l0.03,0
					c236.92-10.06,382.46-71.88,467.77-155.23c85.27-83.32,110.34-188.21,106.26-284.44c-0.83-19.55-3.26-38.7-7.17-57.23
					c-34.39-163.99-183.24-283.81-356.11-276.47c-94.55,4.01-178.79,45.32-238.94,109.16c-65.38-58.5-152.78-92.53-247.33-88.52
					c-170.74,7.25-307.56,136.02-330.57,299.39l0,0.03C615.66,812.71,614.57,834.06,615.49,855.78z"/>
			</g>
			<g>
				<path class="st9" d="M1119.78,855.85c1.26,29.66,42.28,63.63,91.01,61.57s86.72-39.39,85.46-69.06
					c-1.26-29.66-41.29-40.43-90.02-38.36C1157.5,812.06,1118.53,826.19,1119.78,855.85z"/>
			</g>
			<g class="st19">
				<path class="st18" d="M1168.91,837.36c0.29,6.94,16.73,14.59,36.57,13.75c19.84-0.84,35.57-9.86,35.28-16.8
					c-0.29-6.94-16.5-9.16-36.34-8.32C1184.58,826.83,1168.62,830.42,1168.91,837.36z"/>
			</g>
			<g>
				<path class="st9" d="M1126.23,1010.8c-38.01,0-59.18-26.01-66.62-53.96c-2.32-8.74,2.87-17.71,11.61-20.03
					c8.75-2.31,17.71,2.88,20.03,11.61c4.66,17.5,17.6,36.41,52.81,27.07c50.15-13.31,49.6-74.22,49.55-76.8l32.71-1.33
					c0.17,2.53,4.78,63.26,55.88,72.28c35.9,6.32,47.17-13.61,50.33-31.44c1.58-8.9,10.05-14.84,18.97-13.27
					c8.9,1.58,14.84,10.07,13.27,18.97c-6.11,34.48-32.51,67.81-88.25,57.98c-30.88-5.44-51.21-23.61-64.02-44.22
					c-11.01,21.62-29.73,41.44-60.03,49.48C1142.96,1009.65,1134.22,1010.8,1126.23,1010.8z"/>
			</g>
			<g>
				<path class="st9" d="M1337.68,1362.98c-8.12,0-15.17-6.04-16.22-14.31c-1.14-8.97,5.21-17.16,14.18-18.3
					c173.11-21.96,316.66-75.13,415.12-153.77c106.86-85.36,158.15-196.79,152.45-331.2c-12.48-294.06-215.2-624.17-630.81-654.09
					c-9.02-0.65-15.8-8.49-15.15-17.5c0.65-9.02,8.56-15.8,17.5-15.15c200.91,14.46,370.42,97,490.22,238.68
					c103.19,122.04,163.9,280.67,170.94,446.68c6.09,143.37-50.87,267.23-164.72,358.16c-103.16,82.4-252.35,137.96-431.43,160.67
					C1339.06,1362.93,1338.37,1362.98,1337.68,1362.98z"/>
			</g>
			<g>
				<path class="st9" d="M1217.53,1356.63c4.46-2.64,8.93-4.71,13.39-6.5c4.46-1.9,8.93-3.42,13.39-4.8
					c8.93-2.78,17.87-4.62,26.81-6.46c8.93-1.8,17.86-3.39,26.81-4.69c8.96-1.17,17.91-2.31,26.97-2.51h0.04
					c9.08-0.21,16.6,6.99,16.81,16.06c0.18,8.02-5.42,14.83-12.99,16.45c-9.09,1.95-18.31,2.78-27.54,3.4
					c-9.24,0.5-18.52,0.52-27.81,0.16c-9.29-0.39-18.58-0.96-27.89-2.64c-4.66-0.83-9.32-1.85-13.98-3.27
					C1226.86,1360.52,1222.2,1358.88,1217.53,1356.63z"/>
			</g>
			<g>
				<path class="st9" d="M612.71,1176.41c6.24,4.65,11.91,9.89,17.65,15.09c5.67,5.29,11.25,10.74,16.81,16.31
					c5.55,5.6,11.19,11.14,16.44,17.43c2.64,3.13,5.22,6.38,7.65,9.94c2.49,3.46,4.87,7.16,7,11.36c-4.7-0.03-9.12-0.62-13.38-1.52
					c-4.31-0.82-8.42-2.02-12.43-3.41c-8.03-2.77-15.46-6.6-22.74-10.69c-7.27-4.12-14.28-8.68-20.92-13.72
					c-6.57-5.13-12.95-10.55-18.45-16.88c-5.96-6.86-5.24-17.25,1.62-23.22c5.95-5.17,14.56-5.31,20.63-0.78L612.71,1176.41z"/>
			</g>
			<g>
				<path class="st9" d="M596.29,1199.76c-4.1,0-8.2-1.53-11.38-4.6c-79.12-76.52-121.71-173.56-126.58-288.44
					c-5.51-129.7,22.06-258.35,79.73-372.04c64.05-126.29,163.29-227.09,286.98-291.5c8.02-4.18,17.91-1.06,22.08,6.96
					c4.18,8.02,1.06,17.91-6.96,22.08C568.94,413.45,481.98,691.87,491.04,905.33c4.51,106.21,43.75,195.8,116.63,266.29
					c6.5,6.28,6.67,16.65,0.39,23.15C604.85,1198.09,600.58,1199.76,596.29,1199.76z"/>
			</g>
			<g>
				<path class="st20" d="M1328.9,830.41c19.2,102.53,103.28,123.26,213.61,162.26c69.23,24.45,117.81,62.98,149.96,97.33
					c85.27-83.32,110.34-188.21,106.26-284.44c-0.83-19.55-3.26-38.7-7.17-57.23c-66.73-63.71-170.4-123.2-315.02-99.53
					C1370.7,666.14,1315.12,756.83,1328.9,830.41z"/>
			</g>
			<g>
				<path class="st20" d="M615.49,855.78c4.04,95.2,37.24,196.45,127.06,271.96c29.22-36.3,73.8-77.51,139.12-107.02
					c106.63-48.21,188.65-75.99,199.1-179.78c7.49-74.49-55.57-160.14-162.5-168.45c-141.55-11-238.21,52.56-299.64,119.4l0,0.03
					C615.66,812.71,614.57,834.06,615.49,855.78z"/>
			</g>
			<g>
				<path class="st9" d="M1017.26,208.56c-4.14,0-8.29-1.56-11.47-4.69c-38.71-38.05-48.08-96.83-27.08-169.97
					c5.14-17.9,19.72-30.69,38.07-33.38c18.41-2.72,36.15,5.42,46.26,21.18c73.04,113.89,211.68,136.88,213.07,137.1
					c8.93,1.41,15.03,9.79,13.63,18.72c-1.41,8.93-9.77,15.01-18.72,13.63c-6.28-0.99-154.64-25.62-235.54-151.77
					c-4.63-7.22-11.86-6.78-13.96-6.46c-2.66,0.39-9.08,2.14-11.34,10.01c-12.19,42.46-18.87,100.8,18.56,137.59
					c6.45,6.34,6.54,16.7,0.2,23.15C1025.73,206.92,1021.5,208.56,1017.26,208.56z"/>
			</g>
			<g>
				<path class="st9" d="M832.62,274.06c-5.79,0-11.4-3.08-14.38-8.51c-16.83-30.76-27.83-78.18-32.68-140.95
					c-1.54-19.91,8.5-38,26.21-47.21c17.81-9.26,38.51-7.08,54.04,5.69c53.81,44.28,101.47,69.77,137.83,73.7
					c8.99,0.97,15.49,9.05,14.51,18.03s-9.05,15.5-18.03,14.51c-43.34-4.69-95.53-31.93-155.12-80.97
					c-7.84-6.45-15.85-3.1-18.12-1.93c-2.23,1.16-9.44,5.72-8.67,15.64c4.43,57.29,14.37,101.47,28.76,127.76
					c4.34,7.93,1.43,17.88-6.5,22.22C837.97,273.41,835.27,274.06,832.62,274.06z"/>
			</g>
			<g>
				<path class="st9" d="M1597.52,841.46c-2.91-0.68-6.78-2.2-10.24-3.3c-1.83-0.54-3.56-1.19-5.32-1.8l-5.37-1.66
					c-3.5-1.19-7.16-2.05-10.62-3.22l-10.56-2.85c-14.02-3.61-27.86-5.96-41.54-7.07c-6.86-0.87-13.65-0.53-20.5-0.87
					c-6.78,0.55-13.71,0.26-20.58,1.36c-3.42,0.53-7.05,0.34-10.49,1.16c-3.48,0.66-7.02,1.25-10.65,1.76
					c-3.73,0.22-7.21,1.4-10.9,2.15c-3.69,0.77-7.46,1.52-11.47,2.01l-2.98,0.37c-9.74,1.2-18.6-5.73-19.8-15.47
					c-0.73-5.92,1.63-11.58,5.71-15.33c13.78-12.48,30.43-22.83,49.09-28.22c9.16-3.39,18.87-4.53,28.53-6.06
					c9.7-0.48,19.54-1.12,29.16,0.16c19.33,1.8,38.07,7.11,55.02,15.35c4.16,2.24,8.36,4.34,12.37,6.77
					c3.96,2.55,7.94,4.94,11.65,7.84c3.71,2.86,7.43,5.67,10.86,8.93c3.58,3.26,6.6,6.36,10.31,10.68
					c6.28,7.31,5.45,18.33-1.85,24.61c-4.36,3.75-10.05,4.97-15.26,3.78L1597.52,841.46z"/>
			</g>
			<g>
				<path class="st9" d="M779.85,849.77c3.33-4.61,6.08-7.96,9.37-11.51c3.14-3.54,6.62-6.65,10.07-9.82
					c3.45-3.2,7.22-5.92,10.94-8.8c3.79-2.76,7.8-5.21,11.75-7.8c16.19-9.65,34.42-16.53,53.52-19.96
					c9.48-2.09,19.34-2.28,29.05-2.63c9.76,0.71,19.53,1.02,28.94,3.62c19.05,3.79,36.52,12.69,51.31,23.96
					c7.8,5.95,9.31,17.09,3.36,24.9c-3.61,4.74-9.15,7.16-14.69,6.99l-3.1-0.12c-4.03-0.15-7.85-0.58-11.6-1.03
					c-3.75-0.43-7.31-1.31-11.04-1.21c-3.66-0.21-7.24-0.49-10.76-0.85c-3.5-0.52-7.09-0.02-10.55-0.27
					c-6.94-0.52-13.82,0.36-20.62,0.38c-6.8,0.92-13.6,1.15-20.36,2.6c-13.53,2.26-27.13,5.78-40.79,10.56l-10.28,3.74
					c-3.34,1.45-6.92,2.62-10.31,4.1l-5.21,2.11c-1.7,0.75-3.37,1.55-5.15,2.24c-3.36,1.39-7.09,3.23-9.93,4.16l-4.39,1.43
					c-9.17,2.98-19.01-2.03-22-11.19C775.62,859.91,776.75,854.12,779.85,849.77z"/>
			</g>
		</g>
		<g>
			<path class="st17" d="M815.1,2159.93c289.02,170.28,146.1,283.97,176.74,381.26c22.36,71.01,371.66,88.32,404.7-6.08
				c35.63-101.8-95.98-141.01-95.98-141.01s204.17-205.47-4.54-391.69L815.1,2159.93z"/>
		</g>
		<g class="st14">
			<path class="st9" d="M1396.56,2535.09c-33.07,94.41-382.37,77.1-404.71,6.1c-30.65-97.28,112.26-210.97-176.76-381.26l0,0
				c124.39-40.72,247.48,65.46,225.42,194.47c-5.72,33.45-12.27,64.29-3.03,93.65c18.5,58.77,260.86,80.75,362.68,33.07
				C1404.13,2496.71,1403.72,2514.63,1396.56,2535.09z"/>
		</g>
		<g>
			<path class="st9" d="M817.87,2155.23c22.76,6.62,43.99,16.63,63.89,29.01c19.91,12.3,38.69,26.81,56.15,43.04
				c17.41,16.28,33.3,34.71,46.48,55.44c13.12,20.7,23.52,43.88,28.79,68.46c2.39,12.31,3.79,24.77,3.95,37.14
				c0.07,12.34-0.78,24.52-2.22,36.39c-2.95,23.64-8.17,46.17-10.33,67.31c-1.07,10.57-1.32,20.79-0.08,30.38
				c0.43,2.35,0.67,4.77,1.2,7.08l1.77,6.82c0.64,1.91,2.35,4.6,5.19,7.32c5.7,5.53,14.66,10.56,24.06,14.59
				c9.5,4.06,19.71,7.41,30.18,10.2c20.96,5.6,42.86,9.29,64.89,11.75c22.06,2.45,44.33,3.67,66.58,3.71
				c22.24,0.04,44.48-1.07,66.38-3.66c21.87-2.6,43.54-6.66,63.72-13.29c10.08-3.29,19.7-7.35,28.29-12.26
				c8.52-4.92,15.88-10.88,20.37-17.42c1.16-1.62,2.04-3.29,2.89-4.95l1.04-2.54l1.07-3.51c1.56-4.7,2.56-9.43,3.28-14.13
				c1.39-9.41,0.98-18.68-1.32-27.5c-4.4-17.72-17.1-33.46-33.2-46.01c-8.09-6.26-16.96-11.87-26.35-16.7
				c-4.68-2.42-9.47-4.7-14.34-6.76c-4.74-2.02-10.08-4.03-14.32-5.38l-25.59-8.1l18.65-19.13c2.58-2.65,5.71-6.17,8.49-9.42
				c2.86-3.33,5.64-6.76,8.39-10.21c5.49-6.93,10.65-14.15,15.68-21.45c9.9-14.7,18.76-30.08,26.29-45.99
				c14.95-31.79,24.86-65.94,25.63-100.31c0.43-17.15-1.29-34.25-5.02-50.92c-3.77-16.69-10.29-32.71-18.51-47.79
				c-4.53-7.36-8.67-14.86-13.68-21.96c-2.5-3.54-4.53-7.38-7.11-10.89c-2.61-3.49-5-7.16-7.51-10.75l-3.67-5.49
				c-1.35-1.75-2.6-3.57-3.91-5.36c-2.54-3.65-5.04-7.37-7.41-11.26c-4.98-7.59-10.12-15.2-14.21-24.28l-0.2-0.43
				c-1.31-2.91-0.02-6.32,2.89-7.63c1.5-0.68,3.16-0.65,4.57-0.08c9.2,3.79,17.8,8.61,25.76,14.25c3.88,2.93,7.62,6.05,11.33,9.23
				c1.81,1.63,3.68,3.21,5.45,4.88c1.72,1.73,3.38,3.53,4.99,5.36c3.21,3.68,6.56,7.28,9.67,11.06c3.12,3.78,5.85,7.91,8.62,11.98
				c5.85,7.94,10.13,16.98,14.75,25.7c8.22,18.05,15.53,36.59,20.06,56.05c4.38,19.45,6.37,39.42,5.86,59.28
				c-0.94,39.85-12.29,78.34-28.76,113.38c-8.3,17.55-17.99,34.34-28.77,50.34c-5.47,7.95-11.08,15.79-17.09,23.37
				c-3.01,3.79-6.06,7.54-9.23,11.24c-3.25,3.77-6.24,7.2-10.12,11.18l-6.94-27.23c6.64,2.1,11.98,4.18,17.75,6.61
				c5.65,2.39,11.18,5.01,16.63,7.84c10.91,5.63,21.44,12.23,31.41,19.94c9.95,7.71,19.23,16.8,27.15,27.37
				c7.95,10.51,14.16,22.93,17.6,36.21c3.48,13.27,4,27.26,2.04,40.42c-0.99,6.57-2.41,13.04-4.43,19.18l-1.45,4.67l-2.2,5.39
				c-1.68,3.45-3.53,6.8-5.68,9.84c-8.59,12.29-19.76,20.62-30.9,27.14c-11.25,6.43-22.8,11.21-34.41,15.01
				c-23.24,7.61-46.71,11.9-70.14,14.71c-23.44,2.77-46.9,3.92-70.31,3.89c-23.42-0.05-46.8-1.33-70.13-3.92
				c-23.33-2.62-46.6-6.49-69.77-12.68c-11.58-3.09-23.14-6.84-34.63-11.75c-11.45-5.06-23.05-10.89-33.92-21.17
				c-5.32-5.18-10.63-11.92-13.58-20.9l-2.55-9.75c-0.73-3.25-1.12-6.53-1.67-9.79c-1.68-13.07-1.25-25.82-0.03-37.94
				c2.56-24.3,7.76-46.38,10.42-68.07c1.31-10.79,2.02-21.43,1.97-31.92c-0.14-10.48-1.34-20.76-3.26-30.87
				c-4.38-20.09-12.73-39.35-24.66-56.8c-11.84-17.52-26.84-33.2-42.75-48.07c-3.8-3.88-8.07-7.35-12.14-11.03
				c-4.1-3.65-8.07-7.42-12.44-10.83l-12.67-10.72l-13.04-10.43c-8.49-7.24-17.41-14.09-25.83-21.73
				c-8.54-7.51-17.26-14.89-25.28-23.61l-0.18-0.19c-2.1-2.29-1.95-5.85,0.33-7.95C813.99,2155.11,816.04,2154.7,817.87,2155.23z"/>
		</g>
		<g>
			<g>
				<path class="st21" d="M2019.52,1453.63l-0.74,58.28l-6.04,476.87c1.12,12.3-27.87,25.95-73.73,37.1
					c-32.88,8.03-74.45,14.76-119.9,18.85c-45.42,4.09-87.53,4.86-121.27,2.82c-47.15-2.81-78.05-11.08-79.14-23.39l-93.07-479.11
					l-8.98-46.26L2019.52,1453.63z"/>
			</g>
			<g>
				<path class="st22" d="M2019.48,1453.64l-0.7,58.24v0.04l-2.5,194.44l-2.45,194.27l-0.16,14.12l-0.94,74.03
					c1.11,12.32-27.87,25.95-73.75,37.08c-20.09,4.95-43.42,9.37-68.96,12.97c-16.17,2.33-33.27,4.3-50.91,5.89
					c-45.43,4.09-87.54,4.87-121.26,2.82c-47.15-2.78-78.04-11.05-79.15-23.37l-78.86-405.94l-14.24-73.17l-8.96-46.29
					L2019.48,1453.64z"/>
			</g>
			<g class="st14">
				<path class="st9" d="M2018.79,1511.88v0.04l-2.5,194.44l-2.45,194.27l-0.16,14.12l-0.94,74.03
					c1.11,12.32-27.87,25.95-73.75,37.08c-20.09,4.95-43.42,9.37-68.96,12.97c-16.17,2.33-33.27,4.3-50.91,5.89
					c-45.43,4.09-87.54,4.87-121.26,2.82c-47.15-2.78-78.04-11.05-79.15-23.37l-8.59-44.28c10.93,1.84,23.7,3.15,37.98,4.01
					c33.72,2.05,75.83,1.27,121.26-2.82c17.64-1.6,34.75-3.56,50.91-5.89c25.54-3.6,48.86-8.02,68.96-12.97
					c45.88-11.13,74.85-24.76,73.75-37.08l0.94-74.03l0.16-14.12l0.04-2.33c-4.54-5.07-9.13-10.19-13.63-15.76
					c-2.74-3.4-5.4-6.79-7.98-10.19c-0.37-0.45-0.7-0.9-1.06-1.35c-5.12-6.75-9.9-13.42-14.32-20.01c-0.29-0.45-0.57-0.86-0.86-1.31
					c-1.6-2.41-3.19-4.87-4.71-7.28c-15.1-3.48-28.48-5.61-39.98-6.83c-21.28-2.25-28.69-29.75-11.34-42.23
					c0.45-0.29,0.86-0.57,1.31-0.86c2.29-1.64,4.67-3.23,7.08-4.79c0.86-0.53,1.68-1.06,2.54-1.6c2.82-1.76,5.65-3.44,8.55-5.08
					c0.49-0.25,0.94-0.49,1.39-0.74c0-0.08-0.04-0.12-0.04-0.16c0-0.04,0-0.04-0.04-0.04c-1.02-3.07-2.01-6.1-2.91-9.13
					c-0.08-0.25-0.12-0.53-0.2-0.78c-0.7-2.37-1.35-4.75-1.96-7.12c-6.26-0.16-12.11-0.16-17.56,0
					c-22.3,0.61-33.72-26.77-17.52-42.03c0.16-0.16,0.37-0.33,0.57-0.49c2.54-2.37,5.16-4.71,7.86-6.96
					c0.74-0.61,1.47-1.27,2.25-1.88c2.78-2.29,5.65-4.5,8.55-6.67c0.65-0.49,1.35-0.98,2.05-1.47c2.78-2.05,5.61-4.01,8.51-5.89
					c0.12-1.27,0.33-2.54,0.49-3.76c0-0.08,0-0.2,0.04-0.29c0.57-4.3,1.35-8.47,2.29-12.56c-1.06-0.08-2.17-0.2-3.19-0.29
					c-12.52-0.98-23.61-1.19-33.31-0.9c-16.04,0.41-25.95-14.98-22.26-28.4c1.02-3.68,2.99-7.2,6.18-10.23
					c6.55-6.14,13.59-11.87,20.99-17.11c0.33-0.25,0.65-0.53,0.98-0.78l0.04,0.04c34.25-24.11,75.71-38.14,107.27-37.04
					c2.62-1.19,5.28-2.33,7.94-3.36c3.44-1.31,6.92-2.5,10.48-3.52C1991.61,1512.04,2005.2,1510.69,2018.79,1511.88z"/>
			</g>
			<g class="st14">
				<path class="st9" d="M2019.48,1453.64l-0.7,58.24c-13.59-1.19-27.18,0.16-40.19,3.93c-3.56,1.02-7.04,2.21-10.48,3.52
					l0.78-61.14L2019.48,1453.64z"/>
			</g>
			<g>
				<path class="st9" d="M1736.4,2065.03c-13.88,0-27.13-0.37-39.56-1.13c-62.33-3.71-91.54-15.21-94.35-37.24l-105.38-542.54
					l539.01-48.41l-7,552.63c1.16,22.18-25.54,38.7-86.25,53.46c-35.01,8.54-77.3,15.2-122.28,19.24
					C1791.15,2063.69,1762.65,2065.03,1736.4,2065.03z M1634.41,2019.29c3.68,2.28,18.41,9.2,64.39,11.93
					c34.36,2.08,75.46,1.11,118.86-2.78c43.38-3.9,84-10.27,117.46-18.44c44.78-10.89,58.05-20.32,61.27-23.23l6.52-515.2
					l-466.76,41.92L1634.41,2019.29z"/>
			</g>
			<g class="st14">
				<path class="st9" d="M2019.52,1453.63l-0.74,58.28c-50.2,18.51-133.32,35.1-228.15,43.63
					c-118.15,10.63-220.71,5.67-265.01-10.47l-8.98-46.26L2019.52,1453.63z"/>
			</g>
			<g>
				<g>
					<path class="st23" d="M1724.01,1749.31c19.62-22.59,44.39-38.28,69.81-53.44c13.34-7.94,25.58-16.79,36.49-26.75
						c14.87-13.57,27.29-29.15,36.57-47.23c2.34-4.51,4.5-9.21,6.39-14.06c2.59-6.43,4.79-13.1,6.6-20.09
						c1.92-7.31,0.65-11.13-6.24-14.57c-12.69-6.34-25.65-9.48-38.79-9.73c-0.02,0.01-0.02,0.01-0.02,0.01
						c-9.63-0.21-19.37,1.18-29.15,3.97c-71.7,20.49-130.74,94.19-135.08,168.7c-1.58,26.81,2.52,52.54,20.78,75.45
						C1697.33,1787.39,1708.47,1767.18,1724.01,1749.31z"/>
				</g>
				<g>
					<path class="st23" d="M1907.62,1602.01c-9.42,33.87-26.15,60.87-48.21,83.03c-17.43,17.53-38.22,32.03-61.3,44.52
						c-11.92,6.45-22.78,14.69-32.98,23.7c-22.3,19.71-39.22,42.78-46.17,72.44c-1.86,7.89,0.16,12.07,7.23,15.62
						c22.37,11.23,45.64,12.44,69.15,5.76c47.89-13.64,89.6-51.62,113.32-97.65c11.68-22.61,19.03-47.18,20.6-71.77
						c0.03-0.21,0.06-0.43,0.05-0.66c0.34-5.35,0.38-10.71,0.15-16.04C1928.53,1639.83,1922.85,1619.87,1907.62,1602.01z"/>
				</g>
			</g>
			<g class="st14">
				<g>
					<path class="st9" d="M2017.47,1615.73c0.31,2.73,0.33,5.58-0.12,8.5L2017.47,1615.73z"/>
				</g>
			</g>
			<g class="st4">
				<path class="st6" d="M1571.84,1606.95l27.29,152.71c1.64,9.2,10.59,15.22,19.73,13.27v0c7.49-1.59,12.9-8.12,13.09-15.77
					l3.73-149.5c0.22-8.63-6.25-15.98-14.84-16.87l-31.02-3.21C1578.88,1586.46,1569.9,1596.12,1571.84,1606.95z"/>
			</g>
			<g>
				<g>
					<path class="st24" d="M2050.96,1421.7l-11.17-41.43l-11.26-41.79c0.06,0.7-0.07,1.41-0.15,2.11c0.08-0.71,0.2-1.41,0.15-2.12
						c-2.38-29.56-127.84-43.56-280.2-31.27c-152.38,12.3-273.96,46.24-271.58,75.8c0,0,0,0,0,0l-4.13,40.4l-4.65,45.36l-0.42,4.2
						c2.52,31.32,135.41,46.18,296.83,33.14c161.39-13.01,290.2-48.99,287.64-80.31L2050.96,1421.7z"/>
					<path class="st9" d="M1651.8,1513.4c-35.2,0-67.66-1.56-95.7-4.7c-40.61-4.54-89.38-14.38-91.09-35.53l0.42-4.66l8.79-85.77
						c-2.84-34.64,137.04-67.04,273.91-78.08c73.84-5.96,143.74-5.98,196.83-0.05c38.23,4.27,84.1,13.52,86.09,33.4l23.45,87.14
						c1.8,21.59-44.76,39.13-84.13,50.12c-54.49,15.22-127.58,27.07-205.78,33.37C1725.37,1511.81,1687.2,1513.4,1651.8,1513.4z
						 M1854.63,1305.28c-33.28,0-69.18,1.49-106.09,4.47c-73.54,5.94-142.2,17.07-193.35,31.34c-48.54,13.55-76.91,29.14-75.9,41.71
						l-9.2,90.42c1.08,12.94,33.45,24.48,86.57,30.42c55.92,6.24,129.61,6.22,207.52-0.07c77.89-6.28,150.63-18.07,204.82-33.2
						c51.49-14.38,81.58-30.96,80.49-44.37l-23.1-85.68l-0.54-0.02c0.11-0.89,0.16-1.32,0.14-1.63c-1.01-12.57-31.52-23.41-81.6-29
						C1918.11,1306.74,1887.66,1305.28,1854.63,1305.28z"/>
				</g>
				<g>
					<path class="st24" d="M1467.55,1472.96c2.53,31.33,135.43,46.17,296.82,33.15c161.4-13.02,290.19-48.99,287.67-80.32
						l-1.09-4.09l-22.43-83.23c1.39,17.23-51.1,69.09-270.51,87.94c-203.89,17.52-279.87-26.18-281.26-43.41l-8.77,85.75
						L1467.55,1472.96z"/>
					<path class="st9" d="M1651.8,1513.4c-35.2,0-67.66-1.56-95.7-4.7c-40.62-4.53-89.39-14.38-91.09-35.53l-0.02-0.23l0.44-4.44
						l8.77-85.76l5.07,0.05c0.09,1.09,0.89,4.12,6.37,8.76c6.12,5.17,65.73,50.06,272.14,32.31
						c224.57-19.29,269.18-72.95,268.19-85.2l5-0.87l23.52,87.33c1.79,21.6-44.78,39.14-84.14,50.13
						c-54.49,15.21-127.57,27.07-205.79,33.38C1725.37,1511.81,1687.2,1513.4,1651.8,1513.4z M1470.11,1472.97
						c1.41,13.31,33.71,24.76,86.56,30.66c55.92,6.25,129.6,6.22,207.5-0.07c77.9-6.29,150.64-18.08,204.82-33.21
						c51.49-14.38,81.59-30.96,80.51-44.36l-1.01-3.64l-20.14-74.72c-12.88,22.53-75.23,64.56-270.13,81.31
						c-158.31,13.6-247.55-9.55-275.86-33.5c-1.52-1.28-2.83-2.57-3.94-3.83L1470.11,1472.97z"/>
				</g>
				<g class="st5">
					<path class="st6" d="M1478.74,1406.26c1.39,17.23,77.37,60.93,281.26,43.41c219.41-18.85,271.9-70.71,270.51-87.94l20.37,75.58
						c1.15-2.3,1.74-4.6,1.56-6.86l-1.09-4.09l-22.43-83.23c1.39,17.23-51.1,69.09-270.51,87.94
						c-203.89,17.52-279.87-26.18-281.26-43.41l-8.77,85.75l-0.42,4.21c0.19,2.35,1.19,4.59,2.8,6.74L1478.74,1406.26z"/>
				</g>
				<g>
					<path class="st9" d="M1651.82,1526.21c-35.7,0-68.65-1.59-97.14-4.77c-67.9-7.58-100.45-22.59-102.44-47.23
						c-0.07-0.92-0.07-1.84,0.03-2.75l9.09-88.93c-0.84-65.59,256.19-88.24,285.74-90.63c74.63-6.02,145.4-6.03,199.28-0.01
						c63.03,7.04,94.05,20.94,97.28,43.67l22.14,82.15c0.01,0.03,0.02,0.07,0.03,0.1l1.07,4.09c0.23,0.87,0.38,1.75,0.45,2.64
						c2.01,24.65-27.71,44.69-93.53,63.07c-55.26,15.43-129.2,27.44-208.2,33.81C1726.09,1524.61,1687.57,1526.21,1651.82,1526.21z
						 M1483.16,1471.31c12.33,14.59,113.12,32.95,280,19.48c166.91-13.45,263.44-47.77,273.23-64.14l-0.26-1.01l-20.75-76.99
						c-1.51-2.37-2.37-5.18-2.35-8.17c-12.33-13.54-107.67-30.53-263.45-17.97c-157.31,12.7-248.96,45.27-257.45,60.43
						c0,0.54-0.02,1.08-0.08,1.61L1483.16,1471.31z"/>
				</g>
				<g>
					<path class="st9" d="M1651.81,1520.18c-35.47,0-68.18-1.58-96.46-4.74c-63.65-7.11-95.41-20.76-97.1-41.73
						c-0.05-0.56-0.04-1.12,0.01-1.68l9.19-89.99c0.49-4.8,4.48-8.39,9.39-8.39c4.83,0.05,8.82,3.77,9.21,8.59
						c4.27,12.11,79.86,51.29,271.16,34.86c214.97-18.47,261.7-68.82,262-77.97c-0.39-4.81,2.96-9.08,7.71-9.91
						c4.74-0.82,9.36,2.15,10.62,6.81l23.53,87.35c0.14,0.54,0.24,1.1,0.28,1.66c1.69,20.98-27.47,39.54-89.16,56.77
						c-54.9,15.32-128.43,27.26-207.07,33.61C1725.75,1518.6,1687.39,1520.18,1651.81,1520.18z M1476.96,1472.73
						c1.43,4.83,17.8,17.16,80.46,24.16c55.49,6.2,128.73,6.17,206.2-0.09c77.48-6.25,149.77-17.97,203.54-32.98
						c60.73-16.96,74.91-31.76,75.55-36.75l-17.43-64.72c-28.59,27.65-108.5,59.79-266.48,73.36
						c-150.84,12.95-240.42-7.55-274.93-30.66L1476.96,1472.73z"/>
				</g>
				<g>
					<path class="st24" d="M1539.51,1289.53c1.04,12.87,33.27,21.79,82.5,25.18c35.27,2.44,79.28,2.02,126.78-1.81
						c47.5-3.83,91.01-10.48,125.43-18.54c48.04-11.24,78.41-25.21,77.38-38.08c-1.78-22.07-95.47-32.54-209.26-23.35
						C1628.53,1242.11,1537.73,1267.46,1539.51,1289.53z"/>
					<path class="st9" d="M1669.57,1318.79c-16.86,0-32.87-0.51-47.74-1.54c-31.04-2.14-83.33-8.55-84.86-27.51l0,0
						c-1.25-15.42,31.9-27.98,59.92-35.8c38.46-10.74,90.04-19.1,145.24-23.55c55.19-4.46,107.43-4.47,147.12-0.04
						c28.92,3.23,63.64,10.31,64.89,25.73c1.53,18.97-49.05,33.68-79.33,40.77c-36.01,8.44-79.51,14.87-125.81,18.6
						C1721.36,1317.67,1694.54,1318.79,1669.57,1318.79z M1821.73,1232.13c-24.84,0-51.64,1.11-79.19,3.33
						c-54.88,4.43-106.12,12.73-144.28,23.38c-53.24,14.86-56.49,27.09-56.21,30.48l0,0c0.68,8.42,22.09,18.85,80.13,22.84
						c36.65,2.53,80.36,1.91,126.4-1.81c46.04-3.72,89.29-10.11,125.06-18.48c56.64-13.25,76.1-26.97,75.42-35.4
						c-0.27-3.39-5.44-14.94-60.37-21.07C1869.08,1233.22,1846.36,1232.13,1821.73,1232.13z"/>
				</g>
				<g>
					<path class="st25" d="M1591.5,1313.59c0.79,9.76,25.24,16.53,62.59,19.1c26.76,1.85,60.15,1.53,96.19-1.38
						c36.04-2.91,69.05-7.95,95.16-14.07c36.45-8.53,59.49-19.13,58.7-28.89c-1.35-16.75-72.43-24.68-158.76-17.72
						C1659.04,1277.61,1590.15,1296.84,1591.5,1313.59z"/>
					<path class="st9" d="M1690.17,1336.25c-12.8,0-24.96-0.39-36.25-1.17c-28.94-1.99-63.68-7.31-64.81-21.3l0,0
						c-1.71-21.25,79.14-39.32,156.08-45.53c76.93-6.21,159.63-1.34,161.35,19.91c1.13,14-32.3,24.81-60.55,31.42
						c-27.35,6.4-60.38,11.29-95.52,14.12C1729.49,1335.4,1709.13,1336.25,1690.17,1336.25z M1593.89,1313.4
						c0.48,5.91,16.57,13.88,60.36,16.9c27.78,1.92,60.92,1.44,95.83-1.37c34.9-2.81,67.69-7.66,94.81-14.01
						c42.73-10,57.33-20.45,56.86-26.36c-1.07-13.21-65.47-22.83-156.17-15.52C1654.86,1280.36,1592.83,1300.18,1593.89,1313.4
						L1593.89,1313.4z"/>
				</g>
				<g>
					<path class="st24" d="M1591.5,1313.59c0.79,9.76,25.24,16.53,62.59,19.1c26.76,1.85,60.15,1.53,96.19-1.38
						c36.04-2.91,69.05-7.95,95.16-14.07c36.45-8.53,59.49-19.13,58.7-28.89c-1.35-16.75-72.43-24.68-158.76-17.72
						C1659.04,1277.61,1590.15,1296.84,1591.5,1313.59z"/>
					<path class="st9" d="M1690.17,1336.4c-12.8,0-24.97-0.39-36.26-1.17c-29-2-63.81-7.34-64.95-21.44l0,0
						c-1.72-21.35,79.2-39.48,156.21-45.69c77-6.22,159.78-1.3,161.5,20.05c1.14,14.11-32.36,24.96-60.66,31.58
						c-27.36,6.41-60.39,11.29-95.54,14.13C1729.5,1335.55,1709.13,1336.4,1690.17,1336.4z M1594.04,1313.39
						c0.47,5.85,16.53,13.76,60.22,16.77c27.78,1.92,60.9,1.44,95.81-1.37c34.9-2.82,67.67-7.66,94.79-14.01
						c42.64-9.97,57.21-20.35,56.74-26.21c-1.06-13.14-65.4-22.68-156.02-15.38C1654.95,1280.5,1592.98,1300.24,1594.04,1313.39
						L1594.04,1313.39z"/>
				</g>
				<g class="st26">
					<path class="st9" d="M1591.5,1313.59c0.79,9.76,25.24,16.53,62.59,19.1c26.76,1.85,60.15,1.53,96.19-1.38
						c36.04-2.91,69.05-7.95,95.16-14.07c36.45-8.53,59.49-19.13,58.7-28.89c-1.35-16.75-72.43-24.68-158.76-17.72
						C1659.04,1277.61,1590.15,1296.84,1591.5,1313.59z"/>
				</g>
				<g>
					<path class="st9" d="M1690.56,1347.85c-12.96,0-25.27-0.4-36.72-1.18c-62.21-4.29-70.46-17.84-71.25-27.67c0,0,0,0,0,0
						c-3.11-38.53,145.48-51.64,162.43-53c16.95-1.37,165.71-12.26,168.82,26.27c0.79,9.83-5.18,24.53-65.88,38.74
						c-27.68,6.48-61.06,11.42-96.54,14.28C1730.26,1346.98,1709.72,1347.85,1690.56,1347.85z M1602.09,1317.37
						c4.25,2.9,18.61,8.29,53.04,10.66c27.45,1.89,60.22,1.43,94.79-1.37c34.56-2.79,66.99-7.58,93.78-13.85
						c33.6-7.86,46.91-15.48,50.63-19.03c-9.61-7.07-59.63-16.3-147.81-9.18C1658.34,1291.72,1610.44,1308.85,1602.09,1317.37z"/>
				</g>
				<g>
					<path class="st25" d="M1532.64,1356.72c1.89,23.4,101.14,34.48,221.68,24.76c120.54-9.73,216.73-36.59,214.84-59.98l-0.82-3.05
						l-16.75-62.16c1.04,12.87-29.33,26.84-77.38,38.08c-34.42,8.06-77.93,14.71-125.43,18.54s-91.51,4.25-126.78,1.81
						c-49.23-3.39-81.46-12.31-82.5-25.18l-6.55,64.04L1532.64,1356.72z"/>
					<path class="st9" d="M1670.24,1387.42c-26.31,0-50.57-1.17-71.53-3.51c-30.52-3.41-67.17-10.86-68.47-26.99
						c-0.01-0.14-0.01-0.29,0-0.43l6.86-67.19c0.12-1.23,1.16-2.16,2.39-2.16c0.01,0,0.02,0,0.02,0c1.24,0.01,2.27,0.97,2.37,2.21
						c0.69,8.48,22.13,18.97,80.27,22.98c36.66,2.53,80.38,1.9,126.43-1.81c46.05-3.72,89.3-10.11,125.08-18.48
						c56.73-13.27,76.21-27.07,75.53-35.55c-0.1-1.24,0.76-2.35,1.98-2.56c1.21-0.22,2.4,0.54,2.73,1.74l17.57,65.22
						c2.33,28.45-108.51,54.24-216.97,63C1725.21,1386.24,1696.69,1387.42,1670.24,1387.42z M1535.05,1356.73
						c1.09,9.67,25.04,18.03,64.2,22.41c41.72,4.66,96.73,4.64,154.87-0.05c129.13-10.42,214.2-38.09,212.64-57.4l-0.74-2.63
						l-14.72-54.64c-10.74,14.83-50.92,26.29-76.54,32.28c-36.01,8.43-79.5,14.86-125.79,18.6c-46.28,3.73-90.25,4.36-127.14,1.82
						c-26.25-1.81-67.75-6.68-80.73-19.59L1535.05,1356.73z"/>
				</g>
				<g>
					<path class="st24" d="M1539.49,1289.54l-3.3,32.3l-3.23,31.72l-0.31,3.15c1.88,23.39,101.12,34.5,221.66,24.76
						c120.54-9.73,216.73-36.58,214.86-60l-0.81-3.05l-9.16-33.95l-7.62-28.21c1.06,12.86-29.33,26.85-77.38,38.09
						c-34.42,8.04-77.91,14.71-125.42,18.54c-47.51,3.83-91.52,4.23-126.78,1.82C1572.77,1311.33,1540.54,1302.41,1539.49,1289.54z"
						/>
					<path class="st9" d="M1670.26,1387.57c-26.33,0-50.6-1.17-71.56-3.52c-30.57-3.42-67.29-10.9-68.59-27.13l0.31-3.6l6.53-64.04
						l5.07,0.05c0.69,8.42,22.11,18.85,80.16,22.85c36.76,2.51,80.46,1.88,126.4-1.82c45.92-3.7,89.15-10.09,125.04-18.48
						c56.66-13.26,76.11-26.98,75.42-35.41l5-0.87l17.59,65.21c2.41,29.63-110.08,54.56-217.11,63.2
						C1725.23,1386.39,1696.71,1387.57,1670.26,1387.57z M1541.2,1297.83l-6.02,59.14c0.78,9.23,24.73,17.63,64.08,22.03
						c41.72,4.66,96.71,4.65,154.84-0.05c129.03-10.42,214.06-38.02,212.52-57.26l-0.74-2.6l-14.67-54.35
						c-11.06,14.76-50.94,26.14-76.45,32.11c-36.13,8.44-79.63,14.87-125.79,18.59c-46.19,3.73-90.16,4.35-127.16,1.83
						C1595.7,1315.47,1554.5,1310.63,1541.2,1297.83z"/>
				</g>
				<g class="st5">
					<path class="st6" d="M1539.09,1284.89l-3.3,32.3c27.86,15.47,112.72,21.57,212.04,13.57c105.27-8.49,191.94-30.03,210.97-50.93
						l-7.62-28.21c1.06,12.86-29.33,26.85-77.38,38.09c-34.42,8.04-77.91,14.71-125.42,18.54c-47.51,3.83-91.52,4.23-126.78,1.82
						C1572.37,1306.68,1540.14,1297.76,1539.09,1284.89z"/>
				</g>
				<g>
					<path class="st9" d="M1670.26,1399.02c-26.76,0-51.46-1.19-72.83-3.58c-52.84-5.9-77.13-17.5-78.75-37.6
						c-0.07-0.84-0.06-1.68,0.02-2.52l6.77-66.28c-0.29-18.62,20.93-32.91,68.34-46.14c39.15-10.93,91.49-19.43,147.4-23.94
						c55.89-4.52,108.92-4.51,149.31,0c49.05,5.47,72.28,16.22,74.88,34.73l16.46,61.1c0,0.01,0.01,0.02,0.01,0.03l0.82,3.05
						c0.22,0.82,0.36,1.65,0.43,2.49c1.62,20.1-20.5,35.43-71.71,49.73c-41.42,11.56-96.81,20.56-155.97,25.33
						C1725.86,1397.83,1697.03,1399.02,1670.26,1399.02z M1546.94,1354.44c11.77,9.75,82.12,23.09,206.25,13.08
						c124.13-10.02,191.42-34.47,201.48-45.98l-16.6-61.59c-0.05-0.2-0.1-0.4-0.15-0.59c-9.94-9.09-76.7-21.97-194.46-12.47
						c-117.25,9.46-181.03,32.71-189.85,43.35c0.02,0.33,0.05,0.65,0.07,0.98l0.55,6.73l-0.32,0.03c-0.09,3.57-0.63,6.89-2.17,9.53
						L1546.94,1354.44z"/>
				</g>
				<g>
					<path class="st9" d="M1670.25,1394.35c-26.58,0-51.11-1.18-72.31-3.55c-65.06-7.27-73.74-22.5-74.61-33.33
						c-0.05-0.56-0.04-1.12,0.01-1.68l6.87-67.21c0.49-4.8,4.69-8.51,9.39-8.39c4.83,0.05,8.82,3.77,9.21,8.59
						c1.36,2.85,18.01,12.77,73.83,16.62c36.32,2.51,79.68,1.88,125.39-1.8c45.71-3.69,88.61-10.02,124.06-18.33
						c54.48-12.74,69.31-25.21,70.21-28.57c-0.39-4.81,2.95-8.96,7.7-9.79c4.74-0.84,9.35,2.27,10.61,6.93l17.57,65.24
						c0.15,0.54,0.24,1.1,0.29,1.66c3.29,40.8-138.87,63.22-223.4,70.04C1725.6,1393.17,1696.89,1394.35,1670.25,1394.35z
						 M1542.08,1356.17c5.76,11.3,81.97,26.45,211.49,16c129.53-10.45,202.31-37.63,206.19-49.71l-12.17-45.16
						c-11.47,7.96-32.58,17.11-71.24,26.15c-36.34,8.51-80.19,15-126.81,18.75c-46.62,3.76-90.94,4.39-128.18,1.82
						c-39.62-2.73-61.93-8.37-74.52-14.39L1542.08,1356.17z"/>
				</g>
			</g>
		</g>
		<g>
			<g>
				<path class="st17" d="M2021.42,1887.74c0,0,117.66-38.53,136.57-155.49c30.59-189.29-80.16-270.61-165.43-245.79
					c-89.61,26.08-155.24,146.34-28.09,303.1C1987.41,1817.85,2012.28,1835.38,2021.42,1887.74z"/>
			</g>
			<g class="st14">
				<path class="st9" d="M2159.57,1721.29c-0.45,3.6-0.98,7.28-1.6,10.97c-18.91,116.96-136.57,155.48-136.57,155.48
					c-9.13-52.34-34.01-69.9-56.93-98.18c-94.37-116.35-82.55-212.61-33.52-265.16c-1.47,48.29,18.13,106.9,70.76,171.8
					c8.23,10.15,16.7,18.91,24.6,28.39c34.49,41.35,98.73,40.63,132-1.71C2158.75,1722.36,2159.16,1721.83,2159.57,1721.29z"/>
			</g>
			<g>
				<path class="st9" d="M2008.55,1909.18l-3.25-18.62c-6.54-37.43-21.75-54.5-39.37-74.26c-4.62-5.19-9.4-10.55-14.17-16.43
					c-64.31-79.29-88.1-160.14-66.98-227.66c15.39-49.21,53.97-87.15,103.21-101.47c43.26-12.58,90.67-1.03,126.82,30.93
					c53.96,47.7,75.59,132.7,59.35,233.2c-20.26,125.36-142.44,166.74-147.63,168.44L2008.55,1909.18z M2023.08,1498.5
					c-8.75,0-17.46,1.21-25.94,3.67c-38.68,11.25-69,41.09-81.11,79.81c-17.73,56.71,3.98,126.77,61.16,197.26
					c4.29,5.29,8.81,10.36,13.19,15.27c16.27,18.25,33.01,37.03,42.69,70.73c31.16-14.77,95.68-54.6,108.77-135.6
					c14.41-89.18-3.34-163.33-48.71-203.44C2072.67,1508.12,2047.76,1498.5,2023.08,1498.5z"/>
			</g>
			<g>
				<path class="st6" d="M1968.6,1600.54c27,6.9,54.17-11.1,58-38.7c1.93-13.96,0.27-30.03-8.93-46.99
					c-22.47-41.46-116.82-19.35-172.79,33.38c-14.91,14.04-4.38,39.17,16.1,38.61C1886.78,1586.11,1922.64,1588.79,1968.6,1600.54z"
					/>
			</g>
			<g class="st14">
				<path class="st9" d="M1968.62,1600.54c-45.97-11.75-81.83-14.43-107.65-13.71c-20.48,0.55-31.02-24.58-16.07-38.62
					c6.81-6.42,14.2-12.37,21.96-17.88c1.56,10.49,10.34,19.75,22.89,19.42c25.79-0.7,61.65,1.98,107.62,13.73
					c10.18,2.6,20.34,1.67,29.3-1.96c-0.04,0.08-0.05,0.2-0.06,0.31C2022.76,1589.43,1995.61,1607.41,1968.62,1600.54z"/>
			</g>
			<g>
				<path class="st9" d="M1980.22,1618.37c-5.24,0-10.51-0.65-15.67-1.97l0,0c-37.61-9.62-72.34-14.06-103.12-13.21
					c-16.27,0.45-30.73-8.99-36.94-24.04c-6.18-14.97-2.58-31.79,9.17-42.85c42.83-40.35,108.85-65.36,153.57-58.17
					c20.9,3.36,36.4,13.35,44.83,28.91c9.86,18.19,13.48,37.38,10.75,57.04c-2.45,17.68-12.38,33.55-27.24,43.53
					C2005.04,1614.69,1992.7,1618.37,1980.22,1618.37z M1972.66,1584.68c8.44,2.15,17.43,0.61,24.66-4.25s11.87-12.26,13.06-20.84
					c1.75-12.6-0.64-25.03-7.1-36.95c-3.46-6.38-10.6-10.48-21.24-12.19c-30.75-4.94-86.25,12.29-125.93,49.68
					c-2.54,2.39-1.94,5.12-1.35,6.53c0.6,1.46,2.27,3.99,5.77,3.8C1894.38,1569.53,1932.1,1574.31,1972.66,1584.68L1972.66,1584.68z
					"/>
			</g>
			<g>
				<path class="st6" d="M1999.44,1684.95c29.37,7.51,58.93-12.08,63.09-42.11c2.1-15.18,0.29-32.66-9.71-51.12
					c-24.44-45.11-127.09-21.05-187.98,36.31c-16.22,15.28-4.76,42.62,17.51,42C1910.43,1669.26,1949.44,1672.17,1999.44,1684.95z"
					/>
			</g>
			<g class="st14">
				<path class="st9" d="M1999.46,1684.94c-50.02-12.79-89.03-15.7-117.1-14.89c-22.29,0.6-33.74-26.75-17.52-42.03
					c12.51-11.79,26.83-22.21,41.87-30.83c-7,15.28,4.09,34.9,23.02,34.39c28.04-0.78,67.04,2.13,117.07,14.92
					c4.96,1.24,9.91,1.76,14.74,1.53C2054.89,1675.1,2027.09,1692.03,1999.46,1684.94z"/>
			</g>
			<g>
				<path class="st9" d="M2012.09,1702.91c-5.58,0-11.19-0.69-16.7-2.1l0,0c-41.04-10.49-78.87-15.37-112.58-14.41
					c-17.1,0.41-32.28-9.44-38.81-25.25c-6.49-15.73-2.72-33.4,9.62-45.03c46.3-43.61,117.61-70.67,165.86-62.91
					c22.28,3.58,38.79,14.2,47.74,30.72c10.57,19.51,14.45,40.1,11.53,61.17c-2.61,18.83-13.19,35.73-29.02,46.36
					C2038.51,1698.99,2025.37,1702.91,2012.09,1702.91z M1890.96,1653.54c34.34,0,72.14,5.22,112.54,15.55l0,0
					c9.58,2.45,19.78,0.69,27.99-4.82c8.22-5.52,13.48-13.93,14.84-23.68c1.94-14.01-0.71-27.83-7.89-41.08
					c-3.98-7.35-12.11-12.06-24.15-13.99c-38.56-6.18-99.25,17.71-138.21,54.42c-3.39,3.19-2.59,6.82-1.81,8.7
					c0.64,1.56,2.65,5.24,7.65,5.02C1884.9,1653.59,1887.92,1653.54,1890.96,1653.54z"/>
			</g>
			<g>
				<path class="st6" d="M2005.13,1771.71c27.01,10.9,57.65-3.98,65.45-32.04c3.94-14.19,4.45-31.06-2.72-49.92
					c-17.52-46.07-118.32-36.26-183.61,10.59c-17.39,12.48-9.97,39.97,11.32,42.23C1922.37,1745.41,1959.15,1753.16,2005.13,1771.71
					z"/>
			</g>
			<g class="st14">
				<path class="st9" d="M2005.11,1771.71c-45.96-18.56-82.75-26.28-109.57-29.12c-21.29-2.27-28.71-29.78-11.32-42.26
					c12.6-9.02,26.55-16.71,40.92-22.84c-7.17,13.57,0.98,32.31,18.42,34.18c26.82,2.84,63.58,10.59,109.54,29.15
					c5.22,2.08,10.58,3.22,15.87,3.51C2059.3,1769.36,2030.58,1781.97,2005.11,1771.71z"/>
			</g>
			<g>
				<path class="st9" d="M2023.5,1791.64c-8.31,0-16.64-1.58-24.5-4.75l0,0c-37.69-15.21-73.07-24.64-105.18-28.04
					c-16.56-1.76-30.02-13.33-34.29-29.48c-4.25-16.06,1.7-32.68,15.16-42.33c49.79-35.73,121.38-52.42,166.51-38.83
					c20.95,6.31,35.46,18.66,41.95,35.73c7.63,20.06,8.71,40.28,3.2,60.11c-4.94,17.78-17.29,32.67-33.88,40.85
					C2043.37,1789.38,2033.44,1791.64,2023.5,1791.64z M2005.13,1676.07c-34.77,0-78.85,14.24-111.35,37.57
					c-3.32,2.38-3.05,5.63-2.59,7.36c0.38,1.44,1.73,4.82,6.09,5.28c35.13,3.73,73.47,13.9,113.98,30.24l0,0
					c8.64,3.49,18.38,3.12,26.73-1c8.36-4.12,14.33-11.31,16.82-20.25c3.6-12.96,2.84-26.32-2.25-39.71
					c-2.78-7.31-9.78-12.7-20.79-16.02C2023.93,1677.2,2014.89,1676.07,2005.13,1676.07z"/>
			</g>
		</g>
		<g>
			<path class="st6" d="M256.57,2002.66c24.45-13.37,55.23-2.65,65.77,23.15c5.33,13.04,7.69,29.02,2.98,47.74
				c-11.51,45.74-108.4,47.66-175.68,10.43c-17.92-9.92-13.94-36.87,6.04-41.39C180.86,2036.89,214.94,2025.43,256.57,2002.66z"/>
		</g>
		<g class="st14">
			<path class="st9" d="M256.59,2002.66c-41.63,22.77-75.71,34.23-100.91,39.92c-19.98,4.54-23.98,31.49-6.01,41.39
				c8.18,4.54,16.82,8.47,25.7,11.89c-1.09-10.55,5.13-21.7,17.37-24.49c25.16-5.71,59.24-17.17,100.87-39.94
				c9.22-5.04,19.29-6.66,28.87-5.35c-0.06-0.07-0.1-0.18-0.14-0.29C311.78,2000.03,281.03,1989.32,256.59,2002.66z"/>
		</g>
		<g>
			<path class="st9" d="M250.92,2126.3c-35.81,0-76.31-9.79-109.2-28c-14.12-7.82-21.77-23.23-19.48-39.26
				c2.3-16.12,14.01-28.84,29.84-32.43c30.07-6.8,62.58-19.69,96.64-38.32l0,0c15.82-8.65,34.62-10.15,51.61-4.12
				c16.87,5.99,30.42,18.91,37.17,35.43c7.51,18.38,8.75,37.87,3.7,57.93c-4.32,17.16-16.86,30.68-36.28,39.11
				C289.9,2123.17,271.16,2126.3,250.92,2126.3z M279.12,2013.28c-5.09,0-10.15,1.26-14.7,3.75l0,0
				c-36.72,20.08-72.09,34.05-105.12,41.53c-3.53,0.8-4.43,3.54-4.65,5.11c-0.21,1.51-0.12,4.3,2.92,5.99
				c47.7,26.39,105.74,29.35,134.31,16.96c9.89-4.29,15.8-10.03,17.57-17.06c3.31-13.15,2.55-25.78-2.26-37.56
				c-3.28-8.02-9.61-14.05-17.82-16.96C286.04,2013.86,282.58,2013.28,279.12,2013.28z M256.57,2002.67h0.05H256.57z"/>
		</g>
		<g>
			<path class="st6" d="M176.02,1935.44c26.6-14.55,60.08-2.88,71.55,25.18c5.8,14.19,8.37,31.58,3.24,51.94
				c-12.52,49.75-117.93,51.85-191.12,11.34c-19.5-10.79-15.16-40.11,6.57-45.03C93.66,1972.68,130.73,1960.2,176.02,1935.44z"/>
		</g>
		<g class="st14">
			<path class="st9" d="M176.03,1935.45c-45.3,24.77-82.37,37.25-109.77,43.41c-21.74,4.94-26.07,34.27-6.57,45.05
				c15.04,8.33,31.49,14.88,48.19,19.51c-10.56-13.07-4.68-34.83,13.79-39.02c27.36-6.18,64.43-18.66,109.73-43.43
				c4.5-2.43,9.17-4.16,13.9-5.13C232.17,1931.26,201.05,1921.74,176.03,1935.45z"/>
		</g>
		<g>
			<path class="st9" d="M169.85,2068.52c-38.69,0-82.5-10.6-118.08-30.29c-14.83-8.21-22.87-24.4-20.47-41.25
				c2.41-16.94,14.72-30.31,31.35-34.07c32.84-7.43,68.34-21.5,105.51-41.83l0,0c16.85-9.21,36.88-10.81,54.97-4.38
				c17.97,6.38,32.4,20.14,39.58,37.74c8.05,19.7,9.38,40.6,3.96,62.12c-4.58,18.22-17.95,32.59-38.65,41.57
				C211.87,2065.15,191.67,2068.52,169.85,2068.52z M200.56,1945.55c-5.77,0-11.52,1.43-16.68,4.26l0,0
				c-39.84,21.78-78.19,36.94-113.99,45.04c-4.86,1.1-5.93,5.09-6.17,6.76c-0.29,2.01-0.16,5.73,3.91,7.98
				c46.84,25.92,111.58,34.05,147.38,18.52c11.18-4.85,17.89-11.42,19.93-19.53c3.68-14.61,2.83-28.65-2.52-41.75
				c-3.72-9.11-10.91-15.96-20.24-19.27C208.41,1946.21,204.48,1945.55,200.56,1945.55z M176.02,1935.44h0.05H176.02z"/>
		</g>
		<g>
			<path class="st6" d="M130.58,1869.02c23.47-17.24,56.84-10.41,71.34,14.85c7.33,12.77,12,29,9.72,49.04
				c-5.57,48.97-105.67,64.41-180.52,35.18c-19.94-7.79-19.55-36.26,0.51-43.71C56.91,1914.99,90.63,1898.38,130.58,1869.02z"/>
		</g>
		<g class="st14">
			<path class="st9" d="M130.57,1869.03c-39.94,29.36-73.67,45.94-98.96,55.33c-20.07,7.47-20.45,35.95-0.51,43.74
				c14.44,5.62,29.86,9.62,45.3,12c-10.3-11.37-7.05-31.55,9.39-37.67c25.28-9.39,58.98-25.99,98.92-55.35
				c4.55-3.31,9.45-5.74,14.51-7.33C183.65,1857.89,152.71,1852.78,130.57,1869.03z"/>
		</g>
		<g>
			<path class="st9" d="M111.85,1999.09c-29.08,0-59.71-5.21-86.69-15.75c-15.42-6.02-25.3-20.65-25.16-37.26
				c0.14-16.7,10.31-31.25,25.93-37.05c30.27-11.25,62.22-29.15,94.96-53.2l0,0c15.01-11.03,34.06-15.15,52.3-11.3
				c18.1,3.82,33.75,15.19,42.93,31.19c10.24,17.85,14.21,37.71,11.78,59.04c-2.06,18.14-13.06,33.7-31.8,45
				C174.81,1992.59,144.3,1999.09,111.85,1999.09z M159.68,1875.86c-6.92,0-13.74,2.19-19.4,6.36l0,0
				c-35.2,25.85-69.83,45.2-102.95,57.5c-4.11,1.53-4.58,5.14-4.59,6.63c-0.01,1.79,0.53,5.01,4.33,6.49
				c47.73,18.64,110.16,18.14,142.12-1.13c9.85-5.94,15.3-12.89,16.18-20.66c1.62-14.24-0.95-27.37-7.65-39.04
				c-4.61-8.04-12.18-13.53-21.3-15.45C164.19,1876.1,161.93,1875.86,159.68,1875.86z M130.58,1869.03h0.05H130.58z"/>
		</g>
		<g>
			<path class="st6" d="M1353.62,2571.97c-28.38,6.55-56.32-12.93-59.64-41.86c-1.68-14.63,0.46-31.38,10.48-48.88
				c24.49-42.77,122.53-17.35,179.71,39.11c15.23,15.04,3.61,41.03-17.77,39.94C1439.46,2558.91,1401.93,2560.82,1353.62,2571.97z"
				/>
		</g>
		<g class="st14">
			<path class="st9" d="M1353.63,2571.97c48.3-11.16,85.84-13.04,112.77-11.66c21.39,1.08,33-24.93,17.78-39.97
				c-11.04-10.88-23.62-20.65-36.85-28.95c4.96,14.52-6.01,31.76-23.53,30.88c-26.94-1.38-64.45,0.53-112.75,11.7
				c-5.49,1.24-10.95,1.53-16.22,0.99C1300.47,2561.2,1326.87,2578.14,1353.63,2571.97z"/>
		</g>
		<g>
			<path class="st9" d="M1342.59,2589.6c-13.42,0-26.66-4.12-37.79-11.98c-15.11-10.67-24.99-27.3-27.09-45.63
				c-2.35-20.45,1.87-40.26,12.54-58.88c9.07-15.84,25.33-25.78,47.01-28.74c46.69-6.4,114.8,21.28,158.41,64.34
				c11.78,11.63,15.07,28.97,8.37,44.18c-6.74,15.29-21.85,24.63-38.47,23.76c-32.25-1.63-68.67,2.15-108.27,11.29
				C1352.44,2589.04,1347.5,2589.6,1342.59,2589.6z M1351.97,2476.13c-3.57,0-7,0.22-10.28,0.67c-11.4,1.56-19.15,5.79-23.03,12.57
				c-7.12,12.43-9.96,25.52-8.42,38.88c1.06,9.21,5.83,17.25,13.45,22.62c7.61,5.37,17.18,7.24,26.25,5.16l0,0
				c42.55-9.82,82.03-13.89,117.3-12.08c4.4,0.17,6.24-2.92,6.84-4.27c0.72-1.64,1.5-4.81-1.41-7.68
				C1439.43,2499.18,1388.69,2476.13,1351.97,2476.13z"/>
		</g>
		<g>
			<path class="st6" d="M1304.51,2596.53c-28.38,6.55-56.32-12.93-59.64-41.86c-1.68-14.63,0.46-31.38,10.48-48.88
				c24.49-42.77,122.53-17.35,179.71,39.11c15.23,15.04,3.61,41.03-17.77,39.94C1390.35,2583.47,1352.82,2585.38,1304.51,2596.53z"
				/>
		</g>
		<g class="st14">
			<path class="st9" d="M1304.52,2596.53c48.3-11.16,85.84-13.04,112.77-11.66c21.39,1.08,33-24.93,17.78-39.97
				c-11.04-10.88-23.62-20.65-36.85-28.95c4.96,14.52-6.01,31.76-23.53,30.88c-26.94-1.38-64.45,0.53-112.75,11.7
				c-5.49,1.24-10.95,1.53-16.22,0.99C1251.36,2585.75,1277.76,2602.69,1304.52,2596.53z"/>
		</g>
		<g>
			<path class="st9" d="M1293.48,2614.15c-13.42,0-26.66-4.12-37.8-11.99c-15.11-10.67-24.99-27.3-27.09-45.63
				c-2.35-20.45,1.87-40.26,12.54-58.88c9.07-15.84,25.33-25.78,47.01-28.74c46.7-6.38,114.8,21.28,158.41,64.34
				c11.78,11.63,15.07,28.97,8.37,44.18c-6.74,15.29-21.87,24.61-38.47,23.76c-32.24-1.64-68.67,2.15-108.26,11.29
				C1303.32,2613.6,1298.39,2614.15,1293.48,2614.15z M1302.86,2500.68c-3.57,0-7,0.22-10.28,0.66
				c-11.4,1.56-19.15,5.79-23.03,12.57c-7.12,12.44-9.95,25.52-8.42,38.88c1.06,9.21,5.83,17.25,13.45,22.62
				c7.61,5.37,17.18,7.25,26.25,5.16l0,0c42.55-9.82,82.02-13.9,117.3-12.08c4.44,0.19,6.24-2.91,6.84-4.27
				c0.72-1.64,1.5-4.81-1.41-7.68C1390.32,2523.73,1339.58,2500.68,1302.86,2500.68z"/>
		</g>
		<g>
			<path class="st17" d="M616.68,1324.17c-82.3,83.03-80.29,99.52-188.28,281.92c-56.56,95.53-148.61,130.28-208.08,175.01
				c-71.82,54.03-131.2,172.59,20.81,275.18c98.63,66.57,262.27,30.48,334.49-56.83c100.29-121.24,181.02-353.25,254.3-396.11
				L616.68,1324.17z"/>
		</g>
		<g class="st14">
			<path class="st9" d="M829.91,1603.35c-73.26,42.85-154,274.85-254.27,396.12c-72.23,87.29-235.89,123.39-334.52,56.8
				c-116.76-78.78-108.78-167.02-66.22-228.2c3.11,43.5,29.43,90.44,94.62,134.44c98.63,66.59,262.25,30.49,334.48-56.85
				c69.66-84.2,53.12-200.83,165.23-307.12C786.87,1581.82,815.14,1584.03,829.91,1603.35L829.91,1603.35z"/>
		</g>
		<g>
			<path class="st9" d="M620.56,1328.01c-9.85,16.39-21.03,31.23-31.61,46.15c-10.51,14.96-20.95,29.42-30.59,44.68
				c-9.64,15.24-18.96,30.96-28.34,46.91l-28.45,48.01l-56.78,96.74c-2.25,3.97-5.06,8.2-7.67,12.33c-2.72,4.09-5.14,8.4-8.13,12.31
				l-8.76,11.87c-2.89,3.99-6.24,7.58-9.35,11.39c-3.14,3.79-6.32,7.52-9.77,11c-3.4,3.53-6.71,7.16-10.18,10.59
				c-7.09,6.72-14.15,13.47-21.67,19.63c-29.66,25.23-62.53,45.21-94.09,64.73c-15.76,9.79-31.28,19.49-45.36,30.1
				c-13.64,10.42-26.13,22.6-36.51,36.2c-20.89,27-33.47,60.11-30.17,92.49c1.31,16.18,6.95,31.87,14.85,46.53
				c8.25,14.57,19.12,28,31.57,40.16c12.45,12.17,26.47,23.15,41.18,33.15c14.12,9.32,29.72,16.58,46.17,21.68
				c33.02,10.03,68.88,11.82,103.82,7.09c34.97-4.65,69.28-15.81,100.07-32.67c15.32-8.54,29.86-18.42,42.71-29.96
				c6.4-5.78,12.49-11.86,17.98-18.38c5.63-6.7,11.3-13.91,16.67-21.15c21.6-29.12,40.86-60.52,59.18-92.59
				c18.35-32.08,35.72-64.94,53.25-97.89l26.57-49.49c9.04-16.47,17.6-33.28,27.11-49.77c9.52-16.47,20.36-32.4,33.31-47.18
				c6.47-7.34,13.78-14.27,21.92-20.3c8.26-5.92,17.36-11.31,27.68-13.76c3.06-0.73,6.13,1.16,6.86,4.23
				c0.42,1.76-0.03,3.52-1.06,4.83l-0.28,0.36c-5.71,7.19-10.64,14.29-15.55,21.55c-4.73,7.46-9.54,14.76-14.25,22.36
				c-9.63,14.94-18.95,30.47-28.69,45.94c-9.72,15.5-19.41,31.23-28.3,47.48c-8.93,16.24-17.65,32.66-26.41,49.11
				c-17.52,32.93-35.02,66.06-53.73,98.76c-18.69,32.7-38.48,65.07-61.34,95.91c-5.74,7.74-11.6,15.21-17.97,22.79
				c-6.54,7.75-13.68,14.88-21.12,21.6c-14.93,13.39-31.46,24.6-48.71,34.21c-34.66,18.96-72.55,31.24-111.52,36.45
				c-38.92,5.24-79.29,3.44-117.8-8.24c-19.18-5.94-37.76-14.52-54.77-25.78c-16.14-10.96-31.63-23.04-45.87-36.96
				c-14.2-13.9-27.11-29.68-37.25-47.62c-9.81-18.05-17.08-38.26-18.84-59.36c-1.13-10.49-0.8-21.12,0.51-31.52
				c1.22-10.44,3.75-20.62,7.09-30.42c3.28-9.83,7.54-19.24,12.5-28.15c4.91-8.96,10.49-17.47,16.69-25.44
				c12.27-16.06,26.74-30.16,42.73-42.38c15.74-11.85,31.93-21.91,47.85-31.81c31.85-19.67,62.97-38.71,90.22-61.92
				c6.94-5.67,13.34-11.83,19.81-17.93c3.15-3.12,6.13-6.4,9.2-9.58c3.14-3.14,5.99-6.51,8.8-9.91c2.78-3.43,5.83-6.65,8.41-10.23
				l7.86-10.64c2.7-3.49,4.83-7.38,7.28-11.04c2.37-3.75,4.77-7.28,7.12-11.43c19.02-32,37.52-64.27,55.6-96.88
				c18.09-32.59,35.48-65.76,58.01-97.2c11.22-15.68,23.64-30.78,37.6-43.99c13.98-13.19,28.71-25.21,45-35.44
				c2.62-1.65,6.08-0.86,7.72,1.76c1.16,1.85,1.11,4.11,0.06,5.86L620.56,1328.01z"/>
		</g>
	</g>
</g>
</svg>
