<?xml version="1.0" encoding="utf-8"?>
<!-- Generator: Adobe Illustrator 26.2.1, SVG Export Plug-In . SVG Version: 6.00 Build 0)  -->
<svg version="1.1" id="Layer_1" xmlns="http://www.w3.org/2000/svg" xmlns:xlink="http://www.w3.org/1999/xlink" x="0px" y="0px"
	 viewBox="0 0 2455.84 2473.86" style="enable-background:new 0 0 2455.84 2473.86;" xml:space="preserve">
<style type="text/css">
	.st0{fill:#28B9E5;}
	.st1{fill:#650000;}
	.st2{fill:#32AEF1;}
	.st3{opacity:0.2;}
	.st4{opacity:0.7;}
	.st5{fill:#FFFFFF;}
	.st6{opacity:0.3;}
	.st7{fill:#D3A17F;}
	.st8{fill:#FEFAFB;}
	.st9{opacity:0.5;}
	.st10{fill:#967660;}
	.st11{fill:#6B184E;}
	.st12{fill:#FF55CF;}
	.st13{fill:#8655FF;}
	.st14{opacity:0.35;}
	.st15{fill:#371A45;}
	.st16{fill:#220F2D;}
	.st17{fill:#4097FF;}
	.st18{fill:#FFDA22;}
	.st19{fill:#F92323;}
	.st20{fill:#102770;}
	.st21{fill:#F9744B;}
	.st22{fill:#FF50B8;}
	.st23{fill:#000072;}
	.st24{fill:#FFA1A8;}
	.st25{fill:#F27E80;}
	.st26{fill:#FA508E;}
	.st27{opacity:0.4;}
	.st28{fill:#FFA23A;}
	.st29{fill:#FF52CE;}
	.st30{fill:#FCDC18;}
	.st31{fill:#37AAE3;}
	.st32{fill:#FFD2D2;}
	.st33{fill:#FFE6E6;}
	.st34{fill:#00C3FF;}
	.st35{fill:#FEF26B;}
	.st36{fill:#FD6CCB;}
	.st37{fill:#39D5FF;}
	.st38{fill:#B5E5FB;}
	.st39{fill:#F694AB;}
	.st40{fill:#FDC1E5;}
	.st41{fill:#FDD800;}
	.st42{opacity:0.6;}
	.st43{fill:#FFEBF6;}
	.st44{fill:#0DBBFF;}
	.st45{fill:#FF4E4A;}
	.st46{fill:#FF8048;}
	.st47{fill:#FC7E81;}
	.st48{fill:#474747;}
	.st49{fill:#FF1D74;}
	.st50{display:none;}
	.st51{display:inline;}
	.st52{fill:#0F2675;}
	.st53{fill:#FC7E82;}
	.st54{fill:#FF8080;}
	.st55{fill:#F883A0;}
	.st56{fill:#D5D4D6;}
	.st57{fill:#37DBFF;}
	.st58{fill:#1D1D1D;}
	.st59{fill:#D66B09;}
	.st60{fill:#22A7F0;}
	.st61{fill:#111A28;}
	.st62{fill:#81B1FF;}
</style>
<g>
	<g>
		<g>
			<circle class="st62" cx="1250.84" cy="1205" r="1205"/>
		</g>
		<g>
			<circle class="st62" cx="1250.84" cy="1205" r="1205"/>
		</g>
		<g>
			<g>
				<g>
					<path class="st18" d="M2425.15,1285.87c-4.46,163.15-42.35,327.99-117.1,484.72c-286.32,600.3-999.34,854.7-1600.85,570.83
						c-606-286.04-861.44-1010.67-570.63-1612.89c76.56-158.58,183.34-292.74,310.04-398.97c110.36-92.5,269.5,31.88,204.7,160.46
						c-2.09,4.09-4.14,8.27-6.14,12.45c-126.78,261.83-107.27,555.17,26.82,788.7c81.62,142.24,205.75,262.27,365.17,339.47
						c279.13,135.21,595.92,102.93,836.63-57.17c121.72-80.93,223.97-194.51,292.14-335.66c2.09-4.3,4.09-8.55,6.1-12.85
						C2232.57,1094.13,2429.08,1141.79,2425.15,1285.87z"/>
				</g>
				<g class="st9">
					<path class="st5" d="M603.58,1143.64c18.88,71.11,46.96,139.62,83.71,203.62c81.62,142.23,205.75,262.27,365.16,339.47
						c279.13,135.21,595.92,102.93,836.63-57.17c121.72-80.93,223.97-194.5,292.14-335.66c2.09-4.29,4.1-8.55,6.1-12.85
						c49.48-106.94,189.77-94.62,237.24-7.89c-11.94-129.99-194.56-168.38-252.53-43.1c-2.01,4.29-4.01,8.55-6.1,12.85
						c-68.16,141.15-170.42,254.72-292.14,335.66c-240.71,160.1-557.5,192.38-836.64,57.17
						c-159.42-77.2-283.55-197.24-365.16-339.47C644.11,1247.71,621.27,1196.54,603.58,1143.64z"/>
				</g>
				<g class="st9">
					<path class="st5" d="M151.87,784.62c76.56-158.57,183.35-292.74,310.04-398.97c72.99-61.18,167.3-27.47,204.07,39.56
						c-7.36-97.42-129.52-165.85-219.36-90.55c-126.7,106.23-233.49,240.39-310.04,398.97C-3.81,1024.33-16.87,1343.55,75.31,1628.2
						C0.41,1356.78,19.81,1058.08,151.87,784.62z"/>
				</g>
				<g class="st6">
					<path class="st1" d="M1873.79,1573.47c-87.08,162.19-305.95,248.98-565.61,262.19c-346.05,17.62-633.46-102.17-647.87-385.52
						c-2.65-51.99,1.08-105.74,11.68-158.98c81.62,142.24,205.75,262.27,365.17,339.47
						C1316.29,1765.85,1633.08,1733.57,1873.79,1573.47z"/>
				</g>
				<g>
					<g class="st6">
						<path class="st1" d="M2365.31,1627.96c-24.12,39.19-50.2,76.58-78.05,112.11c-332.79,463.69-955.86,637.03-1490.76,384.55
							C267.1,1874.75,5.28,1290.23,141.34,744.94c-248.55,590.23,9.5,1278.64,596.47,1555.67
							c519.47,245.19,1122.08,88.8,1461.21-345.08c-0.05,0.07-0.1,0.14-0.16,0.21c41.07-57.38,77.72-119.18,109.19-185.17
							c26.74-56.08,48.82-113.21,66.24-170.94c0,0,0,0,0,0C2371.44,1609.1,2368.41,1618.54,2365.31,1627.96z"/>
					</g>
				</g>
				<g>
					<path class="st18" d="M644.16,1779.76c2.43,37.82-5.9,73.59-26.33,103.22c-37.02,53.7-103.01,72-177.76,60.85
						c-49.05-7.32-100.87-28.6-148.47-63.83c-120.14-88.94-167.84-233.14-106.53-322.07c22.81-33.09,57.5-53.87,98.26-62.33
						c68.78-14.28,152.53,9.47,227.97,65.32L644.16,1779.76z"/>
				</g>
				<g>
					<path class="st1" d="M617.83,1882.98c-8.66,15.64-20.85,29.58-35.45,40.74c-14.57,11.24-31.55,19.41-49.25,24.99
						c-35.76,10.58-73.75,10.88-110.2,4.72c-36.71-5.95-71.73-19.67-104.15-37.46c-32.33-18.09-61.81-41.08-87.46-67.94
						c-25.47-26.96-47.24-57.79-62.51-91.97c-7.57-17.1-13.62-34.93-17.74-53.29c-4.28-18.32-5.98-37.33-5.19-56.26
						c0.7-18.92,4.36-37.89,11.1-55.66c7.05-17.66,16.93-34.19,29.68-48c12.85-13.7,28.06-24.95,44.65-32.76
						c16.6-7.82,34.27-12.57,52.03-14.49c-17.01,5.42-33.23,12.66-47.66,22.25c-14.39,9.62-27.04,21.39-36.88,35.07
						c-10.05,13.5-17.29,28.8-21.88,44.69c-4.28,16-6.66,32.52-5.98,49.17c0.17,8.3,1.08,16.6,2.36,24.83
						c0.6,4.12,1.45,8.22,2.17,12.32c1,4.07,1.79,8.17,2.94,12.2c4.37,16.17,10.47,31.93,17.94,47.04
						c7.43,15.13,16.05,29.74,25.93,43.5c9.75,13.85,20.58,26.98,32.32,39.26c23.35,24.68,50.29,46.13,79.4,63.82
						c14.53,8.91,29.77,16.62,45.46,23.25c7.88,3.2,15.85,6.23,23.94,8.86c8.06,2.74,16.24,5.14,24.51,7.11
						c16.5,4.08,33.57,6.34,50.55,7.44c17.02,1.04,34.14,0.21,50.89-2.92c16.79-2.99,33.06-8.77,48.15-17.15
						C592.57,1907.95,606.24,1896.59,617.83,1882.98z"/>
				</g>
				<g class="st6">
					
						<ellipse transform="matrix(0.6915 -0.7223 0.7223 0.6915 -1118.0997 821.1895)" class="st1" cx="402.47" cy="1719.76" rx="149.42" ry="205.6"/>
				</g>
				<g>
					
						<ellipse transform="matrix(0.748 -0.6637 0.6637 0.748 -1059.1725 676.9185)" class="st18" cx="361.76" cy="1733.14" rx="109.89" ry="174.29"/>
				</g>
				<g>
					<path class="st1" d="M211.06,1675.34c-1.12-9.91-1.47-20.02-0.55-30.15c0.93-10.12,3.1-20.22,6.46-30.02
						c3.46-9.75,8.06-19.26,14.27-27.69l4.69-6.33c1.56-2.12,3.11-4.26,5.05-6.05l5.55-5.64c1.89-1.83,3.62-3.89,5.8-5.38
						c16.22-13.57,35.85-22.86,56.14-27.55c20.35-4.71,41.23-5.34,61.63-3.37c5.07,0.68,10.24,0.96,15.24,1.99l15.02,3.08
						c4.95,1.23,9.79,2.81,14.69,4.22c4.94,1.31,9.68,3.15,14.41,4.99c9.63,3.35,18.72,7.86,27.89,12.21
						c4.56,2.23,8.86,4.9,13.3,7.35c4.44,2.46,8.85,4.96,12.95,7.93l12.55,8.55l11.91,9.4l5.94,4.73l5.6,5.14
						c3.71,3.45,7.51,6.81,11.13,10.35c14.2,14.49,27.24,30.21,38.22,47.44c10.69,17.42,19.64,36.01,25.97,55.72
						c6.34,19.69,9.49,40.76,8.45,61.97c-1.01,21.16-6.56,42.64-17.42,61.44c-10.66,18.88-26.82,34.55-45.38,45.11
						c-18.56,10.64-39.25,16.5-59.76,18.02c-20.53,1.65-40.91-0.17-60.51-4.51l-14.54-3.79c-4.77-1.49-9.44-3.24-14.15-4.85
						c-4.75-1.5-9.27-3.59-13.81-5.58c-4.5-2.08-9.15-3.83-13.43-6.33c-17.74-8.8-33.83-20.28-49.12-32.39
						c-2.07-1.64-2.42-4.65-0.78-6.72c1.51-1.91,4.2-2.36,6.23-1.12l0.25,0.15l12.11,7.34c2.02,1.2,4,2.47,6.05,3.62l6.29,3.2
						c4.21,2.08,8.26,4.43,12.52,6.37l12.88,5.52c17.37,6.66,35.09,12.43,53.28,14.93c18.11,2.64,36.38,3.25,54.02,0.71
						c17.61-2.5,34.55-8.07,48.9-17.26c14.43-9.06,25.96-21.76,33.87-36.44c7.92-14.69,11.84-31.45,12.19-48.54
						c0.22-17.09-2.37-34.58-7.99-51.35c-5.61-16.78-13.56-32.88-23.09-48.08c-9.97-14.95-21.2-29.12-33.83-42.1
						c-3.21-3.18-6.6-6.19-9.89-9.3l-4.96-4.64l-5.3-4.26l-10.61-8.51l-11.2-7.72c-1.88-1.26-3.69-2.65-5.61-3.85l-5.83-3.48
						c-3.91-2.27-7.7-4.79-11.71-6.87c-8.08-4.04-16.08-8.31-24.54-11.46c-16.69-6.8-34.12-11.85-51.8-14.24
						c-17.66-2.5-35.6-2.59-52.88,0.5c-17.31,2.9-33.77,9.62-47.65,19.86c-3.6,2.4-6.57,5.56-9.95,8.29c-1.75,1.32-3.12,3-4.52,4.65
						l-4.28,4.92c-5.8,6.55-10.1,14.29-13.89,22.27c-7.31,16.14-10.65,34.36-10.63,52.83v0.09c0,3.29-2.66,5.95-5.94,5.95
						C213.91,1680.63,211.38,1678.31,211.06,1675.34z"/>
				</g>
				<g>
					<path class="st1" d="M1259.68,1900.27c6.65,28.54,3.43,60.17-9.77,88.05c-13.2,27.97-35.64,51.21-61.99,67.61
						c-26.53,16.55-57.31,25.81-88.27,28.42c-31.01,2.7-62.38-1.32-91.93-10.69c-29.52-9.5-57.22-24.46-81.17-44.08
						c-12.06-9.69-22.93-20.84-32.81-32.75c-4.93-5.96-9.22-12.47-13.77-18.69c-3.81-6.77-8.05-13.26-11.4-20.24
						c-13.73-27.76-20.67-58.94-19.03-89.47c1.05-15.26,4.27-30.3,9.72-44.32c5.52-13.99,13.18-26.95,22.7-38.1
						c-13.14,26.18-19.01,54.73-16.65,82.39c2.44,27.64,11.38,54.09,25.42,77.4c13.88,23.44,33.12,43.45,54.72,59.9
						c21.69,16.4,46.15,29.14,72.01,37.38c51.46,16.55,109.72,15.7,158-9c24.08-12.33,45.65-30.36,60.73-53.36
						C1251.59,1957.81,1259.24,1929.54,1259.68,1900.27z"/>
				</g>
				<g class="st6">
					
						<ellipse transform="matrix(0.503 -0.8643 0.8643 0.503 -1108.1884 1855.3507)" class="st1" cx="1059.17" cy="1891.27" rx="129.88" ry="160.06"/>
				</g>
				<g>
					
						<ellipse transform="matrix(0.4454 -0.8953 0.8953 0.4454 -1142.911 2000.3315)" class="st18" cx="1043.17" cy="1922.7" rx="95.07" ry="136.33"/>
				</g>
				<g>
					<path class="st1" d="M929.13,1958.8c-21.19-24.4-34.99-57.06-34.49-91.34c0.12-17.05,3.74-34.42,11.16-50.19
						c7.39-15.78,18.24-29.87,31.22-41.41c12.96-11.61,28.18-20.5,44.28-26.67c16.19-5.96,33.16-9.29,50.19-10.38l12.77-0.26
						c4.25,0.06,8.48,0.5,12.72,0.75c2.12,0.17,4.25,0.25,6.35,0.51l6.29,0.98c4.17,0.75,8.43,1.16,12.52,2.28
						c16.6,3.59,32.57,9.66,47.63,17.36c15.15,7.6,28.93,17.72,41.57,28.99c3.05,2.95,6.33,5.67,9.17,8.83l8.56,9.48
						c5.27,6.71,10.47,13.5,14.71,20.97c8.7,14.7,15.67,30.72,19.1,47.73c3.53,16.94,3.83,34.59,0.75,51.72
						c-3.11,17.09-9.7,33.69-19.82,47.69c-9.96,14.07-22.66,25.9-36.92,34.8c-14.32,8.79-29.89,15.26-46.02,18.48
						c-16.11,3.25-32.46,3.93-48.45,2.51c-2.64-0.23-4.58-2.56-4.35-5.2c0.21-2.39,2.15-4.22,4.48-4.36l0.17-0.01
						c15.2-0.94,30.08-3.37,44.2-7.86c14.09-4.57,27.23-11.38,38.67-20.08c23.08-17.12,38.78-42.7,41.94-70.16
						c1.74-13.69,0.48-27.64-2.65-41.15c-3.19-13.53-9.33-26.32-16.86-38.13c-7.62-11.77-16.86-22.68-27.62-31.97
						c-10.73-9.26-22.39-17.69-35.25-23.88c-12.81-6.17-26.11-11.54-40.04-14.51c-13.88-2.85-28.09-4.76-42.23-4.06
						c-14.09,0.57-28.07,2.82-41.32,7.23c-13.16,4.62-25.43,11.39-36.24,19.92c-21.5,17.12-36.32,42.8-38.37,71.08
						c-3.13,28.3,5.79,57.79,21.71,83.2c1.75,2.78,0.92,6.46-1.87,8.22C934.29,1961.52,931.03,1960.97,929.13,1958.8z"/>
				</g>
				<g>
					<path class="st18" d="M461.68,1035.77c-22.31,20.39-48.04,32.6-75.25,33.7c-49.32,1.99-89.39-32.89-115.09-88.23
						c-16.86-36.31-26.31-81.4-25.29-130.6c2.57-124.19,70.87-227.54,152.54-230.83c30.39-1.23,58.35,11.57,81.35,34.53
						c38.81,38.73,71.05,94.87,43.68,227.01C496.26,1013.47,461.68,1035.77,461.68,1035.77z"/>
				</g>
				<g>
					<path class="st1" d="M386.43,1069.46c-14.13,1.85-28.92,0.22-42.79-4.63c-13.97-4.72-26.55-13.05-37.71-22.69
						c-22.15-19.81-38.04-45.34-49.58-72.33c-11.51-27.12-18.07-56.13-20.73-85.32c-2.65-29.23-1.37-58.74,3.61-87.7
						c5.09-28.93,13.94-57.32,27.23-83.76c13.29-26.34,31.07-51.04,54.52-69.98c11.76-9.32,24.76-17.44,39.06-22.58
						c7.11-2.65,14.54-4.38,21.99-5.66c7.52-0.96,15.08-1.51,22.59-0.97c15.02,1.12,29.62,5.57,42.36,12.78
						c12.79,7.18,23.84,16.78,32.95,27.71c-11-9.03-22.99-16.64-35.82-21.68c-12.81-5.03-26.36-7.62-39.72-6.98
						c-26.92,0.71-51.59,13.79-71.18,31.66c-19.49,18.3-34.82,41.09-46.22,65.71c-11.47,24.61-19.39,50.98-24.06,77.9
						c-9.21,53.81-6.73,110.36,10.87,162.15c9.26,25.58,21.85,50.6,40.32,70.64c9.14,10.06,19.83,18.84,32.11,25.02
						C358.47,1064.97,372.2,1068.64,386.43,1069.46z"/>
				</g>
				<g class="st6">
					
						<ellipse transform="matrix(0.1347 -0.9909 0.9909 0.1347 -496.8807 1120.9252)" class="st1" cx="393.38" cy="844.97" rx="171.08" ry="112.77"/>
				</g>
				<g>
					
						<ellipse transform="matrix(0.2 -0.9798 0.9798 0.2 -513.9327 1019.5381)" class="st18" cx="367.37" cy="824.49" rx="144.95" ry="82.98"/>
				</g>
				<g>
					<path class="st1" d="M337.19,695.87c11.12-11.3,24.78-20.83,40.64-25.94c7.89-2.51,16.27-4.11,24.71-3.81l6.35,0.04
						c2.11,0.05,4.18,0.56,6.29,0.83l6.3,1.02c2.08,0.42,4.06,1.19,6.09,1.8c16.24,5.11,30.48,14.99,42.02,26.81
						c11.54,11.91,20.66,25.79,27.55,40.47c6.89,14.67,12.35,30.03,15.47,45.81c3.32,15.72,5.39,31.72,5.57,47.73
						c0.68,32-4.32,64.16-15.31,94.52c-5.8,15.07-12.86,29.73-21.83,43.42c-9.18,13.54-20.12,26.22-33.57,36.42
						c-13.33,10.2-29.34,17.96-46.67,20.44c-17.26,2.68-35.41-0.61-50.66-8.41c-15.35-7.76-27.98-19.35-37.83-32.39
						c-9.83-13.12-17.06-27.67-22.54-42.62c-10.93-30.01-13.99-61.91-11.98-92.89c0.13-1.98,1.84-3.48,3.82-3.35
						c1.84,0.12,3.27,1.61,3.35,3.41l0,0.09c1.45,30.17,6.67,60.21,18.74,87.18c5.98,13.41,13.21,26.24,22.47,37.17
						c9.3,10.8,20.21,20,32.54,25.53c12.27,5.63,25.76,7.24,38.76,5c13.01-2.21,25.35-8.46,36.05-17.11
						c10.7-8.69,20-19.49,27.9-31.37c7.71-12.06,13.88-25.19,18.96-38.76c4.75-13.71,8.53-27.82,10.97-42.23
						c2.14-14.43,3.64-29.06,3.23-43.7c0.09-29.24-5.41-58.53-16.73-85.03c-5.56-13.3-13.15-25.64-22.45-36.18
						c-9.22-10.58-20.48-19.27-33.28-24.11c-1.6-0.57-3.15-1.38-4.8-1.83l-4.99-1.15c-1.67-0.33-3.32-0.93-5.03-1.07l-5.14-0.38
						c-6.87-0.86-13.86,0.1-20.72,1.57c-13.73,3.18-26.77,10.33-38.24,19.63l-0.02,0.02c-1.91,1.55-4.72,1.26-6.27-0.66
						C335.46,700.02,335.62,697.46,337.19,695.87z"/>
				</g>
				<g>
					<path class="st1" d="M1222.17,2473.86c-178.06,0-355.62-39.49-521.81-117.93c-296.78-140.08-520.45-387.52-629.82-696.75
						c-109.38-309.26-91.06-642.25,51.58-937.62c75.86-157.09,181.57-293.11,314.18-404.29c64.48-54.05,141.38-40.17,188.99-2.44
						c47.07,37.29,77.8,108.16,40.37,182.41c-2.04,4.05-4.05,8.11-6.03,12.2c-199.06,411.15-26.55,907.64,384.54,1106.76
						c199.36,96.56,424.36,109.64,633.55,36.84c209.2-72.81,377.46-222.75,473.78-422.21c2.03-4.2,4.01-8.41,5.97-12.62
						c34.93-75.5,109.59-95.46,168.07-81.73c59.24,13.89,117.98,65.61,115.68,149.84c-4.67,170.64-44.59,335.9-118.65,491.18
						c-140.34,294.22-385.86,516.26-691.34,625.21C1497.95,2450.22,1359.91,2473.86,1222.17,2473.86z M531.03,313.38
						c-23.96,0-49.6,7.95-74.1,28.49C327.82,450.11,224.9,582.55,151.03,735.52c-138.89,287.6-156.72,611.83-50.21,912.95
						c106.49,301.09,324.28,542.02,613.26,678.42c589.96,278.48,1298.54,25.81,1579.5-563.23
						c72.11-151.2,110.99-312.09,115.53-478.23l16.05,0.44l-16.05-0.44c1.93-70.68-47.76-107.57-90.9-117.69
						c-42.45-9.95-102.38,0.82-131.59,63.96c-2.03,4.38-4.09,8.74-6.19,13.09c-100.06,207.19-274.84,362.95-492.14,438.58
						c-217.3,75.64-451.03,62.05-658.12-38.27c-207.58-100.55-363.34-275.21-438.6-491.82c-75.25-216.6-61.35-450.23,39.16-657.83
						c2.05-4.25,4.14-8.47,6.26-12.68c31.3-62.08,2.52-115.72-31.63-142.78C586.38,324.97,559.94,313.38,531.03,313.38z"/>
				</g>
				<g>
					<path class="st18" d="M1903.49,1901.82c45.45,21.56,81.6,54.28,102.82,97.09c38.46,77.57,17.17,165.95-43.96,245.51
						c-40.11,52.2-98.2,98.63-169.77,131.15c-180.65,82.1-378.73,44.51-442.42-83.96c-23.7-47.8-25.45-101.45-9-154.21
						c27.76-89.02,109.3-170.9,222.73-222.45L1903.49,1901.82z"/>
				</g>
				<g>
					<path class="st1" d="M2006.31,1998.9c12.04,20.38,19.88,43.53,22.99,67.51c3.2,24,1.46,48.68-3.78,72.49
						c-11.22,47.65-35.59,91.21-66.18,128.94c-30.6,38.05-68.75,69.44-110.04,95.11c-41.52,25.43-86.78,44.58-133.98,56.88
						c-47.2,12.07-96.44,17.46-145.37,13.39c-24.43-2.09-48.73-6.39-72.4-13.23c-23.71-6.65-46.59-16.63-67.83-29.36
						c-5.39-3.03-10.41-6.75-15.61-10.09c-4.92-3.8-10.07-7.25-14.74-11.37c-9.66-7.8-18.43-16.69-26.57-26.05
						c-15.89-19.06-28.74-40.71-36.73-64c-7.85-23.32-11.38-47.88-10.19-72.01c1.2-24.13,6.6-47.7,15.26-69.71
						c-5.24,23.07-7.75,46.56-6.36,69.66c1.46,23.07,6.68,45.67,15.98,66.33c9.01,20.78,22.07,39.51,37.61,55.58
						c15.87,15.78,33.75,29.57,53.73,39.88c4.96,2.62,9.95,5.17,15.13,7.38c5.06,2.42,10.36,4.36,15.58,6.41
						c5.23,2.04,10.62,3.74,15.92,5.61c5.44,1.52,10.78,3.3,16.27,4.61c21.88,5.56,44.39,8.81,67.03,10.02
						c22.64,1.26,45.44,0.69,68.06-1.86c22.63-2.38,45.11-6.53,67.19-12.28c44.18-11.35,86.86-29.03,126.47-51.83
						c19.85-11.35,38.76-24.31,56.67-38.49c8.85-7.22,17.57-14.62,25.86-22.47c8.4-7.74,16.46-15.85,24.08-24.35
						c15.37-16.86,29-35.47,41.1-54.83c12.04-19.43,21.97-40.18,28.91-61.97c7.05-21.75,10.55-44.65,10.09-67.71
						C2020.02,2044.03,2015.16,2020.86,2006.31,1998.9z"/>
				</g>
				<g class="st6">
					
						<ellipse transform="matrix(0.9553 -0.2957 0.2957 0.9553 -558.8342 592.0837)" class="st1" cx="1678.09" cy="2143.62" rx="272.92" ry="198.35"/>
				</g>
				<g>
					
						<ellipse transform="matrix(0.9762 -0.2171 0.2171 0.9762 -437.7053 414.4037)" class="st18" cx="1667.37" cy="2199.49" rx="231.36" ry="145.88"/>
				</g>
				<g>
					<path class="st1" d="M1504,2335.37c-12.03-5.2-23.78-11.39-34.69-19.03c-10.92-7.61-20.98-16.61-29.91-26.73
						c-17.81-20.31-30.09-45.76-35.23-72.7c-5-27-2.83-55.05,4.7-81.09c7.63-26.06,19.97-50.44,35.44-72.3
						c15.34-22.02,33.92-41.49,54.23-58.68c20.41-17.08,42.58-32,66.1-44.3c47.04-24.36,98.97-40.05,152.38-43.08
						c13.34-0.67,26.74-0.65,40.13,0.16c13.39,0.94,26.75,2.71,39.97,5.38c26.43,5.34,52.42,14.79,75.9,29.22
						c23.49,14.29,44.25,34.14,58.71,58.14c14.62,23.86,22.28,51.87,22.66,79.5c0.45,27.7-5.88,54.87-16.84,79.38
						c-10.85,24.61-25.72,46.98-43.2,66.71c-35.06,39.47-79.52,69.09-127.34,88.42c-2.45,0.99-5.25-0.2-6.24-2.65
						c-0.94-2.31,0.06-4.92,2.23-6.05l0.04-0.02c44.73-22.97,85.36-53.87,115.96-92.56c15.29-19.26,28.07-40.39,36.73-62.89
						c8.69-22.43,13.46-46.2,12.23-69.52c-1.06-23.31-8.38-45.79-20.66-65.22c-12.29-19.42-29.69-35.54-49.95-47.29
						c-40.68-23.62-90.23-32.02-138.44-28.83c-48.42,3.03-96.38,16.79-139.8,39.15c-43.55,21.97-82.79,53.01-111.89,91.65
						c-14.62,19.23-26.14,40.66-33.7,63.25c-7.65,22.55-10.52,46.6-7.3,69.94c3.08,23.32,12.4,45.94,26.98,65
						c14.55,19.1,34.06,34.66,55.89,46.31l0.07,0.03c2.9,1.55,3.99,5.15,2.44,8.04C1510.14,2335.45,1506.81,2336.57,1504,2335.37z"
						/>
				</g>
				<g>
					<path class="st18" d="M2277.56,1283.12c23.9,0.53,45.92,7.71,63.44,22.16c31.73,26.19,39.64,68.65,28.57,115.02
						c-7.27,30.42-23.46,61.83-48.19,89.83c-62.43,70.66-155.64,92.79-208.19,49.42c-19.55-16.14-30.72-39.07-33.82-65.14
						c-5.23-44,14.25-95.34,53.45-139.71L2277.56,1283.12z"/>
				</g>
				<g>
					<path class="st1" d="M2341,1305.28c9.49,6.13,17.75,14.47,24.14,24.24c6.44,9.75,10.79,20.92,13.49,32.41
						c4.95,23.2,3.26,47.29-2.52,70.07c-5.68,22.93-16,44.53-29.13,64.04c-13.19,19.51-29.51,36.77-47.82,51.62
						c-18.46,14.68-39.24,26.65-61.74,34.49c-22.41,7.71-46.75,11.82-70.82,8.21l-8.96-1.38l-8.8-2.38l-4.37-1.21
						c-1.43-0.5-2.83-1.13-4.24-1.69c-2.82-1.13-5.6-2.37-8.37-3.56c-10.62-5.88-20.75-12.74-28.72-21.74
						c-7.9-9-14.09-19.32-17.98-30.29c-3.89-10.97-5.76-22.41-5.79-33.7c2.69,10.96,6.52,21.47,11.87,30.94
						c5.38,9.44,12.13,17.89,20.21,24.63c7.9,6.97,17.3,11.77,26.75,15.7c2.49,0.73,4.98,1.43,7.41,2.23
						c1.23,0.37,2.43,0.82,3.67,1.14l3.82,0.69l7.59,1.41l7.75,0.51c20.67,1.16,41.58-3.3,61.13-10.96
						c19.59-7.67,38.02-18.6,54.58-31.86c33.01-26.6,60.1-61.78,74.01-102.14c6.69-20.18,10.71-41.66,8.86-62.93
						C2365.38,1342.53,2356.71,1321.64,2341,1305.28z"/>
				</g>
				<g class="st6">
					
						<ellipse transform="matrix(0.7513 -0.66 0.66 0.7513 -391.0923 1825.7286)" class="st1" cx="2226.71" cy="1431.74" rx="129.69" ry="94.25"/>
				</g>
				<g>
					
						<ellipse transform="matrix(0.8024 -0.5967 0.5967 0.8024 -428.933 1620.5409)" class="st18" cx="2232.9" cy="1458.05" rx="109.94" ry="69.32"/>
				</g>
				<g>
					<path class="st1" d="M2188.36,1550.32c-12.65,0.57-25.8-1.37-37.95-6.75c-6.04-2.69-11.88-6.13-16.95-10.52
						c-2.45-2.28-5.26-4.26-7.41-6.87c-2.14-2.59-4.6-5.01-6.46-7.83c-7.83-11.09-12.73-24.13-14.67-37.32
						c-1.93-13.23-1.22-26.57,1.11-39.45c2.21-12.95,6.65-25.31,12.25-36.98c5.46-11.77,12.47-22.72,20.36-32.9l6.11-7.5l6.62-7.05
						l3.33-3.51l3.56-3.27c2.4-2.17,4.73-4.39,7.18-6.5c9.98-8.22,20.66-15.66,32.23-21.67c11.67-5.83,23.98-10.49,36.9-13.42
						c12.9-2.94,26.53-3.79,40.04-1.91c13.48,1.84,26.95,6.63,38.4,14.67c11.52,7.91,20.64,19.21,26.34,31.7
						c5.74,12.5,8.3,26.04,8.06,39.18c-0.15,13.16-2.49,25.99-6.38,38.15c-8.06,24.28-22.24,45.71-39.7,63.19
						c-1.4,1.4-3.68,1.41-5.08,0c-1.24-1.24-1.39-3.17-0.43-4.57l0.13-0.19c3.36-4.93,7.15-9.49,10.04-14.66
						c1.51-2.54,3.17-4.96,4.59-7.53l4.08-7.79c5-10.55,9.49-21.32,11.94-32.55c5.17-22.11,4.85-45.88-5.08-64.57
						c-9.69-18.7-28.68-30.53-49.7-32.47c-10.49-1-21.4-0.34-32.07,2.26c-10.67,2.58-21.07,6.66-31.01,11.76
						c-9.8,5.4-19.21,11.59-27.95,18.73c-2.15,1.82-4.2,3.77-6.32,5.64l-3.15,2.83l-2.93,3.06l-5.86,6.14l-5.41,6.54
						c-7.11,8.77-13.58,18.12-18.57,28.2c-5.14,9.98-9.24,20.52-11.73,31.33c-5.04,21.42-4.41,44.83,6.78,63.21
						c1.26,2.36,3.03,4.36,4.51,6.6c1.48,2.25,3.61,3.94,5.38,5.98c3.69,3.96,8.22,7.06,12.92,9.89c9.54,5.48,20.64,8.67,32.16,9.8
						l0.04,0c2.46,0.24,4.25,2.43,4.01,4.88C2192.39,1548.53,2190.54,1550.22,2188.36,1550.32z"/>
				</g>
			</g>
			<g>
				<path class="st7" d="M1998,2072.96c-55.76,187.72-195.59,264.28-269.26,227.75c-125.58-62.27-20.55-338.19-161.51-506.84
					c-46.25-55.36-118.99-99.16-235.05-120.04l274.15-205.26c115.66,17.99,203.06,55.8,267.17,106.27
					C2032.57,1700.04,2048.5,1902.94,1998,2072.96z"/>
			</g>
			<g class="st6">
				<path class="st5" d="M1998,2072.96c-21.76,73.27-56.32,129.59-94.74,168.85c22.48-33.24,41.99-73.67,56.12-121.24
					c50.5-170.02,46.85-410.05-184.39-604.35c37.62,16.66,70.3,36.41,98.52,58.61C2032.57,1700.04,2048.5,1902.94,1998,2072.96z"/>
			</g>
			<g>
				<path class="st1" d="M1769.04,2325.65c-17.17,0-33.21-3.51-47.41-10.55c-70.05-34.73-76.31-121.63-83.55-222.25
					c-11.88-165.08-25.36-352.19-308.73-403.2c-8.73-1.57-14.53-9.92-12.96-18.65c1.58-8.73,9.96-14.5,18.65-12.96
					c136.59,24.59,227.75,82.15,278.69,175.96c43.71,80.5,50.44,174.03,56.38,256.55c6.54,90.79,12.19,169.2,65.79,195.78
					c22.25,11.04,52.19,9.41,84.32-4.59c71.23-31.04,131.94-110.79,162.39-213.34c42.74-143.91,29.81-285.62-35.45-388.8
					c-66.02-104.37-181.51-170.02-343.28-195.16c-8.76-1.36-14.77-9.57-13.4-18.33c1.37-8.76,9.6-14.73,18.33-13.4
					c171.33,26.62,294.31,97.18,365.49,209.73c70.22,111.02,84.47,262.31,39.1,415.11c-33.12,111.53-100.55,198.87-180.35,233.64
					C1810.93,2320.81,1789.21,2325.65,1769.04,2325.65z"/>
			</g>
			<g>
				<path class="st5" d="M1984.34,2112.72c0,0-56.71,230.77-199.47,249.4c-98.95,12.91-122.39-96.75-128.26-236.91
					c0,0,45.24,62.77,104.12,31.08c0,0,56.22,62.91,113.43-1.96C1874.15,2154.32,1924.16,2185.97,1984.34,2112.72z"/>
			</g>
			<g class="st6">
				<path class="st1" d="M1984.35,2112.7c0,0-56.73,230.8-199.48,249.42c-98.96,12.89-122.4-96.75-128.27-236.94
					c0,0,11.32,15.7,29.95,27.42c13.65,89.81,45.36,149.46,119.79,139.75c88.84-11.6,144.36-105.3,173.59-174.47
					C1981.42,2116.23,1982.87,2114.51,1984.35,2112.7z"/>
			</g>
			<g>
				<path class="st1" d="M1769.6,2379.2c-24.63,0-45.96-7.47-63.57-22.29c-50.96-42.89-61.69-140.85-65.46-231.03
					c-0.3-7.09,4.09-13.53,10.8-15.85c6.71-2.31,14.13,0.04,18.28,5.79c1.5,2.05,37.93,50.85,83.48,26.32
					c6.53-3.52,14.63-2.1,19.58,3.44c0.16,0.17,20.34,22.03,45.59,22.03c0.11,0,0.22,0,0.34,0c14.96-0.12,29.59-8.16,43.48-23.91
					c5.22-5.92,13.96-7.16,20.63-2.95c1.38,0.81,39.54,22.21,89.19-38.23c4.76-5.8,12.89-7.53,19.6-4.16
					c6.7,3.35,10.19,10.91,8.4,18.19c-2.42,9.86-61.08,241.67-212.99,261.48C1781,2378.81,1775.22,2379.2,1769.6,2379.2z
					 M1674.87,2164.27c4.95,68.12,17.05,138.79,51.84,168.07c14.66,12.33,33.01,16.87,56.08,13.85
					c88.52-11.55,142.4-116.16,167.98-182.59c-31.56,18.2-57.98,14.62-72.71,9.83c-18.17,17.39-38.15,26.23-59.53,26.29
					c-0.08,0-0.17,0-0.25,0c-27.17,0-49.09-14.63-60.65-24.35C1725.82,2187.82,1696.67,2178.71,1674.87,2164.27z"/>
			</g>
			<g>
				<path class="st1" d="M1732.93,2365.34c-1.89,0-3.8-0.53-5.5-1.65c-4.61-3.04-5.88-9.25-2.84-13.86
					c20.53-31.11,25.83-150.32,26.14-193.63c0.04-5.5,4.51-9.93,10-9.93c0.02,0,0.05,0,0.07,0c5.52,0.04,9.97,4.55,9.93,10.07
					c-0.12,16.54-1.94,162.81-29.44,204.5C1739.37,2363.77,1736.18,2365.34,1732.93,2365.34z"/>
			</g>
			<g>
				<path class="st1" d="M1801.97,2368.79c-2.81,0-5.6-1.17-7.57-3.47c-3.61-4.18-3.14-10.49,1.04-14.1
					c53.45-46.15,72.74-194.96,72.93-196.46c0.68-5.48,5.71-9.38,11.17-8.67c5.48,0.69,9.36,5.69,8.67,11.17
					c-0.81,6.43-20.45,157.95-79.71,209.1C1806.61,2367.99,1804.29,2368.79,1801.97,2368.79z"/>
			</g>
			<g>
				<path class="st7" d="M1227.45,1673.83c-124.09,22.32-198.68,70.86-244.29,131.68c-127.1,169.41-29.59,434.34-152.31,495.2
					c-73.63,36.53-213.49-40.03-269.22-227.75c-50.62-170.42-34.52-373.8,125.5-498.89c64.03-50.1,151.11-87.64,266.17-105.5
					L1227.45,1673.83z"/>
			</g>
			<g class="st6">
				<path class="st5" d="M560.77,2072.96c21.76,73.27,56.32,129.59,94.74,168.85c-22.48-33.24-41.99-73.67-56.12-121.24
					c-50.5-170.02-46.85-410.05,184.39-604.35c-37.62,16.66-70.29,36.41-98.52,58.61C526.2,1700.04,510.26,1902.94,560.77,2072.96z"
					/>
			</g>
			<g>
				<path class="st1" d="M790.58,2325.65c-20.17,0-41.88-4.84-64.01-14.48c-79.8-34.78-147.23-122.12-180.35-233.64
					c-45.38-152.79-31.13-304.09,39.09-415.11c71.19-112.55,194.16-183.11,365.5-209.73c8.77-1.32,16.97,4.64,18.33,13.4
					c1.36,8.76-4.64,16.97-13.4,18.33c-161.77,25.13-277.27,90.8-343.29,195.16c-65.26,103.18-78.18,244.89-35.44,388.8
					c30.45,102.55,91.16,182.3,162.38,213.34c32.13,13.99,62.08,15.63,84.33,4.6c53.61-26.58,59.25-104.99,65.79-195.78
					c5.94-82.52,12.68-176.05,56.39-256.56c50.93-93.8,142.09-151.36,278.68-175.95c8.69-1.56,17.07,4.23,18.65,12.96
					c1.57,8.73-4.23,17.08-12.96,18.65c-283.37,51.02-296.84,238.12-308.73,403.2c-7.25,100.62-13.5,187.52-83.55,222.25
					C823.79,2322.14,807.74,2325.65,790.58,2325.65z"/>
			</g>
			<g>
				<path class="st5" d="M575.29,2112.72c0,0,56.71,230.77,199.47,249.4c98.95,12.91,122.39-96.75,128.26-236.91
					c0,0-45.24,62.77-104.12,31.08c0,0-56.22,62.91-113.43-1.96C685.47,2154.32,635.47,2185.97,575.29,2112.72z"/>
			</g>
			<g class="st6">
				<path class="st1" d="M903.03,2125.19c-5.9,140.19-29.31,249.83-128.26,236.94c-142.76-18.63-199.48-249.42-199.48-249.42
					c11.04,13.45,21.76,23.36,31.88,30.59c31.35,65.04,83.9,139.83,162.63,150.1c78.72,10.28,109.68-57.05,121.96-155.6
					C898.98,2130.81,903.03,2125.19,903.03,2125.19z"/>
			</g>
			<g>
				<path class="st1" d="M790.02,2379.2c-5.62,0-11.4-0.39-17.34-1.16c-151.91-19.81-210.57-251.63-212.99-261.48
					c-1.79-7.28,1.7-14.83,8.4-18.19c6.69-3.37,14.84-1.64,19.6,4.16c49.65,60.43,87.8,39.03,89.4,38.1
					c6.68-4.22,15.21-2.83,20.42,3.08c13.95,15.82,28.64,23.86,43.67,23.91c0.05,0,0.1,0,0.15,0c25.2,0,45.39-21.81,45.59-22.03
					c4.95-5.54,13.05-6.96,19.58-3.44c45.57,24.54,81.98-24.27,83.51-26.37c4.17-5.7,11.62-8.03,18.29-5.7
					c6.67,2.34,11.05,8.74,10.76,15.81c-3.77,90.18-14.51,188.14-65.46,231.03C835.99,2371.73,814.65,2379.2,790.02,2379.2z
					 M608.85,2163.6c25.58,66.43,79.46,171.04,167.98,182.59c23.11,3.02,41.44-1.52,56.09-13.85
					c34.79-29.29,46.88-99.94,51.84-168.07c-21.79,14.44-50.93,23.55-82.77,11.11c-11.56,9.72-33.47,24.35-60.64,24.35
					c-0.09,0-0.17,0-0.25,0c-21.38-0.07-41.36-8.91-59.53-26.3C666.85,2178.23,640.42,2181.8,608.85,2163.6z"/>
			</g>
			<g>
				<path class="st1" d="M826.69,2365.34c-3.25,0-6.44-1.58-8.36-4.49c-27.5-41.68-29.32-187.96-29.43-204.5
					c-0.04-5.52,4.4-10.03,9.93-10.07c0.02,0,0.05,0,0.07,0c5.49,0,9.96,4.43,10,9.93c0.31,43.31,5.61,162.52,26.13,193.63
					c3.04,4.61,1.77,10.82-2.84,13.86C830.49,2364.81,828.58,2365.34,826.69,2365.34z"/>
			</g>
			<g>
				<path class="st1" d="M757.66,2368.79c-2.31,0-4.64-0.8-6.53-2.43c-59.26-51.15-78.91-202.68-79.72-209.1
					c-0.69-5.48,3.19-10.48,8.67-11.17c5.48-0.69,10.48,3.19,11.17,8.67c0.19,1.5,19.48,150.31,72.94,196.46
					c4.18,3.61,4.64,9.92,1.04,14.1C763.25,2367.62,760.46,2368.79,757.66,2368.79z"/>
			</g>
			<g class="st6">
				<path class="st1" d="M953.29,1468.56l274.15,205.26c-124.09,22.32-198.68,70.86-244.29,131.68
					c-140.47-39.5-248.06-115.58-296.03-231.44C751.16,1523.97,838.24,1486.43,953.29,1468.56z"/>
			</g>
			<g class="st6">
				<path class="st1" d="M1873.51,1574.83c-56,103.82-166.08,176.64-306.27,219.03c-46.25-55.36-118.99-99.16-235.05-120.04
					l274.15-205.26C1722,1486.55,1809.4,1524.37,1873.51,1574.83z"/>
			</g>
			<g>
				<g>
					<path class="st7" d="M1945.36,1345.58c-28.26,298.57-337.2,411.85-701.84,377.34c-364.64-34.51-646.88-203.75-618.62-502.32
						c27.08-286.16,243.8-595.4,665.07-582.39c53.07-21.04,125.93-59.29,170.8-121.88c14.05-19.57,44.4-13.67,49.85,9.85
						c7.23,31.26,12.7,71.94-12.47,121.39c58.61-21.9,117.21-47.59,137.1-62.31c21.29-15.75,51.11,1.6,47.71,27.85
						c-3.31,25.39-17.63,78.53-32.56,122.8C1879.75,872.08,1966.14,1125.99,1945.36,1345.58z"/>
				</g>
				<g class="st6">
					<path class="st1" d="M1243.51,1722.94c-364.63-34.52-646.89-203.76-618.61-502.33c2.64-27.78,7.03-55.75,13.27-83.62
						c-28.15,298.49,254.08,467.68,618.65,502.16c335.58,31.75,624.06-61.68,689.87-309.57c-0.38,5.33-0.8,10.69-1.31,15.99
						C1917.1,1644.14,1608.15,1757.43,1243.51,1722.94z"/>
				</g>
				<g class="st6">
					<path class="st5" d="M1908.14,1481.05c9.09-27.57,15.24-57.17,18.24-88.85c19.55-206.52-70.29-456.99-271.84-599.34
						c-22.91-16.18-32.86-45.23-24.21-71.92c9.75-30.11,18.15-58.49,20.34-75.28c3.39-26.25-13.1-29.52-34.39-13.77
						c-15.55,11.51-54.75,29.72-99.13,47.58c-13.6,5.48-27.97-6.75-24.32-20.96c8.66-33.66,4.23-62.32-1.18-85.71
						c-5.46-23.52-17.93-30.46-39.11-0.74c-29.8,41.82-76.98,68.65-120.84,88.13c-35.07,15.57-73,23.43-111.36,24.64
						C934.9,693.84,751,856.22,663.36,1050.7c82.37-226.03,288.67-422.93,626.61-412.49c53.07-21.04,125.93-59.29,170.8-121.88
						c14.05-19.57,44.4-13.67,49.85,9.85c7.23,31.26,12.7,71.94-12.47,121.39c58.61-21.9,117.21-47.59,137.1-62.31
						c21.29-15.75,51.11,1.6,47.71,27.85c-3.31,25.39-17.63,78.53-32.56,122.8c229.35,136.16,315.73,390.07,294.95,609.66
						C1940.59,1395.95,1927.84,1441.05,1908.14,1481.05z"/>
				</g>
				<g>
					<path class="st8" d="M1818.78,1292.85c-8.23,87-43.47,178.16-129.32,243.04c-87.74,66.38-228.37,105.36-447.18,84.65l-0.03,0
						c-216.52-20.49-346.88-84.04-421.04-164.45c-74.13-80.37-92.1-177.64-83.78-265.58c1.69-17.87,4.83-35.29,9.29-52.07
						c39.3-148.56,181.34-251.22,339.33-236.26c86.41,8.18,161.59,50.03,213.65,111.36c62.67-50.47,144.34-77.48,230.75-69.3
						c156.04,14.77,275.23,139.23,288.51,289.96l0,0.03C1820.68,1253.39,1820.66,1273,1818.78,1292.85z"/>
				</g>
				<g>
					<path class="st1" d="M1356.89,1268.9c-2.57,27.11-41.75,56.27-86.29,52.06c-44.54-4.22-77.55-40.21-74.99-67.32
						c2.57-27.11,39.74-35.06,84.28-30.85S1359.46,1241.79,1356.89,1268.9z"/>
				</g>
				<g class="st9">
					<path class="st8" d="M1312.77,1249.62c-0.6,6.34-16.02,12.57-34.15,10.85c-18.13-1.72-32.11-10.73-31.51-17.06
						c0.6-6.34,15.55-7.61,33.68-5.89C1298.93,1239.24,1313.37,1243.29,1312.77,1249.62z"/>
				</g>
				<g>
					<path class="st1" d="M1346.96,1412.48c-8.43,0-17.69-1.45-27.81-4.71c-26.64-8.57-42.91-26.59-52.39-46.2
						c-12.99,17.48-32.36,32.12-60.14,35.55c-53.07,6.53-76.38-27.71-80.26-59c-1.15-9.31,5.45-17.78,14.76-18.94
						c9.34-1.14,17.78,5.46,18.94,14.76c2.81,22.69,17.05,32.65,42.42,29.49c46.1-5.68,52.85-61.25,52.91-61.81l33.79,3.2
						c-0.16,2.24-3.43,56.55,40.38,70.64c24.3,7.82,40.18,0.75,47.19-21.01c2.87-8.92,12.45-13.83,21.36-10.94
						c8.92,2.88,13.82,12.44,10.94,21.36C1401.3,1388.92,1380.92,1412.48,1346.96,1412.48z"/>
				</g>
				<g>
					<path class="st1" d="M1367.59,1745.93c-40.54,0-82.49-2.03-125.68-6.11c-192.35-18.21-353.21-71.95-465.19-155.43
						c-124.24-92.61-182.59-218.96-168.73-365.39c14.4-152.14,77.74-294.96,178.37-402.13
						c116.84-124.46,276.51-192.19,461.76-195.88c9.29-0.06,17.12,7.27,17.3,16.63c0.19,9.37-7.26,17.12-16.63,17.31
						c-380.88,7.59-581.65,299.38-607,567.27c-29.51,311.83,292.31,454.39,603.33,483.82c39.16,3.71,78.87,5.68,118.34,5.69
						c274.06,0.01,539.19-95.17,565-367.73c18.41-194.48-47.76-452.82-288.66-594.64c-8.08-4.76-10.78-15.16-6.02-23.24
						s15.18-10.77,23.24-6.02c110.59,65.1,196.95,162.46,249.77,281.55c47.54,107.19,66.72,226.67,55.47,345.54
						c-13.86,146.42-94.87,259.58-234.27,327.25C1630.56,1721.71,1507.59,1745.93,1367.59,1745.93z"/>
				</g>
				<g>
					<path class="st10" d="M1166.57,1235.64c-22.47,93-100.47,107.98-203.38,138.44c-64.57,19.1-110.9,52.07-141.98,82
						c-74.13-80.37-92.1-177.64-83.78-265.58c1.69-17.87,4.83-35.29,9.29-52.07c64.15-55.17,161.94-104.72,293.27-76.16
						C1136.11,1083.2,1182.69,1168.9,1166.57,1235.64z"/>
				</g>
				<g>
					<path class="st10" d="M1818.78,1292.85c-8.23,87-43.47,178.16-129.32,243.04c-25.03-34.64-63.9-74.5-122.32-104.64
						c-95.37-49.23-169.17-78.58-173.79-174.14c-3.32-68.58,58.52-144.02,156.85-146.55c130.17-3.34,215.68,59.48,268.76,123.63
						l0,0.03C1820.68,1253.39,1820.66,1273,1818.78,1292.85z"/>
				</g>
				<g>
					<path class="st1" d="M1482.4,682.9c-4.69,0-9.36-1.93-12.71-5.72c-6.22-7.02-5.57-17.74,1.45-23.96
						c35.31-31.27,31.97-84.27,22.94-123.22c-1.44-6.21-6.34-7.83-8.38-8.24c-2.08-0.41-7.32-0.82-11.13,4.48
						c-80.61,112.39-218.52,127.98-224.35,128.59c-9.38,0.95-17.67-5.8-18.64-15.12c-0.98-9.32,5.8-17.67,15.12-18.65
						c1.25-0.13,128.76-14.88,200.29-114.61c10.47-14.59,27.85-21.49,45.37-17.98c17.43,3.49,30.76,16.46,34.79,33.86
						c15.92,68.74,4.33,122.78-33.51,156.29C1490.42,681.49,1486.4,682.9,1482.4,682.9z"/>
				</g>
				<g>
					<path class="st1" d="M1648.39,751.69c-3.04,0-6.12-0.82-8.9-2.53c-7.98-4.92-10.45-15.38-5.53-23.36
						c14.28-23.15,25.4-62.87,32.15-114.87c0.99-7.65-4.04-11.5-6.25-12.8c-1.76-1.04-8.02-4.04-14.53,0.79
						c-57.23,42.31-106.68,64.91-146.99,67.16c-9.46,0.55-17.37-6.64-17.9-16s6.65-17.37,16-17.89
						c33.11-1.85,77.61-22.79,128.7-60.56c15.47-11.43,35.37-12.49,51.92-2.75c16.46,9.68,25.17,27.47,22.71,46.43
						c-7.47,57.54-19.89,100.71-36.92,128.32C1659.64,748.82,1654.09,751.69,1648.39,751.69z"/>
				</g>
				<g>
					<path class="st1" d="M900.23,1205.21c3.66-3.99,6.53-6.78,9.98-9.73c3.3-2.94,6.81-5.52,10.4-8c3.57-2.55,7.35-4.66,11.13-6.89
						c3.82-2.12,7.81-3.91,11.77-5.84c16.11-7.01,33.83-11.14,51.96-11.9c9.04-0.73,18.21,0.36,27.23,1.32
						c8.95,1.93,17.95,3.53,26.31,7.21c17.1,6.11,32.01,16.79,43.89,29.47c6.98,7.45,6.6,19.15-0.85,26.14
						c-4.1,3.84-9.48,5.45-14.65,4.89l-3.81-0.43c-7.4-0.84-13.72-3.11-20.31-4.12c-3.27-0.54-6.45-1.15-9.56-1.83
						c-3.06-0.83-6.34-0.74-9.38-1.33c-6.11-1.19-12.31-1.17-18.33-1.92c-6.13,0.04-12.15-0.57-18.3-0.11
						c-12.24,0.33-24.73,1.67-37.55,4.04l-9.69,1.88c-3.18,0.83-6.56,1.33-9.79,2.18l-9.93,2.32c-3.22,0.71-6.88,1.83-9.51,2.1
						l-5.91,0.61c-9.88,1.01-18.72-6.18-19.73-16.06C895.04,1213.92,896.9,1208.87,900.23,1205.21z"/>
				</g>
				<g>
					<path class="st1" d="M1643.89,1303.07c-2.54-0.76-5.93-2.54-8.95-3.85l-9.32-4.15c-3.02-1.45-6.24-2.57-9.21-3.98l-9.16-3.66
						c-12.15-4.73-24.17-8.39-36.13-11.02c-5.96-1.6-11.99-2.13-18-3.33c-6.05-0.38-12.14-1.57-18.36-1.55
						c-3.1,0-6.29-0.7-9.46-0.46c-3.18,0.09-6.42,0.09-9.73,0.01c-6.66-0.25-13.29,0.79-20.72,0.23l-3.74-0.28
						c-10.18-0.77-17.81-9.65-17.04-19.83c0.42-5.6,3.36-10.47,7.56-13.55c14.05-10.23,30.69-17.92,48.64-20.71
						c8.9-2.06,18.04-1.93,27.19-2.15c9.05,0.75,18.25,1.41,27,3.82c17.66,4.14,34.3,11.52,48.8,21.43
						c3.53,2.64,7.11,5.14,10.47,7.94c3.3,2.9,6.61,5.68,9.64,8.85c3.05,3.11,6.02,6.3,8.71,9.81c2.84,3.54,5.13,6.82,7.98,11.43
						c5.23,8.45,2.61,19.54-5.83,24.77c-4.53,2.8-9.82,3.35-14.55,1.96L1643.89,1303.07z"/>
				</g>
			</g>
		</g>
	</g>
</g>
</svg>
