<?xml version="1.0" encoding="utf-8"?>
<!-- Generator: Adobe Illustrator 24.3.0, SVG Export Plug-In . SVG Version: 6.00 Build 0)  -->
<svg version="1.1" id="Layer_1" xmlns="http://www.w3.org/2000/svg" xmlns:xlink="http://www.w3.org/1999/xlink" x="0px" y="0px"
	 viewBox="0 0 2280.24 2992.88" style="enable-background:new 0 0 2280.24 2992.88;" xml:space="preserve">
<style type="text/css">
	.st0{fill:#FFFFFF;}
	.st1{fill:#390075;}
	.st2{fill:#FEC2E6;}
	.st3{fill:#39D5FF;}
	.st4{fill:#102770;}
	.st5{opacity:0.35;}
	.st6{fill:#6B184E;}
	.st7{opacity:0.6;}
	.st8{fill:#FD6CCB;}
	.st9{fill:#FD8699;}
	.st10{fill:#FEF26B;}
	.st11{fill:#F883A0;}
	.st12{opacity:0.5;}
	.st13{fill:#FDD800;}
	.st14{fill:none;stroke:#390075;stroke-width:33.5041;stroke-linecap:round;stroke-miterlimit:10;}
	.st15{fill:#293856;}
	.st16{opacity:0.4;}
	.st17{opacity:0.3;}
	.st18{fill:#33AEF1;}
	.st19{fill:#ECC18E;}
	.st20{fill:#FEFAFB;}
	.st21{fill:none;stroke:#6B184E;stroke-width:35.8435;stroke-linecap:round;stroke-linejoin:round;stroke-miterlimit:10;}
	.st22{fill:#707169;}
	.st23{opacity:0.7;}
	.st24{fill:#F99621;}
	.st25{fill:#371A45;}
	.st26{fill:#A87C63;}
	.st27{fill:#B75D30;}
	.st28{fill:#FFD9B6;}
	.st29{fill:#873413;}
	.st30{fill:#FFD400;}
	.st31{fill:#23B574;}
	.st32{fill:#16B767;}
	.st33{fill:#A34F31;}
	.st34{fill:#9B5639;}
	.st35{opacity:0.2;}
	.st36{fill:#FCF7FB;}
	.st37{fill:#EB9F49;}
	.st38{fill:#FE6DCB;}
	.st39{fill:#EC2029;}
	.st40{fill:#4A83FF;}
	.st41{fill:#FCDC18;}
	.st42{fill:#7A574C;}
	.st43{fill:none;stroke:#6B184E;stroke-width:32;stroke-linecap:round;stroke-miterlimit:10;}
	.st44{fill:#4089FF;}
	.st45{fill:#D3A17F;}
	.st46{fill:#33AEF2;}
	.st47{fill:#DD8E58;}
	.st48{fill:#FFBC8F;}
	.st49{fill:#78D124;}
	.st50{fill:#D3613C;}
	.st51{fill:#66142E;}
	.st52{fill:#F9D6B6;}
	.st53{fill:#F8D5B5;}
	.st54{fill:#F87E7D;}
	.st55{fill:#F28475;}
	.st56{fill:#F78C7A;}
	.st57{fill:#85D66E;}
	.st58{fill:#60D839;}
	.st59{fill:none;stroke:#6B184E;stroke-width:33.6796;stroke-linecap:round;stroke-miterlimit:10;}
	.st60{fill:#F2101C;}
	.st61{fill:#1D1D1D;}
	.st62{fill:#575B5A;}
	.st63{fill:none;stroke:#6B184E;stroke-width:33.1441;stroke-linecap:round;stroke-miterlimit:10;}
	.st64{opacity:0.31;}
	.st65{fill:#FC7E81;}
	.st66{fill:#E25963;}
	.st67{fill:#00004F;}
	.st68{fill:#5E5E84;}
	.st69{fill:#933019;}
	.st70{fill:#CC753A;}
	.st71{fill:#FF0037;}
	.st72{fill:#FFAF9F;}
	.st73{fill:#472C28;}
	.st74{fill:none;}
</style>
<g>
	<g>
		<g>
			<g>
				<path class="st19" d="M2246.49,2325.22c27.35,99.25-66.83,164.32-149.27,164.32c-82.44,0-149.27-73.57-149.27-164.32
					C1947.94,2234.47,2201.86,2163.27,2246.49,2325.22z"/>
			</g>
			<g class="st5">
				<path class="st6" d="M2097.24,2489.52c-82.44,0-149.29-73.57-149.29-164.3c0-28.94,25.81-55.92,62.46-73.93
					c19.31,66.09,75.58,113.94,142.07,113.94c33.11,0,68.19-10.53,96.46-29.57C2267.18,2428.99,2176.76,2489.52,2097.24,2489.52z"/>
			</g>
			<g>
				<path class="st6" d="M2097.22,2507.47c-92.19,0-167.19-81.76-167.19-182.25c0-57.9,74.56-102.59,146.64-112.34
					c73.39-9.93,161.07,13.12,187.1,107.58c11.93,43.3,4.4,84.35-21.77,118.72C2210.4,2480.66,2153.56,2507.47,2097.22,2507.47z
					 M2107.55,2246.68c-10.85,0-19.99,0.9-26.08,1.72c-61.58,8.33-115.61,44.23-115.61,76.82c0,80.73,58.93,146.4,131.35,146.4
					c44.86,0,91.59-21.77,116.26-54.17c19.14-25.12,24.58-55.37,15.73-87.48C2209.56,2258.66,2147.17,2246.68,2107.55,2246.68z"/>
			</g>
			<g>
				<path class="st19" d="M1130.49,2014.19c0,0-27.51,106.19-124.2,160.58c-21.69,12.23-46.91,21.86-76.03,27.06
					c-155.78,27.87-355.84-62.55-453.42-149.02c-131.46-116.49-84.41-245.98-20.52-283.84c105.96-62.77,335.81,84.32,420.85,63.35
					c90.28-22.27,157.49-149.56,195.35-242.53c6.18-15.14,11.6-29.35,16.17-42.03c12.5-34.72,19.04-58.16,19.04-58.16l4.7,108.2
					L1130.49,2014.19z"/>
			</g>
			<g class="st17">
				<path class="st0" d="M1110.91,1562.52c-3.05,9.45-7.03,21.46-12.01,35.17c-4.57,12.68-9.99,26.88-16.17,42.03
					c-37.86,92.97-105.07,220.26-195.35,242.53c-85.04,20.97-314.88-126.12-420.85-63.35c-35.8,21.19-66.31,71.15-63.08,131.5
					c-29.26-81.68,7.57-154.57,52.87-181.41c105.96-62.77,335.81,84.32,420.85,63.35c90.28-22.27,157.49-149.56,195.35-242.53
					c6.18-15.14,11.6-29.35,16.17-42.03c12.5-34.72,19.04-58.16,19.04-58.16L1110.91,1562.52z"/>
			</g>
			<g class="st5">
				<path class="st6" d="M1130.49,2014.19c0,0-27.51,106.19-124.2,160.58c-21.69,12.23-46.91,21.86-76.03,27.06
					c-155.78,27.87-355.84-62.55-453.42-149.02c-79.21-70.16-93.6-145.08-78.54-201.8c9.72,38.53,33.78,79.71,78.54,119.4
					c97.58,86.47,222.06,167.12,423.1,119.61c121.17-28.64,37.88-224.54,230.55-380.8V2014.19z"/>
			</g>
			<g>
				<path class="st6" d="M869.07,2224.96c-154.6,0-323.14-86.97-404.12-158.74c-63.82-56.56-95.45-124.57-89.06-191.49
					c4.93-51.61,32.26-98.04,71.31-121.17c69.03-40.89,177.99-4.26,274.14,28.05c59.63,20.04,121.31,40.79,151.54,33.32
					c133.36-32.85,216.78-327.14,217.6-330.1c2.36-8.49,10.61-14,19.31-13c8.75,1,15.48,8.23,15.86,17.03l22.76,524.56
					c0.08,1.77-0.11,3.55-0.56,5.27c-1.8,6.96-46.07,170.68-214.45,200.79C912.43,2223.23,890.89,2224.96,869.07,2224.96z
					 M523.25,1771.14c-22.16,0-41.88,3.85-57.77,13.26c-28.95,17.14-50.1,53.94-53.9,93.74c-3.73,39.06,6.63,98.75,77.15,161.25
					c100.78,89.32,297.05,170.08,438.37,144.79c135.77-24.28,179.6-153.02,185.38-172.13l-18.53-427.08
					c-38.18,96.85-110.56,239.64-212.5,264.75c-40.37,9.94-101.15-10.49-171.53-34.15C646.79,1794.37,577.67,1771.14,523.25,1771.14
					z"/>
			</g>
			<g>
				<path class="st19" d="M1537.36,2639.98c-0.76,96.24,18.91,156.46,7.62,188.36c-22.18,62.46-315.6,96.33-395.22,37.14
					c-54.39-40.5,41.49-101.8,85.44-126.3c-111.74-121.96-139.3-248.8-146.06-303.91c-2.24-18.06-2.24-28.41-2.24-28.41
					s-21.73-273.4,0-316.81l553.83,168.33C1557.52,2423.03,1538.08,2547.95,1537.36,2639.98z"/>
			</g>
			<g>
				<path class="st6" d="M1297.58,2913.98c-64.6,0-125.62-9.68-158.51-34.13c-20.78-15.46-24.18-33.25-23.38-45.44
					c2.41-36.73,47.57-72.92,91.58-99.71c-133.41-156.03-138.14-313.13-138.3-327.09c-3.8-47.97-20.82-280.21,1.88-325.6
					c4.43-8.85,15.2-12.43,24.05-8.02c8.85,4.43,12.44,15.19,8.01,24.05c-13.45,26.88-7.02,195.93,1.84,307.38
					c0.04,0.47,0.05,0.95,0.05,1.42c0,1.61,2.19,165.89,143.58,320.24c3.7,4.04,5.35,9.55,4.47,14.96s-4.17,10.12-8.96,12.79
					c-54.91,30.62-91.2,62.77-92.45,81.91c-0.15,2.18-0.48,7.28,9.01,14.34c50.36,37.44,211.18,33.73,307.49,4.43
					c40-12.17,57.37-25.48,60.11-33.18c4.66-13.14,1.96-37.51-1.45-68.36c-10.51-94.97-28.1-253.91,98.13-503.68
					c4.46-8.84,15.25-12.37,24.08-7.91c8.83,4.47,12.37,15.25,7.91,24.08c-121.42,240.25-104.57,392.57-94.49,483.57
					c4.07,36.8,7.01,63.39-0.4,84.28c-7.94,22.39-36.02,41.06-83.45,55.49C1431.12,2904.2,1362.53,2913.98,1297.58,2913.98z"/>
			</g>
			<g class="st5">
				<path class="st6" d="M1537.36,2639.98c-0.76,96.24,18.91,156.46,7.62,188.36c-22.18,62.46-315.6,96.33-395.22,37.14
					c-13.4-9.95-17.65-21.19-15.86-32.8c111.16,30.42,333.12-2.24,352.3-56.23c2.36-6.69,3.37-14.61,3.49-23.85
					c0.86-66.23-43.78-124.47-107.28-143.32c-107.55-31.93-217.74-87.92-293.27-174.01c-2.24-18.06-2.24-28.41-2.24-28.41
					s-21.73-273.4,0-316.81l480.57,146.06l73.25,22.27C1557.52,2423.03,1538.08,2547.95,1537.36,2639.98z"/>
			</g>
			<g>
				<path class="st19" d="M2177.08,2219.17c-72.99,244.54-298.62,332.94-609.34,315.96c-191-10.44-495.45-111.43-561.44-360.36
					c-13.53-50.94-17.07-108.07-7.57-171.91c20.83-140.19,95.39-282,94.13-408.79c-0.13-15.68-1.43-31.14-4.17-46.28
					c-4.61-25.9-13.35-51.03-27.33-75.23c-34.72-60.04,776.28-226.35,776.28-226.35s86.65,81.9,175.95,214.61
					C2136.89,1644.07,2265.16,1924.18,2177.08,2219.17z"/>
			</g>
			<g class="st5">
				<path class="st6" d="M1061.36,1472.55c-4.57-7.89,5.47-17.61,26.39-28.54c0.36,1.61,0.67,3.23,0.94,4.84
					c2.73,15.14,4.03,30.6,4.17,46.28c0.18,18.1-1.21,36.56-3.72,55.24c-0.13-0.85-0.31-1.75-0.45-2.6
					C1084.08,1521.88,1075.34,1496.75,1061.36,1472.55z"/>
			</g>
			<g>
				<path class="st6" d="M1640.32,2555.08c-23.81,0-48.32-0.69-73.56-2.07c-153.36-8.39-376.68-72.4-501.35-225.21
					c-74.71-91.58-103.12-201.8-84.41-327.59c9.12-61.39,28.25-122.87,46.76-182.33c38.26-122.93,74.39-239.05,18.11-336.35
					c-4.3-7.43-4.66-15.97-1.03-24.06c7.12-15.86,21.94-48.87,411.35-143.92c188.59-46.03,376.01-84.55,377.88-84.94
					c5.73-1.18,11.67,0.52,15.91,4.53c5.09,4.81,125.91,119.96,229.85,299.83c138.38,239.46,177.95,478.52,114.42,691.32
					C2128.66,2444,1942.45,2555.08,1640.32,2555.08z M1080.18,1469.47c59.44,109.56,19.98,236.37-18.2,359.07
					c-18.1,58.15-36.81,118.29-45.53,176.94c-17.15,115.4,8.66,216.22,76.73,299.66c109.76,134.54,317.92,203.46,475.53,212.08
					c326.92,17.86,525.79-84.13,591.19-303.16c76.61-256.61-18.14-502.25-111.11-663.13c-87.78-151.9-190.21-258.65-216.85-285.25
					c-39.65,8.25-199.44,41.88-361.44,81.3C1160.19,1422.46,1094.05,1457.31,1080.18,1469.47z"/>
			</g>
			<g>
				<path class="st6" d="M1872.04,2079.46c-135.21,0-245.21-110.03-245.21-245.27c0-135.21,110-245.22,245.21-245.22
					c135.24,0,245.26,110,245.26,245.22C2117.3,1969.43,2007.28,2079.46,1872.04,2079.46z M1872.04,1624.82
					c-115.45,0-209.38,93.92-209.38,209.37c0,115.48,93.93,209.42,209.38,209.42c115.47,0,209.42-93.95,209.42-209.42
					C2081.46,1718.75,1987.51,1624.82,1872.04,1624.82z"/>
			</g>
			<g>
				<path class="st6" d="M1872.04,2079.46c-135.21,0-245.21-110.03-245.21-245.27c0-135.21,110-245.22,245.21-245.22
					c135.24,0,245.26,110,245.26,245.22C2117.3,1969.43,2007.28,2079.46,1872.04,2079.46z M1872.04,1624.82
					c-115.45,0-209.38,93.92-209.38,209.37c0,115.48,93.93,209.42,209.38,209.42c115.47,0,209.42-93.95,209.42-209.42
					C2081.46,1718.75,1987.51,1624.82,1872.04,1624.82z"/>
			</g>
			<g>
				<path class="st6" d="M1872.04,2079.46c-135.21,0-245.21-110.03-245.21-245.27c0-135.21,110-245.22,245.21-245.22
					c135.24,0,245.26,110,245.26,245.22C2117.3,1969.43,2007.28,2079.46,1872.04,2079.46z M1872.04,1624.82
					c-115.45,0-209.38,93.92-209.38,209.37c0,115.48,93.93,209.42,209.38,209.42c115.47,0,209.42-93.95,209.42-209.42
					C2081.46,1718.75,1987.51,1624.82,1872.04,1624.82z"/>
			</g>
			<g>
				<path class="st0" d="M2064.61,1542.45c-65.61-38.89-157.66-42.82-265.95-12.75c-198.88,55.19-299.41,368.9-479.37,352.99
					c-179.96-15.91-178.7-393.05-178.7-393.05l-54.17,47.04c31.96,140.44-63.67,304.4-87.73,466.18
					c-18.57,124.87,12.66,224.14,71.09,301.49c607.4,232.18,1049.62,37.63,1049.62,37.63s16.73-23.37,23.71-39.23
					c11.74-26.43,24.93-53.34,33.95-83.56C2252.91,1965.13,2168.29,1722.08,2064.61,1542.45z M1872.03,2061.54
					c-125.5,0-227.3-101.79-227.3-227.34c0-125.55,101.79-227.3,227.3-227.3c125.55,0,227.34,101.74,227.34,227.3
					C2099.38,1959.75,1997.59,2061.54,1872.03,2061.54z"/>
			</g>
			<g>
				<path class="st6" d="M1669.14,2436.05c-162.73,0-371.89-25.56-605.75-114.95c-3.13-1.2-5.87-3.26-7.9-5.94
					c-67.29-89.06-92.35-195.02-74.52-314.93c9.12-61.37,28.25-122.83,46.75-182.28c30.99-99.58,60.26-193.64,41.23-277.29
					c-1.46-6.45,0.73-13.17,5.72-17.51l54.17-47.04c5.31-4.61,12.83-5.68,19.21-2.76c6.39,2.93,10.48,9.32,10.46,16.35
					c-0.01,3.61,0.83,360.87,162.36,375.14c86.41,7.63,156.66-73.45,231-159.32c70.56-81.5,143.53-165.77,242.01-193.09
					c113.72-31.57,210.5-26.52,279.88,14.61c2.65,1.57,4.84,3.79,6.38,6.46c138.13,239.31,177.59,478.19,114.11,690.83
					c-7.75,25.98-18.25,49.17-28.4,71.61c-2.14,4.72-4.26,9.42-6.34,14.1c-7.62,17.3-24.79,41.37-25.51,42.39
					c-1.88,2.62-4.41,4.68-7.36,5.97c-4.62,2.03-115.27,49.99-302.38,69.67C1779.08,2432.81,1727.04,2436.05,1669.14,2436.05z
					 M1081.04,2289.46c307.63,116.57,570.86,120.49,737.84,103.12c161.48-16.8,266.44-56.15,288.84-65.15
					c5.53-8.07,14.78-22.31,19-31.9c2.13-4.81,4.29-9.58,6.46-14.38c9.66-21.35,19.64-43.42,26.71-67.08
					c75.89-254.21-16.4-497.67-108.41-658.5c-60.59-33.89-146.2-36.88-248.02-8.61c-88.06,24.44-157.42,104.55-224.5,182.02
					c-76.58,88.44-149.13,172.22-246.12,172.23c-4.98,0-10.01-0.22-15.12-0.67c-159.84-14.13-188.74-272.71-193.93-372.58
					l-17.71,15.38c16.65,89.91-12.92,184.91-44.15,285.26c-18.09,58.14-36.8,118.27-45.52,176.9
					C1000.33,2113.69,1022.07,2209.21,1081.04,2289.46z M1872.04,2079.46c-135.21,0-245.21-110.03-245.21-245.27
					c0-135.21,110-245.22,245.21-245.22c135.24,0,245.26,110,245.26,245.22C2117.3,1969.43,2007.28,2079.46,1872.04,2079.46z
					 M1872.04,1624.82c-115.45,0-209.38,93.92-209.38,209.37c0,115.48,93.93,209.42,209.38,209.42
					c115.47,0,209.42-93.95,209.42-209.42C2081.46,1718.75,1987.51,1624.82,1872.04,1624.82z"/>
			</g>
			<g>
				<path class="st6" d="M1872.04,2079.46c-135.21,0-245.21-110.03-245.21-245.27c0-135.21,110-245.22,245.21-245.22
					c135.24,0,245.26,110,245.26,245.22C2117.3,1969.43,2007.28,2079.46,1872.04,2079.46z M1872.04,1624.82
					c-115.45,0-209.38,93.92-209.38,209.37c0,115.48,93.93,209.42,209.38,209.42c115.47,0,209.42-93.95,209.42-209.42
					C2081.46,1718.75,1987.51,1624.82,1872.04,1624.82z"/>
			</g>
			<g class="st5">
				<path class="st6" d="M2013.59,1460.82c-152.02,107.04-374.12,159.55-621.62,160.49c-98.03,0.36-192.12-7.39-279.53-23.48
					c-6.59-1.16-13.08-2.42-19.58-3.76c-6.81-1.34-13.62-2.78-20.34-4.26c6.18-15.14,11.6-29.35,16.17-42.03
					c-4.61-25.9-13.35-51.03-27.33-75.23c-34.72-60.04,776.28-226.35,776.28-226.35S1924.29,1328.11,2013.59,1460.82z"/>
			</g>
			<g>
				<path class="st19" d="M513.07,1016.44c1.43,376.25,374.58,552.84,834.08,551.1c459.5-1.74,831.35-181.16,829.92-557.41
					c-1.37-360.61-237.04-771.57-764.87-803.13c-63.92-32.31-150.61-88.37-199.58-171.66c-15.33-26.04-53.92-22.12-63.4,6.65
					c-12.59,38.24-24.04,88.44,1.81,153.09c-70.74-34.02-141.05-72.76-164.22-93.41c-24.82-22.09-64.03-3.8-62.77,29.38
					c1.26,32.1,13.11,100.12,26.74,157.13C648.76,432.29,512.02,739.72,513.07,1016.44z"/>
			</g>
			<g class="st5">
				<path class="st6" d="M1151.01,98.94c-4.61-2.24-9.23-4.48-13.84-6.72c1.03-8.02,2.51-15.64,4.26-22.94
					C1143.76,78.83,1146.94,88.68,1151.01,98.94z"/>
			</g>
			<g class="st5">
				<path class="st6" d="M2177.08,1010.13c1.43,376.27-370.44,555.66-829.91,557.41c-459.51,1.75-832.69-174.87-834.08-551.09
					c-0.09-18.46,0.45-37.05,1.66-55.74c27.11,348.49,389.71,512.38,832.42,510.68c440.52-1.66,800.56-166.67,828.16-511.93
					C2176.45,976.44,2177.03,993.33,2177.08,1010.13z"/>
			</g>
			<g class="st17">
				<path class="st0" d="M544.19,1189.92c-8.23-35.48-12.55-73.16-12.71-113.08c-0.99-260.25,139.68-562.99,407.65-717.98
					c30.46-17.62,46.19-52.79,38.41-87.11c-8.77-38.72-16.04-75.13-16.87-96.37c-1.26-33.19,19.72-35.4,44.53-13.31
					c18.12,16.14,65.04,43.34,118.46,70.7c16.37,8.39,35.71-5.26,32.76-23.42c-7-43.04,1.78-78.34,11.2-106.96
					c9.49-28.77,25.86-36.02,48.94,3.51c32.49,55.63,88.39,94.51,140.98,123.82c42.05,23.44,88.55,37.56,136.34,43.43
					c355.61,43.65,566.95,267.4,654.38,520.34c-77.27-291.75-312.68-561.17-736.09-586.49c-63.92-32.31-150.61-88.37-199.58-171.66
					c-15.33-26.04-53.92-22.12-63.4,6.65c-12.59,38.24-24.04,88.44,1.81,153.09c-70.74-34.02-141.05-72.76-164.22-93.41
					c-24.82-22.09-64.03-3.8-62.77,29.38c1.26,32.1,13.11,100.12,26.74,157.13c-302,144.1-438.74,451.53-437.7,728.25
					C513.31,1079.91,524.12,1137.71,544.19,1189.92z"/>
			</g>
			<g>
				<path class="st20" d="M677.19,964.92c0.42,109.64,34.09,227.53,134,318.34c102.09,92.9,273.37,157.56,549.11,156.51l0.04,0
					c272.85-1.03,442.94-65.65,544.72-157.69c101.75-92.01,135.23-211.5,134.81-322.32c-0.09-22.52-2.03-44.64-5.7-66.12
					c-32.25-190.08-198.07-334.45-397.16-333.7c-108.89,0.41-207.58,44.17-279.57,114.89c-72.57-70.17-171.55-113.18-280.44-112.77
					c-196.64,0.75-359.67,142.73-393.38,329.54l0,0.04C679.3,915.41,677.1,939.91,677.19,964.92z"/>
			</g>
			<g>
				<path class="st6" d="M1257.01,987.41c0.13,34.16,45.78,75.04,101.9,74.83c56.12-0.21,101.46-41.44,101.33-75.6
					c-0.13-34.16-45.68-48.32-101.8-48.11C1302.32,938.75,1256.88,953.25,1257.01,987.41z"/>
			</g>
			<g class="st12">
				<path class="st20" d="M1314.32,968.34c0.03,7.99,18.59,17.52,41.44,17.43s41.34-9.76,41.31-17.75s-18.57-11.27-41.42-11.18
					C1332.8,956.93,1314.29,960.35,1314.32,968.34z"/>
			</g>
			<g>
				<path class="st6" d="M1986.91,1414.48c-3.59,4.5-9,9.52-15.5,13.9c-6.42,4.39-13.65,7.53-20.74,10.07
					c-7.13,2.54-14.34,4.46-21.62,5.78c-7.3,1.29-14.65,2.13-22.22,2.12c-1.27,0-2.31-1.04-2.31-2.31c0-0.64,0.26-1.23,0.69-1.65
					l0.03-0.03c5.38-5.28,10.96-9.8,16.34-14.39l15.83-13.12l14.5-12.64c2.41-2.02,4.79-4.03,7.63-6.07
					c2.77-2.06,5.95-4.24,9.8-6.02c7.66-3.53,16.73-0.18,20.26,7.48c2.5,5.42,1.55,11.54-1.92,15.91L1986.91,1414.48z"/>
			</g>
			<g>
				<path class="st6" d="M1984.02,1415.9c-5.45,0-10.84-2.48-14.36-7.18c-5.93-7.92-4.32-19.16,3.61-25.09
					c53.09-39.73,88.61-86.65,88.97-87.12c0.12-0.16,0.25-0.33,0.38-0.49c64.47-79.96,96.94-176.12,96.53-285.82
					c-1.29-339.05-219.96-728.06-697.04-780.99c-9.83-1.09-16.93-9.95-15.83-19.79c1.09-9.84,9.98-16.88,19.79-15.84
					c230.1,25.53,421.12,127.83,552.42,295.86c113.1,144.74,175.78,329.63,176.5,520.62c0.45,118.04-34.63,221.74-104.28,308.23
					c-3.38,4.47-40.14,52.25-95.96,94.03C1991.52,1414.74,1987.75,1415.9,1984.02,1415.9z"/>
			</g>
			<g>
				<path class="st6" d="M1153.06,1539.29c3-0.16,6.24,0.33,8.07,0.56l4.7,0.65c2.9,0.45,6.15,1.02,9.39,1.76
					c6.6,1.39,13.53,3.48,20.49,5.62c6.97,2.19,14.02,4.56,21.09,7.19c7.06,2.77,14.17,5.6,21.23,9.41l0.04,0.02
					c1.33,0.72,1.83,2.38,1.11,3.71c-0.33,0.61-0.86,1.04-1.46,1.27c-15.01,5.54-29.93,8.24-45.06,9.91
					c-7.58,0.71-15.19,1.28-23.03,0.53c-3.97-0.39-7.93-0.96-12.16-2.13c-2.06-0.56-4.32-1.37-5.92-2.02
					c-1.69-0.73-2.02-1.09-2.64-1.69l-6.45-6.18c-6.63-6.36-6.85-16.88-0.49-23.51C1145,1541.22,1149.01,1539.52,1153.06,1539.29z"
					/>
			</g>
			<g>
				<path class="st6" d="M1143.78,1573.72c-0.74,0-1.49-0.05-2.24-0.14c-189.79-23.68-348.63-82.73-459.35-170.79
					c-123.52-98.23-186.45-228.2-187.05-386.28c-0.57-149.22,36.81-295.75,108.08-423.78c79.16-142.19,197.6-253.54,342.51-322.03
					c8.92-4.23,19.63-0.41,23.86,8.54c4.23,8.95,0.41,19.63-8.54,23.86c-318.51,150.52-431,467.14-430.07,713.26
					c1.07,282.89,225.23,473.02,614.99,521.64c9.82,1.23,16.79,10.18,15.57,20C1160.41,1567.08,1152.69,1573.72,1143.78,1573.72z"/>
			</g>
			<g>
				<path class="st22" d="M1498.58,967.46c17.52,118.74,113.28,146.31,238.4,196.05c78.51,31.19,132.65,77.65,168.09,118.56
					c101.75-92.01,135.23-211.5,134.81-322.32c-0.09-22.52-2.03-44.64-5.7-66.12c-73.9-76.21-190.45-149.22-357.78-128.43
					C1553.93,780.45,1486.01,882.25,1498.58,967.46z"/>
			</g>
			<g>
				<path class="st22" d="M677.19,964.92c0.42,109.64,34.09,227.53,134,318.34c35.21-40.43,88.3-85.83,164.71-116.86
					c124.74-50.69,220.29-78.99,236.9-197.86c11.92-85.31-56.77-186.59-179.35-200.9C871.2,748.7,757.24,817.49,683.63,891.61
					l0,0.04C679.3,915.41,677.1,939.91,677.19,964.92z"/>
			</g>
			<g>
				<path class="st6" d="M1168.63,237.72c-4.77,0-9.53-1.89-13.05-5.63c-42.57-45.21-50.66-112.89-23.38-195.72
					c6.59-20.01,23.63-33.83,44.48-36.06c20.9-2.24,40.63,7.71,51.37,25.97c78.87,134.1,237.92,167.21,239.52,167.53
					c9.7,1.93,16.01,11.36,14.08,21.06c-1.92,9.7-11.35,16.03-21.04,14.1c-7.15-1.41-176.26-36.25-263.47-184.53
					c-5.28-8.98-14.09-8.78-16.66-8.5c-2.53,0.27-11.05,1.91-14.25,11.63c-15.98,48.52-26.27,115.65,15.43,159.93
					c6.79,7.2,6.45,18.55-0.76,25.33C1177.45,236.11,1173.04,237.72,1168.63,237.72z"/>
			</g>
			<g>
				<path class="st6" d="M953.41,304.83c-6.58,0-12.92-3.64-16.05-9.93c-17.93-35.99-28.44-90.88-31.22-163.14
					c-0.87-22.59,11.28-42.61,31.71-52.25c20.56-9.7,43.88-6.33,60.87,8.81c60.03,53.43,113.87,84.92,155.67,91.08
					c9.79,1.44,16.56,10.55,15.12,20.34s-10.58,16.57-20.34,15.12c-49.44-7.28-108.07-40.85-174.28-99.77
					c-9.15-8.14-18.96-4.48-21.74-3.17c-2.74,1.29-11.66,6.45-11.19,18.46c2.55,66.2,12.05,117.57,27.48,148.54
					c4.41,8.86,0.81,19.62-8.05,24.03C958.82,304.23,956.1,304.83,953.41,304.83z"/>
			</g>
			<g>
				<path class="st6" d="M1247.29,1160.53c2.25-2.19,3.94-3.71,5.87-5.44c1.91-1.64,3.85-3.16,5.8-4.71
					c3.91-3.02,8.02-5.71,12.15-8.41c8.35-5.21,17.24-9.58,26.54-13.21c18.55-7.3,38.96-11.48,60.12-11.19
					c21.56,0.4,41.99,5.61,60.21,13.82c9.11,4.17,17.78,8.97,25.86,14.57c3.98,2.9,7.97,5.73,11.71,8.97
					c3.86,3.25,7.17,6.38,11.14,10.61c6.78,7.22,6.43,18.56-0.79,25.34c-4.22,3.96-9.84,5.49-15.15,4.63l-4.94-0.83
					c-1.49-0.25-3.57-1.06-5.46-1.58l-5.79-1.84c-3.89-1.18-7.7-2.47-11.58-3.54c-7.69-2.26-15.28-4.33-22.77-6.08
					c-14.97-3.58-29.48-5.65-43.19-5.84c-7.04,0.01-14.28,0.22-21.63,1.09c-7.36,0.62-14.83,1.87-22.43,3.23
					c-7.59,1.36-15.3,3.04-23.09,4.91c-3.94,0.84-7.81,1.9-11.75,2.87l-5.87,1.51c-1.92,0.39-4.04,1.09-5.53,1.24l-5.31,0.5
					c-9.83,0.92-18.54-6.29-19.47-16.12C1241.43,1169.44,1243.58,1164.17,1247.29,1160.53z"/>
			</g>
			<g>
				<path class="st19" d="M1959.28,2878.25c-17.92,50.49-213.04,82.31-329.22,61.38c-27.55-4.97-50.67-12.9-65.95-24.24
					c-54.44-40.5,41.44-101.8,85.4-126.3c-148.3-161.88-148.3-332.31-148.3-332.31l247.14,5.69l240.51,5.56
					C1914.66,2700.69,1977.61,2826.54,1959.28,2878.25z"/>
			</g>
			<g>
				<path class="st6" d="M1994.53,2469.81c0.31,22.08-2.55,42.69-5.74,63.16l-10,60.94c-3.23,20.27-6.14,40.6-7.69,61.08
					c-1.6,20.47-1.84,41.03-1.18,61.58c0.66,20.57,2.17,41.11,4.32,61.83c2.02,20.79,4.98,41.46,6.2,63.96
					c0.36,11.34,0.77,23.2-2.8,36.94c-0.51,1.74-0.98,3.4-1.58,5.2c-0.84,1.99-1.65,4.21-2.7,5.95c-1.01,1.85-2.07,3.65-3.22,5.19
					c-1.13,1.67-2.31,3.13-3.53,4.51c-4.85,5.59-10.03,9.76-15.2,13.38c-10.37,7.18-20.87,12.16-31.4,16.53
					c-10.52,4.35-21.09,7.84-31.69,10.94c-42.4,12.16-85.26,18.29-128.39,21.4c-43.15,2.76-86.6,2.6-130.44-4.71
					c-10.96-1.91-21.94-4.27-32.94-7.6c-10.99-3.33-22.03-7.52-32.89-13.66c-5.42-3.11-10.73-6.76-16.06-11.45
					c-5.21-4.92-10.27-10.89-13.75-18.61c-3.47-7.74-4.57-16.84-3.53-24.8c0.99-8.02,3.64-15,6.73-21.08
					c6.39-11.96,14.38-21.14,22.62-29.35c8.27-8.23,16.96-15.42,25.83-22.13c17.77-13.41,36.26-24.93,55.25-35.57l-4.49,27.76
					l-15.55-18.1c-5.07-6.12-10.61-11.86-15.21-18.37c-9.46-12.8-19.54-25.15-27.95-38.7c-4.35-6.67-8.87-13.24-13.05-20.01
					l-11.94-20.7c-4.14-6.82-7.63-13.98-11.2-21.11c-3.46-7.18-7.43-14.12-10.46-21.5c-13.58-28.91-23.48-59.28-33.31-89.76
					c-4.87-15.27-7.79-31.16-9.08-47.22c-0.86-16.15-0.07-32.51,6.71-48.99c1.35-3.29,5.12-4.86,8.41-3.51
					c1.45,0.6,2.56,1.66,3.24,2.95l0.3,0.56c7.61,14.44,12.38,28.81,16.35,43.17c1.06,3.59,1.93,7.2,2.91,10.8
					c0.88,3.6,1.74,7.22,2.75,10.8l5.05,21.74c3.11,14.58,7.26,28.98,12.35,43.03c2.66,6.99,5.2,14.03,7.95,20.98l8.97,20.57
					c2.83,6.93,6.59,13.44,9.83,20.18c3.35,6.69,6.62,13.43,10.52,19.83l11.22,19.46c3.94,6.37,8.2,12.54,12.29,18.82
					c7.89,12.76,17.44,24.38,26.32,36.45c4.32,6.14,9.58,11.54,14.36,17.32l14.66,17.09l0.37,0.43c6.45,7.52,5.58,18.85-1.94,25.3
					c-0.89,0.77-1.93,1.47-2.92,2.04c-17.8,9.97-35.18,20.83-51.08,32.84c-7.94,6-15.52,12.31-22.2,18.97
					c-6.72,6.6-12.5,13.72-16.05,20.41c-1.69,3.31-2.67,6.4-2.97,8.84c-0.28,2.48-0.05,4.2,0.76,6.15c0.89,1.93,2.66,4.19,5.07,6.54
					c2.62,2.25,5.96,4.69,9.7,6.81c15.16,8.56,34.63,13.66,54.13,17.06c39.44,6.62,80.98,6.94,121.91,4.27
					c40.94-2.92,82.07-8.91,120.8-20.05c9.64-2.82,19.12-5.97,28.09-9.68c8.95-3.68,17.56-7.92,24.53-12.78
					c3.47-2.4,6.5-4.99,8.55-7.38c0.54-0.6,1.02-1.17,1.35-1.71c0.46-0.56,0.68-1.05,0.96-1.51c0.37-0.49,0.32-0.84,0.59-1.23
					l0.69-2.38c1.88-6.7,2.02-16.26,1.59-25.91c-1.04-19.64-3.96-40.79-6.04-61.97c-2.21-21.23-3.81-42.78-4.49-64.37
					c-0.71-21.6-0.27-43.27,0.67-64.9c1.02-21.62,2.56-43.28,5.79-64.7c7.01-42.6,17.04-85.35,42.59-121.9
					c1.98-2.83,5.88-3.52,8.71-1.54c1.7,1.19,2.63,3.07,2.67,5V2469.81z"/>
			</g>
			<g>
				<path class="st0" d="M482.43,1698.68H368.9L306,2066.66h176.42c50.82,0,96.8-20.61,130.11-53.88
					c33.27-33.32,53.88-79.29,53.88-130.11C666.42,1781.07,584.02,1698.68,482.43,1698.68z M561.08,1961.33
					c-20.17,20.13-47.96,32.59-78.66,32.59h-90.2l38.02-222.49h52.18c61.39,0,111.25,49.8,111.25,111.25
					C593.67,1913.42,581.21,1941.2,561.08,1961.33z"/>
			</g>
			<g class="st5">
				<path class="st6" d="M665.6,1865.49c-4.08,43.95-23.61,83.43-53.05,112.91c-33.33,33.29-79.3,53.9-130.11,53.9H311.87
					l-5.87,34.37h176.44c50.81,0,96.78-20.61,130.11-53.9c33.24-33.29,53.85-79.26,53.85-130.11
					C666.41,1876.87,666.14,1871.13,665.6,1865.49z M430.25,1771.44h52.2c55.56,0,101.66,40.77,109.9,94.04
					c0.9-5.6,1.34-11.34,1.34-17.2c0-61.43-49.87-111.25-111.25-111.25h-52.2l-38.04,222.5h5.87L430.25,1771.44z"/>
			</g>
			<g>
				<path class="st6" d="M482.43,2084.58H306c-5.28,0-10.29-2.33-13.7-6.37c-3.41-4.04-4.86-9.37-3.97-14.58l62.9-367.98
					c1.47-8.61,8.94-14.9,17.67-14.9h113.53c111.33,0,201.91,90.58,201.91,201.91c0,53.89-20.99,104.6-59.12,142.78
					C587.03,2063.58,536.32,2084.58,482.43,2084.58z M327.25,2048.74h155.18c44.33,0,86.04-17.27,117.45-48.64
					c31.34-31.39,48.62-73.1,48.62-117.43c0-91.57-74.5-166.07-166.07-166.07h-98.41L327.25,2048.74z M482.43,2011.84h-90.2
					c-5.28,0-10.29-2.33-13.7-6.37c-3.41-4.04-4.86-9.37-3.97-14.57l38.02-222.5c1.47-8.61,8.93-14.9,17.67-14.9h52.18
					c71.22,0,129.17,57.95,129.17,129.17c0,34.5-13.44,66.93-37.84,91.33c0,0-0.01,0.01-0.01,0.01
					C549.3,1998.41,516.87,2011.84,482.43,2011.84z M413.47,1975.99h68.96c24.88,0,48.32-9.71,66-27.35
					c17.62-17.63,27.33-41.06,27.33-65.98c0-51.46-41.87-93.33-93.33-93.33h-37.07L413.47,1975.99z M561.08,1961.33h0.05H561.08z"/>
			</g>
			<g>
				<path class="st6" d="M452.47,2016.1h-90.2c-5.28,0-10.29-2.33-13.7-6.37c-3.41-4.04-4.86-9.37-3.97-14.58l38.02-222.5
					c1.47-8.61,8.93-14.9,17.67-14.9h52.18c71.23,0,129.17,57.95,129.17,129.17c0,34.49-13.44,66.93-37.84,91.33
					C519.34,2002.66,486.9,2016.1,452.47,2016.1z M383.51,1980.25h68.96c24.88,0,48.32-9.71,66-27.35
					c17.62-17.62,27.33-41.05,27.33-65.97c0-51.46-41.87-93.33-93.33-93.33h-37.06L383.51,1980.25z"/>
			</g>
			<g>
				<path class="st6" d="M452.47,2016.1h-90.2c-5.28,0-10.29-2.33-13.7-6.37c-3.41-4.04-4.86-9.37-3.97-14.58l38.02-222.5
					c1.47-8.61,8.93-14.9,17.67-14.9h52.18c71.23,0,129.17,57.95,129.17,129.17c0,34.49-13.44,66.93-37.84,91.33
					C519.34,2002.66,486.9,2016.1,452.47,2016.1z M383.51,1980.25h68.96c24.88,0,48.32-9.71,66-27.35
					c17.62-17.62,27.33-41.05,27.33-65.97c0-51.46-41.87-93.33-93.33-93.33h-37.06L383.51,1980.25z"/>
			</g>
			<g>
				<path class="st0" d="M364.07,2115.35c-41.76,10.8-84.63,16.2-127.39,16.2c-42.87,0-85.63-5.4-127.45-16.2
					c-59.91-100.28-91.31-214.64-91.31-330.9c0-13.7,0.39-27.34,1.28-41.04l6.51-103.23c0,21.99,94.43,39.81,210.97,39.81
					c116.48,0,210.91-17.82,210.91-39.81l6.57,103.23C462.4,1873.65,431,2003.33,364.07,2115.35z"/>
			</g>
			<g class="st5">
				<path class="st6" d="M364.07,2115.36c-41.76,10.8-84.64,16.17-127.38,16.17c-42.88,0-85.67-5.38-127.47-16.17
					c-9.86-16.53-18.95-33.42-27.24-50.63c0.31,0.58,0.67,1.21,1.03,1.79c41.8,10.8,84.59,16.22,127.42,16.22c0.43,0,0.86,0,1.28,0
					c79.68-0.2,150.91-50.81,178.27-125.65c30.53-83.51,43.62-172.86,37.98-262.49l-2.33-36.74c14.07-5.33,21.95-11.34,21.95-17.7
					l6.59,103.23C462.42,1873.64,431.01,2003.31,364.07,2115.36z"/>
			</g>
			<g>
				<path class="st0" d="M447.59,1640.19c0,21.99-94.43,39.81-210.91,39.81c-116.54,0-210.97-17.82-210.97-39.81
					c0-21.99,94.43-39.87,210.97-39.87C353.16,1600.32,447.59,1618.2,447.59,1640.19z"/>
			</g>
			<g>
				<path class="st0" d="M447.6,1640.17c0,7.27-10.28,14.06-28.22,19.93c-36.47,11.88-104.6,19.88-182.68,19.88
					s-146.26-8-182.78-19.88c-17.94-5.87-28.22-12.66-28.22-19.93c0-21.97,94.47-39.86,211-39.86
					C353.18,1600.31,447.6,1618.2,447.6,1640.17z"/>
			</g>
			<g class="st5">
				<path class="st6" d="M447.6,1640.17c0,7.27-10.28,14.06-28.22,19.93c-36.47,11.88-104.6,19.88-182.68,19.88
					s-146.26-8-182.78-19.88c-17.94-5.87-28.22-12.66-28.22-19.93c0-21.97,94.47-39.86,211-39.86
					C353.18,1600.31,447.6,1618.2,447.6,1640.17z"/>
			</g>
			<g>
				<path class="st6" d="M419.37,1660.1c-36.47,11.88-104.6,19.88-182.68,19.88s-146.26-8-182.78-19.88
					c36.52-11.93,104.7-19.93,182.78-19.93S382.9,1648.17,419.37,1660.1z"/>
			</g>
			<g>
				<path class="st6" d="M236.68,2149.48c-44.47,0-88.85-5.64-131.93-16.77c-4.57-1.18-8.48-4.11-10.9-8.16
					C32.45,2021.78,0,1904.18,0,1784.45c0-14.74,0.43-28.54,1.31-42.19l6.51-103.2c0.6-9.47,8.46-16.79,17.88-16.79
					c0.19,0,0.38,0,0.58,0.01c8.2,0.26,14.97,6,16.84,13.63c12.12,9.42,79.22,26.17,193.56,26.17c114.3,0,181.39-16.75,193.51-26.17
					c1.87-7.64,8.64-13.37,16.84-13.63c9.88-0.44,17.84,7.12,18.46,16.77l6.57,103.23c8.51,134.45-23.51,266.64-92.59,382.26
					c-2.42,4.05-6.33,6.98-10.9,8.16C325.54,2143.83,281.17,2149.48,236.68,2149.48z M364.07,2115.35h0.05H364.07z M120.86,2099.79
					c75.83,18.38,155.89,18.37,231.58,0c62.75-107.85,91.73-230.52,83.83-355.24l-4.44-69.85c-11.23,4.28-25.39,7.99-42.69,11.25
					c-40.89,7.72-95.04,11.97-152.46,11.97c-57.44,0-111.61-4.25-152.5-11.97c-17.3-3.26-31.46-6.97-42.68-11.25l-4.41,69.84
					c-0.83,12.91-1.25,25.95-1.25,39.91C35.84,1895.24,65.22,2004.11,120.86,2099.79z"/>
			</g>
			<g>
				<path class="st6" d="M236.68,1697.92c-57.44,0-111.61-4.25-152.5-11.97c-52.83-9.97-76.38-24.08-76.38-45.76
					s23.55-35.8,76.37-45.79c40.92-7.74,95.09-12,152.51-12c57.4,0,111.55,4.26,152.47,12c52.82,9.99,76.37,24.11,76.37,45.79
					c0,21.68-23.55,35.8-76.37,45.76C348.25,1693.67,294.1,1697.92,236.68,1697.92z M51.31,1640.18
					c23.44,9.47,86.88,21.89,185.37,21.89c98.46,0,161.88-12.43,185.32-21.89c-23.43-9.48-86.87-21.94-185.32-21.94
					C138.19,1618.25,74.75,1630.7,51.31,1640.18z M431.28,1645.46h0.05H431.28z"/>
			</g>
			<g>
				<path class="st0" d="M681.14,1807.58c-5.72,26.83-38.76,25.1-94.31,25.1c-63.14,0-98.86,18.66-114.32-21.11
					c-8.61-22.15-5.43-55.63,22.95-69.31c21.97-10.58,57.81-13.09,92.77-5.26C655.12,1752,685.43,1787.43,681.14,1807.58z"/>
			</g>
			<g class="st5">
				<path class="st6" d="M681.02,1808.09c-6,26.3-39.02,24.6-94.18,24.6c-63.13,0-98.88,18.64-114.34-21.1
					c-8.6-22.18-5.42-55.65,22.98-69.31c0.22-0.09,0.45-0.22,0.67-0.31c-0.45,5.65-0.09,11.25,0.9,16.4
					c8.11,41.89,46.6,29.93,108.7,41.18C639.21,1805.63,664.21,1810.83,681.02,1808.09z"/>
			</g>
			<g>
				<path class="st6" d="M514.15,1854.9c-24.98,0-46.54-6.49-58.34-36.83c-12.16-31.27-5.12-74.13,31.88-91.95
					c26.23-12.63,66.25-15.16,104.47-6.6c75.31,16.88,113.3,59.92,106.51,91.79v0c-8.41,39.48-49.93,39.38-102.35,39.3l-9.49-0.01
					c-16.37,0-31.04,1.34-43.98,2.52C533.03,1854.02,523.35,1854.9,514.15,1854.9z M547.17,1750.4c-17.17,0-32.94,2.73-43.93,8.02
					c-19.74,9.51-19.08,33.67-14.03,46.66c5.65,14.53,11.28,15.91,50.38,12.35c13.7-1.25,29.23-2.67,47.24-2.67l9.56,0.01
					c41.45,0.06,64.96-0.4,67.22-10.91c1.12-7.38-20.58-36.2-79.3-49.36C572.02,1751.75,559.24,1750.4,547.17,1750.4z
					 M681.14,1807.58h0.05H681.14z"/>
			</g>
			<g>
				<path class="st0" d="M681.14,1890.02c-5.72,26.83-38.76,25.1-94.31,25.1c-63.14,0-98.86,18.66-114.32-21.11
					c-8.61-22.15-5.43-55.63,22.95-69.31c21.97-10.58,57.81-13.09,92.77-5.26C655.12,1834.44,685.43,1869.87,681.14,1890.02z"/>
			</g>
			<g class="st5">
				<path class="st6" d="M680.75,1891.65c-6.68,25.09-39.52,23.48-93.91,23.48c-63.13,0-98.88,18.64-114.34-21.1
					c-8.6-22.18-5.42-55.65,22.98-69.31c3.72-1.79,7.84-3.36,12.32-4.66c-2.29,9.81-2.06,20.03,0.04,28.81
					c9.95,41.49,47.85,27.82,110.44,36.29C644.1,1888.65,664.93,1891.88,680.75,1891.65z"/>
			</g>
			<g>
				<path class="st6" d="M514.15,1937.34c-24.98,0-46.54-6.49-58.34-36.83c-12.16-31.27-5.12-74.13,31.88-91.95
					c26.23-12.63,66.25-15.16,104.47-6.6c75.31,16.88,113.3,59.92,106.51,91.79v0c-8.41,39.48-49.93,39.4-102.35,39.3l-9.49-0.01
					c-16.37,0-31.04,1.34-43.98,2.52C533.03,1936.46,523.35,1937.34,514.15,1937.34z M547.16,1832.84
					c-17.17,0-32.93,2.73-43.92,8.02c-19.74,9.51-19.08,33.67-14.03,46.66c5.65,14.53,11.28,15.91,50.38,12.35
					c13.7-1.25,29.23-2.67,47.24-2.67l9.56,0.01c41.45,0.09,64.96-0.39,67.22-10.91c1.12-7.38-20.58-36.2-79.29-49.36
					C572.02,1834.19,559.24,1832.84,547.16,1832.84z M681.14,1890.02h0.05H681.14z"/>
			</g>
			<g>
				<path class="st0" d="M681.14,1977.31c-5.72,26.83-38.76,25.1-94.31,25.1c-63.14,0-98.86,18.66-114.32-21.11
					c-8.61-22.15-5.43-55.63,22.95-69.31c21.97-10.58,57.81-13.09,92.77-5.26C655.12,1921.73,685.43,1957.16,681.14,1977.31z"/>
			</g>
			<g class="st5">
				<path class="st6" d="M681.15,1977.32c-5.73,26.84-38.8,25.09-94.31,25.09c-63.13,0-98.88,18.68-114.34-21.1
					c-8.56-22-5.47-55.29,22.54-69.09c-2.15,11.78-0.67,24.1,3.23,34.14c15.46,39.74,51.17,21.1,114.3,21.1
					c28.67,0,51.35,0.45,67.34-2.82C681.55,1969.26,681.96,1973.56,681.15,1977.32z"/>
			</g>
			<g>
				<path class="st6" d="M514.15,2024.63c-24.98,0-46.54-6.49-58.34-36.83c-12.16-31.27-5.12-74.13,31.88-91.95
					c26.23-12.63,66.25-15.15,104.47-6.6c75.31,16.88,113.3,59.92,106.51,91.79v0c-8.41,39.47-49.93,39.41-102.34,39.3l-9.49-0.01
					c-16.37,0-31.04,1.34-43.98,2.52C533.03,2023.75,523.35,2024.63,514.15,2024.63z M547.17,1920.13
					c-17.17,0-32.94,2.73-43.93,8.02c-19.75,9.51-19.08,33.67-14.03,46.66c5.65,14.53,11.3,15.91,50.38,12.35
					c13.71-1.25,29.24-2.67,47.24-2.67l9.56,0.01c41.41,0.08,64.96-0.39,67.22-10.91c1.12-7.38-20.57-36.2-79.3-49.36
					C572.02,1921.48,559.24,1920.13,547.17,1920.13z M681.14,1977.32h0.05H681.14z"/>
			</g>
			<g>
				<path class="st0" d="M1273.51,2845.14c0,0-136.79,37.14-188.94,36.02c-10.93-0.22-18.15-2.15-19.62-6.41
					c-8.38-24.69,80.69-115.73,152.07-115.73c13.84,0,35.57,5.69,47.85,28.63C1271.81,2800.64,1275.7,2819.1,1273.51,2845.14z"/>
			</g>
			<g>
				<path class="st6" d="M1087.03,2896.27c-24.31,0-32.78-6.4-36.28-16.69c-3.89-11.46,0.53-25.83,13.51-43.96
					c26.47-36.95,93.32-91.63,152.73-91.63c9.21,0,32.6,2.14,50.82,21.98c16.71,18.19,23.65,45.25,20.65,80.42
					c-0.54,6.28-4.94,11.56-11.03,13.21c-0.51,0.14-51.07,13.83-102.03,24.3C1133.46,2892.53,1105.62,2896.27,1087.03,2896.27z
					 M1080.56,2866.19c24.73,2.62,106.31-13.68,178.52-32.76c0.35-20.98-4.22-37.16-13.39-47.15
					c-10.16-11.07-23.45-12.27-28.7-12.27C1159.2,2774.02,1090.17,2841.4,1080.56,2866.19z M1273.49,2845.12h0.05H1273.49z"/>
			</g>
			<g class="st5">
				<path class="st6" d="M1273.51,2845.14c0,0-136.79,37.14-188.94,36.02c13.8-34.41,88.62-102.38,150.27-102.38
					c8.38,0,19.71,2.06,30.02,8.87C1271.81,2800.64,1275.7,2819.1,1273.51,2845.14z"/>
			</g>
			<g>
				<path class="st0" d="M1331.66,2869.37c0,0-112.19,30.47-172.09,35.4c-20.12,1.66-34.32,0.45-36.43-5.78
					c-8.38-24.69,80.69-115.73,152.02-115.73c9.05,0,21.51,2.42,32.44,10.57C1322.88,2805.08,1335.25,2827.35,1331.66,2869.37z"/>
			</g>
			<g>
				<path class="st6" d="M1145.22,2920.52c-24.31,0-32.78-6.4-36.28-16.69c-3.89-11.46,0.53-25.83,13.51-43.96
					c26.47-36.95,93.32-91.63,152.73-91.63c9.21,0,32.6,2.14,50.82,21.98c16.7,18.19,23.65,45.25,20.64,80.42
					c-0.54,6.28-4.94,11.56-11.03,13.21c-0.51,0.14-51.07,13.83-102.03,24.3C1191.65,2916.78,1163.8,2920.52,1145.22,2920.52z
					 M1138.75,2890.44c24.75,2.62,106.31-13.68,178.52-32.76c0.35-20.98-4.22-37.16-13.38-47.15
					c-10.17-11.07-23.46-12.26-28.7-12.26C1217.39,2798.27,1148.36,2865.65,1138.75,2890.44z M1331.68,2869.36h0.05H1331.68z"/>
			</g>
			<g class="st5">
				<path class="st6" d="M1331.66,2869.37c0,0-112.19,30.47-172.09,35.4c1.79-29.08,81.45-107.53,148.03-110.94
					C1322.88,2805.08,1335.25,2827.35,1331.66,2869.37z"/>
			</g>
			<g>
				<path class="st0" d="M1404.43,2888.76c0,0-200.13,54.35-208.53,29.64c-8.4-24.71,80.66-115.74,152.02-115.74
					C1369.6,2802.66,1410.59,2816.61,1404.43,2888.76z"/>
			</g>
			<g class="st5">
				<path class="st6" d="M1404.43,2888.77c0,0-200.14,54.35-208.52,29.62c-1.43-4.26,0-10.48,3.76-17.88
					c36.86-3.26,92.5-15.75,130.11-24.94c31.39-7.67,46.92-43.95,29.74-71.31l-0.25-0.39
					C1381.26,2808.44,1409.62,2827.89,1404.43,2888.77z"/>
			</g>
			<g>
				<path class="st6" d="M1217.96,2939.92c-24.31,0-32.79-6.4-36.28-16.69c-3.9-11.46,0.52-25.84,13.51-43.97
					c26.47-36.95,93.32-91.62,152.73-91.62c9.21,0,32.6,2.14,50.82,21.98c16.71,18.2,23.65,45.25,20.64,80.42
					c-0.54,6.28-4.94,11.56-11.03,13.21c-0.51,0.14-51.07,13.83-102.03,24.3C1264.39,2936.17,1236.55,2939.92,1217.96,2939.92z
					 M1211.49,2909.84c24.69,2.63,106.31-13.68,178.51-32.76c0.35-20.98-4.21-37.16-13.38-47.15
					c-10.16-11.07-23.45-12.27-28.7-12.27C1290.14,2817.67,1221.11,2885.05,1211.49,2909.84z M1404.42,2888.76h0.05H1404.42z"/>
			</g>
			<g class="st5">
				<path class="st6" d="M2177.08,2219.17c-21.06,70.52-54.8,128.1-99.64,173.84c3.27,61.96-37.9,138.54-111.92,164.66
					c-35.13,176.08,9.59,275.95-6.23,320.58c-17.92,50.49-213.04,82.31-329.22,61.38c85.04-19.58,301.32-75.88,248.87-162.54
					c-30.21-49.92-56.87-89.11-78.72-132.87c-32.5-65.11-98.91-106.45-171.67-107.11c-19.88-0.18-40.15-0.84-60.8-1.97
					c-191-10.44-495.45-111.43-561.44-360.36c-12.14-45.66-16.22-96.28-10.08-152.29c2.15,18.5,6.23,36.07,10.08,53.36
					c59.23,266.85,368.07,275.37,530.62,283.25c48.88,2.37,139.97-0.67,131.05-45.83c-34.45-174.33-9.01-396.34,22.81-500.11
					l296.69-63.58c-13.98,143.11,2.78,261.25,26.21,366.41c18.77,84.19,137.59,89.12,162.68,6.63c0.22-0.81,0.49-1.57,0.72-2.37
					c15.28-51.17,24.06-101.89,27.42-151.71C2209.96,2049.5,2202.62,2133.69,2177.08,2219.17z"/>
			</g>
			<g>
				<path class="st0" d="M2114.98,2570.57c-2.06,21.1-85.35,49.37-149.83,10.48c-9.18-5.6-18.01-12.5-26.17-21.01
					c-50.54-49.15,2.73-132.35,34.95-96.73c7.62,8.38,19.58,17.47,33.47,26.75c28.85,19.27,65.86,39.47,88.09,56.32
					c2.69,2.02,5.2,3.99,7.39,5.96C2110.86,2559.24,2115.52,2565.42,2114.98,2570.57z"/>
			</g>
			<g>
				<path class="st6" d="M2038.1,2618.41c-38.66,0-80.38-13.03-111.85-45.73c-22.81-22.36-31.32-54.21-22.74-85.25
					c7.04-25.47,24.24-44.92,43.83-49.57c14.52-3.44,29.06,1.45,39.89,13.43c12.48,13.8,42.17,31.89,68.36,47.85
					c52.36,31.91,79.58,49.66,77.23,73.22c-1.53,15.4-16.28,28.68-41.53,37.4C2075.36,2615.26,2057.09,2618.41,2038.1,2618.41z
					 M1956.43,2472.62c-0.33,0-0.59,0.06-0.82,0.12c-4.82,1.15-13.46,9.42-17.55,24.24c-2.43,8.81-6,31.35,13.42,50.25
					c0.15,0.15,0.3,0.3,0.44,0.44c32.5,33.92,74.54,36.11,96.69,34.41c22.87-1.76,38.98-8.58,45.95-13.23
					c-9.83-9.96-38.08-27.18-57.63-39.09c-29.65-18.07-60.32-36.76-76.29-54.42C1958.59,2473.07,1957.3,2472.62,1956.43,2472.62z"/>
			</g>
			<g>
				<path class="st0" d="M2199.21,2523.75c-1.52,15.46-46.87,34.81-96.33,28.59c-4.08-0.49-8.2-1.16-12.32-2.06
					c-23.66-5.02-47.49-16.35-67.34-37.05c-7.35-7.17-12.5-15.01-15.82-23.16c-19.62-47.72,23.25-104.04,50.76-73.61
					c3.81,4.21,8.69,8.56,14.38,13.04c19.62,15.46,48.61,32.21,73.88,47.85c5.02,3.09,9.9,6.18,14.52,9.18
					C2183.48,2501.13,2200.15,2514.26,2199.21,2523.75z"/>
			</g>
			<g>
				<path class="st6" d="M2122.34,2571.56c-38.66,0-80.38-13.03-111.85-45.73c-22.82-22.36-31.32-54.2-22.74-85.25
					c7.04-25.47,24.24-44.92,43.83-49.57c14.53-3.44,29.06,1.46,39.89,13.43c12.49,13.8,42.17,31.89,68.36,47.86
					c52.36,31.9,79.57,49.65,77.23,73.22c-1.53,15.4-16.27,28.68-41.51,37.4C2159.61,2568.41,2141.35,2571.56,2122.34,2571.56z
					 M2040.68,2425.76c-0.33,0-0.6,0.06-0.83,0.12c-4.82,1.15-13.46,9.42-17.55,24.24c-2.43,8.81-6,31.35,13.42,50.24
					c0.15,0.15,0.3,0.3,0.44,0.45c32.5,33.92,74.53,36.13,96.7,34.41c22.86-1.76,38.98-8.58,45.94-13.23
					c-9.83-9.96-38.08-27.18-57.62-39.08c-29.66-18.07-60.32-36.76-76.29-54.42C2042.84,2426.21,2041.55,2425.76,2040.68,2425.76z"
					/>
			</g>
			<g>
				<path class="st0" d="M2262.25,2458.56c-1.57,16-49.91,36.16-101.3,27.96c-5.6-0.94-11.29-2.15-16.89-3.81
					c-20.48-5.82-40.64-16.76-57.8-34.68c-5.96-5.78-10.48-12.05-13.71-18.55c-24.51-48.57,20.25-109.59,48.66-78.18
					c7.53,8.33,19.4,17.34,33.16,26.52C2199.3,2407.89,2264.09,2440.1,2262.25,2458.56z"/>
			</g>
			<g>
				<path class="st6" d="M2185.38,2506.38c-38.66,0-80.39-13.03-111.85-45.73c-22.82-22.36-31.31-54.21-22.74-85.26
					c7.04-25.46,24.24-44.92,43.84-49.57c14.51-3.43,29.05,1.46,39.88,13.44c12.48,13.8,42.17,31.89,68.36,47.85
					c52.36,31.9,79.57,49.65,77.23,73.22c-1.53,15.4-16.27,28.68-41.51,37.4C2222.65,2503.24,2204.38,2506.38,2185.38,2506.38z
					 M2103.72,2360.59c-0.33,0-0.6,0.06-0.82,0.12c-4.82,1.14-13.46,9.42-17.55,24.23c-2.44,8.81-6,31.35,13.42,50.25
					c0.15,0.14,0.3,0.29,0.44,0.44c32.5,33.92,74.53,36.12,96.7,34.41c22.86-1.76,38.98-8.58,45.94-13.23
					c-9.83-9.96-38.08-27.18-57.62-39.08c-29.66-18.07-60.32-36.76-76.29-54.42C2105.87,2361.04,2104.58,2360.59,2103.72,2360.59z"
					/>
			</g>
			<g class="st5">
				<path class="st6" d="M2146.43,2477.34c-0.76,1.79-1.57,3.58-2.37,5.38c-10.8,23.75-27.2,46.1-48.57,63.67
					c-1.61,1.3-3.23,2.6-4.93,3.9c-32.04,24.28-74.46,37.99-125.41,30.78c-9.18-5.6-18.01-12.5-26.17-21.01
					c-50.54-49.15,2.73-132.35,34.95-96.73c7.62,8.38,19.58,17.47,33.47,26.75c-19.62-47.72,23.25-104.04,50.76-73.61
					c3.81,4.21,8.69,8.56,14.38,13.04c-24.51-48.57,20.25-109.59,48.66-78.18c7.53,8.33,19.4,17.34,33.16,26.52
					c1.12,5.78,2.15,11.51,3.14,17.25C2161.89,2420.61,2157.86,2449.74,2146.43,2477.34z"/>
			</g>
			<g>
				<path class="st19" d="M1690.75,1813.16c-22.99,205.07-39.53,596.53,150.39,699.19c185.02,100.01,296.71-55.67,279.57-155.7
					c-29.83-174.09-115.09-356.43-88.44-629.47L1690.75,1813.16z"/>
			</g>
			<g class="st5">
				<path class="st6" d="M1841.13,2512.33c-25.27-13.67-46.91-32.44-65.32-55.24c178.05,87.41,284.69-63.8,267.89-161.7
					c-27.87-162.73-77.56-396.56-13.4-545.4c-19.94,260.49,61.43,437.47,90.42,606.65
					C2137.83,2456.68,2026.13,2612.38,1841.13,2512.33z"/>
			</g>
			<g>
				<path class="st6" d="M1696.69,1813.82c5.08,38.01,4.18,75.01,2.89,112.01c-0.99,36.99-2.99,73.86-3.82,110.78
					c-0.4,18.45-0.16,36.9,0.21,55.32c0.52,18.42,1.59,36.8,2.86,55.14c2.72,36.67,7.17,73.13,13.99,108.96
					c6.85,35.81,16.12,71.03,29.06,104.51c13.24,33.23,30.23,64.86,52.87,91.13l8.76,9.53c1.41,1.65,2.94,3.15,4.57,4.54l4.76,4.33
					c6.1,6.08,13.18,10.84,19.93,16.05c3.47,2.47,7.23,4.46,10.82,6.73l5.43,3.32c1.86,1.08,3.91,2,5.85,3.02
					c3.95,1.96,7.86,4.03,11.83,5.91l12.07,5.2c32.29,13.08,66.97,19.76,99.94,14.45c32.84-5.07,63.39-21.82,85.53-47.07
					c11.18-12.45,20.46-26.76,27.2-42.16c3.57-7.62,6.09-15.63,8.42-23.64c1.91-8.09,3.68-16.25,4.17-24.42
					c0.62-8.14,0.64-16.3-0.53-24.11c-0.33-3.66-1.42-8.55-2.22-12.96l-2.56-13.51c-1.58-9.01-3.68-18-5.64-26.99
					c-1.94-8.99-3.94-17.99-6.17-26.98c-8.5-35.98-18.17-71.98-27.32-108.3c-4.68-18.1-9.01-36.42-13.45-54.66
					c-4.08-18.39-8.46-36.68-12-55.25c-3.93-18.45-7-37.12-10.2-55.76c-1.67-9.3-2.7-18.74-4.08-28.1
					c-1.23-9.39-2.78-18.73-3.57-28.19l-2.85-28.3c-1.11-9.42-1.27-18.92-2-28.38l-0.98-14.2c-0.37-4.73-0.84-9.46-0.96-14.2
					l-1.23-28.47c-0.16-4.75-0.34-9.5-0.32-14.25c0.11-4.75,0.33-9.5,0.63-14.24c0.22-4.74,0.59-9.48,1.02-14.22
					c0.38-4.74,0.79-9.47,1.35-14.19c1.02-9.45,3.32-18.8,5.71-28.1c2.6-9.28,5.42-18.51,9.62-27.53c1.48-3.17,5.24-4.54,8.41-3.06
					c1.73,0.81,2.92,2.29,3.41,3.99l0.06,0.23c5.43,19.15,6.64,37.63,7.57,56.05c0.3,4.6,0.45,9.2,0.57,13.79
					c0.17,4.59,0.27,9.18,0.23,13.76c0.04,4.58,0.01,9.16-0.14,13.74c0.09,4.58,0.13,9.16,0.11,13.74l-0.28,27.5
					c-0.11,9.17,0.58,18.33,1.01,27.49c0.63,9.15,0.82,18.33,1.89,27.45l2.76,27.4c0.76,9.15,2.28,18.23,3.47,27.33
					c1.34,9.09,2.33,18.23,3.96,27.29c3.12,18.14,6.09,36.3,9.94,54.35c3.44,18.1,7.76,36.11,11.76,54.15
					c4.38,18.02,8.64,36.02,13.3,54.05c9.08,36.05,18.78,72.14,27.44,108.81c2.27,9.11,4.32,18.33,6.31,27.58
					c2.01,9.24,4.15,18.43,5.81,27.8l2.65,14c0.85,4.77,1.86,8.99,2.48,14.62c1.54,10.67,1.53,21.29,0.72,31.72
					c-0.68,10.48-2.82,20.65-5.24,30.69c-2.83,9.91-6,19.73-10.32,29.04c-8.25,18.79-19.5,36.18-33.23,51.5
					c-27.07,30.95-65.75,52.38-106.73,58.59c-20.45,3.22-41.23,2.84-61.24-0.32c-20.04-3.14-39.33-8.97-57.73-16.35l-13.63-5.88
					c-4.46-2.1-8.8-4.39-13.21-6.58c-2.19-1.14-4.4-2.15-6.58-3.4l-6.52-3.94c-4.3-2.7-8.78-5.15-12.92-8.08
					c-8.07-6.12-16.45-11.92-23.64-18.99l-5.59-5.1c-1.91-1.66-3.7-3.43-5.34-5.31l-10.18-11.07
					c-12.84-15.28-24.53-31.47-33.98-48.68c-9.97-16.99-17.77-34.88-25.16-52.82c-13.99-36.17-23.73-73.42-30.9-110.89
					c-7.13-37.49-11.71-75.24-14.52-113l-1.78-28.32l-1.23-28.32c-0.78-18.87-1.15-37.75-1.35-56.61
					c-0.57-37.72,0.11-75.47,3.7-112.97c3.28-37.5,9.13-74.85,22.39-111.03c1.17-3.19,4.7-4.83,7.89-3.66
					c2.22,0.81,3.68,2.77,3.98,4.95L1696.69,1813.82z"/>
			</g>
			<g>
				<path class="st0" d="M1676.57,2898.09c0,0-129.71,35.22-184.68,36.02c-13.26,0.22-22.22-1.57-23.84-6.41
					c-8.42-24.69,80.65-115.73,152.02-115.73c12.28,0,30.74,4.48,43.28,21.46C1673.07,2846.43,1679.26,2866.78,1676.57,2898.09z"/>
			</g>
			<g>
				<path class="st6" d="M1490.1,2949.24c-24.31,0-32.79-6.4-36.28-16.69c-3.9-11.46,0.52-25.84,13.51-43.96
					c26.47-36.95,93.32-91.62,152.73-91.62c9.21,0,32.6,2.14,50.82,21.98c16.7,18.19,23.65,45.25,20.64,80.42
					c-0.54,6.28-4.94,11.56-11.03,13.21c-0.51,0.14-51.07,13.83-102.03,24.3C1536.53,2945.49,1508.69,2949.24,1490.1,2949.24z
					 M1483.63,2919.16c24.73,2.64,106.31-13.68,178.51-32.76c0.35-20.98-4.22-37.16-13.39-47.15
					c-10.16-11.07-23.45-12.26-28.69-12.26C1562.28,2826.99,1493.25,2894.37,1483.63,2919.16z M1676.56,2898.08h0.05H1676.56z"/>
			</g>
			<g class="st5">
				<path class="st6" d="M1676.57,2898.09c0,0-129.71,35.22-184.68,36.02c11.34-33.6,88.17-104.57,151.17-104.57
					c5.82,0,12.99,0.99,20.3,3.9C1673.07,2846.43,1679.26,2866.78,1676.57,2898.09z"/>
			</g>
			<g>
				<path class="st0" d="M1734.77,2922.33c0,0-112.24,30.47-172.14,35.4c-20.07,1.66-34.28,0.45-36.38-5.78
					c-8.42-24.69,80.65-115.73,152.02-115.73c9.05,0,21.46,2.42,32.39,10.57C1725.94,2857.99,1738.35,2880.31,1734.77,2922.33z"/>
			</g>
			<g>
				<path class="st6" d="M1548.3,2973.48c-24.31,0-32.79-6.4-36.28-16.69c-3.9-11.46,0.52-25.84,13.51-43.97
					c26.47-36.95,93.32-91.62,152.73-91.62c9.21,0,32.6,2.14,50.82,21.98c16.7,18.19,23.65,45.25,20.64,80.42
					c-0.54,6.28-4.94,11.56-11.03,13.21c-0.51,0.14-51.07,13.83-102.03,24.3C1594.73,2969.74,1566.88,2973.48,1548.3,2973.48z
					 M1541.83,2943.4c24.75,2.61,106.31-13.68,178.51-32.76c0.35-20.99-4.22-37.16-13.39-47.15
					c-10.16-11.07-23.45-12.26-28.69-12.26C1620.47,2851.23,1551.44,2918.61,1541.83,2943.4z M1734.76,2922.33h0.05H1734.76z"/>
			</g>
			<g class="st5">
				<path class="st6" d="M1734.77,2922.33c0,0-112.24,30.47-172.14,35.4c1.88-29.17,81.45-107.53,148.03-110.94
					C1725.94,2857.99,1738.35,2880.31,1734.77,2922.33z"/>
			</g>
			<g>
				<path class="st0" d="M1807.5,2941.72c0,0-200.13,54.35-208.53,29.64s80.66-115.74,152.02-115.74
					C1772.67,2855.62,1813.67,2869.57,1807.5,2941.72z"/>
			</g>
			<g class="st5">
				<path class="st6" d="M1807.49,2941.73c0,0-200.1,54.35-208.52,29.62c-1.7-5.02,0.63-12.81,6.05-22
					c37.26-3.57,92.25-15.99,129.18-25.05c29.15-7.15,44.89-39.65,31.28-66.41l-0.2-0.39
					C1786.79,2863.19,1812.46,2883.53,1807.49,2941.73z"/>
			</g>
			<g>
				<path class="st6" d="M1621.04,2992.88c-24.31,0-32.78-6.4-36.28-16.69c-3.89-11.46,0.53-25.84,13.51-43.96
					c26.47-36.95,93.32-91.62,152.73-91.62c9.21,0,32.6,2.14,50.82,21.98c16.7,18.19,23.65,45.25,20.64,80.42
					c-0.54,6.28-4.94,11.56-11.03,13.21c-0.51,0.14-51.07,13.83-102.03,24.3C1667.47,2989.13,1639.62,2992.88,1621.04,2992.88z
					 M1614.57,2962.8c24.73,2.59,106.32-13.68,178.51-32.76c0.35-20.98-4.22-37.16-13.39-47.15
					c-10.16-11.07-23.45-12.26-28.69-12.26C1693.22,2870.63,1624.18,2938.01,1614.57,2962.8z M1807.5,2941.72h0.05H1807.5z"/>
			</g>
			<g>
				<path class="st6" d="M894.06,950.85c3.38-4.12,6.24-7.17,9.58-10.36c3.21-3.19,6.7-5.98,10.19-8.81
					c3.47-2.87,7.28-5.19,10.95-7.81c3.75-2.49,7.71-4.61,11.62-6.9c15.95-8.45,33.65-14.24,52.01-16.77
					c9.13-1.63,18.54-1.45,27.8-1.45c9.28,1.01,18.59,1.6,27.5,4.36c18.08,4.15,34.53,13.06,48.58,23.95
					c6.51,5.04,7.7,14.4,2.66,20.91c-3.33,4.3-8.54,6.28-13.57,5.67l-2.31-0.29c-3.89-0.48-7.59-1.18-11.23-1.9
					c-3.64-0.7-7.09-1.81-10.78-1.98c-3.59-0.45-7.12-0.97-10.59-1.55c-3.45-0.73-7.04-0.47-10.47-0.9
					c-6.89-0.91-13.81-0.42-20.62-0.71c-6.85,0.59-13.66,0.54-20.47,1.72c-13.63,1.74-27.3,4.84-40.96,9.28l-10.27,3.47
					c-3.37,1.31-6.87,2.5-10.23,3.93l-5.16,2.03c-1.68,0.73-3.34,1.5-5.09,2.17c-3.33,1.36-6.96,3.12-9.8,4.14l-2.89,1.04
					c-7.67,2.78-16.14-1.19-18.91-8.86C889.76,960.17,890.88,954.74,894.06,950.85z"/>
			</g>
			<g>
				<path class="st6" d="M1795.68,973.05c-2.84-1.03-6.48-2.78-9.8-4.14c-1.75-0.67-3.4-1.44-5.09-2.17l-5.16-2.03
					c-3.36-1.43-6.86-2.61-10.23-3.93l-10.27-3.47c-13.66-4.44-27.34-7.54-40.96-9.28c-6.81-1.18-13.63-1.14-20.47-1.72
					c-6.81,0.29-13.73-0.21-20.62,0.71c-3.43,0.43-7.02,0.18-10.47,0.9c-3.47,0.58-7,1.1-10.59,1.55
					c-3.68,0.17-7.14,1.28-10.78,1.98c-3.64,0.72-7.34,1.42-11.23,1.9l-2.29,0.28c-8.17,1-15.61-4.81-16.61-12.98
					c-0.66-5.4,1.67-10.49,5.67-13.6c14.05-10.89,30.5-19.8,48.58-23.95c8.91-2.76,18.22-3.35,27.5-4.36
					c9.27,0,18.68-0.18,27.8,1.45c18.36,2.54,36.06,8.32,52.01,16.77c3.9,2.29,7.87,4.41,11.62,6.9c3.67,2.62,7.48,4.94,10.95,7.81
					c3.48,2.83,6.97,5.62,10.18,8.81c3.34,3.19,6.21,6.24,9.58,10.36c5.17,6.31,4.25,15.61-2.06,20.78
					c-4.17,3.42-9.64,4.17-14.37,2.48L1795.68,973.05z"/>
			</g>
		</g>
		<g class="st23">
			<path class="st0" d="M231.27,1480.33c-1.43,24.58-32.68,34.39-47.45,14.69c-14.58-19.45-26.54-49.29-25.42-94.63
				c2.75-111.34,92.78-68.99,35.05-232.57c-34.16-96.8,51.1-143.89,51.1-143.89s-10.06,78.03,12.46,125.26
				c32.98,69.15,83.86,131.44,29.48,184.54C245.21,1374.02,233.81,1436.76,231.27,1480.33z"/>
		</g>
	</g>
</g>
</svg>
